G04 EAGLE Gerber RS-274X export*
G75*
%MOMM*%
%FSLAX34Y34*%
%LPD*%
%INBottom Copper*%
%IPPOS*%
%AMOC8*
5,1,8,0,0,1.08239X$1,22.5*%
G01*
%ADD10C,3.500000*%
%ADD11R,5.080000X2.540000*%
%ADD12C,0.204000*%
%ADD13C,0.609600*%
%ADD14C,0.756400*%
%ADD15C,1.270000*%

G36*
X542593Y12782D02*
X542593Y12782D01*
X542616Y12787D01*
X542659Y12787D01*
X584895Y18348D01*
X584918Y18355D01*
X584960Y18359D01*
X626550Y27580D01*
X626573Y27589D01*
X626614Y27597D01*
X667243Y40407D01*
X667264Y40418D01*
X667305Y40430D01*
X706663Y56732D01*
X706683Y56745D01*
X706723Y56760D01*
X744510Y76431D01*
X744529Y76445D01*
X744567Y76464D01*
X780496Y99353D01*
X780514Y99369D01*
X780526Y99377D01*
X780537Y99383D01*
X780539Y99384D01*
X780550Y99391D01*
X796949Y111974D01*
X797032Y112063D01*
X797115Y112150D01*
X797116Y112152D01*
X797117Y112153D01*
X797168Y112264D01*
X797218Y112373D01*
X797219Y112375D01*
X797219Y112377D01*
X797232Y112497D01*
X797245Y112617D01*
X797245Y112620D01*
X797245Y112622D01*
X797219Y112740D01*
X797193Y112858D01*
X797192Y112860D01*
X797192Y112862D01*
X797129Y112965D01*
X797067Y113069D01*
X797065Y113070D01*
X797064Y113072D01*
X796974Y113149D01*
X796880Y113229D01*
X796878Y113230D01*
X796876Y113231D01*
X796767Y113274D01*
X796652Y113321D01*
X796649Y113321D01*
X796648Y113322D01*
X796640Y113322D01*
X796494Y113338D01*
X789709Y115156D01*
X783630Y118666D01*
X778666Y123630D01*
X775156Y129709D01*
X773339Y136490D01*
X773339Y143510D01*
X775156Y150291D01*
X778666Y156370D01*
X783630Y161334D01*
X789709Y164844D01*
X796490Y166661D01*
X803510Y166661D01*
X810291Y164844D01*
X816370Y161334D01*
X821334Y156370D01*
X824844Y150291D01*
X826661Y143510D01*
X826661Y138334D01*
X826670Y138280D01*
X826669Y138224D01*
X826689Y138159D01*
X826700Y138091D01*
X826726Y138043D01*
X826743Y137990D01*
X826784Y137934D01*
X826816Y137874D01*
X826856Y137836D01*
X826888Y137791D01*
X826944Y137752D01*
X826994Y137704D01*
X827044Y137681D01*
X827089Y137649D01*
X827155Y137630D01*
X827217Y137601D01*
X827272Y137595D01*
X827325Y137579D01*
X827393Y137581D01*
X827461Y137574D01*
X827515Y137585D01*
X827571Y137587D01*
X827635Y137611D01*
X827702Y137626D01*
X827749Y137654D01*
X827801Y137674D01*
X827887Y137737D01*
X827913Y137752D01*
X827921Y137761D01*
X827936Y137773D01*
X845806Y154147D01*
X845821Y154166D01*
X845853Y154194D01*
X874633Y185602D01*
X874646Y185622D01*
X874676Y185653D01*
X900609Y219450D01*
X900620Y219471D01*
X900647Y219504D01*
X923536Y255433D01*
X923546Y255455D01*
X923569Y255490D01*
X943240Y293277D01*
X943247Y293300D01*
X943268Y293337D01*
X959570Y332695D01*
X959576Y332718D01*
X959593Y332757D01*
X972403Y373386D01*
X972407Y373409D01*
X972420Y373450D01*
X981641Y415040D01*
X981642Y415064D01*
X981652Y415105D01*
X987213Y457341D01*
X987212Y457365D01*
X987218Y457407D01*
X989077Y499967D01*
X989074Y499991D01*
X989077Y500033D01*
X987218Y542593D01*
X987213Y542616D01*
X987213Y542659D01*
X981652Y584895D01*
X981645Y584918D01*
X981641Y584960D01*
X972420Y626550D01*
X972411Y626573D01*
X972403Y626614D01*
X959593Y667243D01*
X959582Y667264D01*
X959570Y667305D01*
X943268Y706663D01*
X943255Y706683D01*
X943240Y706723D01*
X923569Y744509D01*
X923555Y744529D01*
X923536Y744567D01*
X900647Y780496D01*
X900631Y780514D01*
X900609Y780550D01*
X874676Y814347D01*
X874658Y814363D01*
X874633Y814398D01*
X845853Y845806D01*
X845834Y845821D01*
X845806Y845853D01*
X814398Y874633D01*
X814378Y874646D01*
X814347Y874676D01*
X780550Y900609D01*
X780529Y900620D01*
X780496Y900647D01*
X773795Y904916D01*
X773692Y904960D01*
X773591Y905007D01*
X773580Y905008D01*
X773569Y905013D01*
X773458Y905022D01*
X773347Y905034D01*
X773335Y905032D01*
X773324Y905032D01*
X773216Y905006D01*
X773106Y904982D01*
X773096Y904976D01*
X773085Y904973D01*
X772991Y904913D01*
X772895Y904856D01*
X772888Y904847D01*
X772878Y904841D01*
X772808Y904754D01*
X772735Y904669D01*
X772731Y904658D01*
X772724Y904649D01*
X772685Y904544D01*
X772643Y904441D01*
X772642Y904427D01*
X772639Y904418D01*
X772638Y904392D01*
X772625Y904274D01*
X772625Y884466D01*
X771134Y882975D01*
X760866Y882975D01*
X759375Y884466D01*
X759375Y905534D01*
X760866Y907025D01*
X767873Y907025D01*
X767904Y907030D01*
X767935Y907027D01*
X768025Y907050D01*
X768116Y907064D01*
X768143Y907079D01*
X768174Y907087D01*
X768252Y907136D01*
X768333Y907180D01*
X768355Y907202D01*
X768381Y907219D01*
X768439Y907291D01*
X768502Y907358D01*
X768516Y907386D01*
X768535Y907411D01*
X768567Y907497D01*
X768606Y907581D01*
X768610Y907612D01*
X768620Y907642D01*
X768623Y907734D01*
X768633Y907825D01*
X768627Y907856D01*
X768627Y907887D01*
X768601Y907976D01*
X768581Y908066D01*
X768565Y908093D01*
X768556Y908123D01*
X768502Y908198D01*
X768455Y908277D01*
X768431Y908297D01*
X768413Y908323D01*
X768282Y908428D01*
X744567Y923536D01*
X744550Y923543D01*
X744541Y923551D01*
X744530Y923555D01*
X744510Y923569D01*
X706723Y943240D01*
X706700Y943247D01*
X706663Y943268D01*
X667305Y959570D01*
X667282Y959576D01*
X667243Y959593D01*
X626614Y972403D01*
X626591Y972407D01*
X626550Y972420D01*
X584960Y981641D01*
X584936Y981642D01*
X584895Y981652D01*
X542659Y987213D01*
X542635Y987212D01*
X542593Y987218D01*
X500033Y989077D01*
X500009Y989074D01*
X499967Y989077D01*
X457407Y987218D01*
X457384Y987213D01*
X457341Y987213D01*
X415105Y981652D01*
X415082Y981645D01*
X415040Y981641D01*
X373450Y972420D01*
X373427Y972411D01*
X373386Y972403D01*
X332757Y959593D01*
X332736Y959582D01*
X332695Y959570D01*
X293337Y943268D01*
X293317Y943255D01*
X293277Y943240D01*
X255490Y923569D01*
X255471Y923555D01*
X255433Y923536D01*
X219504Y900647D01*
X219486Y900631D01*
X219450Y900609D01*
X185653Y874676D01*
X185637Y874658D01*
X185602Y874633D01*
X154194Y845853D01*
X154179Y845834D01*
X154147Y845806D01*
X125367Y814398D01*
X125354Y814378D01*
X125324Y814347D01*
X99391Y780550D01*
X99380Y780529D01*
X99353Y780496D01*
X76464Y744567D01*
X76454Y744545D01*
X76431Y744510D01*
X56760Y706723D01*
X56753Y706700D01*
X56732Y706663D01*
X40430Y667305D01*
X40424Y667282D01*
X40407Y667243D01*
X27597Y626614D01*
X27593Y626591D01*
X27580Y626550D01*
X18359Y584960D01*
X18358Y584936D01*
X18348Y584895D01*
X12787Y542659D01*
X12788Y542635D01*
X12782Y542593D01*
X10923Y500033D01*
X10926Y500009D01*
X10923Y499967D01*
X12782Y457407D01*
X12787Y457384D01*
X12787Y457341D01*
X18348Y415105D01*
X18355Y415082D01*
X18359Y415040D01*
X27580Y373450D01*
X27589Y373427D01*
X27597Y373386D01*
X40407Y332757D01*
X40418Y332736D01*
X40430Y332695D01*
X56732Y293337D01*
X56745Y293317D01*
X56760Y293277D01*
X76431Y255491D01*
X76445Y255471D01*
X76464Y255433D01*
X99353Y219504D01*
X99369Y219486D01*
X99391Y219450D01*
X125324Y185653D01*
X125342Y185637D01*
X125367Y185602D01*
X154147Y154194D01*
X154166Y154179D01*
X154194Y154147D01*
X172064Y137773D01*
X172110Y137743D01*
X172150Y137704D01*
X172212Y137676D01*
X172270Y137638D01*
X172323Y137624D01*
X172373Y137601D01*
X172441Y137593D01*
X172508Y137576D01*
X172563Y137580D01*
X172617Y137574D01*
X172685Y137588D01*
X172753Y137593D01*
X172804Y137614D01*
X172858Y137626D01*
X172917Y137661D01*
X172980Y137688D01*
X173022Y137724D01*
X173069Y137752D01*
X173114Y137804D01*
X173165Y137849D01*
X173193Y137897D01*
X173229Y137939D01*
X173255Y138003D01*
X173289Y138062D01*
X173300Y138116D01*
X173321Y138167D01*
X173333Y138273D01*
X173339Y138303D01*
X173337Y138315D01*
X173339Y138334D01*
X173339Y143510D01*
X175156Y150291D01*
X178666Y156370D01*
X183630Y161334D01*
X189709Y164844D01*
X196490Y166661D01*
X203510Y166661D01*
X210291Y164844D01*
X216370Y161334D01*
X221334Y156370D01*
X224844Y150291D01*
X226661Y143510D01*
X226661Y136490D01*
X224844Y129709D01*
X221334Y123630D01*
X216370Y118666D01*
X210291Y115156D01*
X203502Y113337D01*
X203397Y113320D01*
X203276Y113301D01*
X203274Y113300D01*
X203272Y113300D01*
X203166Y113244D01*
X203058Y113187D01*
X203056Y113185D01*
X203055Y113184D01*
X202973Y113099D01*
X202888Y113010D01*
X202887Y113008D01*
X202885Y113006D01*
X202835Y112897D01*
X202783Y112787D01*
X202783Y112785D01*
X202782Y112783D01*
X202768Y112660D01*
X202754Y112543D01*
X202755Y112541D01*
X202755Y112539D01*
X202781Y112419D01*
X202805Y112302D01*
X202806Y112300D01*
X202807Y112298D01*
X202869Y112194D01*
X202930Y112090D01*
X202932Y112089D01*
X202933Y112087D01*
X202939Y112082D01*
X203051Y111974D01*
X219450Y99391D01*
X219471Y99380D01*
X219504Y99353D01*
X255433Y76464D01*
X255455Y76454D01*
X255490Y76431D01*
X293277Y56760D01*
X293300Y56753D01*
X293337Y56732D01*
X332695Y40430D01*
X332718Y40424D01*
X332757Y40407D01*
X373386Y27597D01*
X373409Y27593D01*
X373450Y27580D01*
X415040Y18359D01*
X415064Y18358D01*
X415105Y18348D01*
X457341Y12787D01*
X457365Y12788D01*
X457407Y12782D01*
X499967Y10923D01*
X499991Y10926D01*
X500033Y10923D01*
X542593Y12782D01*
G37*
%LPC*%
G36*
X538888Y344411D02*
X538888Y344411D01*
X536834Y345262D01*
X456462Y425634D01*
X455611Y427688D01*
X455611Y540115D01*
X455597Y540205D01*
X455589Y540296D01*
X455577Y540325D01*
X455572Y540357D01*
X455529Y540438D01*
X455493Y540522D01*
X455467Y540554D01*
X455456Y540575D01*
X455433Y540597D01*
X455388Y540653D01*
X454575Y541466D01*
X454575Y562534D01*
X455388Y563347D01*
X455441Y563421D01*
X455501Y563491D01*
X455513Y563521D01*
X455532Y563547D01*
X455559Y563634D01*
X455593Y563719D01*
X455597Y563760D01*
X455604Y563782D01*
X455603Y563814D01*
X455611Y563885D01*
X455611Y603115D01*
X455597Y603205D01*
X455589Y603296D01*
X455577Y603325D01*
X455572Y603357D01*
X455529Y603438D01*
X455493Y603522D01*
X455467Y603554D01*
X455456Y603575D01*
X455433Y603597D01*
X455388Y603653D01*
X454575Y604466D01*
X454575Y625534D01*
X456066Y627025D01*
X466334Y627025D01*
X467825Y625534D01*
X467825Y604466D01*
X467012Y603653D01*
X466959Y603579D01*
X466899Y603510D01*
X466887Y603479D01*
X466868Y603453D01*
X466841Y603366D01*
X466807Y603281D01*
X466803Y603240D01*
X466796Y603218D01*
X466797Y603186D01*
X466789Y603115D01*
X466789Y563885D01*
X466803Y563795D01*
X466811Y563704D01*
X466823Y563675D01*
X466828Y563643D01*
X466871Y563562D01*
X466907Y563478D01*
X466933Y563446D01*
X466944Y563425D01*
X466967Y563403D01*
X467012Y563347D01*
X467825Y562534D01*
X467825Y541466D01*
X467012Y540653D01*
X466959Y540579D01*
X466899Y540509D01*
X466887Y540479D01*
X466868Y540453D01*
X466841Y540366D01*
X466807Y540281D01*
X466803Y540240D01*
X466796Y540218D01*
X466797Y540186D01*
X466789Y540115D01*
X466789Y431430D01*
X466803Y431340D01*
X466811Y431249D01*
X466823Y431219D01*
X466828Y431188D01*
X466871Y431107D01*
X466907Y431023D01*
X466933Y430991D01*
X466944Y430970D01*
X466967Y430948D01*
X467012Y430892D01*
X542092Y355812D01*
X542166Y355759D01*
X542235Y355699D01*
X542266Y355687D01*
X542292Y355668D01*
X542379Y355641D01*
X542464Y355607D01*
X542504Y355603D01*
X542527Y355596D01*
X542559Y355597D01*
X542630Y355589D01*
X897370Y355589D01*
X897460Y355603D01*
X897551Y355611D01*
X897581Y355623D01*
X897612Y355628D01*
X897693Y355671D01*
X897777Y355707D01*
X897809Y355733D01*
X897830Y355744D01*
X897852Y355767D01*
X897908Y355812D01*
X964188Y422092D01*
X964241Y422166D01*
X964301Y422235D01*
X964313Y422266D01*
X964332Y422292D01*
X964359Y422379D01*
X964393Y422464D01*
X964397Y422504D01*
X964404Y422527D01*
X964403Y422559D01*
X964411Y422630D01*
X964411Y441112D01*
X964635Y441653D01*
X964650Y441716D01*
X964675Y441777D01*
X964684Y441860D01*
X964691Y441892D01*
X964690Y441911D01*
X964693Y441944D01*
X964693Y442198D01*
X964873Y442378D01*
X964911Y442431D01*
X964957Y442478D01*
X964997Y442551D01*
X965017Y442578D01*
X965022Y442596D01*
X965038Y442625D01*
X965262Y443166D01*
X966834Y444738D01*
X967375Y444962D01*
X967431Y444997D01*
X967491Y445022D01*
X967556Y445074D01*
X967584Y445092D01*
X967597Y445107D01*
X967622Y445127D01*
X967802Y445307D01*
X968056Y445307D01*
X968121Y445317D01*
X968186Y445318D01*
X968266Y445341D01*
X968299Y445346D01*
X968316Y445356D01*
X968347Y445365D01*
X968888Y445589D01*
X971112Y445589D01*
X971653Y445365D01*
X971716Y445350D01*
X971777Y445325D01*
X971860Y445316D01*
X971892Y445309D01*
X971911Y445310D01*
X971944Y445307D01*
X972198Y445307D01*
X972378Y445127D01*
X972431Y445089D01*
X972478Y445043D01*
X972551Y445003D01*
X972578Y444983D01*
X972596Y444978D01*
X972625Y444962D01*
X973166Y444738D01*
X974738Y443166D01*
X974962Y442625D01*
X974997Y442569D01*
X975022Y442509D01*
X975074Y442444D01*
X975092Y442416D01*
X975107Y442403D01*
X975127Y442378D01*
X975307Y442198D01*
X975307Y441944D01*
X975317Y441879D01*
X975318Y441814D01*
X975341Y441734D01*
X975346Y441701D01*
X975356Y441684D01*
X975365Y441653D01*
X975589Y441112D01*
X975589Y418888D01*
X974738Y416834D01*
X903166Y345262D01*
X901112Y344411D01*
X538888Y344411D01*
G37*
%LPD*%
%LPC*%
G36*
X876216Y370975D02*
X876216Y370975D01*
X869223Y373872D01*
X863872Y379223D01*
X860975Y386216D01*
X860975Y393784D01*
X863872Y400777D01*
X869223Y406128D01*
X870639Y406715D01*
X870739Y406777D01*
X870839Y406836D01*
X870843Y406841D01*
X870848Y406844D01*
X870923Y406935D01*
X870999Y407023D01*
X871001Y407029D01*
X871005Y407034D01*
X871047Y407142D01*
X871091Y407251D01*
X871092Y407259D01*
X871093Y407264D01*
X871094Y407282D01*
X871109Y407418D01*
X871109Y521768D01*
X872463Y525036D01*
X930886Y583460D01*
X930939Y583534D01*
X930999Y583603D01*
X931011Y583633D01*
X931030Y583659D01*
X931057Y583746D01*
X931091Y583831D01*
X931095Y583872D01*
X931102Y583895D01*
X931101Y583927D01*
X931109Y583998D01*
X931109Y626002D01*
X931095Y626092D01*
X931087Y626183D01*
X931075Y626213D01*
X931070Y626245D01*
X931046Y626289D01*
X931045Y626293D01*
X931036Y626308D01*
X931027Y626325D01*
X930991Y626409D01*
X930965Y626441D01*
X930954Y626462D01*
X930931Y626484D01*
X930929Y626487D01*
X930919Y626504D01*
X930908Y626513D01*
X930886Y626540D01*
X908224Y649202D01*
X908166Y649244D01*
X908114Y649294D01*
X908067Y649316D01*
X908025Y649346D01*
X907956Y649367D01*
X907891Y649397D01*
X907839Y649403D01*
X907789Y649418D01*
X907718Y649416D01*
X907647Y649424D01*
X907596Y649413D01*
X907544Y649412D01*
X907476Y649387D01*
X907406Y649372D01*
X907361Y649345D01*
X907313Y649327D01*
X907257Y649283D01*
X907195Y649246D01*
X907161Y649206D01*
X907121Y649174D01*
X907082Y649113D01*
X907035Y649059D01*
X907016Y649011D01*
X906988Y648967D01*
X906970Y648897D01*
X906943Y648831D01*
X906935Y648759D01*
X906927Y648728D01*
X906929Y648705D01*
X906925Y648664D01*
X906925Y646668D01*
X906032Y645775D01*
X853968Y645775D01*
X853075Y646668D01*
X853075Y673332D01*
X853968Y674225D01*
X906032Y674225D01*
X906925Y673332D01*
X906925Y669652D01*
X906928Y669632D01*
X906926Y669613D01*
X906948Y669511D01*
X906964Y669409D01*
X906974Y669392D01*
X906978Y669372D01*
X907031Y669283D01*
X907080Y669192D01*
X907094Y669178D01*
X907104Y669161D01*
X907183Y669094D01*
X907258Y669022D01*
X907276Y669014D01*
X907291Y669001D01*
X907387Y668962D01*
X907481Y668919D01*
X907501Y668917D01*
X907519Y668909D01*
X907686Y668891D01*
X911768Y668891D01*
X915036Y667537D01*
X947537Y635036D01*
X948891Y631768D01*
X948891Y578232D01*
X947537Y574964D01*
X889114Y516540D01*
X889061Y516466D01*
X889001Y516397D01*
X888989Y516367D01*
X888970Y516341D01*
X888943Y516254D01*
X888909Y516169D01*
X888905Y516128D01*
X888898Y516105D01*
X888899Y516073D01*
X888891Y516002D01*
X888891Y407418D01*
X888910Y407304D01*
X888927Y407187D01*
X888929Y407182D01*
X888930Y407175D01*
X888985Y407073D01*
X889038Y406968D01*
X889043Y406964D01*
X889046Y406958D01*
X889130Y406878D01*
X889214Y406796D01*
X889220Y406792D01*
X889224Y406789D01*
X889241Y406781D01*
X889361Y406715D01*
X890777Y406128D01*
X896128Y400777D01*
X899025Y393784D01*
X899025Y386216D01*
X896128Y379223D01*
X890777Y373872D01*
X883784Y370975D01*
X876216Y370975D01*
G37*
%LPD*%
%LPC*%
G36*
X28888Y544411D02*
X28888Y544411D01*
X28347Y544635D01*
X28284Y544650D01*
X28223Y544675D01*
X28140Y544684D01*
X28108Y544691D01*
X28089Y544690D01*
X28056Y544693D01*
X27802Y544693D01*
X27622Y544873D01*
X27569Y544911D01*
X27522Y544957D01*
X27449Y544997D01*
X27422Y545017D01*
X27404Y545022D01*
X27375Y545038D01*
X26834Y545262D01*
X25262Y546834D01*
X25038Y547375D01*
X25003Y547431D01*
X24978Y547491D01*
X24926Y547556D01*
X24908Y547584D01*
X24893Y547597D01*
X24873Y547622D01*
X24693Y547802D01*
X24693Y548056D01*
X24683Y548121D01*
X24682Y548186D01*
X24659Y548266D01*
X24654Y548299D01*
X24644Y548316D01*
X24635Y548347D01*
X24411Y548888D01*
X24411Y551112D01*
X24635Y551653D01*
X24650Y551716D01*
X24675Y551777D01*
X24684Y551860D01*
X24691Y551892D01*
X24690Y551911D01*
X24693Y551944D01*
X24693Y552198D01*
X24873Y552378D01*
X24911Y552431D01*
X24957Y552478D01*
X24997Y552551D01*
X25017Y552578D01*
X25022Y552596D01*
X25038Y552625D01*
X25262Y553166D01*
X166834Y694738D01*
X168888Y695589D01*
X267370Y695589D01*
X267460Y695603D01*
X267551Y695611D01*
X267581Y695623D01*
X267613Y695628D01*
X267693Y695671D01*
X267777Y695707D01*
X267809Y695733D01*
X267830Y695744D01*
X267852Y695767D01*
X267908Y695812D01*
X353788Y781692D01*
X353841Y781766D01*
X353901Y781835D01*
X353913Y781866D01*
X353932Y781892D01*
X353959Y781979D01*
X353993Y782064D01*
X353997Y782104D01*
X354004Y782127D01*
X354003Y782159D01*
X354011Y782230D01*
X354011Y820115D01*
X353997Y820205D01*
X353989Y820296D01*
X353977Y820325D01*
X353972Y820357D01*
X353929Y820438D01*
X353893Y820522D01*
X353867Y820554D01*
X353856Y820575D01*
X353833Y820597D01*
X353822Y820611D01*
X353815Y820622D01*
X353808Y820629D01*
X353788Y820653D01*
X352975Y821466D01*
X352975Y842534D01*
X353788Y843347D01*
X353841Y843421D01*
X353901Y843491D01*
X353913Y843521D01*
X353932Y843547D01*
X353959Y843634D01*
X353993Y843719D01*
X353997Y843760D01*
X354004Y843782D01*
X354003Y843814D01*
X354011Y843885D01*
X354011Y883115D01*
X353997Y883205D01*
X353989Y883296D01*
X353977Y883325D01*
X353972Y883357D01*
X353929Y883438D01*
X353893Y883522D01*
X353867Y883554D01*
X353856Y883575D01*
X353833Y883597D01*
X353788Y883653D01*
X352975Y884466D01*
X352975Y905534D01*
X354466Y907025D01*
X364734Y907025D01*
X366225Y905534D01*
X366225Y884466D01*
X365412Y883653D01*
X365359Y883579D01*
X365299Y883509D01*
X365287Y883479D01*
X365268Y883453D01*
X365241Y883366D01*
X365207Y883281D01*
X365203Y883240D01*
X365196Y883218D01*
X365197Y883186D01*
X365189Y883115D01*
X365189Y843885D01*
X365203Y843795D01*
X365211Y843704D01*
X365223Y843675D01*
X365228Y843643D01*
X365271Y843562D01*
X365307Y843478D01*
X365333Y843446D01*
X365344Y843425D01*
X365367Y843403D01*
X365412Y843347D01*
X366225Y842534D01*
X366225Y821466D01*
X365412Y820653D01*
X365367Y820591D01*
X365337Y820560D01*
X365332Y820548D01*
X365299Y820509D01*
X365287Y820479D01*
X365268Y820453D01*
X365241Y820366D01*
X365207Y820281D01*
X365203Y820240D01*
X365196Y820218D01*
X365197Y820186D01*
X365189Y820115D01*
X365189Y778488D01*
X364338Y776434D01*
X274845Y686941D01*
X273166Y685262D01*
X271112Y684411D01*
X172630Y684411D01*
X172540Y684397D01*
X172449Y684389D01*
X172419Y684377D01*
X172388Y684372D01*
X172307Y684329D01*
X172223Y684293D01*
X172191Y684267D01*
X172170Y684256D01*
X172148Y684233D01*
X172092Y684188D01*
X33166Y545262D01*
X32625Y545038D01*
X32569Y545003D01*
X32509Y544978D01*
X32444Y544926D01*
X32416Y544908D01*
X32403Y544893D01*
X32378Y544873D01*
X32198Y544693D01*
X31944Y544693D01*
X31879Y544683D01*
X31814Y544682D01*
X31734Y544659D01*
X31701Y544654D01*
X31684Y544644D01*
X31653Y544635D01*
X31112Y544411D01*
X28888Y544411D01*
G37*
%LPD*%
%LPC*%
G36*
X718888Y454411D02*
X718888Y454411D01*
X718347Y454635D01*
X718284Y454650D01*
X718223Y454675D01*
X718140Y454684D01*
X718108Y454691D01*
X718089Y454690D01*
X718056Y454693D01*
X717802Y454693D01*
X717622Y454873D01*
X717569Y454911D01*
X717522Y454957D01*
X717449Y454997D01*
X717422Y455017D01*
X717404Y455022D01*
X717375Y455038D01*
X716834Y455262D01*
X715262Y456834D01*
X715038Y457375D01*
X715003Y457431D01*
X714978Y457491D01*
X714926Y457556D01*
X714908Y457584D01*
X714893Y457597D01*
X714873Y457622D01*
X714693Y457802D01*
X714693Y458056D01*
X714683Y458121D01*
X714682Y458186D01*
X714659Y458266D01*
X714654Y458299D01*
X714644Y458316D01*
X714635Y458347D01*
X714411Y458888D01*
X714411Y461112D01*
X714635Y461653D01*
X714650Y461716D01*
X714675Y461777D01*
X714684Y461860D01*
X714691Y461892D01*
X714690Y461911D01*
X714693Y461944D01*
X714693Y462198D01*
X714873Y462378D01*
X714911Y462431D01*
X714957Y462478D01*
X714997Y462551D01*
X715017Y462578D01*
X715022Y462596D01*
X715038Y462625D01*
X715262Y463166D01*
X774188Y522092D01*
X774241Y522166D01*
X774301Y522235D01*
X774313Y522266D01*
X774332Y522292D01*
X774359Y522379D01*
X774393Y522464D01*
X774397Y522504D01*
X774404Y522527D01*
X774403Y522559D01*
X774411Y522630D01*
X774411Y637370D01*
X774397Y637460D01*
X774389Y637551D01*
X774377Y637581D01*
X774372Y637612D01*
X774329Y637693D01*
X774293Y637777D01*
X774267Y637809D01*
X774256Y637830D01*
X774233Y637852D01*
X774188Y637908D01*
X727908Y684188D01*
X727834Y684241D01*
X727765Y684301D01*
X727734Y684313D01*
X727708Y684332D01*
X727621Y684359D01*
X727536Y684393D01*
X727496Y684397D01*
X727473Y684404D01*
X727441Y684403D01*
X727370Y684411D01*
X642630Y684411D01*
X642540Y684397D01*
X642449Y684389D01*
X642419Y684377D01*
X642388Y684372D01*
X642307Y684329D01*
X642223Y684293D01*
X642191Y684267D01*
X642170Y684256D01*
X642148Y684233D01*
X642092Y684188D01*
X594012Y636108D01*
X593959Y636034D01*
X593899Y635965D01*
X593887Y635934D01*
X593868Y635908D01*
X593841Y635821D01*
X593807Y635736D01*
X593803Y635696D01*
X593796Y635673D01*
X593797Y635641D01*
X593789Y635570D01*
X593789Y626885D01*
X593803Y626795D01*
X593811Y626704D01*
X593823Y626675D01*
X593828Y626643D01*
X593871Y626562D01*
X593907Y626478D01*
X593933Y626446D01*
X593944Y626425D01*
X593967Y626403D01*
X594012Y626347D01*
X594825Y625534D01*
X594825Y604466D01*
X594012Y603653D01*
X593959Y603579D01*
X593899Y603509D01*
X593887Y603479D01*
X593868Y603453D01*
X593841Y603366D01*
X593807Y603281D01*
X593803Y603240D01*
X593796Y603218D01*
X593797Y603186D01*
X593789Y603115D01*
X593789Y563885D01*
X593803Y563795D01*
X593811Y563704D01*
X593823Y563675D01*
X593828Y563643D01*
X593871Y563562D01*
X593907Y563478D01*
X593933Y563446D01*
X593944Y563425D01*
X593967Y563403D01*
X594012Y563347D01*
X594825Y562534D01*
X594825Y541466D01*
X593334Y539975D01*
X583066Y539975D01*
X581575Y541466D01*
X581575Y562534D01*
X582388Y563347D01*
X582441Y563421D01*
X582501Y563490D01*
X582513Y563521D01*
X582532Y563547D01*
X582559Y563634D01*
X582593Y563719D01*
X582597Y563760D01*
X582604Y563782D01*
X582603Y563814D01*
X582611Y563885D01*
X582611Y603115D01*
X582597Y603205D01*
X582589Y603296D01*
X582577Y603325D01*
X582572Y603357D01*
X582529Y603438D01*
X582493Y603522D01*
X582467Y603554D01*
X582456Y603575D01*
X582433Y603597D01*
X582388Y603653D01*
X581575Y604466D01*
X581575Y625534D01*
X582388Y626347D01*
X582441Y626421D01*
X582501Y626491D01*
X582513Y626521D01*
X582532Y626547D01*
X582559Y626634D01*
X582593Y626719D01*
X582597Y626760D01*
X582604Y626782D01*
X582603Y626814D01*
X582611Y626885D01*
X582611Y639312D01*
X583462Y641366D01*
X636834Y694738D01*
X638888Y695589D01*
X731112Y695589D01*
X733166Y694738D01*
X784738Y643166D01*
X785589Y641112D01*
X785589Y518888D01*
X784738Y516834D01*
X723166Y455262D01*
X722625Y455038D01*
X722569Y455003D01*
X722509Y454978D01*
X722444Y454926D01*
X722416Y454908D01*
X722403Y454893D01*
X722378Y454873D01*
X722198Y454693D01*
X721944Y454693D01*
X721879Y454683D01*
X721814Y454682D01*
X721734Y454659D01*
X721701Y454654D01*
X721684Y454644D01*
X721653Y454635D01*
X721112Y454411D01*
X718888Y454411D01*
G37*
%LPD*%
%LPC*%
G36*
X458888Y674411D02*
X458888Y674411D01*
X458347Y674635D01*
X458284Y674650D01*
X458223Y674675D01*
X458140Y674684D01*
X458108Y674691D01*
X458089Y674690D01*
X458056Y674693D01*
X457802Y674693D01*
X457622Y674873D01*
X457569Y674911D01*
X457522Y674957D01*
X457449Y674997D01*
X457422Y675017D01*
X457404Y675022D01*
X457375Y675038D01*
X456834Y675262D01*
X455262Y676834D01*
X455038Y677375D01*
X455003Y677431D01*
X454978Y677491D01*
X454926Y677556D01*
X454908Y677584D01*
X454893Y677597D01*
X454873Y677622D01*
X454693Y677802D01*
X454693Y678056D01*
X454683Y678121D01*
X454682Y678186D01*
X454659Y678266D01*
X454654Y678299D01*
X454644Y678316D01*
X454635Y678347D01*
X454411Y678888D01*
X454411Y831912D01*
X454517Y832168D01*
X454532Y832231D01*
X454557Y832292D01*
X454566Y832375D01*
X454573Y832407D01*
X454572Y832426D01*
X454575Y832459D01*
X454575Y842534D01*
X455388Y843347D01*
X455441Y843421D01*
X455501Y843491D01*
X455513Y843521D01*
X455532Y843547D01*
X455559Y843634D01*
X455593Y843719D01*
X455597Y843760D01*
X455604Y843782D01*
X455603Y843814D01*
X455611Y843885D01*
X455611Y883115D01*
X455597Y883205D01*
X455589Y883296D01*
X455577Y883325D01*
X455572Y883357D01*
X455529Y883438D01*
X455493Y883522D01*
X455467Y883554D01*
X455456Y883575D01*
X455433Y883597D01*
X455388Y883653D01*
X454575Y884466D01*
X454575Y905534D01*
X456066Y907025D01*
X466334Y907025D01*
X467825Y905534D01*
X467825Y884466D01*
X467012Y883653D01*
X466959Y883579D01*
X466899Y883510D01*
X466887Y883479D01*
X466868Y883453D01*
X466841Y883366D01*
X466807Y883281D01*
X466803Y883240D01*
X466796Y883218D01*
X466797Y883186D01*
X466789Y883115D01*
X466789Y843885D01*
X466803Y843795D01*
X466811Y843704D01*
X466823Y843675D01*
X466828Y843643D01*
X466871Y843562D01*
X466907Y843478D01*
X466933Y843446D01*
X466944Y843425D01*
X466967Y843403D01*
X467012Y843347D01*
X467825Y842534D01*
X467825Y821466D01*
X466331Y819972D01*
X466330Y819972D01*
X466311Y819974D01*
X466209Y819952D01*
X466107Y819936D01*
X466090Y819926D01*
X466070Y819922D01*
X465981Y819869D01*
X465890Y819820D01*
X465876Y819806D01*
X465859Y819796D01*
X465792Y819717D01*
X465720Y819642D01*
X465712Y819624D01*
X465699Y819609D01*
X465660Y819513D01*
X465617Y819419D01*
X465615Y819399D01*
X465607Y819381D01*
X465589Y819214D01*
X465589Y678888D01*
X465365Y678347D01*
X465350Y678284D01*
X465325Y678223D01*
X465316Y678140D01*
X465309Y678108D01*
X465310Y678089D01*
X465307Y678056D01*
X465307Y677802D01*
X465127Y677622D01*
X465089Y677569D01*
X465043Y677522D01*
X465003Y677449D01*
X464983Y677422D01*
X464978Y677404D01*
X464962Y677375D01*
X464738Y676834D01*
X463166Y675262D01*
X462625Y675038D01*
X462569Y675003D01*
X462509Y674978D01*
X462444Y674926D01*
X462416Y674908D01*
X462403Y674893D01*
X462378Y674873D01*
X462198Y674693D01*
X461944Y674693D01*
X461879Y674683D01*
X461814Y674682D01*
X461734Y674659D01*
X461701Y674654D01*
X461684Y674644D01*
X461653Y674635D01*
X461112Y674411D01*
X458888Y674411D01*
G37*
%LPD*%
%LPC*%
G36*
X538888Y404411D02*
X538888Y404411D01*
X538347Y404635D01*
X538284Y404650D01*
X538223Y404675D01*
X538140Y404684D01*
X538108Y404691D01*
X538089Y404690D01*
X538056Y404693D01*
X537802Y404693D01*
X537622Y404873D01*
X537569Y404911D01*
X537522Y404957D01*
X537449Y404997D01*
X537422Y405017D01*
X537404Y405022D01*
X537375Y405038D01*
X536834Y405262D01*
X535262Y406834D01*
X535038Y407375D01*
X535003Y407431D01*
X534978Y407491D01*
X534926Y407556D01*
X534908Y407584D01*
X534893Y407597D01*
X534873Y407622D01*
X534693Y407802D01*
X534693Y408056D01*
X534683Y408121D01*
X534682Y408186D01*
X534659Y408266D01*
X534654Y408299D01*
X534644Y408316D01*
X534635Y408347D01*
X534411Y408888D01*
X534411Y411112D01*
X534635Y411653D01*
X534650Y411716D01*
X534675Y411777D01*
X534684Y411860D01*
X534691Y411892D01*
X534690Y411911D01*
X534693Y411944D01*
X534693Y412198D01*
X534873Y412378D01*
X534911Y412431D01*
X534957Y412478D01*
X534997Y412551D01*
X535017Y412578D01*
X535022Y412596D01*
X535038Y412625D01*
X535262Y413166D01*
X556988Y434892D01*
X557041Y434966D01*
X557101Y435035D01*
X557113Y435066D01*
X557132Y435092D01*
X557159Y435179D01*
X557193Y435264D01*
X557197Y435304D01*
X557204Y435327D01*
X557203Y435359D01*
X557211Y435430D01*
X557211Y540115D01*
X557197Y540205D01*
X557189Y540296D01*
X557177Y540325D01*
X557172Y540357D01*
X557129Y540438D01*
X557093Y540522D01*
X557067Y540554D01*
X557056Y540575D01*
X557033Y540597D01*
X556988Y540653D01*
X556175Y541466D01*
X556175Y562534D01*
X556988Y563347D01*
X557041Y563421D01*
X557101Y563490D01*
X557113Y563521D01*
X557132Y563547D01*
X557159Y563634D01*
X557193Y563719D01*
X557197Y563760D01*
X557204Y563782D01*
X557203Y563814D01*
X557211Y563885D01*
X557211Y603115D01*
X557197Y603205D01*
X557189Y603296D01*
X557177Y603325D01*
X557172Y603357D01*
X557129Y603438D01*
X557093Y603522D01*
X557067Y603554D01*
X557056Y603575D01*
X557033Y603597D01*
X556988Y603653D01*
X556175Y604466D01*
X556175Y625534D01*
X557666Y627025D01*
X567934Y627025D01*
X569425Y625534D01*
X569425Y604466D01*
X568612Y603653D01*
X568559Y603579D01*
X568499Y603509D01*
X568487Y603479D01*
X568468Y603453D01*
X568441Y603366D01*
X568407Y603281D01*
X568403Y603240D01*
X568396Y603218D01*
X568397Y603186D01*
X568389Y603115D01*
X568389Y563885D01*
X568403Y563795D01*
X568411Y563704D01*
X568423Y563675D01*
X568428Y563643D01*
X568471Y563562D01*
X568507Y563478D01*
X568533Y563446D01*
X568544Y563425D01*
X568567Y563403D01*
X568612Y563347D01*
X569425Y562534D01*
X569425Y541466D01*
X568612Y540653D01*
X568559Y540579D01*
X568499Y540510D01*
X568487Y540479D01*
X568468Y540453D01*
X568441Y540366D01*
X568407Y540281D01*
X568403Y540240D01*
X568396Y540218D01*
X568397Y540186D01*
X568389Y540115D01*
X568389Y431688D01*
X567538Y429634D01*
X543166Y405262D01*
X542625Y405038D01*
X542569Y405003D01*
X542509Y404978D01*
X542444Y404926D01*
X542416Y404908D01*
X542403Y404893D01*
X542378Y404873D01*
X542198Y404693D01*
X541944Y404693D01*
X541879Y404683D01*
X541814Y404682D01*
X541734Y404659D01*
X541701Y404654D01*
X541684Y404644D01*
X541653Y404635D01*
X541112Y404411D01*
X538888Y404411D01*
G37*
%LPD*%
%LPC*%
G36*
X258888Y734411D02*
X258888Y734411D01*
X258347Y734635D01*
X258284Y734650D01*
X258223Y734675D01*
X258140Y734684D01*
X258108Y734691D01*
X258089Y734690D01*
X258056Y734693D01*
X257802Y734693D01*
X257622Y734873D01*
X257569Y734911D01*
X257522Y734957D01*
X257449Y734997D01*
X257422Y735017D01*
X257404Y735022D01*
X257375Y735038D01*
X256834Y735262D01*
X255262Y736834D01*
X255038Y737375D01*
X255003Y737431D01*
X254978Y737491D01*
X254926Y737556D01*
X254908Y737584D01*
X254893Y737597D01*
X254873Y737622D01*
X254693Y737802D01*
X254693Y738056D01*
X254683Y738121D01*
X254682Y738186D01*
X254659Y738266D01*
X254654Y738299D01*
X254644Y738316D01*
X254635Y738347D01*
X254411Y738888D01*
X254411Y741112D01*
X254635Y741653D01*
X254650Y741716D01*
X254675Y741777D01*
X254684Y741860D01*
X254691Y741892D01*
X254690Y741911D01*
X254693Y741944D01*
X254693Y742198D01*
X254873Y742378D01*
X254911Y742431D01*
X254957Y742478D01*
X254997Y742551D01*
X255017Y742578D01*
X255022Y742596D01*
X255038Y742625D01*
X255262Y743166D01*
X256834Y744738D01*
X257375Y744962D01*
X257431Y744997D01*
X257491Y745022D01*
X257556Y745074D01*
X257584Y745092D01*
X257597Y745107D01*
X257622Y745127D01*
X257802Y745307D01*
X258056Y745307D01*
X258121Y745317D01*
X258186Y745318D01*
X258266Y745341D01*
X258299Y745346D01*
X258316Y745356D01*
X258347Y745365D01*
X258888Y745589D01*
X287370Y745589D01*
X287460Y745603D01*
X287551Y745611D01*
X287581Y745623D01*
X287612Y745628D01*
X287693Y745671D01*
X287777Y745707D01*
X287809Y745733D01*
X287830Y745744D01*
X287852Y745767D01*
X287908Y745812D01*
X328388Y786292D01*
X328441Y786366D01*
X328501Y786435D01*
X328513Y786466D01*
X328532Y786492D01*
X328559Y786579D01*
X328593Y786664D01*
X328597Y786704D01*
X328604Y786727D01*
X328603Y786759D01*
X328611Y786830D01*
X328611Y820115D01*
X328597Y820205D01*
X328589Y820296D01*
X328577Y820325D01*
X328572Y820357D01*
X328529Y820438D01*
X328493Y820522D01*
X328467Y820554D01*
X328456Y820575D01*
X328433Y820597D01*
X328422Y820611D01*
X328415Y820622D01*
X328408Y820629D01*
X328388Y820653D01*
X327575Y821466D01*
X327575Y842534D01*
X328388Y843347D01*
X328441Y843421D01*
X328501Y843490D01*
X328513Y843521D01*
X328532Y843547D01*
X328559Y843634D01*
X328593Y843719D01*
X328597Y843760D01*
X328604Y843782D01*
X328603Y843814D01*
X328611Y843885D01*
X328611Y883115D01*
X328597Y883205D01*
X328589Y883296D01*
X328577Y883325D01*
X328572Y883357D01*
X328529Y883438D01*
X328493Y883522D01*
X328467Y883554D01*
X328456Y883575D01*
X328433Y883597D01*
X328388Y883653D01*
X327575Y884466D01*
X327575Y905534D01*
X329066Y907025D01*
X339334Y907025D01*
X340825Y905534D01*
X340825Y884466D01*
X340012Y883653D01*
X339959Y883579D01*
X339899Y883510D01*
X339887Y883479D01*
X339868Y883453D01*
X339841Y883366D01*
X339807Y883281D01*
X339803Y883240D01*
X339796Y883218D01*
X339797Y883186D01*
X339789Y883115D01*
X339789Y843885D01*
X339803Y843795D01*
X339811Y843704D01*
X339823Y843675D01*
X339828Y843643D01*
X339871Y843562D01*
X339907Y843478D01*
X339933Y843446D01*
X339944Y843425D01*
X339967Y843403D01*
X340012Y843347D01*
X340825Y842534D01*
X340825Y821466D01*
X340012Y820653D01*
X339967Y820591D01*
X339937Y820560D01*
X339932Y820548D01*
X339899Y820509D01*
X339887Y820479D01*
X339868Y820453D01*
X339841Y820366D01*
X339807Y820281D01*
X339803Y820240D01*
X339796Y820218D01*
X339797Y820186D01*
X339789Y820115D01*
X339789Y783088D01*
X338938Y781034D01*
X293166Y735262D01*
X291112Y734411D01*
X258888Y734411D01*
G37*
%LPD*%
%LPC*%
G36*
X488888Y414411D02*
X488888Y414411D01*
X488347Y414635D01*
X488284Y414650D01*
X488223Y414675D01*
X488140Y414684D01*
X488108Y414691D01*
X488089Y414690D01*
X488056Y414693D01*
X487802Y414693D01*
X487622Y414873D01*
X487569Y414911D01*
X487522Y414957D01*
X487449Y414997D01*
X487422Y415017D01*
X487404Y415022D01*
X487375Y415038D01*
X486834Y415262D01*
X481862Y420234D01*
X481011Y422288D01*
X481011Y540115D01*
X480997Y540205D01*
X480989Y540296D01*
X480977Y540325D01*
X480972Y540357D01*
X480929Y540438D01*
X480893Y540522D01*
X480867Y540554D01*
X480856Y540575D01*
X480833Y540597D01*
X480788Y540653D01*
X479975Y541466D01*
X479975Y562534D01*
X480788Y563347D01*
X480841Y563421D01*
X480901Y563491D01*
X480913Y563521D01*
X480932Y563547D01*
X480959Y563634D01*
X480993Y563719D01*
X480997Y563760D01*
X481004Y563782D01*
X481003Y563814D01*
X481011Y563885D01*
X481011Y603115D01*
X480997Y603205D01*
X480989Y603296D01*
X480977Y603325D01*
X480972Y603357D01*
X480929Y603438D01*
X480893Y603522D01*
X480867Y603554D01*
X480856Y603575D01*
X480833Y603597D01*
X480788Y603653D01*
X479975Y604466D01*
X479975Y625534D01*
X481466Y627025D01*
X491734Y627025D01*
X493225Y625534D01*
X493225Y604466D01*
X492412Y603653D01*
X492359Y603579D01*
X492299Y603510D01*
X492287Y603479D01*
X492268Y603453D01*
X492241Y603366D01*
X492207Y603281D01*
X492203Y603240D01*
X492196Y603218D01*
X492197Y603186D01*
X492189Y603115D01*
X492189Y563885D01*
X492203Y563795D01*
X492211Y563704D01*
X492223Y563675D01*
X492228Y563643D01*
X492271Y563562D01*
X492307Y563478D01*
X492333Y563446D01*
X492344Y563425D01*
X492367Y563403D01*
X492412Y563347D01*
X493225Y562534D01*
X493225Y541466D01*
X492412Y540653D01*
X492359Y540579D01*
X492299Y540509D01*
X492287Y540479D01*
X492268Y540453D01*
X492241Y540366D01*
X492207Y540281D01*
X492203Y540240D01*
X492196Y540218D01*
X492197Y540186D01*
X492189Y540115D01*
X492189Y426030D01*
X492203Y425940D01*
X492211Y425849D01*
X492223Y425819D01*
X492228Y425788D01*
X492271Y425707D01*
X492307Y425623D01*
X492333Y425591D01*
X492344Y425570D01*
X492367Y425548D01*
X492412Y425492D01*
X494738Y423166D01*
X494962Y422625D01*
X494997Y422569D01*
X495022Y422509D01*
X495074Y422444D01*
X495092Y422416D01*
X495107Y422403D01*
X495127Y422378D01*
X495307Y422198D01*
X495307Y421944D01*
X495317Y421879D01*
X495318Y421814D01*
X495341Y421734D01*
X495346Y421701D01*
X495356Y421684D01*
X495365Y421653D01*
X495589Y421112D01*
X495589Y418888D01*
X495365Y418347D01*
X495350Y418284D01*
X495325Y418223D01*
X495316Y418140D01*
X495309Y418108D01*
X495310Y418089D01*
X495307Y418056D01*
X495307Y417802D01*
X495127Y417622D01*
X495089Y417569D01*
X495043Y417522D01*
X495003Y417449D01*
X494983Y417422D01*
X494978Y417404D01*
X494962Y417375D01*
X494738Y416834D01*
X493166Y415262D01*
X492625Y415038D01*
X492569Y415003D01*
X492509Y414978D01*
X492444Y414926D01*
X492416Y414908D01*
X492403Y414893D01*
X492378Y414873D01*
X492198Y414693D01*
X491944Y414693D01*
X491879Y414683D01*
X491814Y414682D01*
X491734Y414659D01*
X491701Y414654D01*
X491684Y414644D01*
X491653Y414635D01*
X491112Y414411D01*
X488888Y414411D01*
G37*
%LPD*%
%LPC*%
G36*
X598888Y434411D02*
X598888Y434411D01*
X598347Y434635D01*
X598284Y434650D01*
X598223Y434675D01*
X598140Y434684D01*
X598108Y434691D01*
X598089Y434690D01*
X598056Y434693D01*
X597802Y434693D01*
X597622Y434873D01*
X597569Y434911D01*
X597522Y434957D01*
X597449Y434997D01*
X597422Y435017D01*
X597404Y435022D01*
X597375Y435038D01*
X596834Y435262D01*
X595262Y436834D01*
X595038Y437375D01*
X595003Y437431D01*
X594978Y437491D01*
X594926Y437556D01*
X594908Y437584D01*
X594893Y437597D01*
X594873Y437622D01*
X594693Y437802D01*
X594693Y438056D01*
X594683Y438121D01*
X594682Y438186D01*
X594659Y438266D01*
X594654Y438299D01*
X594644Y438316D01*
X594635Y438347D01*
X594411Y438888D01*
X594411Y441112D01*
X594635Y441653D01*
X594650Y441716D01*
X594675Y441777D01*
X594684Y441860D01*
X594691Y441892D01*
X594690Y441911D01*
X594693Y441944D01*
X594693Y442198D01*
X594873Y442378D01*
X594911Y442431D01*
X594957Y442478D01*
X594997Y442551D01*
X595017Y442578D01*
X595022Y442596D01*
X595038Y442625D01*
X595262Y443166D01*
X633188Y481092D01*
X633241Y481166D01*
X633301Y481235D01*
X633313Y481266D01*
X633332Y481292D01*
X633359Y481379D01*
X633393Y481464D01*
X633397Y481504D01*
X633404Y481527D01*
X633403Y481559D01*
X633411Y481630D01*
X633411Y540115D01*
X633397Y540205D01*
X633389Y540296D01*
X633377Y540325D01*
X633372Y540357D01*
X633329Y540438D01*
X633293Y540522D01*
X633267Y540554D01*
X633256Y540575D01*
X633233Y540597D01*
X633188Y540653D01*
X632375Y541466D01*
X632375Y562534D01*
X633188Y563347D01*
X633241Y563421D01*
X633301Y563490D01*
X633313Y563521D01*
X633332Y563547D01*
X633359Y563634D01*
X633393Y563719D01*
X633397Y563760D01*
X633404Y563782D01*
X633403Y563814D01*
X633411Y563885D01*
X633411Y603115D01*
X633397Y603205D01*
X633389Y603296D01*
X633377Y603325D01*
X633372Y603357D01*
X633329Y603438D01*
X633293Y603522D01*
X633267Y603554D01*
X633256Y603575D01*
X633233Y603597D01*
X633188Y603653D01*
X632375Y604466D01*
X632375Y625534D01*
X633866Y627025D01*
X644134Y627025D01*
X645625Y625534D01*
X645625Y604466D01*
X644812Y603653D01*
X644759Y603579D01*
X644699Y603509D01*
X644687Y603479D01*
X644668Y603453D01*
X644641Y603366D01*
X644607Y603281D01*
X644603Y603240D01*
X644596Y603218D01*
X644597Y603186D01*
X644589Y603115D01*
X644589Y563885D01*
X644603Y563795D01*
X644611Y563704D01*
X644623Y563675D01*
X644628Y563643D01*
X644671Y563562D01*
X644707Y563478D01*
X644733Y563446D01*
X644744Y563425D01*
X644767Y563403D01*
X644812Y563347D01*
X645625Y562534D01*
X645625Y541466D01*
X644812Y540653D01*
X644759Y540579D01*
X644699Y540510D01*
X644687Y540479D01*
X644668Y540453D01*
X644641Y540366D01*
X644607Y540281D01*
X644603Y540240D01*
X644596Y540218D01*
X644597Y540186D01*
X644589Y540115D01*
X644589Y477888D01*
X643738Y475834D01*
X603166Y435262D01*
X602625Y435038D01*
X602569Y435003D01*
X602509Y434978D01*
X602444Y434926D01*
X602416Y434908D01*
X602403Y434893D01*
X602378Y434873D01*
X602198Y434693D01*
X601944Y434693D01*
X601879Y434683D01*
X601814Y434682D01*
X601734Y434659D01*
X601701Y434654D01*
X601684Y434644D01*
X601653Y434635D01*
X601112Y434411D01*
X598888Y434411D01*
G37*
%LPD*%
%LPC*%
G36*
X538888Y424411D02*
X538888Y424411D01*
X538347Y424635D01*
X538284Y424650D01*
X538223Y424675D01*
X538140Y424684D01*
X538108Y424691D01*
X538089Y424690D01*
X538056Y424693D01*
X537802Y424693D01*
X537622Y424873D01*
X537569Y424911D01*
X537522Y424957D01*
X537449Y424997D01*
X537422Y425017D01*
X537404Y425022D01*
X537375Y425038D01*
X536834Y425262D01*
X532662Y429434D01*
X531811Y431488D01*
X531811Y540115D01*
X531797Y540205D01*
X531789Y540296D01*
X531777Y540325D01*
X531772Y540357D01*
X531729Y540438D01*
X531693Y540522D01*
X531667Y540554D01*
X531656Y540575D01*
X531633Y540597D01*
X531588Y540653D01*
X530775Y541466D01*
X530775Y562534D01*
X531588Y563347D01*
X531641Y563421D01*
X531701Y563491D01*
X531713Y563521D01*
X531732Y563547D01*
X531759Y563634D01*
X531793Y563719D01*
X531797Y563760D01*
X531804Y563782D01*
X531803Y563814D01*
X531811Y563885D01*
X531811Y603115D01*
X531797Y603205D01*
X531789Y603296D01*
X531777Y603325D01*
X531772Y603357D01*
X531729Y603438D01*
X531693Y603522D01*
X531667Y603554D01*
X531656Y603575D01*
X531633Y603597D01*
X531588Y603653D01*
X530775Y604466D01*
X530775Y625534D01*
X532266Y627025D01*
X542534Y627025D01*
X544025Y625534D01*
X544025Y604466D01*
X543212Y603653D01*
X543159Y603579D01*
X543099Y603509D01*
X543087Y603479D01*
X543068Y603453D01*
X543041Y603366D01*
X543007Y603281D01*
X543003Y603240D01*
X542996Y603218D01*
X542997Y603186D01*
X542989Y603115D01*
X542989Y563885D01*
X543003Y563795D01*
X543011Y563704D01*
X543023Y563675D01*
X543028Y563643D01*
X543071Y563562D01*
X543107Y563478D01*
X543133Y563446D01*
X543144Y563425D01*
X543167Y563403D01*
X543212Y563347D01*
X544025Y562534D01*
X544025Y541466D01*
X543212Y540653D01*
X543159Y540579D01*
X543099Y540509D01*
X543087Y540479D01*
X543068Y540453D01*
X543041Y540366D01*
X543007Y540281D01*
X543003Y540240D01*
X542996Y540218D01*
X542997Y540186D01*
X542989Y540115D01*
X542989Y435230D01*
X543003Y435140D01*
X543011Y435049D01*
X543023Y435019D01*
X543028Y434988D01*
X543071Y434907D01*
X543107Y434823D01*
X543133Y434791D01*
X543144Y434770D01*
X543167Y434748D01*
X543212Y434692D01*
X544738Y433166D01*
X544962Y432625D01*
X544997Y432569D01*
X545022Y432509D01*
X545074Y432444D01*
X545092Y432416D01*
X545107Y432403D01*
X545127Y432378D01*
X545307Y432198D01*
X545307Y431944D01*
X545317Y431879D01*
X545318Y431814D01*
X545341Y431734D01*
X545346Y431701D01*
X545356Y431684D01*
X545365Y431653D01*
X545589Y431112D01*
X545589Y428888D01*
X545365Y428347D01*
X545356Y428310D01*
X545348Y428293D01*
X545346Y428274D01*
X545325Y428223D01*
X545316Y428140D01*
X545309Y428108D01*
X545310Y428089D01*
X545307Y428056D01*
X545307Y427802D01*
X545127Y427622D01*
X545089Y427569D01*
X545043Y427522D01*
X545003Y427449D01*
X544983Y427422D01*
X544978Y427404D01*
X544962Y427375D01*
X544738Y426834D01*
X543166Y425262D01*
X542625Y425038D01*
X542569Y425003D01*
X542509Y424978D01*
X542444Y424926D01*
X542416Y424908D01*
X542403Y424893D01*
X542378Y424873D01*
X542198Y424693D01*
X541944Y424693D01*
X541879Y424683D01*
X541814Y424682D01*
X541734Y424659D01*
X541701Y424654D01*
X541684Y424644D01*
X541653Y424635D01*
X541112Y424411D01*
X538888Y424411D01*
G37*
%LPD*%
%LPC*%
G36*
X484888Y728411D02*
X484888Y728411D01*
X484347Y728635D01*
X484284Y728650D01*
X484223Y728675D01*
X484140Y728684D01*
X484108Y728691D01*
X484089Y728690D01*
X484056Y728693D01*
X483802Y728693D01*
X483622Y728873D01*
X483569Y728911D01*
X483522Y728957D01*
X483449Y728997D01*
X483422Y729017D01*
X483404Y729022D01*
X483375Y729038D01*
X482834Y729262D01*
X481262Y730834D01*
X481038Y731375D01*
X481003Y731431D01*
X480978Y731491D01*
X480926Y731556D01*
X480908Y731584D01*
X480893Y731597D01*
X480873Y731622D01*
X480693Y731802D01*
X480693Y732056D01*
X480683Y732121D01*
X480682Y732186D01*
X480659Y732266D01*
X480654Y732299D01*
X480644Y732316D01*
X480635Y732347D01*
X480411Y732888D01*
X480411Y820715D01*
X480397Y820805D01*
X480389Y820896D01*
X480377Y820925D01*
X480372Y820957D01*
X480329Y821038D01*
X480293Y821122D01*
X480267Y821154D01*
X480256Y821175D01*
X480233Y821197D01*
X480188Y821253D01*
X479975Y821466D01*
X479975Y842534D01*
X480788Y843347D01*
X480841Y843421D01*
X480901Y843491D01*
X480913Y843521D01*
X480932Y843547D01*
X480959Y843634D01*
X480993Y843719D01*
X480997Y843760D01*
X481004Y843782D01*
X481003Y843814D01*
X481011Y843885D01*
X481011Y883115D01*
X480997Y883205D01*
X480989Y883296D01*
X480977Y883325D01*
X480972Y883357D01*
X480929Y883438D01*
X480893Y883522D01*
X480867Y883554D01*
X480856Y883575D01*
X480833Y883597D01*
X480788Y883653D01*
X479975Y884466D01*
X479975Y905534D01*
X481466Y907025D01*
X491734Y907025D01*
X493225Y905534D01*
X493225Y884466D01*
X492412Y883653D01*
X492359Y883579D01*
X492299Y883510D01*
X492287Y883479D01*
X492268Y883453D01*
X492241Y883366D01*
X492207Y883281D01*
X492203Y883240D01*
X492196Y883218D01*
X492197Y883186D01*
X492189Y883115D01*
X492189Y843885D01*
X492203Y843795D01*
X492211Y843704D01*
X492223Y843675D01*
X492228Y843643D01*
X492271Y843562D01*
X492307Y843478D01*
X492333Y843446D01*
X492344Y843425D01*
X492367Y843403D01*
X492412Y843347D01*
X493225Y842534D01*
X493225Y821466D01*
X491812Y820053D01*
X491759Y819979D01*
X491699Y819909D01*
X491687Y819879D01*
X491668Y819853D01*
X491641Y819766D01*
X491607Y819681D01*
X491603Y819640D01*
X491596Y819618D01*
X491597Y819586D01*
X491589Y819515D01*
X491589Y732888D01*
X491365Y732347D01*
X491350Y732284D01*
X491325Y732223D01*
X491316Y732140D01*
X491309Y732108D01*
X491310Y732089D01*
X491307Y732056D01*
X491307Y731802D01*
X491127Y731622D01*
X491089Y731569D01*
X491043Y731522D01*
X491003Y731449D01*
X490983Y731422D01*
X490978Y731404D01*
X490962Y731375D01*
X490738Y730834D01*
X489166Y729262D01*
X488625Y729038D01*
X488569Y729003D01*
X488509Y728978D01*
X488444Y728926D01*
X488416Y728908D01*
X488403Y728893D01*
X488378Y728873D01*
X488198Y728693D01*
X487944Y728693D01*
X487879Y728683D01*
X487814Y728682D01*
X487734Y728659D01*
X487701Y728654D01*
X487684Y728644D01*
X487653Y728635D01*
X487112Y728411D01*
X484888Y728411D01*
G37*
%LPD*%
%LPC*%
G36*
X388888Y454411D02*
X388888Y454411D01*
X388347Y454635D01*
X388284Y454650D01*
X388223Y454675D01*
X388140Y454684D01*
X388108Y454691D01*
X388089Y454690D01*
X388056Y454693D01*
X387802Y454693D01*
X387622Y454873D01*
X387569Y454911D01*
X387522Y454957D01*
X387449Y454997D01*
X387422Y455017D01*
X387404Y455022D01*
X387375Y455038D01*
X386834Y455262D01*
X380262Y461834D01*
X379411Y463888D01*
X379411Y540115D01*
X379397Y540205D01*
X379389Y540296D01*
X379377Y540325D01*
X379372Y540357D01*
X379329Y540438D01*
X379293Y540522D01*
X379267Y540554D01*
X379256Y540575D01*
X379233Y540597D01*
X379188Y540653D01*
X378375Y541466D01*
X378375Y562534D01*
X379188Y563347D01*
X379241Y563421D01*
X379301Y563491D01*
X379313Y563521D01*
X379332Y563547D01*
X379359Y563634D01*
X379393Y563719D01*
X379397Y563760D01*
X379404Y563782D01*
X379403Y563814D01*
X379411Y563885D01*
X379411Y603115D01*
X379397Y603205D01*
X379389Y603296D01*
X379377Y603325D01*
X379372Y603357D01*
X379329Y603438D01*
X379293Y603522D01*
X379267Y603554D01*
X379256Y603575D01*
X379233Y603597D01*
X379188Y603653D01*
X378375Y604466D01*
X378375Y625534D01*
X379866Y627025D01*
X390134Y627025D01*
X391625Y625534D01*
X391625Y604466D01*
X390812Y603653D01*
X390759Y603579D01*
X390699Y603509D01*
X390687Y603479D01*
X390668Y603453D01*
X390641Y603366D01*
X390607Y603281D01*
X390603Y603240D01*
X390596Y603218D01*
X390597Y603186D01*
X390589Y603115D01*
X390589Y563885D01*
X390603Y563795D01*
X390611Y563704D01*
X390623Y563675D01*
X390628Y563643D01*
X390671Y563562D01*
X390707Y563478D01*
X390733Y563446D01*
X390744Y563425D01*
X390767Y563403D01*
X390812Y563347D01*
X391625Y562534D01*
X391625Y541466D01*
X390812Y540653D01*
X390759Y540579D01*
X390699Y540509D01*
X390687Y540479D01*
X390668Y540453D01*
X390641Y540366D01*
X390607Y540281D01*
X390603Y540240D01*
X390596Y540218D01*
X390597Y540186D01*
X390589Y540115D01*
X390589Y467630D01*
X390603Y467540D01*
X390611Y467449D01*
X390623Y467419D01*
X390628Y467388D01*
X390671Y467307D01*
X390707Y467223D01*
X390733Y467191D01*
X390744Y467170D01*
X390767Y467148D01*
X390812Y467092D01*
X394738Y463166D01*
X394962Y462625D01*
X394997Y462569D01*
X395022Y462509D01*
X395074Y462444D01*
X395092Y462416D01*
X395107Y462403D01*
X395127Y462378D01*
X395307Y462198D01*
X395307Y461944D01*
X395317Y461879D01*
X395318Y461814D01*
X395341Y461734D01*
X395346Y461701D01*
X395356Y461684D01*
X395365Y461653D01*
X395589Y461112D01*
X395589Y458888D01*
X395365Y458347D01*
X395350Y458284D01*
X395325Y458223D01*
X395316Y458140D01*
X395309Y458108D01*
X395310Y458089D01*
X395307Y458056D01*
X395307Y457802D01*
X395127Y457622D01*
X395089Y457569D01*
X395043Y457522D01*
X395003Y457449D01*
X394983Y457422D01*
X394978Y457404D01*
X394962Y457375D01*
X394738Y456834D01*
X393166Y455262D01*
X392625Y455038D01*
X392569Y455003D01*
X392509Y454978D01*
X392444Y454926D01*
X392416Y454908D01*
X392403Y454893D01*
X392378Y454873D01*
X392198Y454693D01*
X391944Y454693D01*
X391879Y454683D01*
X391814Y454682D01*
X391734Y454659D01*
X391701Y454654D01*
X391684Y454644D01*
X391653Y454635D01*
X391112Y454411D01*
X388888Y454411D01*
G37*
%LPD*%
%LPC*%
G36*
X518888Y464411D02*
X518888Y464411D01*
X518347Y464635D01*
X518284Y464650D01*
X518223Y464675D01*
X518140Y464684D01*
X518108Y464691D01*
X518089Y464690D01*
X518056Y464693D01*
X517802Y464693D01*
X517622Y464873D01*
X517569Y464911D01*
X517522Y464957D01*
X517449Y464997D01*
X517422Y465017D01*
X517404Y465022D01*
X517375Y465038D01*
X516834Y465262D01*
X508941Y473155D01*
X507262Y474834D01*
X506411Y476888D01*
X506411Y540115D01*
X506397Y540205D01*
X506389Y540296D01*
X506377Y540325D01*
X506372Y540357D01*
X506329Y540438D01*
X506293Y540522D01*
X506267Y540554D01*
X506256Y540575D01*
X506233Y540597D01*
X506188Y540653D01*
X505375Y541466D01*
X505375Y562534D01*
X506188Y563347D01*
X506241Y563421D01*
X506301Y563491D01*
X506313Y563521D01*
X506332Y563547D01*
X506359Y563634D01*
X506393Y563719D01*
X506397Y563760D01*
X506404Y563782D01*
X506403Y563814D01*
X506411Y563885D01*
X506411Y603115D01*
X506397Y603205D01*
X506389Y603296D01*
X506377Y603325D01*
X506372Y603357D01*
X506329Y603438D01*
X506293Y603522D01*
X506267Y603554D01*
X506256Y603575D01*
X506233Y603597D01*
X506188Y603653D01*
X505375Y604466D01*
X505375Y625534D01*
X506866Y627025D01*
X517134Y627025D01*
X518625Y625534D01*
X518625Y604466D01*
X517812Y603653D01*
X517759Y603579D01*
X517699Y603509D01*
X517687Y603479D01*
X517668Y603453D01*
X517641Y603366D01*
X517607Y603281D01*
X517603Y603240D01*
X517596Y603218D01*
X517597Y603186D01*
X517589Y603115D01*
X517589Y563885D01*
X517603Y563795D01*
X517611Y563704D01*
X517623Y563675D01*
X517628Y563643D01*
X517671Y563562D01*
X517707Y563478D01*
X517733Y563446D01*
X517744Y563425D01*
X517767Y563403D01*
X517812Y563347D01*
X518625Y562534D01*
X518625Y541466D01*
X517812Y540653D01*
X517759Y540579D01*
X517699Y540509D01*
X517687Y540479D01*
X517668Y540453D01*
X517641Y540366D01*
X517607Y540281D01*
X517603Y540240D01*
X517596Y540218D01*
X517597Y540186D01*
X517589Y540115D01*
X517589Y480630D01*
X517603Y480540D01*
X517611Y480449D01*
X517623Y480419D01*
X517628Y480388D01*
X517671Y480307D01*
X517707Y480223D01*
X517733Y480191D01*
X517744Y480170D01*
X517767Y480148D01*
X517778Y480135D01*
X517784Y480123D01*
X517792Y480117D01*
X517812Y480092D01*
X524738Y473166D01*
X524962Y472625D01*
X524997Y472569D01*
X525022Y472509D01*
X525074Y472444D01*
X525092Y472416D01*
X525107Y472403D01*
X525127Y472378D01*
X525307Y472198D01*
X525307Y471944D01*
X525317Y471879D01*
X525318Y471814D01*
X525341Y471734D01*
X525346Y471701D01*
X525356Y471684D01*
X525365Y471653D01*
X525589Y471112D01*
X525589Y468888D01*
X525365Y468347D01*
X525350Y468284D01*
X525325Y468223D01*
X525316Y468140D01*
X525309Y468108D01*
X525310Y468089D01*
X525307Y468056D01*
X525307Y467802D01*
X525127Y467622D01*
X525089Y467569D01*
X525043Y467522D01*
X525003Y467449D01*
X524983Y467422D01*
X524978Y467404D01*
X524962Y467375D01*
X524738Y466834D01*
X523166Y465262D01*
X522625Y465038D01*
X522569Y465003D01*
X522509Y464978D01*
X522444Y464926D01*
X522416Y464908D01*
X522403Y464893D01*
X522378Y464873D01*
X522198Y464693D01*
X521944Y464693D01*
X521879Y464683D01*
X521814Y464682D01*
X521734Y464659D01*
X521701Y464654D01*
X521684Y464644D01*
X521653Y464635D01*
X521112Y464411D01*
X518888Y464411D01*
G37*
%LPD*%
%LPC*%
G36*
X510888Y759411D02*
X510888Y759411D01*
X510347Y759635D01*
X510284Y759650D01*
X510223Y759675D01*
X510140Y759684D01*
X510108Y759691D01*
X510089Y759690D01*
X510056Y759693D01*
X509802Y759693D01*
X509622Y759873D01*
X509569Y759911D01*
X509522Y759957D01*
X509449Y759997D01*
X509422Y760017D01*
X509404Y760022D01*
X509375Y760038D01*
X508834Y760262D01*
X507262Y761834D01*
X507038Y762375D01*
X507003Y762431D01*
X506978Y762491D01*
X506926Y762556D01*
X506908Y762584D01*
X506893Y762597D01*
X506873Y762622D01*
X506693Y762802D01*
X506693Y763056D01*
X506691Y763068D01*
X506692Y763077D01*
X506683Y763121D01*
X506682Y763186D01*
X506659Y763266D01*
X506654Y763299D01*
X506644Y763316D01*
X506635Y763347D01*
X506411Y763888D01*
X506411Y820115D01*
X506397Y820205D01*
X506389Y820296D01*
X506377Y820325D01*
X506372Y820357D01*
X506329Y820438D01*
X506293Y820522D01*
X506267Y820554D01*
X506256Y820575D01*
X506233Y820597D01*
X506222Y820611D01*
X506215Y820622D01*
X506208Y820629D01*
X506188Y820653D01*
X505375Y821466D01*
X505375Y842534D01*
X506188Y843347D01*
X506241Y843421D01*
X506301Y843491D01*
X506313Y843521D01*
X506332Y843547D01*
X506359Y843634D01*
X506393Y843719D01*
X506397Y843760D01*
X506404Y843782D01*
X506403Y843814D01*
X506411Y843885D01*
X506411Y883115D01*
X506397Y883205D01*
X506389Y883296D01*
X506377Y883325D01*
X506372Y883357D01*
X506329Y883438D01*
X506293Y883522D01*
X506267Y883554D01*
X506256Y883575D01*
X506233Y883597D01*
X506188Y883653D01*
X505375Y884466D01*
X505375Y905534D01*
X506866Y907025D01*
X517134Y907025D01*
X518625Y905534D01*
X518625Y884466D01*
X517812Y883653D01*
X517759Y883579D01*
X517699Y883510D01*
X517687Y883479D01*
X517668Y883453D01*
X517641Y883366D01*
X517607Y883281D01*
X517603Y883240D01*
X517596Y883218D01*
X517597Y883186D01*
X517589Y883115D01*
X517589Y843885D01*
X517603Y843795D01*
X517611Y843704D01*
X517623Y843675D01*
X517628Y843643D01*
X517671Y843562D01*
X517707Y843478D01*
X517733Y843446D01*
X517744Y843425D01*
X517767Y843403D01*
X517812Y843347D01*
X518625Y842534D01*
X518625Y821466D01*
X517812Y820653D01*
X517767Y820591D01*
X517737Y820560D01*
X517732Y820548D01*
X517699Y820509D01*
X517687Y820479D01*
X517668Y820453D01*
X517641Y820366D01*
X517607Y820281D01*
X517603Y820240D01*
X517596Y820218D01*
X517597Y820186D01*
X517589Y820115D01*
X517589Y763888D01*
X517365Y763347D01*
X517350Y763284D01*
X517325Y763223D01*
X517316Y763140D01*
X517309Y763108D01*
X517310Y763089D01*
X517307Y763056D01*
X517307Y762802D01*
X517127Y762622D01*
X517089Y762569D01*
X517043Y762522D01*
X517003Y762449D01*
X516983Y762422D01*
X516978Y762404D01*
X516962Y762375D01*
X516738Y761834D01*
X515166Y760262D01*
X514625Y760038D01*
X514569Y760003D01*
X514509Y759978D01*
X514444Y759926D01*
X514416Y759908D01*
X514403Y759893D01*
X514378Y759873D01*
X514198Y759693D01*
X513944Y759693D01*
X513879Y759683D01*
X513814Y759682D01*
X513734Y759659D01*
X513701Y759654D01*
X513684Y759644D01*
X513653Y759635D01*
X513112Y759411D01*
X510888Y759411D01*
G37*
%LPD*%
%LPC*%
G36*
X430666Y539975D02*
X430666Y539975D01*
X429175Y541466D01*
X429175Y562534D01*
X429988Y563347D01*
X430041Y563421D01*
X430101Y563491D01*
X430113Y563521D01*
X430132Y563547D01*
X430159Y563634D01*
X430193Y563719D01*
X430197Y563760D01*
X430204Y563782D01*
X430203Y563814D01*
X430211Y563885D01*
X430211Y603115D01*
X430197Y603205D01*
X430189Y603296D01*
X430177Y603325D01*
X430172Y603357D01*
X430129Y603438D01*
X430093Y603522D01*
X430067Y603554D01*
X430056Y603575D01*
X430033Y603597D01*
X429988Y603653D01*
X429175Y604466D01*
X429175Y625534D01*
X429988Y626347D01*
X430041Y626421D01*
X430101Y626490D01*
X430113Y626521D01*
X430132Y626547D01*
X430159Y626634D01*
X430193Y626719D01*
X430197Y626760D01*
X430204Y626782D01*
X430203Y626814D01*
X430211Y626885D01*
X430211Y641570D01*
X430197Y641660D01*
X430189Y641751D01*
X430177Y641781D01*
X430172Y641812D01*
X430129Y641893D01*
X430093Y641977D01*
X430067Y642009D01*
X430056Y642030D01*
X430033Y642052D01*
X429988Y642108D01*
X405262Y666834D01*
X405038Y667375D01*
X405003Y667431D01*
X404978Y667491D01*
X404926Y667556D01*
X404908Y667584D01*
X404893Y667597D01*
X404873Y667622D01*
X404693Y667802D01*
X404693Y668056D01*
X404683Y668121D01*
X404682Y668186D01*
X404659Y668266D01*
X404654Y668299D01*
X404644Y668316D01*
X404635Y668347D01*
X404411Y668888D01*
X404411Y671112D01*
X404635Y671653D01*
X404650Y671716D01*
X404675Y671777D01*
X404684Y671860D01*
X404691Y671892D01*
X404690Y671911D01*
X404693Y671944D01*
X404693Y672198D01*
X404873Y672378D01*
X404911Y672431D01*
X404957Y672478D01*
X404997Y672551D01*
X405017Y672578D01*
X405022Y672596D01*
X405038Y672625D01*
X405262Y673166D01*
X406834Y674738D01*
X407375Y674962D01*
X407431Y674997D01*
X407491Y675022D01*
X407556Y675074D01*
X407584Y675092D01*
X407597Y675107D01*
X407622Y675127D01*
X407802Y675307D01*
X408056Y675307D01*
X408121Y675317D01*
X408186Y675318D01*
X408266Y675341D01*
X408299Y675346D01*
X408316Y675356D01*
X408347Y675365D01*
X408888Y675589D01*
X411112Y675589D01*
X411653Y675365D01*
X411716Y675350D01*
X411777Y675325D01*
X411860Y675316D01*
X411892Y675309D01*
X411911Y675310D01*
X411944Y675307D01*
X412198Y675307D01*
X412378Y675127D01*
X412431Y675089D01*
X412478Y675043D01*
X412551Y675003D01*
X412578Y674983D01*
X412596Y674978D01*
X412625Y674962D01*
X413166Y674738D01*
X440538Y647366D01*
X441389Y645312D01*
X441389Y626885D01*
X441403Y626795D01*
X441411Y626704D01*
X441423Y626675D01*
X441428Y626643D01*
X441471Y626562D01*
X441507Y626478D01*
X441533Y626446D01*
X441544Y626425D01*
X441567Y626403D01*
X441612Y626347D01*
X442425Y625534D01*
X442425Y604466D01*
X441612Y603653D01*
X441559Y603579D01*
X441499Y603510D01*
X441487Y603479D01*
X441468Y603453D01*
X441441Y603366D01*
X441407Y603281D01*
X441403Y603240D01*
X441396Y603218D01*
X441397Y603186D01*
X441389Y603115D01*
X441389Y563885D01*
X441403Y563795D01*
X441411Y563704D01*
X441423Y563675D01*
X441428Y563643D01*
X441471Y563562D01*
X441507Y563478D01*
X441533Y563446D01*
X441544Y563425D01*
X441567Y563403D01*
X441612Y563347D01*
X442425Y562534D01*
X442425Y541466D01*
X440934Y539975D01*
X430666Y539975D01*
G37*
%LPD*%
%LPC*%
G36*
X307888Y794411D02*
X307888Y794411D01*
X307347Y794635D01*
X307284Y794650D01*
X307223Y794675D01*
X307140Y794684D01*
X307108Y794691D01*
X307089Y794690D01*
X307056Y794693D01*
X306802Y794693D01*
X306622Y794873D01*
X306569Y794911D01*
X306522Y794957D01*
X306449Y794997D01*
X306422Y795017D01*
X306404Y795022D01*
X306375Y795038D01*
X305834Y795262D01*
X304262Y796834D01*
X304038Y797375D01*
X304003Y797431D01*
X303978Y797491D01*
X303926Y797556D01*
X303908Y797584D01*
X303893Y797597D01*
X303873Y797622D01*
X303693Y797802D01*
X303693Y798056D01*
X303690Y798075D01*
X303692Y798095D01*
X303682Y798139D01*
X303682Y798186D01*
X303659Y798266D01*
X303654Y798299D01*
X303644Y798316D01*
X303643Y798320D01*
X303640Y798335D01*
X303638Y798339D01*
X303635Y798347D01*
X303411Y798888D01*
X303411Y819915D01*
X303397Y820005D01*
X303389Y820096D01*
X303377Y820125D01*
X303372Y820157D01*
X303329Y820238D01*
X303293Y820322D01*
X303267Y820354D01*
X303256Y820375D01*
X303233Y820397D01*
X303188Y820453D01*
X302175Y821466D01*
X302175Y842534D01*
X302988Y843347D01*
X303041Y843421D01*
X303101Y843491D01*
X303113Y843521D01*
X303132Y843547D01*
X303159Y843634D01*
X303193Y843719D01*
X303197Y843760D01*
X303204Y843782D01*
X303203Y843814D01*
X303211Y843885D01*
X303211Y883115D01*
X303197Y883205D01*
X303189Y883296D01*
X303177Y883325D01*
X303172Y883357D01*
X303129Y883438D01*
X303093Y883522D01*
X303067Y883554D01*
X303056Y883575D01*
X303033Y883597D01*
X302988Y883653D01*
X302175Y884466D01*
X302175Y905534D01*
X303666Y907025D01*
X313934Y907025D01*
X315425Y905534D01*
X315425Y884466D01*
X314612Y883653D01*
X314559Y883579D01*
X314499Y883509D01*
X314487Y883479D01*
X314468Y883453D01*
X314441Y883366D01*
X314407Y883281D01*
X314403Y883240D01*
X314396Y883218D01*
X314397Y883186D01*
X314389Y883115D01*
X314389Y843885D01*
X314403Y843795D01*
X314411Y843704D01*
X314423Y843675D01*
X314428Y843643D01*
X314471Y843562D01*
X314507Y843478D01*
X314533Y843446D01*
X314544Y843425D01*
X314567Y843403D01*
X314612Y843347D01*
X315425Y842534D01*
X315425Y821466D01*
X314812Y820853D01*
X314759Y820779D01*
X314699Y820709D01*
X314687Y820679D01*
X314668Y820653D01*
X314641Y820566D01*
X314607Y820481D01*
X314603Y820440D01*
X314596Y820418D01*
X314597Y820386D01*
X314589Y820315D01*
X314589Y798888D01*
X314365Y798347D01*
X314354Y798301D01*
X314335Y798260D01*
X314333Y798242D01*
X314325Y798223D01*
X314316Y798140D01*
X314309Y798108D01*
X314310Y798089D01*
X314307Y798056D01*
X314307Y797802D01*
X314127Y797622D01*
X314089Y797569D01*
X314043Y797522D01*
X314003Y797449D01*
X313983Y797422D01*
X313978Y797404D01*
X313962Y797375D01*
X313738Y796834D01*
X312166Y795262D01*
X311625Y795038D01*
X311569Y795003D01*
X311509Y794978D01*
X311444Y794926D01*
X311416Y794908D01*
X311403Y794893D01*
X311378Y794873D01*
X311198Y794693D01*
X310944Y794693D01*
X310879Y794683D01*
X310814Y794682D01*
X310734Y794659D01*
X310701Y794654D01*
X310684Y794644D01*
X310653Y794635D01*
X310112Y794411D01*
X307888Y794411D01*
G37*
%LPD*%
%LPC*%
G36*
X684666Y539975D02*
X684666Y539975D01*
X683175Y541466D01*
X683175Y562534D01*
X683988Y563347D01*
X684041Y563421D01*
X684101Y563490D01*
X684113Y563521D01*
X684132Y563547D01*
X684159Y563634D01*
X684193Y563719D01*
X684197Y563760D01*
X684204Y563782D01*
X684203Y563814D01*
X684211Y563885D01*
X684211Y603115D01*
X684197Y603205D01*
X684189Y603296D01*
X684177Y603325D01*
X684172Y603357D01*
X684129Y603438D01*
X684093Y603522D01*
X684067Y603554D01*
X684056Y603575D01*
X684033Y603597D01*
X683988Y603653D01*
X683175Y604466D01*
X683175Y625534D01*
X684188Y626547D01*
X684241Y626621D01*
X684301Y626691D01*
X684313Y626721D01*
X684332Y626747D01*
X684359Y626834D01*
X684393Y626919D01*
X684397Y626960D01*
X684404Y626982D01*
X684403Y627014D01*
X684411Y627085D01*
X684411Y641112D01*
X684635Y641653D01*
X684650Y641716D01*
X684675Y641777D01*
X684684Y641860D01*
X684691Y641892D01*
X684690Y641911D01*
X684693Y641944D01*
X684693Y642198D01*
X684873Y642378D01*
X684911Y642431D01*
X684957Y642478D01*
X684997Y642551D01*
X685017Y642578D01*
X685022Y642596D01*
X685038Y642625D01*
X685262Y643166D01*
X686834Y644738D01*
X687375Y644962D01*
X687431Y644997D01*
X687491Y645022D01*
X687556Y645074D01*
X687584Y645092D01*
X687597Y645107D01*
X687622Y645127D01*
X687802Y645307D01*
X688056Y645307D01*
X688121Y645317D01*
X688186Y645318D01*
X688266Y645341D01*
X688299Y645346D01*
X688316Y645356D01*
X688347Y645365D01*
X688888Y645589D01*
X691112Y645589D01*
X691653Y645365D01*
X691716Y645350D01*
X691777Y645325D01*
X691860Y645316D01*
X691892Y645309D01*
X691911Y645310D01*
X691944Y645307D01*
X692198Y645307D01*
X692378Y645127D01*
X692431Y645089D01*
X692478Y645043D01*
X692551Y645003D01*
X692578Y644983D01*
X692596Y644978D01*
X692625Y644962D01*
X693166Y644738D01*
X694738Y643166D01*
X694962Y642625D01*
X694997Y642569D01*
X695022Y642509D01*
X695074Y642444D01*
X695092Y642416D01*
X695107Y642403D01*
X695127Y642378D01*
X695307Y642198D01*
X695307Y641944D01*
X695317Y641879D01*
X695318Y641814D01*
X695341Y641734D01*
X695346Y641701D01*
X695356Y641684D01*
X695365Y641653D01*
X695589Y641112D01*
X695589Y626685D01*
X695603Y626595D01*
X695611Y626504D01*
X695623Y626475D01*
X695628Y626443D01*
X695671Y626362D01*
X695707Y626278D01*
X695733Y626246D01*
X695744Y626225D01*
X695767Y626203D01*
X695812Y626147D01*
X696425Y625534D01*
X696425Y604466D01*
X695612Y603653D01*
X695559Y603579D01*
X695499Y603509D01*
X695487Y603479D01*
X695468Y603453D01*
X695441Y603366D01*
X695407Y603281D01*
X695403Y603240D01*
X695396Y603218D01*
X695397Y603186D01*
X695389Y603115D01*
X695389Y563885D01*
X695403Y563795D01*
X695411Y563704D01*
X695423Y563675D01*
X695428Y563643D01*
X695471Y563562D01*
X695507Y563478D01*
X695533Y563446D01*
X695544Y563425D01*
X695567Y563403D01*
X695612Y563347D01*
X696425Y562534D01*
X696425Y541466D01*
X694934Y539975D01*
X684666Y539975D01*
G37*
%LPD*%
%LPC*%
G36*
X378888Y804411D02*
X378888Y804411D01*
X378347Y804635D01*
X378284Y804650D01*
X378223Y804675D01*
X378140Y804684D01*
X378108Y804691D01*
X378089Y804690D01*
X378056Y804693D01*
X377802Y804693D01*
X377622Y804873D01*
X377569Y804911D01*
X377522Y804957D01*
X377449Y804997D01*
X377422Y805017D01*
X377404Y805022D01*
X377375Y805038D01*
X376834Y805262D01*
X375262Y806834D01*
X375038Y807375D01*
X375003Y807431D01*
X374978Y807491D01*
X374926Y807556D01*
X374908Y807584D01*
X374893Y807597D01*
X374873Y807622D01*
X374693Y807802D01*
X374693Y808056D01*
X374683Y808121D01*
X374682Y808186D01*
X374659Y808266D01*
X374654Y808299D01*
X374644Y808316D01*
X374635Y808347D01*
X374411Y808888D01*
X374411Y811112D01*
X374635Y811653D01*
X374650Y811716D01*
X374675Y811777D01*
X374684Y811860D01*
X374691Y811892D01*
X374690Y811911D01*
X374693Y811944D01*
X374693Y812198D01*
X374873Y812378D01*
X374911Y812431D01*
X374957Y812478D01*
X374997Y812551D01*
X375017Y812578D01*
X375022Y812596D01*
X375038Y812625D01*
X375262Y813166D01*
X379188Y817092D01*
X379241Y817166D01*
X379301Y817235D01*
X379313Y817266D01*
X379332Y817292D01*
X379359Y817379D01*
X379393Y817464D01*
X379397Y817504D01*
X379404Y817527D01*
X379403Y817559D01*
X379411Y817630D01*
X379411Y820115D01*
X379397Y820205D01*
X379389Y820296D01*
X379377Y820325D01*
X379372Y820357D01*
X379329Y820438D01*
X379293Y820522D01*
X379267Y820554D01*
X379256Y820575D01*
X379233Y820597D01*
X379222Y820611D01*
X379215Y820622D01*
X379208Y820629D01*
X379188Y820653D01*
X378375Y821466D01*
X378375Y842534D01*
X379188Y843347D01*
X379241Y843421D01*
X379301Y843491D01*
X379313Y843521D01*
X379332Y843547D01*
X379359Y843634D01*
X379393Y843719D01*
X379397Y843760D01*
X379404Y843782D01*
X379403Y843814D01*
X379411Y843885D01*
X379411Y883115D01*
X379397Y883205D01*
X379389Y883296D01*
X379377Y883325D01*
X379372Y883357D01*
X379329Y883438D01*
X379293Y883522D01*
X379267Y883554D01*
X379256Y883575D01*
X379233Y883597D01*
X379188Y883653D01*
X378375Y884466D01*
X378375Y905534D01*
X379866Y907025D01*
X390134Y907025D01*
X391625Y905534D01*
X391625Y884466D01*
X390812Y883653D01*
X390759Y883579D01*
X390699Y883510D01*
X390687Y883479D01*
X390668Y883453D01*
X390641Y883366D01*
X390607Y883281D01*
X390603Y883240D01*
X390596Y883218D01*
X390597Y883186D01*
X390589Y883115D01*
X390589Y843885D01*
X390603Y843795D01*
X390611Y843704D01*
X390623Y843675D01*
X390628Y843643D01*
X390671Y843562D01*
X390707Y843478D01*
X390733Y843446D01*
X390744Y843425D01*
X390767Y843403D01*
X390812Y843347D01*
X391625Y842534D01*
X391625Y821466D01*
X390812Y820653D01*
X390767Y820591D01*
X390737Y820560D01*
X390732Y820548D01*
X390699Y820509D01*
X390687Y820479D01*
X390668Y820453D01*
X390641Y820366D01*
X390607Y820281D01*
X390603Y820240D01*
X390596Y820218D01*
X390597Y820186D01*
X390589Y820115D01*
X390589Y813888D01*
X389738Y811834D01*
X383166Y805262D01*
X382625Y805038D01*
X382569Y805003D01*
X382509Y804978D01*
X382444Y804926D01*
X382416Y804908D01*
X382403Y804893D01*
X382378Y804873D01*
X382198Y804693D01*
X381944Y804693D01*
X381879Y804683D01*
X381814Y804682D01*
X381734Y804659D01*
X381701Y804654D01*
X381684Y804644D01*
X381653Y804635D01*
X381112Y804411D01*
X378888Y804411D01*
G37*
%LPD*%
%LPC*%
G36*
X659266Y539975D02*
X659266Y539975D01*
X657775Y541466D01*
X657775Y562534D01*
X658588Y563347D01*
X658641Y563421D01*
X658701Y563490D01*
X658713Y563521D01*
X658732Y563547D01*
X658759Y563634D01*
X658793Y563719D01*
X658797Y563760D01*
X658804Y563782D01*
X658803Y563814D01*
X658811Y563885D01*
X658811Y603115D01*
X658797Y603205D01*
X658789Y603296D01*
X658777Y603325D01*
X658772Y603357D01*
X658729Y603438D01*
X658693Y603522D01*
X658667Y603554D01*
X658656Y603575D01*
X658633Y603597D01*
X658588Y603653D01*
X657775Y604466D01*
X657775Y625534D01*
X658588Y626347D01*
X658641Y626421D01*
X658701Y626491D01*
X658713Y626521D01*
X658732Y626547D01*
X658759Y626634D01*
X658793Y626719D01*
X658797Y626760D01*
X658804Y626782D01*
X658803Y626814D01*
X658811Y626885D01*
X658811Y634369D01*
X658797Y634459D01*
X658789Y634550D01*
X658777Y634579D01*
X658772Y634611D01*
X658729Y634692D01*
X658693Y634775D01*
X658693Y635056D01*
X658683Y635121D01*
X658682Y635186D01*
X658659Y635266D01*
X658654Y635299D01*
X658644Y635316D01*
X658635Y635347D01*
X658411Y635888D01*
X658411Y638112D01*
X658635Y638653D01*
X658650Y638716D01*
X658652Y638721D01*
X658665Y638749D01*
X658666Y638755D01*
X658675Y638777D01*
X658684Y638860D01*
X658691Y638892D01*
X658690Y638911D01*
X658693Y638944D01*
X658693Y639198D01*
X658873Y639378D01*
X658911Y639431D01*
X658957Y639478D01*
X658997Y639551D01*
X659017Y639578D01*
X659022Y639596D01*
X659038Y639625D01*
X659262Y640166D01*
X660834Y641738D01*
X661375Y641962D01*
X661431Y641997D01*
X661491Y642022D01*
X661556Y642074D01*
X661584Y642092D01*
X661597Y642107D01*
X661622Y642127D01*
X661802Y642307D01*
X662056Y642307D01*
X662121Y642317D01*
X662186Y642318D01*
X662266Y642341D01*
X662299Y642346D01*
X662316Y642356D01*
X662347Y642365D01*
X662888Y642589D01*
X665112Y642589D01*
X665653Y642365D01*
X665716Y642350D01*
X665777Y642325D01*
X665860Y642316D01*
X665892Y642309D01*
X665911Y642310D01*
X665944Y642307D01*
X666198Y642307D01*
X666378Y642127D01*
X666431Y642089D01*
X666478Y642043D01*
X666551Y642003D01*
X666578Y641983D01*
X666596Y641978D01*
X666625Y641962D01*
X667166Y641738D01*
X669138Y639766D01*
X669362Y639225D01*
X669363Y639222D01*
X669365Y639218D01*
X669989Y637712D01*
X669989Y626885D01*
X670003Y626795D01*
X670011Y626704D01*
X670023Y626675D01*
X670028Y626643D01*
X670071Y626562D01*
X670107Y626478D01*
X670133Y626446D01*
X670144Y626425D01*
X670167Y626403D01*
X670212Y626347D01*
X671025Y625534D01*
X671025Y604466D01*
X670212Y603653D01*
X670159Y603579D01*
X670099Y603509D01*
X670087Y603479D01*
X670068Y603453D01*
X670041Y603366D01*
X670007Y603281D01*
X670003Y603240D01*
X669996Y603218D01*
X669997Y603186D01*
X669989Y603115D01*
X669989Y563885D01*
X670003Y563795D01*
X670011Y563704D01*
X670023Y563675D01*
X670028Y563643D01*
X670071Y563562D01*
X670107Y563478D01*
X670133Y563446D01*
X670144Y563425D01*
X670167Y563403D01*
X670212Y563347D01*
X671025Y562534D01*
X671025Y541466D01*
X669534Y539975D01*
X659266Y539975D01*
G37*
%LPD*%
%LPC*%
G36*
X583066Y819975D02*
X583066Y819975D01*
X581575Y821466D01*
X581575Y842534D01*
X582388Y843347D01*
X582441Y843421D01*
X582501Y843491D01*
X582513Y843521D01*
X582532Y843547D01*
X582559Y843634D01*
X582593Y843719D01*
X582597Y843760D01*
X582604Y843782D01*
X582603Y843814D01*
X582611Y843885D01*
X582611Y883115D01*
X582597Y883205D01*
X582589Y883296D01*
X582577Y883325D01*
X582572Y883357D01*
X582529Y883438D01*
X582493Y883522D01*
X582467Y883554D01*
X582456Y883575D01*
X582433Y883597D01*
X582388Y883653D01*
X581575Y884466D01*
X581575Y905534D01*
X583066Y907025D01*
X593334Y907025D01*
X594825Y905534D01*
X594825Y884466D01*
X594012Y883653D01*
X593959Y883579D01*
X593899Y883509D01*
X593887Y883479D01*
X593868Y883453D01*
X593841Y883366D01*
X593807Y883281D01*
X593803Y883240D01*
X593796Y883218D01*
X593797Y883186D01*
X593789Y883115D01*
X593789Y843885D01*
X593803Y843795D01*
X593811Y843704D01*
X593823Y843675D01*
X593828Y843643D01*
X593871Y843562D01*
X593907Y843478D01*
X593933Y843446D01*
X593944Y843425D01*
X593967Y843403D01*
X594012Y843347D01*
X594825Y842534D01*
X594825Y821466D01*
X593334Y819975D01*
X583066Y819975D01*
G37*
%LPD*%
%LPC*%
G36*
X710066Y819975D02*
X710066Y819975D01*
X708575Y821466D01*
X708575Y842534D01*
X709388Y843347D01*
X709441Y843421D01*
X709501Y843491D01*
X709513Y843521D01*
X709532Y843547D01*
X709559Y843634D01*
X709593Y843719D01*
X709597Y843760D01*
X709604Y843782D01*
X709603Y843814D01*
X709611Y843885D01*
X709611Y883115D01*
X709597Y883205D01*
X709589Y883296D01*
X709577Y883325D01*
X709572Y883357D01*
X709529Y883438D01*
X709493Y883522D01*
X709467Y883554D01*
X709456Y883575D01*
X709433Y883597D01*
X709388Y883653D01*
X708575Y884466D01*
X708575Y905534D01*
X710066Y907025D01*
X720334Y907025D01*
X721825Y905534D01*
X721825Y884466D01*
X721012Y883653D01*
X720959Y883579D01*
X720899Y883509D01*
X720887Y883479D01*
X720868Y883453D01*
X720841Y883366D01*
X720807Y883281D01*
X720803Y883240D01*
X720796Y883218D01*
X720797Y883186D01*
X720789Y883115D01*
X720789Y843885D01*
X720803Y843795D01*
X720811Y843704D01*
X720823Y843675D01*
X720828Y843643D01*
X720871Y843562D01*
X720907Y843478D01*
X720933Y843446D01*
X720944Y843425D01*
X720967Y843403D01*
X721012Y843347D01*
X721825Y842534D01*
X721825Y821466D01*
X720334Y819975D01*
X710066Y819975D01*
G37*
%LPD*%
%LPC*%
G36*
X684666Y819975D02*
X684666Y819975D01*
X683175Y821466D01*
X683175Y842534D01*
X683988Y843347D01*
X684041Y843421D01*
X684101Y843491D01*
X684113Y843521D01*
X684132Y843547D01*
X684159Y843634D01*
X684193Y843719D01*
X684197Y843760D01*
X684204Y843782D01*
X684203Y843814D01*
X684211Y843885D01*
X684211Y883115D01*
X684197Y883205D01*
X684189Y883296D01*
X684177Y883325D01*
X684172Y883357D01*
X684129Y883438D01*
X684093Y883522D01*
X684067Y883554D01*
X684056Y883575D01*
X684033Y883597D01*
X683988Y883653D01*
X683175Y884466D01*
X683175Y905534D01*
X684666Y907025D01*
X694934Y907025D01*
X696425Y905534D01*
X696425Y884466D01*
X695612Y883653D01*
X695559Y883579D01*
X695499Y883509D01*
X695487Y883479D01*
X695468Y883453D01*
X695441Y883366D01*
X695407Y883281D01*
X695403Y883240D01*
X695396Y883218D01*
X695397Y883186D01*
X695389Y883115D01*
X695389Y843885D01*
X695403Y843795D01*
X695411Y843704D01*
X695423Y843675D01*
X695428Y843643D01*
X695471Y843562D01*
X695507Y843478D01*
X695533Y843446D01*
X695544Y843425D01*
X695567Y843403D01*
X695612Y843347D01*
X696425Y842534D01*
X696425Y821466D01*
X694934Y819975D01*
X684666Y819975D01*
G37*
%LPD*%
%LPC*%
G36*
X659266Y819975D02*
X659266Y819975D01*
X657775Y821466D01*
X657775Y842534D01*
X658588Y843347D01*
X658641Y843421D01*
X658701Y843491D01*
X658713Y843521D01*
X658732Y843547D01*
X658759Y843634D01*
X658793Y843719D01*
X658797Y843760D01*
X658804Y843782D01*
X658803Y843814D01*
X658811Y843885D01*
X658811Y883115D01*
X658797Y883205D01*
X658789Y883296D01*
X658777Y883325D01*
X658772Y883357D01*
X658729Y883438D01*
X658693Y883522D01*
X658667Y883554D01*
X658656Y883575D01*
X658633Y883597D01*
X658588Y883653D01*
X657775Y884466D01*
X657775Y905534D01*
X659266Y907025D01*
X669534Y907025D01*
X671025Y905534D01*
X671025Y884466D01*
X670212Y883653D01*
X670159Y883579D01*
X670099Y883509D01*
X670087Y883479D01*
X670068Y883453D01*
X670041Y883366D01*
X670007Y883281D01*
X670003Y883240D01*
X669996Y883218D01*
X669997Y883186D01*
X669989Y883115D01*
X669989Y843885D01*
X670003Y843795D01*
X670011Y843704D01*
X670023Y843675D01*
X670028Y843643D01*
X670071Y843562D01*
X670107Y843478D01*
X670133Y843446D01*
X670144Y843425D01*
X670167Y843403D01*
X670212Y843347D01*
X671025Y842534D01*
X671025Y821466D01*
X669534Y819975D01*
X659266Y819975D01*
G37*
%LPD*%
%LPC*%
G36*
X608466Y819975D02*
X608466Y819975D01*
X606975Y821466D01*
X606975Y842534D01*
X607788Y843347D01*
X607841Y843421D01*
X607901Y843491D01*
X607913Y843521D01*
X607932Y843547D01*
X607959Y843634D01*
X607993Y843719D01*
X607997Y843760D01*
X608004Y843782D01*
X608003Y843814D01*
X608011Y843885D01*
X608011Y883115D01*
X607997Y883205D01*
X607989Y883296D01*
X607977Y883325D01*
X607972Y883357D01*
X607929Y883438D01*
X607893Y883522D01*
X607867Y883554D01*
X607856Y883575D01*
X607833Y883597D01*
X607788Y883653D01*
X606975Y884466D01*
X606975Y905534D01*
X608466Y907025D01*
X618734Y907025D01*
X620225Y905534D01*
X620225Y884466D01*
X619412Y883653D01*
X619359Y883579D01*
X619299Y883509D01*
X619287Y883479D01*
X619268Y883453D01*
X619241Y883366D01*
X619207Y883281D01*
X619203Y883240D01*
X619196Y883218D01*
X619197Y883186D01*
X619189Y883115D01*
X619189Y843885D01*
X619203Y843795D01*
X619211Y843704D01*
X619223Y843675D01*
X619228Y843643D01*
X619271Y843562D01*
X619307Y843478D01*
X619333Y843446D01*
X619344Y843425D01*
X619367Y843403D01*
X619412Y843347D01*
X620225Y842534D01*
X620225Y821466D01*
X618734Y819975D01*
X608466Y819975D01*
G37*
%LPD*%
%LPC*%
G36*
X430666Y819975D02*
X430666Y819975D01*
X429175Y821466D01*
X429175Y842534D01*
X429988Y843347D01*
X430041Y843421D01*
X430101Y843491D01*
X430113Y843521D01*
X430132Y843547D01*
X430159Y843634D01*
X430193Y843719D01*
X430197Y843760D01*
X430204Y843782D01*
X430203Y843814D01*
X430211Y843885D01*
X430211Y883115D01*
X430197Y883205D01*
X430189Y883296D01*
X430177Y883325D01*
X430172Y883357D01*
X430129Y883438D01*
X430093Y883522D01*
X430067Y883554D01*
X430056Y883575D01*
X430033Y883597D01*
X429988Y883653D01*
X429175Y884466D01*
X429175Y905534D01*
X430666Y907025D01*
X440934Y907025D01*
X442425Y905534D01*
X442425Y884466D01*
X441612Y883653D01*
X441559Y883579D01*
X441499Y883509D01*
X441487Y883479D01*
X441468Y883453D01*
X441441Y883366D01*
X441407Y883281D01*
X441403Y883240D01*
X441396Y883218D01*
X441397Y883186D01*
X441389Y883115D01*
X441389Y843885D01*
X441403Y843795D01*
X441411Y843704D01*
X441423Y843675D01*
X441428Y843643D01*
X441471Y843562D01*
X441507Y843478D01*
X441533Y843446D01*
X441544Y843425D01*
X441567Y843403D01*
X441612Y843347D01*
X442425Y842534D01*
X442425Y821466D01*
X440934Y819975D01*
X430666Y819975D01*
G37*
%LPD*%
%LPC*%
G36*
X405266Y819975D02*
X405266Y819975D01*
X403775Y821466D01*
X403775Y842534D01*
X404588Y843347D01*
X404641Y843421D01*
X404701Y843491D01*
X404713Y843521D01*
X404732Y843547D01*
X404759Y843634D01*
X404793Y843719D01*
X404797Y843760D01*
X404804Y843782D01*
X404803Y843814D01*
X404811Y843885D01*
X404811Y883115D01*
X404797Y883205D01*
X404789Y883296D01*
X404777Y883325D01*
X404772Y883357D01*
X404729Y883438D01*
X404693Y883522D01*
X404667Y883554D01*
X404656Y883575D01*
X404633Y883597D01*
X404588Y883653D01*
X403775Y884466D01*
X403775Y905534D01*
X405266Y907025D01*
X415534Y907025D01*
X417025Y905534D01*
X417025Y884466D01*
X416212Y883653D01*
X416159Y883579D01*
X416099Y883509D01*
X416087Y883479D01*
X416068Y883453D01*
X416041Y883366D01*
X416007Y883281D01*
X416003Y883240D01*
X415996Y883218D01*
X415997Y883186D01*
X415989Y883115D01*
X415989Y843885D01*
X416003Y843795D01*
X416011Y843704D01*
X416023Y843675D01*
X416028Y843643D01*
X416071Y843562D01*
X416107Y843478D01*
X416133Y843446D01*
X416144Y843425D01*
X416167Y843403D01*
X416212Y843347D01*
X417025Y842534D01*
X417025Y821466D01*
X415534Y819975D01*
X405266Y819975D01*
G37*
%LPD*%
%LPC*%
G36*
X557666Y819975D02*
X557666Y819975D01*
X556175Y821466D01*
X556175Y842534D01*
X556988Y843347D01*
X557041Y843421D01*
X557101Y843491D01*
X557113Y843521D01*
X557132Y843547D01*
X557159Y843634D01*
X557193Y843719D01*
X557197Y843760D01*
X557204Y843782D01*
X557203Y843814D01*
X557211Y843885D01*
X557211Y883115D01*
X557197Y883205D01*
X557189Y883296D01*
X557177Y883325D01*
X557172Y883357D01*
X557129Y883438D01*
X557093Y883522D01*
X557067Y883554D01*
X557056Y883575D01*
X557033Y883597D01*
X556988Y883653D01*
X556175Y884466D01*
X556175Y905534D01*
X557666Y907025D01*
X567934Y907025D01*
X569425Y905534D01*
X569425Y884466D01*
X568612Y883653D01*
X568559Y883579D01*
X568499Y883509D01*
X568487Y883479D01*
X568468Y883453D01*
X568441Y883366D01*
X568407Y883281D01*
X568403Y883240D01*
X568396Y883218D01*
X568397Y883186D01*
X568389Y883115D01*
X568389Y843885D01*
X568403Y843795D01*
X568411Y843704D01*
X568423Y843675D01*
X568428Y843643D01*
X568471Y843562D01*
X568507Y843478D01*
X568533Y843446D01*
X568544Y843425D01*
X568567Y843403D01*
X568612Y843347D01*
X569425Y842534D01*
X569425Y821466D01*
X567934Y819975D01*
X557666Y819975D01*
G37*
%LPD*%
%LPC*%
G36*
X532266Y819975D02*
X532266Y819975D01*
X530775Y821466D01*
X530775Y842534D01*
X531588Y843347D01*
X531641Y843421D01*
X531701Y843491D01*
X531713Y843521D01*
X531732Y843547D01*
X531759Y843634D01*
X531793Y843719D01*
X531797Y843760D01*
X531804Y843782D01*
X531803Y843814D01*
X531811Y843885D01*
X531811Y883115D01*
X531797Y883205D01*
X531789Y883296D01*
X531777Y883325D01*
X531772Y883357D01*
X531729Y883438D01*
X531693Y883522D01*
X531667Y883554D01*
X531656Y883575D01*
X531633Y883597D01*
X531588Y883653D01*
X530775Y884466D01*
X530775Y905534D01*
X532266Y907025D01*
X542534Y907025D01*
X544025Y905534D01*
X544025Y884466D01*
X543212Y883653D01*
X543159Y883579D01*
X543099Y883509D01*
X543087Y883479D01*
X543068Y883453D01*
X543041Y883366D01*
X543007Y883281D01*
X543003Y883240D01*
X542996Y883218D01*
X542997Y883186D01*
X542989Y883115D01*
X542989Y843885D01*
X543003Y843795D01*
X543011Y843704D01*
X543023Y843675D01*
X543028Y843643D01*
X543071Y843562D01*
X543107Y843478D01*
X543133Y843446D01*
X543144Y843425D01*
X543167Y843403D01*
X543212Y843347D01*
X544025Y842534D01*
X544025Y821466D01*
X542534Y819975D01*
X532266Y819975D01*
G37*
%LPD*%
%LPC*%
G36*
X329066Y539975D02*
X329066Y539975D01*
X327575Y541466D01*
X327575Y562534D01*
X328388Y563347D01*
X328441Y563421D01*
X328501Y563491D01*
X328513Y563521D01*
X328532Y563547D01*
X328559Y563634D01*
X328593Y563719D01*
X328597Y563760D01*
X328604Y563782D01*
X328603Y563814D01*
X328611Y563885D01*
X328611Y603115D01*
X328597Y603205D01*
X328589Y603296D01*
X328577Y603325D01*
X328572Y603357D01*
X328529Y603438D01*
X328493Y603522D01*
X328467Y603554D01*
X328456Y603575D01*
X328433Y603597D01*
X328388Y603653D01*
X327575Y604466D01*
X327575Y625534D01*
X329066Y627025D01*
X339334Y627025D01*
X340825Y625534D01*
X340825Y604466D01*
X340012Y603653D01*
X339959Y603579D01*
X339899Y603509D01*
X339887Y603479D01*
X339868Y603453D01*
X339841Y603366D01*
X339807Y603281D01*
X339803Y603240D01*
X339796Y603218D01*
X339797Y603186D01*
X339789Y603115D01*
X339789Y563885D01*
X339803Y563795D01*
X339811Y563704D01*
X339823Y563675D01*
X339828Y563643D01*
X339871Y563562D01*
X339907Y563478D01*
X339933Y563446D01*
X339944Y563425D01*
X339967Y563403D01*
X340012Y563347D01*
X340825Y562534D01*
X340825Y541466D01*
X339334Y539975D01*
X329066Y539975D01*
G37*
%LPD*%
%LPC*%
G36*
X278266Y539975D02*
X278266Y539975D01*
X276775Y541466D01*
X276775Y562534D01*
X277588Y563347D01*
X277641Y563421D01*
X277701Y563491D01*
X277713Y563521D01*
X277732Y563547D01*
X277759Y563634D01*
X277793Y563719D01*
X277797Y563760D01*
X277804Y563782D01*
X277803Y563814D01*
X277811Y563885D01*
X277811Y603115D01*
X277797Y603205D01*
X277789Y603296D01*
X277777Y603325D01*
X277772Y603357D01*
X277729Y603438D01*
X277693Y603522D01*
X277667Y603554D01*
X277656Y603575D01*
X277633Y603597D01*
X277588Y603653D01*
X276775Y604466D01*
X276775Y625534D01*
X278266Y627025D01*
X288534Y627025D01*
X290025Y625534D01*
X290025Y604466D01*
X289212Y603653D01*
X289159Y603579D01*
X289099Y603509D01*
X289087Y603479D01*
X289068Y603453D01*
X289041Y603366D01*
X289007Y603281D01*
X289003Y603240D01*
X288996Y603218D01*
X288997Y603186D01*
X288989Y603115D01*
X288989Y563885D01*
X289003Y563795D01*
X289011Y563704D01*
X289023Y563675D01*
X289028Y563643D01*
X289071Y563562D01*
X289107Y563478D01*
X289133Y563446D01*
X289144Y563425D01*
X289167Y563403D01*
X289212Y563347D01*
X290025Y562534D01*
X290025Y541466D01*
X288534Y539975D01*
X278266Y539975D01*
G37*
%LPD*%
%LPC*%
G36*
X354466Y539975D02*
X354466Y539975D01*
X352975Y541466D01*
X352975Y562534D01*
X353788Y563347D01*
X353841Y563421D01*
X353901Y563491D01*
X353913Y563521D01*
X353932Y563547D01*
X353959Y563634D01*
X353993Y563719D01*
X353997Y563760D01*
X354004Y563782D01*
X354003Y563814D01*
X354011Y563885D01*
X354011Y603115D01*
X353997Y603205D01*
X353989Y603296D01*
X353977Y603325D01*
X353972Y603357D01*
X353929Y603438D01*
X353893Y603522D01*
X353867Y603554D01*
X353856Y603575D01*
X353833Y603597D01*
X353788Y603653D01*
X352975Y604466D01*
X352975Y625534D01*
X354466Y627025D01*
X364734Y627025D01*
X366225Y625534D01*
X366225Y604466D01*
X365412Y603653D01*
X365359Y603579D01*
X365299Y603509D01*
X365287Y603479D01*
X365268Y603453D01*
X365241Y603366D01*
X365207Y603281D01*
X365203Y603240D01*
X365196Y603218D01*
X365197Y603186D01*
X365189Y603115D01*
X365189Y563885D01*
X365203Y563795D01*
X365211Y563704D01*
X365223Y563675D01*
X365228Y563643D01*
X365271Y563562D01*
X365307Y563478D01*
X365333Y563446D01*
X365344Y563425D01*
X365367Y563403D01*
X365412Y563347D01*
X366225Y562534D01*
X366225Y541466D01*
X364734Y539975D01*
X354466Y539975D01*
G37*
%LPD*%
%LPC*%
G36*
X303666Y539975D02*
X303666Y539975D01*
X302175Y541466D01*
X302175Y562534D01*
X302988Y563347D01*
X303041Y563421D01*
X303101Y563491D01*
X303113Y563521D01*
X303132Y563547D01*
X303159Y563634D01*
X303193Y563719D01*
X303197Y563760D01*
X303204Y563782D01*
X303203Y563814D01*
X303211Y563885D01*
X303211Y603115D01*
X303197Y603205D01*
X303189Y603296D01*
X303177Y603325D01*
X303172Y603357D01*
X303129Y603438D01*
X303093Y603522D01*
X303067Y603554D01*
X303056Y603575D01*
X303033Y603597D01*
X302988Y603653D01*
X302175Y604466D01*
X302175Y625534D01*
X303666Y627025D01*
X313934Y627025D01*
X315425Y625534D01*
X315425Y604466D01*
X314612Y603653D01*
X314559Y603579D01*
X314499Y603509D01*
X314487Y603479D01*
X314468Y603453D01*
X314441Y603366D01*
X314407Y603281D01*
X314403Y603240D01*
X314396Y603218D01*
X314397Y603186D01*
X314389Y603115D01*
X314389Y563885D01*
X314403Y563795D01*
X314411Y563704D01*
X314423Y563675D01*
X314428Y563643D01*
X314471Y563562D01*
X314507Y563478D01*
X314533Y563446D01*
X314544Y563425D01*
X314567Y563403D01*
X314612Y563347D01*
X315425Y562534D01*
X315425Y541466D01*
X313934Y539975D01*
X303666Y539975D01*
G37*
%LPD*%
%LPC*%
G36*
X608466Y539975D02*
X608466Y539975D01*
X606975Y541466D01*
X606975Y562534D01*
X607788Y563347D01*
X607841Y563421D01*
X607901Y563490D01*
X607913Y563521D01*
X607932Y563547D01*
X607959Y563634D01*
X607993Y563719D01*
X607997Y563760D01*
X608004Y563782D01*
X608003Y563814D01*
X608011Y563885D01*
X608011Y603115D01*
X607997Y603205D01*
X607989Y603296D01*
X607977Y603325D01*
X607972Y603357D01*
X607929Y603438D01*
X607893Y603522D01*
X607867Y603554D01*
X607856Y603575D01*
X607833Y603597D01*
X607788Y603653D01*
X606975Y604466D01*
X606975Y625534D01*
X608466Y627025D01*
X618734Y627025D01*
X620225Y625534D01*
X620225Y604466D01*
X619412Y603653D01*
X619359Y603579D01*
X619299Y603509D01*
X619287Y603479D01*
X619268Y603453D01*
X619241Y603366D01*
X619207Y603281D01*
X619203Y603240D01*
X619196Y603218D01*
X619197Y603186D01*
X619189Y603115D01*
X619189Y563885D01*
X619203Y563795D01*
X619211Y563704D01*
X619223Y563675D01*
X619228Y563643D01*
X619271Y563562D01*
X619307Y563478D01*
X619333Y563446D01*
X619344Y563425D01*
X619367Y563403D01*
X619412Y563347D01*
X620225Y562534D01*
X620225Y541466D01*
X618734Y539975D01*
X608466Y539975D01*
G37*
%LPD*%
%LPC*%
G36*
X405266Y539975D02*
X405266Y539975D01*
X403775Y541466D01*
X403775Y562534D01*
X404588Y563347D01*
X404641Y563421D01*
X404701Y563491D01*
X404713Y563521D01*
X404732Y563547D01*
X404759Y563634D01*
X404793Y563719D01*
X404797Y563760D01*
X404804Y563782D01*
X404803Y563814D01*
X404811Y563885D01*
X404811Y603115D01*
X404797Y603205D01*
X404789Y603296D01*
X404777Y603325D01*
X404772Y603357D01*
X404729Y603438D01*
X404693Y603522D01*
X404667Y603554D01*
X404656Y603575D01*
X404633Y603597D01*
X404588Y603653D01*
X403775Y604466D01*
X403775Y625534D01*
X405266Y627025D01*
X415534Y627025D01*
X417025Y625534D01*
X417025Y604466D01*
X416212Y603653D01*
X416159Y603579D01*
X416099Y603510D01*
X416087Y603479D01*
X416068Y603453D01*
X416041Y603366D01*
X416007Y603281D01*
X416003Y603240D01*
X415996Y603218D01*
X415997Y603186D01*
X415989Y603115D01*
X415989Y563885D01*
X416003Y563795D01*
X416011Y563704D01*
X416023Y563675D01*
X416028Y563643D01*
X416071Y563562D01*
X416107Y563478D01*
X416133Y563446D01*
X416144Y563425D01*
X416167Y563403D01*
X416212Y563347D01*
X417025Y562534D01*
X417025Y541466D01*
X415534Y539975D01*
X405266Y539975D01*
G37*
%LPD*%
%LPC*%
G36*
X278266Y819975D02*
X278266Y819975D01*
X276775Y821466D01*
X276775Y842534D01*
X277588Y843347D01*
X277641Y843421D01*
X277701Y843490D01*
X277713Y843521D01*
X277732Y843547D01*
X277759Y843634D01*
X277793Y843719D01*
X277797Y843760D01*
X277804Y843782D01*
X277803Y843814D01*
X277811Y843885D01*
X277811Y883115D01*
X277797Y883205D01*
X277789Y883296D01*
X277777Y883325D01*
X277772Y883357D01*
X277729Y883438D01*
X277693Y883522D01*
X277667Y883554D01*
X277656Y883575D01*
X277633Y883597D01*
X277588Y883653D01*
X276775Y884466D01*
X276775Y905534D01*
X278266Y907025D01*
X288534Y907025D01*
X290025Y905534D01*
X290025Y884466D01*
X289212Y883653D01*
X289159Y883579D01*
X289099Y883510D01*
X289087Y883479D01*
X289068Y883453D01*
X289041Y883366D01*
X289007Y883281D01*
X289003Y883240D01*
X288996Y883218D01*
X288997Y883186D01*
X288989Y883115D01*
X288989Y843885D01*
X289003Y843795D01*
X289011Y843704D01*
X289023Y843675D01*
X289028Y843643D01*
X289071Y843562D01*
X289107Y843478D01*
X289133Y843446D01*
X289144Y843425D01*
X289167Y843403D01*
X289212Y843347D01*
X290025Y842534D01*
X290025Y821466D01*
X288534Y819975D01*
X278266Y819975D01*
G37*
%LPD*%
%LPC*%
G36*
X710066Y539975D02*
X710066Y539975D01*
X708575Y541466D01*
X708575Y562534D01*
X709388Y563347D01*
X709441Y563421D01*
X709501Y563490D01*
X709513Y563521D01*
X709532Y563547D01*
X709559Y563634D01*
X709593Y563719D01*
X709597Y563760D01*
X709604Y563782D01*
X709603Y563814D01*
X709611Y563885D01*
X709611Y603115D01*
X709597Y603205D01*
X709589Y603296D01*
X709577Y603325D01*
X709572Y603357D01*
X709529Y603438D01*
X709493Y603522D01*
X709467Y603554D01*
X709456Y603575D01*
X709433Y603597D01*
X709388Y603653D01*
X708575Y604466D01*
X708575Y625534D01*
X710066Y627025D01*
X720334Y627025D01*
X721825Y625534D01*
X721825Y604466D01*
X721012Y603653D01*
X720959Y603579D01*
X720899Y603510D01*
X720887Y603479D01*
X720868Y603453D01*
X720841Y603366D01*
X720807Y603281D01*
X720803Y603240D01*
X720796Y603218D01*
X720797Y603186D01*
X720789Y603115D01*
X720789Y563885D01*
X720803Y563795D01*
X720811Y563704D01*
X720823Y563675D01*
X720828Y563643D01*
X720871Y563562D01*
X720907Y563478D01*
X720933Y563446D01*
X720944Y563425D01*
X720967Y563403D01*
X721012Y563347D01*
X721825Y562534D01*
X721825Y541466D01*
X720334Y539975D01*
X710066Y539975D01*
G37*
%LPD*%
%LPC*%
G36*
X881523Y611523D02*
X881523Y611523D01*
X881523Y625241D01*
X905734Y625241D01*
X906381Y625068D01*
X906960Y624733D01*
X907433Y624260D01*
X907768Y623681D01*
X907941Y623034D01*
X907941Y611523D01*
X881523Y611523D01*
G37*
%LPD*%
%LPC*%
G36*
X852059Y611523D02*
X852059Y611523D01*
X852059Y623034D01*
X852232Y623681D01*
X852567Y624260D01*
X853040Y624733D01*
X853619Y625068D01*
X854266Y625241D01*
X878477Y625241D01*
X878477Y611523D01*
X852059Y611523D01*
G37*
%LPD*%
%LPC*%
G36*
X881523Y594759D02*
X881523Y594759D01*
X881523Y608477D01*
X907941Y608477D01*
X907941Y596966D01*
X907768Y596319D01*
X907433Y595740D01*
X906960Y595267D01*
X906381Y594932D01*
X905734Y594759D01*
X881523Y594759D01*
G37*
%LPD*%
%LPC*%
G36*
X854266Y594759D02*
X854266Y594759D01*
X853619Y594932D01*
X853040Y595267D01*
X852567Y595740D01*
X852232Y596319D01*
X852059Y596966D01*
X852059Y608477D01*
X878477Y608477D01*
X878477Y594759D01*
X854266Y594759D01*
G37*
%LPD*%
%LPC*%
G36*
X735466Y882975D02*
X735466Y882975D01*
X733975Y884466D01*
X733975Y905534D01*
X735466Y907025D01*
X745734Y907025D01*
X747225Y905534D01*
X747225Y884466D01*
X745734Y882975D01*
X735466Y882975D01*
G37*
%LPD*%
%LPC*%
G36*
X760866Y602975D02*
X760866Y602975D01*
X759375Y604466D01*
X759375Y625534D01*
X760866Y627025D01*
X771134Y627025D01*
X772625Y625534D01*
X772625Y604466D01*
X771134Y602975D01*
X760866Y602975D01*
G37*
%LPD*%
%LPC*%
G36*
X735466Y602975D02*
X735466Y602975D01*
X733975Y604466D01*
X733975Y625534D01*
X735466Y627025D01*
X745734Y627025D01*
X747225Y625534D01*
X747225Y604466D01*
X745734Y602975D01*
X735466Y602975D01*
G37*
%LPD*%
%LPC*%
G36*
X735466Y819975D02*
X735466Y819975D01*
X733975Y821466D01*
X733975Y842534D01*
X735466Y844025D01*
X745734Y844025D01*
X747225Y842534D01*
X747225Y821466D01*
X745734Y819975D01*
X735466Y819975D01*
G37*
%LPD*%
%LPC*%
G36*
X760866Y819975D02*
X760866Y819975D01*
X759375Y821466D01*
X759375Y842534D01*
X760866Y844025D01*
X771134Y844025D01*
X772625Y842534D01*
X772625Y821466D01*
X771134Y819975D01*
X760866Y819975D01*
G37*
%LPD*%
%LPC*%
G36*
X760866Y539975D02*
X760866Y539975D01*
X759375Y541466D01*
X759375Y562534D01*
X760866Y564025D01*
X771134Y564025D01*
X772625Y562534D01*
X772625Y541466D01*
X771134Y539975D01*
X760866Y539975D01*
G37*
%LPD*%
%LPC*%
G36*
X735466Y539975D02*
X735466Y539975D01*
X733975Y541466D01*
X733975Y562534D01*
X735466Y564025D01*
X745734Y564025D01*
X747225Y562534D01*
X747225Y541466D01*
X745734Y539975D01*
X735466Y539975D01*
G37*
%LPD*%
%LPC*%
G36*
X121523Y391523D02*
X121523Y391523D01*
X121523Y410013D01*
X123918Y409698D01*
X126456Y409018D01*
X128883Y408013D01*
X131158Y406699D01*
X133242Y405100D01*
X135100Y403242D01*
X136699Y401158D01*
X138013Y398883D01*
X139018Y396456D01*
X139698Y393918D01*
X140013Y391523D01*
X121523Y391523D01*
G37*
%LPD*%
%LPC*%
G36*
X99987Y391523D02*
X99987Y391523D01*
X100302Y393918D01*
X100982Y396456D01*
X101987Y398883D01*
X103301Y401158D01*
X104900Y403242D01*
X106758Y405100D01*
X108842Y406699D01*
X111117Y408013D01*
X113544Y409018D01*
X116082Y409698D01*
X118477Y410013D01*
X118477Y391523D01*
X99987Y391523D01*
G37*
%LPD*%
%LPC*%
G36*
X121523Y388477D02*
X121523Y388477D01*
X140013Y388477D01*
X139698Y386082D01*
X139018Y383544D01*
X138013Y381117D01*
X136699Y378842D01*
X135100Y376758D01*
X133242Y374900D01*
X131158Y373301D01*
X128883Y371987D01*
X126456Y370982D01*
X123918Y370302D01*
X121523Y369987D01*
X121523Y388477D01*
G37*
%LPD*%
%LPC*%
G36*
X116082Y370302D02*
X116082Y370302D01*
X113544Y370982D01*
X111117Y371987D01*
X108842Y373301D01*
X106758Y374900D01*
X104900Y376758D01*
X103301Y378842D01*
X101987Y381117D01*
X100982Y383544D01*
X100302Y386082D01*
X99987Y388477D01*
X118477Y388477D01*
X118477Y369987D01*
X116082Y370302D01*
G37*
%LPD*%
%LPC*%
G36*
X640523Y896523D02*
X640523Y896523D01*
X640523Y908041D01*
X643549Y908041D01*
X644454Y907798D01*
X645266Y907329D01*
X645929Y906666D01*
X646398Y905854D01*
X646641Y904949D01*
X646641Y896523D01*
X640523Y896523D01*
G37*
%LPD*%
%LPC*%
G36*
X640523Y833523D02*
X640523Y833523D01*
X640523Y845041D01*
X643549Y845041D01*
X644454Y844798D01*
X645266Y844329D01*
X645929Y843666D01*
X646398Y842854D01*
X646641Y841949D01*
X646641Y833523D01*
X640523Y833523D01*
G37*
%LPD*%
%LPC*%
G36*
X640523Y830477D02*
X640523Y830477D01*
X646641Y830477D01*
X646641Y822051D01*
X646398Y821146D01*
X645929Y820334D01*
X645266Y819671D01*
X644454Y819202D01*
X643549Y818959D01*
X640523Y818959D01*
X640523Y830477D01*
G37*
%LPD*%
%LPC*%
G36*
X640523Y893477D02*
X640523Y893477D01*
X646641Y893477D01*
X646641Y885051D01*
X646398Y884146D01*
X645929Y883334D01*
X645266Y882671D01*
X644454Y882202D01*
X643549Y881959D01*
X640523Y881959D01*
X640523Y893477D01*
G37*
%LPD*%
%LPC*%
G36*
X631359Y896523D02*
X631359Y896523D01*
X631359Y904949D01*
X631602Y905854D01*
X632071Y906666D01*
X632734Y907329D01*
X633546Y907798D01*
X634451Y908041D01*
X637477Y908041D01*
X637477Y896523D01*
X631359Y896523D01*
G37*
%LPD*%
%LPC*%
G36*
X631359Y833523D02*
X631359Y833523D01*
X631359Y841949D01*
X631602Y842854D01*
X632071Y843666D01*
X632734Y844329D01*
X633546Y844798D01*
X634451Y845041D01*
X637477Y845041D01*
X637477Y833523D01*
X631359Y833523D01*
G37*
%LPD*%
%LPC*%
G36*
X634451Y818959D02*
X634451Y818959D01*
X633546Y819202D01*
X632734Y819671D01*
X632071Y820334D01*
X631602Y821146D01*
X631359Y822051D01*
X631359Y830477D01*
X637477Y830477D01*
X637477Y818959D01*
X634451Y818959D01*
G37*
%LPD*%
%LPC*%
G36*
X634451Y881959D02*
X634451Y881959D01*
X633546Y882202D01*
X632734Y882671D01*
X632071Y883334D01*
X631602Y884146D01*
X631359Y885051D01*
X631359Y893477D01*
X637477Y893477D01*
X637477Y881959D01*
X634451Y881959D01*
G37*
%LPD*%
%LPC*%
G36*
X119999Y389999D02*
X119999Y389999D01*
X119999Y390001D01*
X120001Y390001D01*
X120001Y389999D01*
X119999Y389999D01*
G37*
%LPD*%
%LPC*%
G36*
X638999Y831999D02*
X638999Y831999D01*
X638999Y832001D01*
X639001Y832001D01*
X639001Y831999D01*
X638999Y831999D01*
G37*
%LPD*%
%LPC*%
G36*
X638999Y894999D02*
X638999Y894999D01*
X638999Y895001D01*
X639001Y895001D01*
X639001Y894999D01*
X638999Y894999D01*
G37*
%LPD*%
%LPC*%
G36*
X879999Y609999D02*
X879999Y609999D01*
X879999Y610001D01*
X880001Y610001D01*
X880001Y609999D01*
X879999Y609999D01*
G37*
%LPD*%
D10*
X120000Y390000D03*
X880000Y390000D03*
D11*
X880000Y660000D03*
X880000Y610000D03*
D12*
X279320Y822520D02*
X279320Y841480D01*
X287480Y841480D01*
X287480Y822520D01*
X279320Y822520D01*
X279320Y824458D02*
X287480Y824458D01*
X287480Y826396D02*
X279320Y826396D01*
X279320Y828334D02*
X287480Y828334D01*
X287480Y830272D02*
X279320Y830272D01*
X279320Y832210D02*
X287480Y832210D01*
X287480Y834148D02*
X279320Y834148D01*
X279320Y836086D02*
X287480Y836086D01*
X287480Y838024D02*
X279320Y838024D01*
X279320Y839962D02*
X287480Y839962D01*
X304720Y841480D02*
X304720Y822520D01*
X304720Y841480D02*
X312880Y841480D01*
X312880Y822520D01*
X304720Y822520D01*
X304720Y824458D02*
X312880Y824458D01*
X312880Y826396D02*
X304720Y826396D01*
X304720Y828334D02*
X312880Y828334D01*
X312880Y830272D02*
X304720Y830272D01*
X304720Y832210D02*
X312880Y832210D01*
X312880Y834148D02*
X304720Y834148D01*
X304720Y836086D02*
X312880Y836086D01*
X312880Y838024D02*
X304720Y838024D01*
X304720Y839962D02*
X312880Y839962D01*
X330120Y841480D02*
X330120Y822520D01*
X330120Y841480D02*
X338280Y841480D01*
X338280Y822520D01*
X330120Y822520D01*
X330120Y824458D02*
X338280Y824458D01*
X338280Y826396D02*
X330120Y826396D01*
X330120Y828334D02*
X338280Y828334D01*
X338280Y830272D02*
X330120Y830272D01*
X330120Y832210D02*
X338280Y832210D01*
X338280Y834148D02*
X330120Y834148D01*
X330120Y836086D02*
X338280Y836086D01*
X338280Y838024D02*
X330120Y838024D01*
X330120Y839962D02*
X338280Y839962D01*
X355520Y841480D02*
X355520Y822520D01*
X355520Y841480D02*
X363680Y841480D01*
X363680Y822520D01*
X355520Y822520D01*
X355520Y824458D02*
X363680Y824458D01*
X363680Y826396D02*
X355520Y826396D01*
X355520Y828334D02*
X363680Y828334D01*
X363680Y830272D02*
X355520Y830272D01*
X355520Y832210D02*
X363680Y832210D01*
X363680Y834148D02*
X355520Y834148D01*
X355520Y836086D02*
X363680Y836086D01*
X363680Y838024D02*
X355520Y838024D01*
X355520Y839962D02*
X363680Y839962D01*
X380920Y841480D02*
X380920Y822520D01*
X380920Y841480D02*
X389080Y841480D01*
X389080Y822520D01*
X380920Y822520D01*
X380920Y824458D02*
X389080Y824458D01*
X389080Y826396D02*
X380920Y826396D01*
X380920Y828334D02*
X389080Y828334D01*
X389080Y830272D02*
X380920Y830272D01*
X380920Y832210D02*
X389080Y832210D01*
X389080Y834148D02*
X380920Y834148D01*
X380920Y836086D02*
X389080Y836086D01*
X389080Y838024D02*
X380920Y838024D01*
X380920Y839962D02*
X389080Y839962D01*
X406320Y841480D02*
X406320Y822520D01*
X406320Y841480D02*
X414480Y841480D01*
X414480Y822520D01*
X406320Y822520D01*
X406320Y824458D02*
X414480Y824458D01*
X414480Y826396D02*
X406320Y826396D01*
X406320Y828334D02*
X414480Y828334D01*
X414480Y830272D02*
X406320Y830272D01*
X406320Y832210D02*
X414480Y832210D01*
X414480Y834148D02*
X406320Y834148D01*
X406320Y836086D02*
X414480Y836086D01*
X414480Y838024D02*
X406320Y838024D01*
X406320Y839962D02*
X414480Y839962D01*
X431720Y841480D02*
X431720Y822520D01*
X431720Y841480D02*
X439880Y841480D01*
X439880Y822520D01*
X431720Y822520D01*
X431720Y824458D02*
X439880Y824458D01*
X439880Y826396D02*
X431720Y826396D01*
X431720Y828334D02*
X439880Y828334D01*
X439880Y830272D02*
X431720Y830272D01*
X431720Y832210D02*
X439880Y832210D01*
X439880Y834148D02*
X431720Y834148D01*
X431720Y836086D02*
X439880Y836086D01*
X439880Y838024D02*
X431720Y838024D01*
X431720Y839962D02*
X439880Y839962D01*
X457120Y841480D02*
X457120Y822520D01*
X457120Y841480D02*
X465280Y841480D01*
X465280Y822520D01*
X457120Y822520D01*
X457120Y824458D02*
X465280Y824458D01*
X465280Y826396D02*
X457120Y826396D01*
X457120Y828334D02*
X465280Y828334D01*
X465280Y830272D02*
X457120Y830272D01*
X457120Y832210D02*
X465280Y832210D01*
X465280Y834148D02*
X457120Y834148D01*
X457120Y836086D02*
X465280Y836086D01*
X465280Y838024D02*
X457120Y838024D01*
X457120Y839962D02*
X465280Y839962D01*
X482520Y841480D02*
X482520Y822520D01*
X482520Y841480D02*
X490680Y841480D01*
X490680Y822520D01*
X482520Y822520D01*
X482520Y824458D02*
X490680Y824458D01*
X490680Y826396D02*
X482520Y826396D01*
X482520Y828334D02*
X490680Y828334D01*
X490680Y830272D02*
X482520Y830272D01*
X482520Y832210D02*
X490680Y832210D01*
X490680Y834148D02*
X482520Y834148D01*
X482520Y836086D02*
X490680Y836086D01*
X490680Y838024D02*
X482520Y838024D01*
X482520Y839962D02*
X490680Y839962D01*
X507920Y841480D02*
X507920Y822520D01*
X507920Y841480D02*
X516080Y841480D01*
X516080Y822520D01*
X507920Y822520D01*
X507920Y824458D02*
X516080Y824458D01*
X516080Y826396D02*
X507920Y826396D01*
X507920Y828334D02*
X516080Y828334D01*
X516080Y830272D02*
X507920Y830272D01*
X507920Y832210D02*
X516080Y832210D01*
X516080Y834148D02*
X507920Y834148D01*
X507920Y836086D02*
X516080Y836086D01*
X516080Y838024D02*
X507920Y838024D01*
X507920Y839962D02*
X516080Y839962D01*
X533320Y841480D02*
X533320Y822520D01*
X533320Y841480D02*
X541480Y841480D01*
X541480Y822520D01*
X533320Y822520D01*
X533320Y824458D02*
X541480Y824458D01*
X541480Y826396D02*
X533320Y826396D01*
X533320Y828334D02*
X541480Y828334D01*
X541480Y830272D02*
X533320Y830272D01*
X533320Y832210D02*
X541480Y832210D01*
X541480Y834148D02*
X533320Y834148D01*
X533320Y836086D02*
X541480Y836086D01*
X541480Y838024D02*
X533320Y838024D01*
X533320Y839962D02*
X541480Y839962D01*
X558720Y841480D02*
X558720Y822520D01*
X558720Y841480D02*
X566880Y841480D01*
X566880Y822520D01*
X558720Y822520D01*
X558720Y824458D02*
X566880Y824458D01*
X566880Y826396D02*
X558720Y826396D01*
X558720Y828334D02*
X566880Y828334D01*
X566880Y830272D02*
X558720Y830272D01*
X558720Y832210D02*
X566880Y832210D01*
X566880Y834148D02*
X558720Y834148D01*
X558720Y836086D02*
X566880Y836086D01*
X566880Y838024D02*
X558720Y838024D01*
X558720Y839962D02*
X566880Y839962D01*
X584120Y841480D02*
X584120Y822520D01*
X584120Y841480D02*
X592280Y841480D01*
X592280Y822520D01*
X584120Y822520D01*
X584120Y824458D02*
X592280Y824458D01*
X592280Y826396D02*
X584120Y826396D01*
X584120Y828334D02*
X592280Y828334D01*
X592280Y830272D02*
X584120Y830272D01*
X584120Y832210D02*
X592280Y832210D01*
X592280Y834148D02*
X584120Y834148D01*
X584120Y836086D02*
X592280Y836086D01*
X592280Y838024D02*
X584120Y838024D01*
X584120Y839962D02*
X592280Y839962D01*
X609520Y841480D02*
X609520Y822520D01*
X609520Y841480D02*
X617680Y841480D01*
X617680Y822520D01*
X609520Y822520D01*
X609520Y824458D02*
X617680Y824458D01*
X617680Y826396D02*
X609520Y826396D01*
X609520Y828334D02*
X617680Y828334D01*
X617680Y830272D02*
X609520Y830272D01*
X609520Y832210D02*
X617680Y832210D01*
X617680Y834148D02*
X609520Y834148D01*
X609520Y836086D02*
X617680Y836086D01*
X617680Y838024D02*
X609520Y838024D01*
X609520Y839962D02*
X617680Y839962D01*
X634920Y841480D02*
X634920Y822520D01*
X634920Y841480D02*
X643080Y841480D01*
X643080Y822520D01*
X634920Y822520D01*
X634920Y824458D02*
X643080Y824458D01*
X643080Y826396D02*
X634920Y826396D01*
X634920Y828334D02*
X643080Y828334D01*
X643080Y830272D02*
X634920Y830272D01*
X634920Y832210D02*
X643080Y832210D01*
X643080Y834148D02*
X634920Y834148D01*
X634920Y836086D02*
X643080Y836086D01*
X643080Y838024D02*
X634920Y838024D01*
X634920Y839962D02*
X643080Y839962D01*
X660320Y841480D02*
X660320Y822520D01*
X660320Y841480D02*
X668480Y841480D01*
X668480Y822520D01*
X660320Y822520D01*
X660320Y824458D02*
X668480Y824458D01*
X668480Y826396D02*
X660320Y826396D01*
X660320Y828334D02*
X668480Y828334D01*
X668480Y830272D02*
X660320Y830272D01*
X660320Y832210D02*
X668480Y832210D01*
X668480Y834148D02*
X660320Y834148D01*
X660320Y836086D02*
X668480Y836086D01*
X668480Y838024D02*
X660320Y838024D01*
X660320Y839962D02*
X668480Y839962D01*
X685720Y841480D02*
X685720Y822520D01*
X685720Y841480D02*
X693880Y841480D01*
X693880Y822520D01*
X685720Y822520D01*
X685720Y824458D02*
X693880Y824458D01*
X693880Y826396D02*
X685720Y826396D01*
X685720Y828334D02*
X693880Y828334D01*
X693880Y830272D02*
X685720Y830272D01*
X685720Y832210D02*
X693880Y832210D01*
X693880Y834148D02*
X685720Y834148D01*
X685720Y836086D02*
X693880Y836086D01*
X693880Y838024D02*
X685720Y838024D01*
X685720Y839962D02*
X693880Y839962D01*
X711120Y841480D02*
X711120Y822520D01*
X711120Y841480D02*
X719280Y841480D01*
X719280Y822520D01*
X711120Y822520D01*
X711120Y824458D02*
X719280Y824458D01*
X719280Y826396D02*
X711120Y826396D01*
X711120Y828334D02*
X719280Y828334D01*
X719280Y830272D02*
X711120Y830272D01*
X711120Y832210D02*
X719280Y832210D01*
X719280Y834148D02*
X711120Y834148D01*
X711120Y836086D02*
X719280Y836086D01*
X719280Y838024D02*
X711120Y838024D01*
X711120Y839962D02*
X719280Y839962D01*
X736520Y841480D02*
X736520Y822520D01*
X736520Y841480D02*
X744680Y841480D01*
X744680Y822520D01*
X736520Y822520D01*
X736520Y824458D02*
X744680Y824458D01*
X744680Y826396D02*
X736520Y826396D01*
X736520Y828334D02*
X744680Y828334D01*
X744680Y830272D02*
X736520Y830272D01*
X736520Y832210D02*
X744680Y832210D01*
X744680Y834148D02*
X736520Y834148D01*
X736520Y836086D02*
X744680Y836086D01*
X744680Y838024D02*
X736520Y838024D01*
X736520Y839962D02*
X744680Y839962D01*
X761920Y841480D02*
X761920Y822520D01*
X761920Y841480D02*
X770080Y841480D01*
X770080Y822520D01*
X761920Y822520D01*
X761920Y824458D02*
X770080Y824458D01*
X770080Y826396D02*
X761920Y826396D01*
X761920Y828334D02*
X770080Y828334D01*
X770080Y830272D02*
X761920Y830272D01*
X761920Y832210D02*
X770080Y832210D01*
X770080Y834148D02*
X761920Y834148D01*
X761920Y836086D02*
X770080Y836086D01*
X770080Y838024D02*
X761920Y838024D01*
X761920Y839962D02*
X770080Y839962D01*
X279320Y885520D02*
X279320Y904480D01*
X287480Y904480D01*
X287480Y885520D01*
X279320Y885520D01*
X279320Y887458D02*
X287480Y887458D01*
X287480Y889396D02*
X279320Y889396D01*
X279320Y891334D02*
X287480Y891334D01*
X287480Y893272D02*
X279320Y893272D01*
X279320Y895210D02*
X287480Y895210D01*
X287480Y897148D02*
X279320Y897148D01*
X279320Y899086D02*
X287480Y899086D01*
X287480Y901024D02*
X279320Y901024D01*
X279320Y902962D02*
X287480Y902962D01*
X304720Y904480D02*
X304720Y885520D01*
X304720Y904480D02*
X312880Y904480D01*
X312880Y885520D01*
X304720Y885520D01*
X304720Y887458D02*
X312880Y887458D01*
X312880Y889396D02*
X304720Y889396D01*
X304720Y891334D02*
X312880Y891334D01*
X312880Y893272D02*
X304720Y893272D01*
X304720Y895210D02*
X312880Y895210D01*
X312880Y897148D02*
X304720Y897148D01*
X304720Y899086D02*
X312880Y899086D01*
X312880Y901024D02*
X304720Y901024D01*
X304720Y902962D02*
X312880Y902962D01*
X330120Y904480D02*
X330120Y885520D01*
X330120Y904480D02*
X338280Y904480D01*
X338280Y885520D01*
X330120Y885520D01*
X330120Y887458D02*
X338280Y887458D01*
X338280Y889396D02*
X330120Y889396D01*
X330120Y891334D02*
X338280Y891334D01*
X338280Y893272D02*
X330120Y893272D01*
X330120Y895210D02*
X338280Y895210D01*
X338280Y897148D02*
X330120Y897148D01*
X330120Y899086D02*
X338280Y899086D01*
X338280Y901024D02*
X330120Y901024D01*
X330120Y902962D02*
X338280Y902962D01*
X355520Y904480D02*
X355520Y885520D01*
X355520Y904480D02*
X363680Y904480D01*
X363680Y885520D01*
X355520Y885520D01*
X355520Y887458D02*
X363680Y887458D01*
X363680Y889396D02*
X355520Y889396D01*
X355520Y891334D02*
X363680Y891334D01*
X363680Y893272D02*
X355520Y893272D01*
X355520Y895210D02*
X363680Y895210D01*
X363680Y897148D02*
X355520Y897148D01*
X355520Y899086D02*
X363680Y899086D01*
X363680Y901024D02*
X355520Y901024D01*
X355520Y902962D02*
X363680Y902962D01*
X380920Y904480D02*
X380920Y885520D01*
X380920Y904480D02*
X389080Y904480D01*
X389080Y885520D01*
X380920Y885520D01*
X380920Y887458D02*
X389080Y887458D01*
X389080Y889396D02*
X380920Y889396D01*
X380920Y891334D02*
X389080Y891334D01*
X389080Y893272D02*
X380920Y893272D01*
X380920Y895210D02*
X389080Y895210D01*
X389080Y897148D02*
X380920Y897148D01*
X380920Y899086D02*
X389080Y899086D01*
X389080Y901024D02*
X380920Y901024D01*
X380920Y902962D02*
X389080Y902962D01*
X406320Y904480D02*
X406320Y885520D01*
X406320Y904480D02*
X414480Y904480D01*
X414480Y885520D01*
X406320Y885520D01*
X406320Y887458D02*
X414480Y887458D01*
X414480Y889396D02*
X406320Y889396D01*
X406320Y891334D02*
X414480Y891334D01*
X414480Y893272D02*
X406320Y893272D01*
X406320Y895210D02*
X414480Y895210D01*
X414480Y897148D02*
X406320Y897148D01*
X406320Y899086D02*
X414480Y899086D01*
X414480Y901024D02*
X406320Y901024D01*
X406320Y902962D02*
X414480Y902962D01*
X431720Y904480D02*
X431720Y885520D01*
X431720Y904480D02*
X439880Y904480D01*
X439880Y885520D01*
X431720Y885520D01*
X431720Y887458D02*
X439880Y887458D01*
X439880Y889396D02*
X431720Y889396D01*
X431720Y891334D02*
X439880Y891334D01*
X439880Y893272D02*
X431720Y893272D01*
X431720Y895210D02*
X439880Y895210D01*
X439880Y897148D02*
X431720Y897148D01*
X431720Y899086D02*
X439880Y899086D01*
X439880Y901024D02*
X431720Y901024D01*
X431720Y902962D02*
X439880Y902962D01*
X457120Y904480D02*
X457120Y885520D01*
X457120Y904480D02*
X465280Y904480D01*
X465280Y885520D01*
X457120Y885520D01*
X457120Y887458D02*
X465280Y887458D01*
X465280Y889396D02*
X457120Y889396D01*
X457120Y891334D02*
X465280Y891334D01*
X465280Y893272D02*
X457120Y893272D01*
X457120Y895210D02*
X465280Y895210D01*
X465280Y897148D02*
X457120Y897148D01*
X457120Y899086D02*
X465280Y899086D01*
X465280Y901024D02*
X457120Y901024D01*
X457120Y902962D02*
X465280Y902962D01*
X482520Y904480D02*
X482520Y885520D01*
X482520Y904480D02*
X490680Y904480D01*
X490680Y885520D01*
X482520Y885520D01*
X482520Y887458D02*
X490680Y887458D01*
X490680Y889396D02*
X482520Y889396D01*
X482520Y891334D02*
X490680Y891334D01*
X490680Y893272D02*
X482520Y893272D01*
X482520Y895210D02*
X490680Y895210D01*
X490680Y897148D02*
X482520Y897148D01*
X482520Y899086D02*
X490680Y899086D01*
X490680Y901024D02*
X482520Y901024D01*
X482520Y902962D02*
X490680Y902962D01*
X507920Y904480D02*
X507920Y885520D01*
X507920Y904480D02*
X516080Y904480D01*
X516080Y885520D01*
X507920Y885520D01*
X507920Y887458D02*
X516080Y887458D01*
X516080Y889396D02*
X507920Y889396D01*
X507920Y891334D02*
X516080Y891334D01*
X516080Y893272D02*
X507920Y893272D01*
X507920Y895210D02*
X516080Y895210D01*
X516080Y897148D02*
X507920Y897148D01*
X507920Y899086D02*
X516080Y899086D01*
X516080Y901024D02*
X507920Y901024D01*
X507920Y902962D02*
X516080Y902962D01*
X533320Y904480D02*
X533320Y885520D01*
X533320Y904480D02*
X541480Y904480D01*
X541480Y885520D01*
X533320Y885520D01*
X533320Y887458D02*
X541480Y887458D01*
X541480Y889396D02*
X533320Y889396D01*
X533320Y891334D02*
X541480Y891334D01*
X541480Y893272D02*
X533320Y893272D01*
X533320Y895210D02*
X541480Y895210D01*
X541480Y897148D02*
X533320Y897148D01*
X533320Y899086D02*
X541480Y899086D01*
X541480Y901024D02*
X533320Y901024D01*
X533320Y902962D02*
X541480Y902962D01*
X558720Y904480D02*
X558720Y885520D01*
X558720Y904480D02*
X566880Y904480D01*
X566880Y885520D01*
X558720Y885520D01*
X558720Y887458D02*
X566880Y887458D01*
X566880Y889396D02*
X558720Y889396D01*
X558720Y891334D02*
X566880Y891334D01*
X566880Y893272D02*
X558720Y893272D01*
X558720Y895210D02*
X566880Y895210D01*
X566880Y897148D02*
X558720Y897148D01*
X558720Y899086D02*
X566880Y899086D01*
X566880Y901024D02*
X558720Y901024D01*
X558720Y902962D02*
X566880Y902962D01*
X584120Y904480D02*
X584120Y885520D01*
X584120Y904480D02*
X592280Y904480D01*
X592280Y885520D01*
X584120Y885520D01*
X584120Y887458D02*
X592280Y887458D01*
X592280Y889396D02*
X584120Y889396D01*
X584120Y891334D02*
X592280Y891334D01*
X592280Y893272D02*
X584120Y893272D01*
X584120Y895210D02*
X592280Y895210D01*
X592280Y897148D02*
X584120Y897148D01*
X584120Y899086D02*
X592280Y899086D01*
X592280Y901024D02*
X584120Y901024D01*
X584120Y902962D02*
X592280Y902962D01*
X609520Y904480D02*
X609520Y885520D01*
X609520Y904480D02*
X617680Y904480D01*
X617680Y885520D01*
X609520Y885520D01*
X609520Y887458D02*
X617680Y887458D01*
X617680Y889396D02*
X609520Y889396D01*
X609520Y891334D02*
X617680Y891334D01*
X617680Y893272D02*
X609520Y893272D01*
X609520Y895210D02*
X617680Y895210D01*
X617680Y897148D02*
X609520Y897148D01*
X609520Y899086D02*
X617680Y899086D01*
X617680Y901024D02*
X609520Y901024D01*
X609520Y902962D02*
X617680Y902962D01*
X634920Y904480D02*
X634920Y885520D01*
X634920Y904480D02*
X643080Y904480D01*
X643080Y885520D01*
X634920Y885520D01*
X634920Y887458D02*
X643080Y887458D01*
X643080Y889396D02*
X634920Y889396D01*
X634920Y891334D02*
X643080Y891334D01*
X643080Y893272D02*
X634920Y893272D01*
X634920Y895210D02*
X643080Y895210D01*
X643080Y897148D02*
X634920Y897148D01*
X634920Y899086D02*
X643080Y899086D01*
X643080Y901024D02*
X634920Y901024D01*
X634920Y902962D02*
X643080Y902962D01*
X660320Y904480D02*
X660320Y885520D01*
X660320Y904480D02*
X668480Y904480D01*
X668480Y885520D01*
X660320Y885520D01*
X660320Y887458D02*
X668480Y887458D01*
X668480Y889396D02*
X660320Y889396D01*
X660320Y891334D02*
X668480Y891334D01*
X668480Y893272D02*
X660320Y893272D01*
X660320Y895210D02*
X668480Y895210D01*
X668480Y897148D02*
X660320Y897148D01*
X660320Y899086D02*
X668480Y899086D01*
X668480Y901024D02*
X660320Y901024D01*
X660320Y902962D02*
X668480Y902962D01*
X685720Y904480D02*
X685720Y885520D01*
X685720Y904480D02*
X693880Y904480D01*
X693880Y885520D01*
X685720Y885520D01*
X685720Y887458D02*
X693880Y887458D01*
X693880Y889396D02*
X685720Y889396D01*
X685720Y891334D02*
X693880Y891334D01*
X693880Y893272D02*
X685720Y893272D01*
X685720Y895210D02*
X693880Y895210D01*
X693880Y897148D02*
X685720Y897148D01*
X685720Y899086D02*
X693880Y899086D01*
X693880Y901024D02*
X685720Y901024D01*
X685720Y902962D02*
X693880Y902962D01*
X711120Y904480D02*
X711120Y885520D01*
X711120Y904480D02*
X719280Y904480D01*
X719280Y885520D01*
X711120Y885520D01*
X711120Y887458D02*
X719280Y887458D01*
X719280Y889396D02*
X711120Y889396D01*
X711120Y891334D02*
X719280Y891334D01*
X719280Y893272D02*
X711120Y893272D01*
X711120Y895210D02*
X719280Y895210D01*
X719280Y897148D02*
X711120Y897148D01*
X711120Y899086D02*
X719280Y899086D01*
X719280Y901024D02*
X711120Y901024D01*
X711120Y902962D02*
X719280Y902962D01*
X736520Y904480D02*
X736520Y885520D01*
X736520Y904480D02*
X744680Y904480D01*
X744680Y885520D01*
X736520Y885520D01*
X736520Y887458D02*
X744680Y887458D01*
X744680Y889396D02*
X736520Y889396D01*
X736520Y891334D02*
X744680Y891334D01*
X744680Y893272D02*
X736520Y893272D01*
X736520Y895210D02*
X744680Y895210D01*
X744680Y897148D02*
X736520Y897148D01*
X736520Y899086D02*
X744680Y899086D01*
X744680Y901024D02*
X736520Y901024D01*
X736520Y902962D02*
X744680Y902962D01*
X761920Y904480D02*
X761920Y885520D01*
X761920Y904480D02*
X770080Y904480D01*
X770080Y885520D01*
X761920Y885520D01*
X761920Y887458D02*
X770080Y887458D01*
X770080Y889396D02*
X761920Y889396D01*
X761920Y891334D02*
X770080Y891334D01*
X770080Y893272D02*
X761920Y893272D01*
X761920Y895210D02*
X770080Y895210D01*
X770080Y897148D02*
X761920Y897148D01*
X761920Y899086D02*
X770080Y899086D01*
X770080Y901024D02*
X761920Y901024D01*
X761920Y902962D02*
X770080Y902962D01*
X279320Y561480D02*
X279320Y542520D01*
X279320Y561480D02*
X287480Y561480D01*
X287480Y542520D01*
X279320Y542520D01*
X279320Y544458D02*
X287480Y544458D01*
X287480Y546396D02*
X279320Y546396D01*
X279320Y548334D02*
X287480Y548334D01*
X287480Y550272D02*
X279320Y550272D01*
X279320Y552210D02*
X287480Y552210D01*
X287480Y554148D02*
X279320Y554148D01*
X279320Y556086D02*
X287480Y556086D01*
X287480Y558024D02*
X279320Y558024D01*
X279320Y559962D02*
X287480Y559962D01*
X304720Y561480D02*
X304720Y542520D01*
X304720Y561480D02*
X312880Y561480D01*
X312880Y542520D01*
X304720Y542520D01*
X304720Y544458D02*
X312880Y544458D01*
X312880Y546396D02*
X304720Y546396D01*
X304720Y548334D02*
X312880Y548334D01*
X312880Y550272D02*
X304720Y550272D01*
X304720Y552210D02*
X312880Y552210D01*
X312880Y554148D02*
X304720Y554148D01*
X304720Y556086D02*
X312880Y556086D01*
X312880Y558024D02*
X304720Y558024D01*
X304720Y559962D02*
X312880Y559962D01*
X330120Y561480D02*
X330120Y542520D01*
X330120Y561480D02*
X338280Y561480D01*
X338280Y542520D01*
X330120Y542520D01*
X330120Y544458D02*
X338280Y544458D01*
X338280Y546396D02*
X330120Y546396D01*
X330120Y548334D02*
X338280Y548334D01*
X338280Y550272D02*
X330120Y550272D01*
X330120Y552210D02*
X338280Y552210D01*
X338280Y554148D02*
X330120Y554148D01*
X330120Y556086D02*
X338280Y556086D01*
X338280Y558024D02*
X330120Y558024D01*
X330120Y559962D02*
X338280Y559962D01*
X355520Y561480D02*
X355520Y542520D01*
X355520Y561480D02*
X363680Y561480D01*
X363680Y542520D01*
X355520Y542520D01*
X355520Y544458D02*
X363680Y544458D01*
X363680Y546396D02*
X355520Y546396D01*
X355520Y548334D02*
X363680Y548334D01*
X363680Y550272D02*
X355520Y550272D01*
X355520Y552210D02*
X363680Y552210D01*
X363680Y554148D02*
X355520Y554148D01*
X355520Y556086D02*
X363680Y556086D01*
X363680Y558024D02*
X355520Y558024D01*
X355520Y559962D02*
X363680Y559962D01*
X380920Y561480D02*
X380920Y542520D01*
X380920Y561480D02*
X389080Y561480D01*
X389080Y542520D01*
X380920Y542520D01*
X380920Y544458D02*
X389080Y544458D01*
X389080Y546396D02*
X380920Y546396D01*
X380920Y548334D02*
X389080Y548334D01*
X389080Y550272D02*
X380920Y550272D01*
X380920Y552210D02*
X389080Y552210D01*
X389080Y554148D02*
X380920Y554148D01*
X380920Y556086D02*
X389080Y556086D01*
X389080Y558024D02*
X380920Y558024D01*
X380920Y559962D02*
X389080Y559962D01*
X406320Y561480D02*
X406320Y542520D01*
X406320Y561480D02*
X414480Y561480D01*
X414480Y542520D01*
X406320Y542520D01*
X406320Y544458D02*
X414480Y544458D01*
X414480Y546396D02*
X406320Y546396D01*
X406320Y548334D02*
X414480Y548334D01*
X414480Y550272D02*
X406320Y550272D01*
X406320Y552210D02*
X414480Y552210D01*
X414480Y554148D02*
X406320Y554148D01*
X406320Y556086D02*
X414480Y556086D01*
X414480Y558024D02*
X406320Y558024D01*
X406320Y559962D02*
X414480Y559962D01*
X431720Y561480D02*
X431720Y542520D01*
X431720Y561480D02*
X439880Y561480D01*
X439880Y542520D01*
X431720Y542520D01*
X431720Y544458D02*
X439880Y544458D01*
X439880Y546396D02*
X431720Y546396D01*
X431720Y548334D02*
X439880Y548334D01*
X439880Y550272D02*
X431720Y550272D01*
X431720Y552210D02*
X439880Y552210D01*
X439880Y554148D02*
X431720Y554148D01*
X431720Y556086D02*
X439880Y556086D01*
X439880Y558024D02*
X431720Y558024D01*
X431720Y559962D02*
X439880Y559962D01*
X457120Y561480D02*
X457120Y542520D01*
X457120Y561480D02*
X465280Y561480D01*
X465280Y542520D01*
X457120Y542520D01*
X457120Y544458D02*
X465280Y544458D01*
X465280Y546396D02*
X457120Y546396D01*
X457120Y548334D02*
X465280Y548334D01*
X465280Y550272D02*
X457120Y550272D01*
X457120Y552210D02*
X465280Y552210D01*
X465280Y554148D02*
X457120Y554148D01*
X457120Y556086D02*
X465280Y556086D01*
X465280Y558024D02*
X457120Y558024D01*
X457120Y559962D02*
X465280Y559962D01*
X482520Y561480D02*
X482520Y542520D01*
X482520Y561480D02*
X490680Y561480D01*
X490680Y542520D01*
X482520Y542520D01*
X482520Y544458D02*
X490680Y544458D01*
X490680Y546396D02*
X482520Y546396D01*
X482520Y548334D02*
X490680Y548334D01*
X490680Y550272D02*
X482520Y550272D01*
X482520Y552210D02*
X490680Y552210D01*
X490680Y554148D02*
X482520Y554148D01*
X482520Y556086D02*
X490680Y556086D01*
X490680Y558024D02*
X482520Y558024D01*
X482520Y559962D02*
X490680Y559962D01*
X507920Y561480D02*
X507920Y542520D01*
X507920Y561480D02*
X516080Y561480D01*
X516080Y542520D01*
X507920Y542520D01*
X507920Y544458D02*
X516080Y544458D01*
X516080Y546396D02*
X507920Y546396D01*
X507920Y548334D02*
X516080Y548334D01*
X516080Y550272D02*
X507920Y550272D01*
X507920Y552210D02*
X516080Y552210D01*
X516080Y554148D02*
X507920Y554148D01*
X507920Y556086D02*
X516080Y556086D01*
X516080Y558024D02*
X507920Y558024D01*
X507920Y559962D02*
X516080Y559962D01*
X533320Y561480D02*
X533320Y542520D01*
X533320Y561480D02*
X541480Y561480D01*
X541480Y542520D01*
X533320Y542520D01*
X533320Y544458D02*
X541480Y544458D01*
X541480Y546396D02*
X533320Y546396D01*
X533320Y548334D02*
X541480Y548334D01*
X541480Y550272D02*
X533320Y550272D01*
X533320Y552210D02*
X541480Y552210D01*
X541480Y554148D02*
X533320Y554148D01*
X533320Y556086D02*
X541480Y556086D01*
X541480Y558024D02*
X533320Y558024D01*
X533320Y559962D02*
X541480Y559962D01*
X558720Y561480D02*
X558720Y542520D01*
X558720Y561480D02*
X566880Y561480D01*
X566880Y542520D01*
X558720Y542520D01*
X558720Y544458D02*
X566880Y544458D01*
X566880Y546396D02*
X558720Y546396D01*
X558720Y548334D02*
X566880Y548334D01*
X566880Y550272D02*
X558720Y550272D01*
X558720Y552210D02*
X566880Y552210D01*
X566880Y554148D02*
X558720Y554148D01*
X558720Y556086D02*
X566880Y556086D01*
X566880Y558024D02*
X558720Y558024D01*
X558720Y559962D02*
X566880Y559962D01*
X584120Y561480D02*
X584120Y542520D01*
X584120Y561480D02*
X592280Y561480D01*
X592280Y542520D01*
X584120Y542520D01*
X584120Y544458D02*
X592280Y544458D01*
X592280Y546396D02*
X584120Y546396D01*
X584120Y548334D02*
X592280Y548334D01*
X592280Y550272D02*
X584120Y550272D01*
X584120Y552210D02*
X592280Y552210D01*
X592280Y554148D02*
X584120Y554148D01*
X584120Y556086D02*
X592280Y556086D01*
X592280Y558024D02*
X584120Y558024D01*
X584120Y559962D02*
X592280Y559962D01*
X609520Y561480D02*
X609520Y542520D01*
X609520Y561480D02*
X617680Y561480D01*
X617680Y542520D01*
X609520Y542520D01*
X609520Y544458D02*
X617680Y544458D01*
X617680Y546396D02*
X609520Y546396D01*
X609520Y548334D02*
X617680Y548334D01*
X617680Y550272D02*
X609520Y550272D01*
X609520Y552210D02*
X617680Y552210D01*
X617680Y554148D02*
X609520Y554148D01*
X609520Y556086D02*
X617680Y556086D01*
X617680Y558024D02*
X609520Y558024D01*
X609520Y559962D02*
X617680Y559962D01*
X634920Y561480D02*
X634920Y542520D01*
X634920Y561480D02*
X643080Y561480D01*
X643080Y542520D01*
X634920Y542520D01*
X634920Y544458D02*
X643080Y544458D01*
X643080Y546396D02*
X634920Y546396D01*
X634920Y548334D02*
X643080Y548334D01*
X643080Y550272D02*
X634920Y550272D01*
X634920Y552210D02*
X643080Y552210D01*
X643080Y554148D02*
X634920Y554148D01*
X634920Y556086D02*
X643080Y556086D01*
X643080Y558024D02*
X634920Y558024D01*
X634920Y559962D02*
X643080Y559962D01*
X660320Y561480D02*
X660320Y542520D01*
X660320Y561480D02*
X668480Y561480D01*
X668480Y542520D01*
X660320Y542520D01*
X660320Y544458D02*
X668480Y544458D01*
X668480Y546396D02*
X660320Y546396D01*
X660320Y548334D02*
X668480Y548334D01*
X668480Y550272D02*
X660320Y550272D01*
X660320Y552210D02*
X668480Y552210D01*
X668480Y554148D02*
X660320Y554148D01*
X660320Y556086D02*
X668480Y556086D01*
X668480Y558024D02*
X660320Y558024D01*
X660320Y559962D02*
X668480Y559962D01*
X685720Y561480D02*
X685720Y542520D01*
X685720Y561480D02*
X693880Y561480D01*
X693880Y542520D01*
X685720Y542520D01*
X685720Y544458D02*
X693880Y544458D01*
X693880Y546396D02*
X685720Y546396D01*
X685720Y548334D02*
X693880Y548334D01*
X693880Y550272D02*
X685720Y550272D01*
X685720Y552210D02*
X693880Y552210D01*
X693880Y554148D02*
X685720Y554148D01*
X685720Y556086D02*
X693880Y556086D01*
X693880Y558024D02*
X685720Y558024D01*
X685720Y559962D02*
X693880Y559962D01*
X711120Y561480D02*
X711120Y542520D01*
X711120Y561480D02*
X719280Y561480D01*
X719280Y542520D01*
X711120Y542520D01*
X711120Y544458D02*
X719280Y544458D01*
X719280Y546396D02*
X711120Y546396D01*
X711120Y548334D02*
X719280Y548334D01*
X719280Y550272D02*
X711120Y550272D01*
X711120Y552210D02*
X719280Y552210D01*
X719280Y554148D02*
X711120Y554148D01*
X711120Y556086D02*
X719280Y556086D01*
X719280Y558024D02*
X711120Y558024D01*
X711120Y559962D02*
X719280Y559962D01*
X736520Y561480D02*
X736520Y542520D01*
X736520Y561480D02*
X744680Y561480D01*
X744680Y542520D01*
X736520Y542520D01*
X736520Y544458D02*
X744680Y544458D01*
X744680Y546396D02*
X736520Y546396D01*
X736520Y548334D02*
X744680Y548334D01*
X744680Y550272D02*
X736520Y550272D01*
X736520Y552210D02*
X744680Y552210D01*
X744680Y554148D02*
X736520Y554148D01*
X736520Y556086D02*
X744680Y556086D01*
X744680Y558024D02*
X736520Y558024D01*
X736520Y559962D02*
X744680Y559962D01*
X761920Y561480D02*
X761920Y542520D01*
X761920Y561480D02*
X770080Y561480D01*
X770080Y542520D01*
X761920Y542520D01*
X761920Y544458D02*
X770080Y544458D01*
X770080Y546396D02*
X761920Y546396D01*
X761920Y548334D02*
X770080Y548334D01*
X770080Y550272D02*
X761920Y550272D01*
X761920Y552210D02*
X770080Y552210D01*
X770080Y554148D02*
X761920Y554148D01*
X761920Y556086D02*
X770080Y556086D01*
X770080Y558024D02*
X761920Y558024D01*
X761920Y559962D02*
X770080Y559962D01*
X279320Y605520D02*
X279320Y624480D01*
X287480Y624480D01*
X287480Y605520D01*
X279320Y605520D01*
X279320Y607458D02*
X287480Y607458D01*
X287480Y609396D02*
X279320Y609396D01*
X279320Y611334D02*
X287480Y611334D01*
X287480Y613272D02*
X279320Y613272D01*
X279320Y615210D02*
X287480Y615210D01*
X287480Y617148D02*
X279320Y617148D01*
X279320Y619086D02*
X287480Y619086D01*
X287480Y621024D02*
X279320Y621024D01*
X279320Y622962D02*
X287480Y622962D01*
X304720Y624480D02*
X304720Y605520D01*
X304720Y624480D02*
X312880Y624480D01*
X312880Y605520D01*
X304720Y605520D01*
X304720Y607458D02*
X312880Y607458D01*
X312880Y609396D02*
X304720Y609396D01*
X304720Y611334D02*
X312880Y611334D01*
X312880Y613272D02*
X304720Y613272D01*
X304720Y615210D02*
X312880Y615210D01*
X312880Y617148D02*
X304720Y617148D01*
X304720Y619086D02*
X312880Y619086D01*
X312880Y621024D02*
X304720Y621024D01*
X304720Y622962D02*
X312880Y622962D01*
X330120Y624480D02*
X330120Y605520D01*
X330120Y624480D02*
X338280Y624480D01*
X338280Y605520D01*
X330120Y605520D01*
X330120Y607458D02*
X338280Y607458D01*
X338280Y609396D02*
X330120Y609396D01*
X330120Y611334D02*
X338280Y611334D01*
X338280Y613272D02*
X330120Y613272D01*
X330120Y615210D02*
X338280Y615210D01*
X338280Y617148D02*
X330120Y617148D01*
X330120Y619086D02*
X338280Y619086D01*
X338280Y621024D02*
X330120Y621024D01*
X330120Y622962D02*
X338280Y622962D01*
X355520Y624480D02*
X355520Y605520D01*
X355520Y624480D02*
X363680Y624480D01*
X363680Y605520D01*
X355520Y605520D01*
X355520Y607458D02*
X363680Y607458D01*
X363680Y609396D02*
X355520Y609396D01*
X355520Y611334D02*
X363680Y611334D01*
X363680Y613272D02*
X355520Y613272D01*
X355520Y615210D02*
X363680Y615210D01*
X363680Y617148D02*
X355520Y617148D01*
X355520Y619086D02*
X363680Y619086D01*
X363680Y621024D02*
X355520Y621024D01*
X355520Y622962D02*
X363680Y622962D01*
X380920Y624480D02*
X380920Y605520D01*
X380920Y624480D02*
X389080Y624480D01*
X389080Y605520D01*
X380920Y605520D01*
X380920Y607458D02*
X389080Y607458D01*
X389080Y609396D02*
X380920Y609396D01*
X380920Y611334D02*
X389080Y611334D01*
X389080Y613272D02*
X380920Y613272D01*
X380920Y615210D02*
X389080Y615210D01*
X389080Y617148D02*
X380920Y617148D01*
X380920Y619086D02*
X389080Y619086D01*
X389080Y621024D02*
X380920Y621024D01*
X380920Y622962D02*
X389080Y622962D01*
X406320Y624480D02*
X406320Y605520D01*
X406320Y624480D02*
X414480Y624480D01*
X414480Y605520D01*
X406320Y605520D01*
X406320Y607458D02*
X414480Y607458D01*
X414480Y609396D02*
X406320Y609396D01*
X406320Y611334D02*
X414480Y611334D01*
X414480Y613272D02*
X406320Y613272D01*
X406320Y615210D02*
X414480Y615210D01*
X414480Y617148D02*
X406320Y617148D01*
X406320Y619086D02*
X414480Y619086D01*
X414480Y621024D02*
X406320Y621024D01*
X406320Y622962D02*
X414480Y622962D01*
X431720Y624480D02*
X431720Y605520D01*
X431720Y624480D02*
X439880Y624480D01*
X439880Y605520D01*
X431720Y605520D01*
X431720Y607458D02*
X439880Y607458D01*
X439880Y609396D02*
X431720Y609396D01*
X431720Y611334D02*
X439880Y611334D01*
X439880Y613272D02*
X431720Y613272D01*
X431720Y615210D02*
X439880Y615210D01*
X439880Y617148D02*
X431720Y617148D01*
X431720Y619086D02*
X439880Y619086D01*
X439880Y621024D02*
X431720Y621024D01*
X431720Y622962D02*
X439880Y622962D01*
X457120Y624480D02*
X457120Y605520D01*
X457120Y624480D02*
X465280Y624480D01*
X465280Y605520D01*
X457120Y605520D01*
X457120Y607458D02*
X465280Y607458D01*
X465280Y609396D02*
X457120Y609396D01*
X457120Y611334D02*
X465280Y611334D01*
X465280Y613272D02*
X457120Y613272D01*
X457120Y615210D02*
X465280Y615210D01*
X465280Y617148D02*
X457120Y617148D01*
X457120Y619086D02*
X465280Y619086D01*
X465280Y621024D02*
X457120Y621024D01*
X457120Y622962D02*
X465280Y622962D01*
X482520Y624480D02*
X482520Y605520D01*
X482520Y624480D02*
X490680Y624480D01*
X490680Y605520D01*
X482520Y605520D01*
X482520Y607458D02*
X490680Y607458D01*
X490680Y609396D02*
X482520Y609396D01*
X482520Y611334D02*
X490680Y611334D01*
X490680Y613272D02*
X482520Y613272D01*
X482520Y615210D02*
X490680Y615210D01*
X490680Y617148D02*
X482520Y617148D01*
X482520Y619086D02*
X490680Y619086D01*
X490680Y621024D02*
X482520Y621024D01*
X482520Y622962D02*
X490680Y622962D01*
X507920Y624480D02*
X507920Y605520D01*
X507920Y624480D02*
X516080Y624480D01*
X516080Y605520D01*
X507920Y605520D01*
X507920Y607458D02*
X516080Y607458D01*
X516080Y609396D02*
X507920Y609396D01*
X507920Y611334D02*
X516080Y611334D01*
X516080Y613272D02*
X507920Y613272D01*
X507920Y615210D02*
X516080Y615210D01*
X516080Y617148D02*
X507920Y617148D01*
X507920Y619086D02*
X516080Y619086D01*
X516080Y621024D02*
X507920Y621024D01*
X507920Y622962D02*
X516080Y622962D01*
X533320Y624480D02*
X533320Y605520D01*
X533320Y624480D02*
X541480Y624480D01*
X541480Y605520D01*
X533320Y605520D01*
X533320Y607458D02*
X541480Y607458D01*
X541480Y609396D02*
X533320Y609396D01*
X533320Y611334D02*
X541480Y611334D01*
X541480Y613272D02*
X533320Y613272D01*
X533320Y615210D02*
X541480Y615210D01*
X541480Y617148D02*
X533320Y617148D01*
X533320Y619086D02*
X541480Y619086D01*
X541480Y621024D02*
X533320Y621024D01*
X533320Y622962D02*
X541480Y622962D01*
X558720Y624480D02*
X558720Y605520D01*
X558720Y624480D02*
X566880Y624480D01*
X566880Y605520D01*
X558720Y605520D01*
X558720Y607458D02*
X566880Y607458D01*
X566880Y609396D02*
X558720Y609396D01*
X558720Y611334D02*
X566880Y611334D01*
X566880Y613272D02*
X558720Y613272D01*
X558720Y615210D02*
X566880Y615210D01*
X566880Y617148D02*
X558720Y617148D01*
X558720Y619086D02*
X566880Y619086D01*
X566880Y621024D02*
X558720Y621024D01*
X558720Y622962D02*
X566880Y622962D01*
X584120Y624480D02*
X584120Y605520D01*
X584120Y624480D02*
X592280Y624480D01*
X592280Y605520D01*
X584120Y605520D01*
X584120Y607458D02*
X592280Y607458D01*
X592280Y609396D02*
X584120Y609396D01*
X584120Y611334D02*
X592280Y611334D01*
X592280Y613272D02*
X584120Y613272D01*
X584120Y615210D02*
X592280Y615210D01*
X592280Y617148D02*
X584120Y617148D01*
X584120Y619086D02*
X592280Y619086D01*
X592280Y621024D02*
X584120Y621024D01*
X584120Y622962D02*
X592280Y622962D01*
X609520Y624480D02*
X609520Y605520D01*
X609520Y624480D02*
X617680Y624480D01*
X617680Y605520D01*
X609520Y605520D01*
X609520Y607458D02*
X617680Y607458D01*
X617680Y609396D02*
X609520Y609396D01*
X609520Y611334D02*
X617680Y611334D01*
X617680Y613272D02*
X609520Y613272D01*
X609520Y615210D02*
X617680Y615210D01*
X617680Y617148D02*
X609520Y617148D01*
X609520Y619086D02*
X617680Y619086D01*
X617680Y621024D02*
X609520Y621024D01*
X609520Y622962D02*
X617680Y622962D01*
X634920Y624480D02*
X634920Y605520D01*
X634920Y624480D02*
X643080Y624480D01*
X643080Y605520D01*
X634920Y605520D01*
X634920Y607458D02*
X643080Y607458D01*
X643080Y609396D02*
X634920Y609396D01*
X634920Y611334D02*
X643080Y611334D01*
X643080Y613272D02*
X634920Y613272D01*
X634920Y615210D02*
X643080Y615210D01*
X643080Y617148D02*
X634920Y617148D01*
X634920Y619086D02*
X643080Y619086D01*
X643080Y621024D02*
X634920Y621024D01*
X634920Y622962D02*
X643080Y622962D01*
X660320Y624480D02*
X660320Y605520D01*
X660320Y624480D02*
X668480Y624480D01*
X668480Y605520D01*
X660320Y605520D01*
X660320Y607458D02*
X668480Y607458D01*
X668480Y609396D02*
X660320Y609396D01*
X660320Y611334D02*
X668480Y611334D01*
X668480Y613272D02*
X660320Y613272D01*
X660320Y615210D02*
X668480Y615210D01*
X668480Y617148D02*
X660320Y617148D01*
X660320Y619086D02*
X668480Y619086D01*
X668480Y621024D02*
X660320Y621024D01*
X660320Y622962D02*
X668480Y622962D01*
X685720Y624480D02*
X685720Y605520D01*
X685720Y624480D02*
X693880Y624480D01*
X693880Y605520D01*
X685720Y605520D01*
X685720Y607458D02*
X693880Y607458D01*
X693880Y609396D02*
X685720Y609396D01*
X685720Y611334D02*
X693880Y611334D01*
X693880Y613272D02*
X685720Y613272D01*
X685720Y615210D02*
X693880Y615210D01*
X693880Y617148D02*
X685720Y617148D01*
X685720Y619086D02*
X693880Y619086D01*
X693880Y621024D02*
X685720Y621024D01*
X685720Y622962D02*
X693880Y622962D01*
X711120Y624480D02*
X711120Y605520D01*
X711120Y624480D02*
X719280Y624480D01*
X719280Y605520D01*
X711120Y605520D01*
X711120Y607458D02*
X719280Y607458D01*
X719280Y609396D02*
X711120Y609396D01*
X711120Y611334D02*
X719280Y611334D01*
X719280Y613272D02*
X711120Y613272D01*
X711120Y615210D02*
X719280Y615210D01*
X719280Y617148D02*
X711120Y617148D01*
X711120Y619086D02*
X719280Y619086D01*
X719280Y621024D02*
X711120Y621024D01*
X711120Y622962D02*
X719280Y622962D01*
X736520Y624480D02*
X736520Y605520D01*
X736520Y624480D02*
X744680Y624480D01*
X744680Y605520D01*
X736520Y605520D01*
X736520Y607458D02*
X744680Y607458D01*
X744680Y609396D02*
X736520Y609396D01*
X736520Y611334D02*
X744680Y611334D01*
X744680Y613272D02*
X736520Y613272D01*
X736520Y615210D02*
X744680Y615210D01*
X744680Y617148D02*
X736520Y617148D01*
X736520Y619086D02*
X744680Y619086D01*
X744680Y621024D02*
X736520Y621024D01*
X736520Y622962D02*
X744680Y622962D01*
X761920Y624480D02*
X761920Y605520D01*
X761920Y624480D02*
X770080Y624480D01*
X770080Y605520D01*
X761920Y605520D01*
X761920Y607458D02*
X770080Y607458D01*
X770080Y609396D02*
X761920Y609396D01*
X761920Y611334D02*
X770080Y611334D01*
X770080Y613272D02*
X761920Y613272D01*
X761920Y615210D02*
X770080Y615210D01*
X770080Y617148D02*
X761920Y617148D01*
X761920Y619086D02*
X770080Y619086D01*
X770080Y621024D02*
X761920Y621024D01*
X761920Y622962D02*
X770080Y622962D01*
D13*
X639000Y832000D02*
X639000Y895000D01*
D14*
X652000Y576000D03*
X652000Y516000D03*
X652000Y456000D03*
X652000Y396000D03*
X348000Y397000D03*
X347000Y456000D03*
X348000Y516000D03*
X347000Y576000D03*
D15*
X880000Y520000D02*
X880000Y390000D01*
X880000Y520000D02*
X940000Y580000D01*
X940000Y630000D01*
X910000Y660000D01*
X880000Y660000D01*
D13*
X283400Y832000D02*
X283400Y895000D01*
X334200Y895000D02*
X334200Y832000D01*
D14*
X260000Y740000D03*
D13*
X290000Y740000D01*
X334200Y784200D02*
X334200Y832000D01*
X334200Y784200D02*
X290000Y740000D01*
X410400Y832000D02*
X410400Y895000D01*
X435800Y895000D02*
X435800Y832000D01*
X537400Y832000D02*
X537400Y895000D01*
X562800Y895000D02*
X562800Y832000D01*
X588200Y832000D02*
X588200Y895000D01*
X613600Y895000D02*
X613600Y832000D01*
X664400Y832000D02*
X664400Y895000D01*
X715200Y895000D02*
X715200Y832000D01*
X283400Y615000D02*
X283400Y552000D01*
X308800Y552000D02*
X308800Y615000D01*
X334200Y615000D02*
X334200Y552000D01*
X359600Y552000D02*
X359600Y615000D01*
X385000Y615000D02*
X385000Y552000D01*
D14*
X390000Y460000D03*
D13*
X385000Y465000D01*
X385000Y552000D01*
X410400Y552000D02*
X410400Y615000D01*
X435800Y615000D02*
X435800Y552000D01*
D14*
X410000Y670000D03*
D13*
X435800Y644200D01*
X435800Y615000D01*
X461200Y615000D02*
X461200Y552000D01*
X461200Y428800D01*
X540000Y350000D02*
X900000Y350000D01*
X970000Y420000D01*
X970000Y440000D01*
D14*
X970000Y440000D03*
D13*
X540000Y350000D02*
X461200Y428800D01*
X486600Y552000D02*
X486600Y615000D01*
D14*
X490000Y420000D03*
D13*
X486600Y423400D01*
X486600Y552000D01*
X512000Y552000D02*
X512000Y615000D01*
D14*
X520000Y470000D03*
D13*
X512000Y478000D01*
X512000Y552000D01*
X537400Y552000D02*
X537400Y615000D01*
D14*
X540000Y430000D03*
D13*
X537400Y432600D01*
X537400Y552000D01*
X562800Y552000D02*
X562800Y615000D01*
D14*
X540000Y410000D03*
D13*
X562800Y432800D01*
X562800Y552000D01*
X588200Y552000D02*
X588200Y615000D01*
D14*
X720000Y460000D03*
D13*
X780000Y520000D01*
X780000Y640000D01*
X730000Y690000D01*
X640000Y690000D01*
X588200Y638200D01*
X588200Y615000D01*
X613600Y615000D02*
X613600Y580000D01*
X613600Y552000D01*
D14*
X613600Y580000D03*
D13*
X639000Y552000D02*
X639000Y615000D01*
X639000Y479000D02*
X600000Y440000D01*
X639000Y479000D02*
X639000Y552000D01*
D14*
X600000Y440000D03*
D13*
X664400Y552000D02*
X664400Y615000D01*
D14*
X664000Y637000D03*
D13*
X664400Y636600D01*
X664400Y615000D01*
X689800Y615000D02*
X689800Y552000D01*
D14*
X690000Y640000D03*
D13*
X690000Y615200D01*
X689800Y615000D01*
X715200Y615000D02*
X715200Y552000D01*
X308800Y832000D02*
X308800Y895000D01*
D14*
X309000Y800000D03*
D13*
X309000Y831800D01*
X308800Y832000D01*
X359600Y832000D02*
X359600Y895000D01*
X359600Y832000D02*
X359600Y779600D01*
X270000Y690000D01*
X170000Y690000D02*
X30000Y550000D01*
D14*
X30000Y550000D03*
D13*
X170000Y690000D02*
X270000Y690000D01*
X385000Y832000D02*
X385000Y895000D01*
D14*
X380000Y810000D03*
D13*
X385000Y815000D01*
X385000Y832000D01*
X461200Y832000D02*
X461200Y895000D01*
D14*
X460000Y680000D03*
D13*
X460000Y830800D01*
X461200Y832000D01*
X486600Y832000D02*
X486600Y895000D01*
D14*
X486000Y734000D03*
D13*
X486000Y831400D01*
X486600Y832000D01*
X512000Y832000D02*
X512000Y895000D01*
D14*
X512000Y765000D03*
D13*
X512000Y832000D01*
X689800Y832000D02*
X689800Y895000D01*
M02*
