G04 EAGLE Gerber RS-274X export*
G75*
%MOMM*%
%FSLAX34Y34*%
%LPD*%
%INTop Copper*%
%IPPOS*%
%AMOC8*
5,1,8,0,0,1.08239X$1,22.5*%
G01*
%ADD10R,1.500000X1.500000*%
%ADD11R,1.500000X1.500000*%
%ADD12R,1.803000X1.600000*%
%ADD13R,1.600000X1.803000*%
%ADD14C,3.500000*%
%ADD15C,0.756400*%
%ADD16C,0.609600*%

G36*
X542593Y12782D02*
X542593Y12782D01*
X542616Y12787D01*
X542659Y12787D01*
X584895Y18348D01*
X584918Y18355D01*
X584960Y18359D01*
X626550Y27580D01*
X626573Y27589D01*
X626614Y27597D01*
X667243Y40407D01*
X667264Y40418D01*
X667305Y40430D01*
X706663Y56732D01*
X706683Y56745D01*
X706723Y56760D01*
X744510Y76431D01*
X744529Y76445D01*
X744567Y76464D01*
X780496Y99353D01*
X780514Y99369D01*
X780526Y99377D01*
X780537Y99383D01*
X780539Y99384D01*
X780550Y99391D01*
X796949Y111974D01*
X797032Y112063D01*
X797115Y112150D01*
X797116Y112152D01*
X797117Y112153D01*
X797168Y112264D01*
X797218Y112373D01*
X797219Y112375D01*
X797219Y112377D01*
X797232Y112497D01*
X797245Y112617D01*
X797245Y112620D01*
X797245Y112622D01*
X797219Y112740D01*
X797193Y112858D01*
X797192Y112860D01*
X797192Y112862D01*
X797129Y112965D01*
X797067Y113069D01*
X797065Y113070D01*
X797064Y113072D01*
X796974Y113149D01*
X796880Y113229D01*
X796878Y113230D01*
X796876Y113231D01*
X796767Y113274D01*
X796652Y113321D01*
X796649Y113321D01*
X796648Y113322D01*
X796640Y113322D01*
X796494Y113338D01*
X789709Y115156D01*
X783630Y118666D01*
X778666Y123630D01*
X775156Y129709D01*
X773339Y136490D01*
X773339Y143510D01*
X775156Y150291D01*
X778666Y156370D01*
X783630Y161334D01*
X789709Y164844D01*
X796490Y166661D01*
X803510Y166661D01*
X810291Y164844D01*
X816370Y161334D01*
X821334Y156370D01*
X824844Y150291D01*
X826661Y143510D01*
X826661Y138334D01*
X826670Y138280D01*
X826669Y138224D01*
X826689Y138159D01*
X826700Y138091D01*
X826726Y138043D01*
X826743Y137990D01*
X826784Y137934D01*
X826816Y137874D01*
X826856Y137836D01*
X826888Y137791D01*
X826944Y137752D01*
X826994Y137704D01*
X827044Y137681D01*
X827089Y137649D01*
X827155Y137630D01*
X827217Y137601D01*
X827272Y137595D01*
X827325Y137579D01*
X827393Y137581D01*
X827461Y137574D01*
X827515Y137585D01*
X827571Y137587D01*
X827635Y137611D01*
X827702Y137626D01*
X827749Y137654D01*
X827801Y137674D01*
X827887Y137737D01*
X827913Y137752D01*
X827921Y137761D01*
X827936Y137773D01*
X845806Y154147D01*
X845821Y154166D01*
X845853Y154194D01*
X874633Y185602D01*
X874646Y185622D01*
X874676Y185653D01*
X900609Y219450D01*
X900620Y219471D01*
X900647Y219504D01*
X923536Y255433D01*
X923546Y255455D01*
X923569Y255490D01*
X943240Y293277D01*
X943247Y293300D01*
X943268Y293337D01*
X959570Y332695D01*
X959576Y332718D01*
X959593Y332757D01*
X972403Y373386D01*
X972407Y373409D01*
X972420Y373450D01*
X981641Y415040D01*
X981642Y415064D01*
X981652Y415105D01*
X987213Y457341D01*
X987212Y457365D01*
X987218Y457407D01*
X989077Y499967D01*
X989074Y499991D01*
X989077Y500033D01*
X987218Y542593D01*
X987213Y542616D01*
X987213Y542659D01*
X981652Y584895D01*
X981645Y584918D01*
X981641Y584960D01*
X972420Y626550D01*
X972411Y626573D01*
X972403Y626614D01*
X959593Y667243D01*
X959582Y667264D01*
X959570Y667305D01*
X943268Y706663D01*
X943255Y706683D01*
X943240Y706723D01*
X923569Y744509D01*
X923555Y744529D01*
X923536Y744567D01*
X900647Y780496D01*
X900631Y780514D01*
X900609Y780550D01*
X874676Y814347D01*
X874658Y814363D01*
X874633Y814398D01*
X845853Y845806D01*
X845834Y845821D01*
X845806Y845853D01*
X814398Y874633D01*
X814378Y874646D01*
X814347Y874676D01*
X780550Y900609D01*
X780529Y900620D01*
X780496Y900647D01*
X744567Y923536D01*
X744550Y923543D01*
X744541Y923551D01*
X744530Y923555D01*
X744510Y923569D01*
X706723Y943240D01*
X706700Y943247D01*
X706663Y943268D01*
X667305Y959570D01*
X667282Y959576D01*
X667243Y959593D01*
X626614Y972403D01*
X626591Y972407D01*
X626550Y972420D01*
X584960Y981641D01*
X584936Y981642D01*
X584895Y981652D01*
X542659Y987213D01*
X542635Y987212D01*
X542593Y987218D01*
X500033Y989077D01*
X500009Y989074D01*
X499967Y989077D01*
X457407Y987218D01*
X457384Y987213D01*
X457341Y987213D01*
X415105Y981652D01*
X415082Y981645D01*
X415040Y981641D01*
X373450Y972420D01*
X373427Y972411D01*
X373386Y972403D01*
X332757Y959593D01*
X332736Y959582D01*
X332695Y959570D01*
X293337Y943268D01*
X293317Y943255D01*
X293277Y943240D01*
X255490Y923569D01*
X255471Y923555D01*
X255433Y923536D01*
X219504Y900647D01*
X219486Y900631D01*
X219450Y900609D01*
X185653Y874676D01*
X185637Y874658D01*
X185602Y874633D01*
X154194Y845853D01*
X154179Y845834D01*
X154147Y845806D01*
X125367Y814398D01*
X125354Y814378D01*
X125324Y814347D01*
X99391Y780550D01*
X99380Y780529D01*
X99353Y780496D01*
X76464Y744567D01*
X76454Y744545D01*
X76431Y744510D01*
X56760Y706723D01*
X56753Y706700D01*
X56732Y706663D01*
X40430Y667305D01*
X40424Y667282D01*
X40407Y667243D01*
X27597Y626614D01*
X27593Y626591D01*
X27580Y626550D01*
X18359Y584960D01*
X18358Y584936D01*
X18348Y584895D01*
X12787Y542659D01*
X12788Y542635D01*
X12782Y542593D01*
X10923Y500033D01*
X10926Y500009D01*
X10923Y499967D01*
X12782Y457407D01*
X12787Y457384D01*
X12787Y457341D01*
X18348Y415105D01*
X18355Y415082D01*
X18359Y415040D01*
X27580Y373450D01*
X27589Y373427D01*
X27597Y373386D01*
X40407Y332757D01*
X40418Y332736D01*
X40430Y332695D01*
X56732Y293337D01*
X56745Y293317D01*
X56760Y293277D01*
X76431Y255491D01*
X76445Y255471D01*
X76464Y255433D01*
X99353Y219504D01*
X99369Y219486D01*
X99391Y219450D01*
X125324Y185653D01*
X125342Y185637D01*
X125367Y185602D01*
X154147Y154194D01*
X154166Y154179D01*
X154194Y154147D01*
X172064Y137773D01*
X172110Y137743D01*
X172150Y137704D01*
X172212Y137676D01*
X172270Y137638D01*
X172323Y137624D01*
X172373Y137601D01*
X172441Y137593D01*
X172508Y137576D01*
X172563Y137580D01*
X172617Y137574D01*
X172685Y137588D01*
X172753Y137593D01*
X172804Y137614D01*
X172858Y137626D01*
X172917Y137661D01*
X172980Y137688D01*
X173022Y137724D01*
X173069Y137752D01*
X173114Y137804D01*
X173165Y137849D01*
X173193Y137897D01*
X173229Y137939D01*
X173255Y138003D01*
X173289Y138062D01*
X173300Y138116D01*
X173321Y138167D01*
X173333Y138273D01*
X173339Y138303D01*
X173337Y138315D01*
X173339Y138334D01*
X173339Y143510D01*
X175156Y150291D01*
X178666Y156370D01*
X183630Y161334D01*
X189709Y164844D01*
X196490Y166661D01*
X203510Y166661D01*
X210291Y164844D01*
X216370Y161334D01*
X221334Y156370D01*
X224844Y150291D01*
X226661Y143510D01*
X226661Y136490D01*
X224844Y129709D01*
X221334Y123630D01*
X216370Y118666D01*
X210291Y115156D01*
X203502Y113337D01*
X203397Y113320D01*
X203276Y113301D01*
X203274Y113300D01*
X203272Y113300D01*
X203166Y113244D01*
X203058Y113187D01*
X203056Y113185D01*
X203055Y113184D01*
X202973Y113099D01*
X202888Y113010D01*
X202887Y113008D01*
X202885Y113006D01*
X202835Y112897D01*
X202783Y112787D01*
X202783Y112785D01*
X202782Y112783D01*
X202768Y112660D01*
X202754Y112543D01*
X202755Y112541D01*
X202755Y112539D01*
X202781Y112419D01*
X202805Y112302D01*
X202806Y112300D01*
X202807Y112298D01*
X202869Y112194D01*
X202930Y112090D01*
X202932Y112089D01*
X202933Y112087D01*
X202939Y112082D01*
X203051Y111974D01*
X219450Y99391D01*
X219471Y99380D01*
X219504Y99353D01*
X255433Y76464D01*
X255455Y76454D01*
X255490Y76431D01*
X293277Y56760D01*
X293300Y56753D01*
X293337Y56732D01*
X332695Y40430D01*
X332718Y40424D01*
X332757Y40407D01*
X373386Y27597D01*
X373409Y27593D01*
X373450Y27580D01*
X415040Y18359D01*
X415064Y18358D01*
X415105Y18348D01*
X457341Y12787D01*
X457365Y12788D01*
X457407Y12782D01*
X499967Y10923D01*
X499991Y10926D01*
X500033Y10923D01*
X542593Y12782D01*
G37*
%LPC*%
G36*
X746406Y87196D02*
X746406Y87196D01*
X738274Y101280D01*
X738601Y102500D01*
X752685Y110631D01*
X753403Y110439D01*
X753470Y110432D01*
X753535Y110416D01*
X753591Y110420D01*
X753647Y110415D01*
X753713Y110430D01*
X753781Y110435D01*
X753832Y110457D01*
X753887Y110470D01*
X753945Y110505D01*
X754007Y110531D01*
X754069Y110581D01*
X754097Y110598D01*
X754110Y110614D01*
X754138Y110636D01*
X754845Y111343D01*
X754899Y111418D01*
X754958Y111487D01*
X754970Y111517D01*
X754989Y111543D01*
X755016Y111630D01*
X755050Y111715D01*
X755054Y111756D01*
X755061Y111778D01*
X755060Y111810D01*
X755068Y111882D01*
X755068Y206713D01*
X755053Y206803D01*
X755046Y206894D01*
X755034Y206924D01*
X755028Y206956D01*
X754986Y207036D01*
X754950Y207120D01*
X754924Y207152D01*
X754913Y207173D01*
X754890Y207195D01*
X754845Y207251D01*
X535262Y426834D01*
X535038Y427375D01*
X535003Y427431D01*
X534978Y427491D01*
X534926Y427556D01*
X534908Y427584D01*
X534893Y427597D01*
X534873Y427622D01*
X534693Y427802D01*
X534693Y428056D01*
X534683Y428121D01*
X534682Y428186D01*
X534659Y428266D01*
X534654Y428299D01*
X534644Y428316D01*
X534635Y428347D01*
X534411Y428888D01*
X534411Y431112D01*
X534635Y431653D01*
X534643Y431686D01*
X534644Y431689D01*
X534645Y431694D01*
X534650Y431716D01*
X534675Y431777D01*
X534684Y431860D01*
X534691Y431892D01*
X534690Y431911D01*
X534693Y431944D01*
X534693Y432198D01*
X534873Y432378D01*
X534911Y432431D01*
X534957Y432478D01*
X534997Y432551D01*
X535017Y432578D01*
X535022Y432596D01*
X535038Y432625D01*
X535275Y433196D01*
X535299Y433222D01*
X535321Y433269D01*
X535352Y433311D01*
X535373Y433380D01*
X535403Y433445D01*
X535409Y433497D01*
X535424Y433546D01*
X535422Y433618D01*
X535430Y433689D01*
X535419Y433740D01*
X535418Y433792D01*
X535393Y433860D01*
X535378Y433930D01*
X535351Y433974D01*
X535333Y434023D01*
X535288Y434079D01*
X535252Y434141D01*
X535212Y434175D01*
X535180Y434215D01*
X535119Y434254D01*
X535065Y434301D01*
X535016Y434320D01*
X534973Y434348D01*
X534903Y434366D01*
X534837Y434393D01*
X534765Y434401D01*
X534734Y434409D01*
X534711Y434407D01*
X534670Y434411D01*
X340818Y434411D01*
X340747Y434400D01*
X340675Y434398D01*
X340626Y434380D01*
X340575Y434372D01*
X340512Y434338D01*
X340444Y434313D01*
X340404Y434281D01*
X340358Y434256D01*
X340308Y434204D01*
X340252Y434160D01*
X340224Y434116D01*
X340188Y434078D01*
X340158Y434013D01*
X340119Y433953D01*
X340107Y433902D01*
X340085Y433855D01*
X340077Y433784D01*
X340059Y433714D01*
X340063Y433662D01*
X340058Y433611D01*
X340073Y433540D01*
X340078Y433469D01*
X340099Y433421D01*
X340110Y433370D01*
X340147Y433309D01*
X340175Y433243D01*
X340220Y433187D01*
X340236Y433159D01*
X340254Y433144D01*
X340280Y433112D01*
X340540Y432852D01*
X340540Y415588D01*
X339647Y414695D01*
X320353Y414695D01*
X319460Y415588D01*
X319460Y421150D01*
X319457Y421170D01*
X319459Y421189D01*
X319437Y421291D01*
X319421Y421393D01*
X319411Y421410D01*
X319407Y421430D01*
X319354Y421519D01*
X319305Y421610D01*
X319291Y421624D01*
X319281Y421641D01*
X319202Y421708D01*
X319127Y421780D01*
X319109Y421788D01*
X319094Y421801D01*
X318998Y421840D01*
X318904Y421883D01*
X318884Y421885D01*
X318866Y421893D01*
X318699Y421911D01*
X309786Y421911D01*
X309766Y421908D01*
X309747Y421910D01*
X309645Y421888D01*
X309543Y421872D01*
X309526Y421862D01*
X309506Y421858D01*
X309417Y421805D01*
X309326Y421756D01*
X309312Y421742D01*
X309295Y421732D01*
X309228Y421653D01*
X309156Y421578D01*
X309148Y421560D01*
X309135Y421545D01*
X309096Y421449D01*
X309053Y421355D01*
X309051Y421335D01*
X309043Y421317D01*
X309025Y421150D01*
X309025Y419368D01*
X308132Y418475D01*
X291868Y418475D01*
X290975Y419368D01*
X290975Y435632D01*
X291868Y436525D01*
X306234Y436525D01*
X306305Y436536D01*
X306376Y436538D01*
X306425Y436556D01*
X306477Y436564D01*
X306540Y436598D01*
X306607Y436623D01*
X306648Y436655D01*
X306694Y436680D01*
X306743Y436732D01*
X306799Y436776D01*
X306827Y436820D01*
X306863Y436858D01*
X306893Y436923D01*
X306932Y436983D01*
X306945Y437034D01*
X306967Y437081D01*
X306975Y437152D01*
X306992Y437222D01*
X306988Y437274D01*
X306994Y437325D01*
X306979Y437396D01*
X306973Y437467D01*
X306953Y437515D01*
X306942Y437566D01*
X306905Y437627D01*
X306877Y437693D01*
X306832Y437749D01*
X306816Y437777D01*
X306798Y437792D01*
X306772Y437824D01*
X301344Y443252D01*
X301270Y443305D01*
X301201Y443365D01*
X301170Y443377D01*
X301144Y443396D01*
X301057Y443423D01*
X300972Y443457D01*
X300932Y443461D01*
X300909Y443468D01*
X300877Y443467D01*
X300806Y443475D01*
X291868Y443475D01*
X290975Y444368D01*
X290975Y455200D01*
X290964Y455270D01*
X290962Y455342D01*
X290944Y455391D01*
X290936Y455442D01*
X290902Y455506D01*
X290877Y455573D01*
X290845Y455614D01*
X290820Y455660D01*
X290768Y455709D01*
X290724Y455765D01*
X290680Y455793D01*
X290642Y455829D01*
X290577Y455859D01*
X290517Y455898D01*
X290466Y455911D01*
X290419Y455933D01*
X290348Y455941D01*
X290278Y455958D01*
X290226Y455954D01*
X290175Y455960D01*
X290104Y455945D01*
X290033Y455939D01*
X289985Y455919D01*
X289934Y455908D01*
X289873Y455871D01*
X289807Y455843D01*
X289751Y455798D01*
X289723Y455781D01*
X289708Y455764D01*
X289676Y455738D01*
X285812Y451874D01*
X285759Y451800D01*
X285699Y451730D01*
X285687Y451700D01*
X285668Y451674D01*
X285641Y451587D01*
X285607Y451502D01*
X285603Y451461D01*
X285596Y451439D01*
X285597Y451407D01*
X285589Y451336D01*
X285589Y415130D01*
X285591Y415117D01*
X285590Y415107D01*
X285601Y415055D01*
X285603Y415040D01*
X285611Y414949D01*
X285623Y414919D01*
X285628Y414887D01*
X285671Y414807D01*
X285707Y414723D01*
X285733Y414691D01*
X285744Y414670D01*
X285767Y414648D01*
X285812Y414592D01*
X298656Y401748D01*
X298730Y401695D01*
X298799Y401635D01*
X298830Y401623D01*
X298856Y401604D01*
X298943Y401577D01*
X299028Y401543D01*
X299068Y401539D01*
X299091Y401532D01*
X299123Y401533D01*
X299194Y401525D01*
X308132Y401525D01*
X309025Y400632D01*
X309025Y384368D01*
X308132Y383475D01*
X291868Y383475D01*
X290975Y384368D01*
X290975Y393306D01*
X290961Y393396D01*
X290953Y393487D01*
X290941Y393517D01*
X290936Y393549D01*
X290893Y393629D01*
X290857Y393713D01*
X290831Y393745D01*
X290820Y393766D01*
X290797Y393788D01*
X290752Y393844D01*
X276941Y407655D01*
X275262Y409334D01*
X274411Y411388D01*
X274411Y455077D01*
X275262Y457132D01*
X276941Y458811D01*
X291189Y473059D01*
X292868Y474738D01*
X294923Y475589D01*
X318699Y475589D01*
X318719Y475592D01*
X318738Y475590D01*
X318840Y475612D01*
X318942Y475628D01*
X318959Y475638D01*
X318979Y475642D01*
X319068Y475695D01*
X319159Y475744D01*
X319173Y475758D01*
X319190Y475768D01*
X319257Y475847D01*
X319329Y475922D01*
X319337Y475940D01*
X319350Y475955D01*
X319389Y476051D01*
X319432Y476145D01*
X319434Y476165D01*
X319442Y476183D01*
X319460Y476350D01*
X319460Y481150D01*
X319457Y481170D01*
X319459Y481189D01*
X319437Y481291D01*
X319421Y481393D01*
X319411Y481410D01*
X319407Y481430D01*
X319354Y481519D01*
X319305Y481610D01*
X319291Y481624D01*
X319281Y481641D01*
X319202Y481708D01*
X319127Y481780D01*
X319109Y481788D01*
X319094Y481801D01*
X318998Y481840D01*
X318904Y481883D01*
X318884Y481885D01*
X318866Y481893D01*
X318699Y481911D01*
X309786Y481911D01*
X309766Y481908D01*
X309747Y481910D01*
X309645Y481888D01*
X309543Y481872D01*
X309526Y481862D01*
X309506Y481858D01*
X309417Y481805D01*
X309326Y481756D01*
X309312Y481742D01*
X309295Y481732D01*
X309228Y481653D01*
X309156Y481578D01*
X309148Y481560D01*
X309135Y481545D01*
X309096Y481449D01*
X309053Y481355D01*
X309051Y481335D01*
X309043Y481317D01*
X309025Y481150D01*
X309025Y479368D01*
X308132Y478475D01*
X291868Y478475D01*
X290975Y479368D01*
X290975Y495632D01*
X291868Y496525D01*
X306234Y496525D01*
X306305Y496536D01*
X306376Y496538D01*
X306425Y496556D01*
X306477Y496564D01*
X306540Y496598D01*
X306607Y496623D01*
X306648Y496655D01*
X306694Y496680D01*
X306743Y496732D01*
X306799Y496776D01*
X306827Y496820D01*
X306863Y496858D01*
X306893Y496923D01*
X306932Y496983D01*
X306945Y497034D01*
X306967Y497081D01*
X306975Y497152D01*
X306992Y497222D01*
X306988Y497274D01*
X306994Y497325D01*
X306979Y497396D01*
X306973Y497467D01*
X306953Y497515D01*
X306942Y497566D01*
X306905Y497627D01*
X306877Y497693D01*
X306832Y497749D01*
X306816Y497777D01*
X306798Y497792D01*
X306772Y497824D01*
X301344Y503252D01*
X301270Y503305D01*
X301201Y503365D01*
X301170Y503377D01*
X301144Y503396D01*
X301057Y503423D01*
X300972Y503457D01*
X300932Y503461D01*
X300909Y503468D01*
X300877Y503467D01*
X300806Y503475D01*
X291868Y503475D01*
X290975Y504368D01*
X290975Y520632D01*
X291868Y521525D01*
X308132Y521525D01*
X309025Y520632D01*
X309025Y511694D01*
X309039Y511604D01*
X309047Y511513D01*
X309059Y511483D01*
X309064Y511452D01*
X309107Y511371D01*
X309143Y511287D01*
X309169Y511255D01*
X309180Y511234D01*
X309203Y511212D01*
X309248Y511156D01*
X314592Y505812D01*
X314666Y505759D01*
X314735Y505699D01*
X314766Y505687D01*
X314792Y505668D01*
X314879Y505641D01*
X314964Y505607D01*
X315004Y505603D01*
X315027Y505596D01*
X315059Y505597D01*
X315130Y505589D01*
X317998Y505589D01*
X318092Y505604D01*
X318187Y505613D01*
X318213Y505624D01*
X318241Y505628D01*
X318325Y505673D01*
X318412Y505711D01*
X318433Y505730D01*
X318458Y505744D01*
X318524Y505813D01*
X318594Y505877D01*
X318608Y505901D01*
X318627Y505922D01*
X318668Y506008D01*
X318714Y506092D01*
X318719Y506119D01*
X318731Y506145D01*
X318741Y506240D01*
X318759Y506333D01*
X318755Y506361D01*
X318758Y506389D01*
X318738Y506483D01*
X318724Y506577D01*
X318710Y506609D01*
X318706Y506630D01*
X318689Y506658D01*
X318657Y506731D01*
X318617Y506799D01*
X318444Y507446D01*
X318444Y514257D01*
X329238Y514257D01*
X329258Y514260D01*
X329277Y514258D01*
X329379Y514280D01*
X329481Y514297D01*
X329498Y514306D01*
X329518Y514310D01*
X329607Y514363D01*
X329698Y514412D01*
X329712Y514426D01*
X329729Y514436D01*
X329796Y514515D01*
X329867Y514590D01*
X329876Y514608D01*
X329889Y514623D01*
X329928Y514719D01*
X329971Y514813D01*
X329973Y514833D01*
X329981Y514851D01*
X329999Y515018D01*
X329999Y515781D01*
X330001Y515781D01*
X330001Y515018D01*
X330004Y514998D01*
X330002Y514979D01*
X330024Y514877D01*
X330041Y514775D01*
X330050Y514758D01*
X330054Y514738D01*
X330107Y514649D01*
X330156Y514558D01*
X330170Y514544D01*
X330180Y514527D01*
X330259Y514460D01*
X330334Y514389D01*
X330352Y514380D01*
X330367Y514367D01*
X330463Y514328D01*
X330557Y514285D01*
X330577Y514283D01*
X330595Y514275D01*
X330762Y514257D01*
X341556Y514257D01*
X341556Y507446D01*
X341383Y506799D01*
X341343Y506731D01*
X341309Y506641D01*
X341269Y506555D01*
X341266Y506527D01*
X341256Y506501D01*
X341252Y506405D01*
X341242Y506311D01*
X341248Y506283D01*
X341247Y506255D01*
X341274Y506163D01*
X341294Y506070D01*
X341309Y506046D01*
X341317Y506019D01*
X341372Y505941D01*
X341420Y505859D01*
X341442Y505841D01*
X341458Y505818D01*
X341535Y505761D01*
X341607Y505699D01*
X341634Y505689D01*
X341656Y505672D01*
X341747Y505643D01*
X341835Y505607D01*
X341871Y505603D01*
X341891Y505597D01*
X341923Y505597D01*
X342002Y505589D01*
X357370Y505589D01*
X357460Y505603D01*
X357551Y505611D01*
X357581Y505623D01*
X357612Y505628D01*
X357693Y505671D01*
X357777Y505707D01*
X357809Y505733D01*
X357830Y505744D01*
X357852Y505767D01*
X357908Y505812D01*
X434188Y582092D01*
X434231Y582152D01*
X434271Y582193D01*
X434278Y582208D01*
X434301Y582235D01*
X434313Y582266D01*
X434332Y582292D01*
X434359Y582379D01*
X434370Y582408D01*
X434374Y582416D01*
X434375Y582418D01*
X434393Y582464D01*
X434397Y582504D01*
X434404Y582527D01*
X434403Y582559D01*
X434411Y582630D01*
X434411Y721112D01*
X435262Y723166D01*
X466834Y754738D01*
X468888Y755589D01*
X497370Y755589D01*
X497460Y755603D01*
X497551Y755611D01*
X497581Y755623D01*
X497612Y755628D01*
X497693Y755671D01*
X497777Y755707D01*
X497809Y755733D01*
X497830Y755744D01*
X497852Y755767D01*
X497908Y755812D01*
X506188Y764092D01*
X506241Y764166D01*
X506301Y764235D01*
X506313Y764266D01*
X506332Y764292D01*
X506359Y764379D01*
X506393Y764464D01*
X506397Y764504D01*
X506404Y764527D01*
X506403Y764559D01*
X506411Y764630D01*
X506411Y766112D01*
X506635Y766653D01*
X506650Y766716D01*
X506675Y766777D01*
X506684Y766860D01*
X506691Y766892D01*
X506690Y766911D01*
X506693Y766944D01*
X506693Y767198D01*
X506873Y767378D01*
X506911Y767431D01*
X506957Y767478D01*
X506997Y767551D01*
X507017Y767578D01*
X507022Y767596D01*
X507038Y767625D01*
X507262Y768166D01*
X508834Y769738D01*
X509375Y769962D01*
X509431Y769997D01*
X509491Y770022D01*
X509556Y770074D01*
X509584Y770092D01*
X509597Y770107D01*
X509622Y770127D01*
X509802Y770307D01*
X510056Y770307D01*
X510121Y770317D01*
X510186Y770318D01*
X510266Y770341D01*
X510299Y770346D01*
X510316Y770356D01*
X510347Y770365D01*
X510888Y770589D01*
X513112Y770589D01*
X513653Y770365D01*
X513716Y770350D01*
X513777Y770325D01*
X513860Y770316D01*
X513892Y770309D01*
X513911Y770310D01*
X513944Y770307D01*
X514198Y770307D01*
X514378Y770127D01*
X514431Y770089D01*
X514478Y770043D01*
X514551Y770003D01*
X514578Y769983D01*
X514596Y769978D01*
X514625Y769962D01*
X515166Y769738D01*
X516738Y768166D01*
X516962Y767625D01*
X516997Y767569D01*
X517022Y767509D01*
X517074Y767444D01*
X517092Y767416D01*
X517107Y767403D01*
X517127Y767378D01*
X517307Y767198D01*
X517307Y766944D01*
X517317Y766879D01*
X517318Y766814D01*
X517341Y766734D01*
X517346Y766701D01*
X517356Y766684D01*
X517365Y766653D01*
X517589Y766112D01*
X517589Y760888D01*
X516738Y758834D01*
X503166Y745262D01*
X501112Y744411D01*
X472630Y744411D01*
X472540Y744397D01*
X472449Y744389D01*
X472419Y744377D01*
X472388Y744372D01*
X472307Y744329D01*
X472223Y744293D01*
X472191Y744267D01*
X472170Y744256D01*
X472148Y744233D01*
X472092Y744188D01*
X445812Y717908D01*
X445759Y717834D01*
X445731Y717802D01*
X445720Y717791D01*
X445719Y717788D01*
X445699Y717765D01*
X445687Y717734D01*
X445668Y717708D01*
X445641Y717621D01*
X445639Y717616D01*
X445617Y717568D01*
X445616Y717558D01*
X445607Y717536D01*
X445603Y717496D01*
X445596Y717473D01*
X445597Y717441D01*
X445589Y717370D01*
X445589Y695330D01*
X445600Y695259D01*
X445602Y695188D01*
X445620Y695139D01*
X445628Y695087D01*
X445662Y695024D01*
X445687Y694957D01*
X445719Y694916D01*
X445744Y694870D01*
X445796Y694821D01*
X445840Y694765D01*
X445884Y694737D01*
X445922Y694701D01*
X445987Y694671D01*
X446047Y694632D01*
X446098Y694619D01*
X446145Y694597D01*
X446216Y694589D01*
X446286Y694572D01*
X446338Y694576D01*
X446389Y694570D01*
X446460Y694585D01*
X446531Y694591D01*
X446579Y694611D01*
X446630Y694622D01*
X446691Y694659D01*
X446757Y694687D01*
X446813Y694732D01*
X446841Y694748D01*
X446856Y694766D01*
X446888Y694792D01*
X480188Y728092D01*
X480241Y728166D01*
X480301Y728235D01*
X480313Y728266D01*
X480332Y728292D01*
X480359Y728379D01*
X480393Y728464D01*
X480397Y728504D01*
X480404Y728527D01*
X480403Y728559D01*
X480411Y728630D01*
X480411Y735112D01*
X480635Y735653D01*
X480650Y735716D01*
X480675Y735777D01*
X480684Y735860D01*
X480691Y735892D01*
X480690Y735911D01*
X480693Y735944D01*
X480693Y736198D01*
X480873Y736378D01*
X480911Y736431D01*
X480957Y736478D01*
X480997Y736551D01*
X481017Y736578D01*
X481022Y736596D01*
X481038Y736625D01*
X481262Y737166D01*
X482834Y738738D01*
X483375Y738962D01*
X483431Y738997D01*
X483491Y739022D01*
X483556Y739074D01*
X483584Y739092D01*
X483597Y739107D01*
X483622Y739127D01*
X483802Y739307D01*
X484056Y739307D01*
X484121Y739317D01*
X484186Y739318D01*
X484266Y739341D01*
X484299Y739346D01*
X484316Y739356D01*
X484347Y739365D01*
X484888Y739589D01*
X487112Y739589D01*
X487653Y739365D01*
X487716Y739350D01*
X487777Y739325D01*
X487860Y739316D01*
X487892Y739309D01*
X487911Y739310D01*
X487944Y739307D01*
X488198Y739307D01*
X488378Y739127D01*
X488431Y739089D01*
X488478Y739043D01*
X488551Y739003D01*
X488578Y738983D01*
X488596Y738978D01*
X488625Y738962D01*
X489166Y738738D01*
X490738Y737166D01*
X490962Y736625D01*
X490997Y736569D01*
X491022Y736509D01*
X491074Y736444D01*
X491092Y736416D01*
X491107Y736403D01*
X491127Y736378D01*
X491307Y736198D01*
X491307Y735944D01*
X491317Y735879D01*
X491318Y735814D01*
X491341Y735734D01*
X491346Y735701D01*
X491356Y735684D01*
X491365Y735653D01*
X491589Y735112D01*
X491589Y724888D01*
X490738Y722834D01*
X455812Y687908D01*
X455759Y687834D01*
X455699Y687765D01*
X455687Y687734D01*
X455668Y687708D01*
X455641Y687621D01*
X455607Y687536D01*
X455603Y687496D01*
X455596Y687473D01*
X455597Y687441D01*
X455589Y687370D01*
X455589Y685330D01*
X455600Y685259D01*
X455602Y685188D01*
X455620Y685139D01*
X455628Y685087D01*
X455662Y685024D01*
X455687Y684957D01*
X455719Y684916D01*
X455744Y684870D01*
X455796Y684821D01*
X455840Y684765D01*
X455884Y684736D01*
X455922Y684701D01*
X455987Y684670D01*
X456047Y684632D01*
X456098Y684619D01*
X456145Y684597D01*
X456216Y684589D01*
X456286Y684572D01*
X456338Y684576D01*
X456389Y684570D01*
X456460Y684585D01*
X456531Y684591D01*
X456579Y684611D01*
X456630Y684622D01*
X456691Y684659D01*
X456757Y684687D01*
X456806Y684726D01*
X457375Y684962D01*
X457431Y684997D01*
X457491Y685022D01*
X457556Y685074D01*
X457584Y685092D01*
X457597Y685107D01*
X457622Y685127D01*
X457802Y685307D01*
X458056Y685307D01*
X458121Y685317D01*
X458186Y685318D01*
X458266Y685341D01*
X458299Y685346D01*
X458316Y685356D01*
X458347Y685365D01*
X458888Y685589D01*
X461112Y685589D01*
X461653Y685365D01*
X461716Y685350D01*
X461777Y685325D01*
X461860Y685316D01*
X461892Y685309D01*
X461911Y685310D01*
X461944Y685307D01*
X462198Y685307D01*
X462378Y685127D01*
X462431Y685089D01*
X462478Y685043D01*
X462551Y685003D01*
X462578Y684983D01*
X462596Y684978D01*
X462625Y684962D01*
X463166Y684738D01*
X464738Y683166D01*
X464962Y682625D01*
X464997Y682569D01*
X465022Y682509D01*
X465074Y682444D01*
X465092Y682416D01*
X465107Y682403D01*
X465127Y682378D01*
X465307Y682198D01*
X465307Y681944D01*
X465317Y681879D01*
X465318Y681814D01*
X465341Y681734D01*
X465346Y681701D01*
X465356Y681684D01*
X465365Y681653D01*
X465589Y681112D01*
X465589Y672630D01*
X465603Y672540D01*
X465611Y672449D01*
X465623Y672419D01*
X465628Y672388D01*
X465671Y672307D01*
X465707Y672223D01*
X465733Y672191D01*
X465744Y672170D01*
X465767Y672148D01*
X465812Y672092D01*
X632092Y505812D01*
X632166Y505759D01*
X632235Y505699D01*
X632266Y505687D01*
X632292Y505668D01*
X632379Y505641D01*
X632464Y505607D01*
X632504Y505603D01*
X632527Y505596D01*
X632559Y505597D01*
X632630Y505589D01*
X657998Y505589D01*
X658092Y505604D01*
X658187Y505613D01*
X658213Y505624D01*
X658241Y505628D01*
X658325Y505673D01*
X658412Y505711D01*
X658433Y505730D01*
X658458Y505744D01*
X658524Y505813D01*
X658594Y505877D01*
X658608Y505901D01*
X658627Y505922D01*
X658667Y506008D01*
X658714Y506092D01*
X658719Y506119D01*
X658731Y506145D01*
X658741Y506240D01*
X658759Y506334D01*
X658755Y506361D01*
X658758Y506389D01*
X658738Y506483D01*
X658724Y506577D01*
X658710Y506610D01*
X658706Y506630D01*
X658689Y506658D01*
X658657Y506731D01*
X658617Y506799D01*
X658444Y507446D01*
X658444Y514257D01*
X669238Y514257D01*
X669258Y514260D01*
X669277Y514258D01*
X669379Y514280D01*
X669481Y514297D01*
X669498Y514306D01*
X669518Y514310D01*
X669607Y514363D01*
X669698Y514412D01*
X669712Y514426D01*
X669729Y514436D01*
X669796Y514515D01*
X669867Y514590D01*
X669876Y514608D01*
X669889Y514623D01*
X669928Y514719D01*
X669971Y514813D01*
X669973Y514833D01*
X669981Y514851D01*
X669999Y515018D01*
X669999Y515781D01*
X670001Y515781D01*
X670001Y515018D01*
X670004Y514998D01*
X670002Y514979D01*
X670024Y514877D01*
X670041Y514775D01*
X670050Y514758D01*
X670054Y514738D01*
X670107Y514649D01*
X670156Y514558D01*
X670170Y514544D01*
X670180Y514527D01*
X670259Y514460D01*
X670334Y514389D01*
X670352Y514380D01*
X670367Y514367D01*
X670463Y514328D01*
X670557Y514285D01*
X670577Y514283D01*
X670595Y514275D01*
X670762Y514257D01*
X681556Y514257D01*
X681556Y507446D01*
X681383Y506799D01*
X681343Y506731D01*
X681309Y506642D01*
X681269Y506555D01*
X681266Y506527D01*
X681256Y506501D01*
X681252Y506405D01*
X681242Y506311D01*
X681248Y506283D01*
X681247Y506255D01*
X681274Y506163D01*
X681294Y506070D01*
X681309Y506046D01*
X681317Y506019D01*
X681371Y505941D01*
X681420Y505859D01*
X681442Y505841D01*
X681458Y505818D01*
X681535Y505761D01*
X681607Y505699D01*
X681633Y505689D01*
X681656Y505672D01*
X681747Y505643D01*
X681835Y505607D01*
X681871Y505603D01*
X681890Y505597D01*
X681923Y505597D01*
X682002Y505589D01*
X684870Y505589D01*
X684960Y505603D01*
X685051Y505611D01*
X685081Y505623D01*
X685112Y505628D01*
X685193Y505671D01*
X685277Y505707D01*
X685309Y505733D01*
X685330Y505744D01*
X685352Y505767D01*
X685408Y505812D01*
X690752Y511156D01*
X690805Y511230D01*
X690865Y511299D01*
X690877Y511329D01*
X690896Y511356D01*
X690923Y511443D01*
X690957Y511528D01*
X690961Y511568D01*
X690968Y511591D01*
X690967Y511623D01*
X690975Y511694D01*
X690975Y520632D01*
X691868Y521525D01*
X708132Y521525D01*
X709025Y520632D01*
X709025Y504368D01*
X708132Y503475D01*
X699194Y503475D01*
X699104Y503461D01*
X699013Y503453D01*
X698983Y503441D01*
X698951Y503436D01*
X698871Y503393D01*
X698787Y503357D01*
X698755Y503331D01*
X698734Y503320D01*
X698713Y503298D01*
X698710Y503297D01*
X698707Y503293D01*
X698656Y503252D01*
X693228Y497824D01*
X693186Y497766D01*
X693137Y497714D01*
X693115Y497667D01*
X693084Y497625D01*
X693063Y497556D01*
X693033Y497491D01*
X693027Y497439D01*
X693012Y497389D01*
X693014Y497318D01*
X693006Y497247D01*
X693017Y497196D01*
X693018Y497144D01*
X693043Y497076D01*
X693058Y497006D01*
X693085Y496962D01*
X693103Y496913D01*
X693148Y496857D01*
X693184Y496795D01*
X693224Y496761D01*
X693257Y496721D01*
X693317Y496682D01*
X693371Y496635D01*
X693420Y496616D01*
X693463Y496588D01*
X693533Y496570D01*
X693599Y496543D01*
X693671Y496535D01*
X693702Y496527D01*
X693725Y496529D01*
X693766Y496525D01*
X708132Y496525D01*
X709025Y495632D01*
X709025Y479368D01*
X708132Y478475D01*
X691845Y478475D01*
X691792Y478521D01*
X691762Y478533D01*
X691736Y478552D01*
X691649Y478579D01*
X691564Y478613D01*
X691523Y478617D01*
X691501Y478624D01*
X691468Y478623D01*
X691397Y478631D01*
X681301Y478631D01*
X681281Y478628D01*
X681262Y478630D01*
X681160Y478608D01*
X681058Y478592D01*
X681041Y478582D01*
X681021Y478578D01*
X680932Y478525D01*
X680841Y478476D01*
X680827Y478462D01*
X680810Y478452D01*
X680743Y478373D01*
X680671Y478298D01*
X680663Y478280D01*
X680650Y478265D01*
X680611Y478169D01*
X680568Y478075D01*
X680566Y478055D01*
X680558Y478037D01*
X680540Y477870D01*
X680540Y476350D01*
X680543Y476330D01*
X680541Y476311D01*
X680563Y476209D01*
X680579Y476107D01*
X680589Y476090D01*
X680593Y476070D01*
X680646Y475981D01*
X680695Y475890D01*
X680709Y475876D01*
X680719Y475859D01*
X680798Y475792D01*
X680873Y475720D01*
X680891Y475712D01*
X680906Y475699D01*
X681002Y475660D01*
X681096Y475617D01*
X681116Y475615D01*
X681134Y475607D01*
X681301Y475589D01*
X751703Y475589D01*
X753757Y474738D01*
X923488Y305007D01*
X924339Y302953D01*
X924339Y282789D01*
X924350Y282723D01*
X924351Y282655D01*
X924369Y282602D01*
X924378Y282546D01*
X924410Y282487D01*
X924433Y282423D01*
X924467Y282379D01*
X924494Y282329D01*
X924542Y282283D01*
X924584Y282229D01*
X924648Y282182D01*
X924672Y282160D01*
X924691Y282151D01*
X924719Y282130D01*
X930304Y278905D01*
X930631Y277685D01*
X922500Y263601D01*
X921280Y263274D01*
X907196Y271406D01*
X906869Y272626D01*
X913059Y283348D01*
X913100Y283455D01*
X913143Y283562D01*
X913144Y283572D01*
X913146Y283578D01*
X913147Y283601D01*
X913161Y283729D01*
X913161Y299211D01*
X913147Y299301D01*
X913139Y299392D01*
X913127Y299422D01*
X913122Y299454D01*
X913079Y299535D01*
X913043Y299618D01*
X913017Y299651D01*
X913006Y299671D01*
X912983Y299693D01*
X912938Y299749D01*
X748499Y464188D01*
X748426Y464241D01*
X748356Y464301D01*
X748326Y464313D01*
X748300Y464332D01*
X748213Y464359D01*
X748128Y464393D01*
X748087Y464397D01*
X748065Y464404D01*
X748032Y464403D01*
X747961Y464411D01*
X725330Y464411D01*
X725259Y464400D01*
X725188Y464398D01*
X725139Y464380D01*
X725087Y464372D01*
X725024Y464338D01*
X724957Y464313D01*
X724916Y464281D01*
X724870Y464256D01*
X724821Y464204D01*
X724765Y464160D01*
X724736Y464116D01*
X724701Y464078D01*
X724670Y464013D01*
X724632Y463953D01*
X724619Y463902D01*
X724597Y463855D01*
X724589Y463784D01*
X724572Y463714D01*
X724576Y463662D01*
X724570Y463611D01*
X724585Y463540D01*
X724591Y463469D01*
X724611Y463421D01*
X724622Y463370D01*
X724659Y463309D01*
X724687Y463243D01*
X724726Y463194D01*
X724962Y462625D01*
X724997Y462569D01*
X725022Y462509D01*
X725074Y462444D01*
X725092Y462416D01*
X725107Y462403D01*
X725127Y462378D01*
X725307Y462198D01*
X725307Y461944D01*
X725317Y461879D01*
X725318Y461814D01*
X725341Y461734D01*
X725346Y461701D01*
X725356Y461684D01*
X725365Y461653D01*
X725589Y461112D01*
X725589Y458888D01*
X725365Y458347D01*
X725350Y458284D01*
X725325Y458223D01*
X725316Y458140D01*
X725309Y458108D01*
X725310Y458089D01*
X725307Y458056D01*
X725307Y457802D01*
X725127Y457622D01*
X725089Y457569D01*
X725043Y457522D01*
X725003Y457449D01*
X724983Y457422D01*
X724978Y457404D01*
X724962Y457375D01*
X724738Y456834D01*
X715666Y447762D01*
X713612Y446911D01*
X709786Y446911D01*
X709766Y446908D01*
X709747Y446910D01*
X709645Y446888D01*
X709543Y446872D01*
X709526Y446862D01*
X709506Y446858D01*
X709417Y446805D01*
X709326Y446756D01*
X709312Y446742D01*
X709295Y446732D01*
X709228Y446653D01*
X709156Y446578D01*
X709148Y446560D01*
X709135Y446545D01*
X709096Y446449D01*
X709053Y446355D01*
X709051Y446335D01*
X709043Y446317D01*
X709025Y446150D01*
X709025Y444368D01*
X708132Y443475D01*
X691868Y443475D01*
X690975Y444368D01*
X690975Y460632D01*
X691868Y461525D01*
X708132Y461525D01*
X709025Y460632D01*
X709025Y458850D01*
X709028Y458830D01*
X709026Y458811D01*
X709048Y458709D01*
X709064Y458607D01*
X709074Y458590D01*
X709078Y458570D01*
X709131Y458481D01*
X709180Y458390D01*
X709194Y458376D01*
X709204Y458359D01*
X709283Y458292D01*
X709358Y458220D01*
X709376Y458212D01*
X709391Y458199D01*
X709487Y458160D01*
X709581Y458117D01*
X709601Y458115D01*
X709619Y458107D01*
X709786Y458089D01*
X709870Y458089D01*
X709960Y458103D01*
X710051Y458111D01*
X710081Y458123D01*
X710112Y458128D01*
X710193Y458171D01*
X710277Y458207D01*
X710309Y458233D01*
X710330Y458244D01*
X710352Y458267D01*
X710408Y458312D01*
X715208Y463112D01*
X715250Y463170D01*
X715299Y463222D01*
X715321Y463269D01*
X715352Y463311D01*
X715373Y463380D01*
X715403Y463445D01*
X715409Y463497D01*
X715424Y463547D01*
X715422Y463618D01*
X715430Y463689D01*
X715419Y463740D01*
X715418Y463792D01*
X715393Y463860D01*
X715378Y463930D01*
X715351Y463975D01*
X715333Y464023D01*
X715288Y464079D01*
X715252Y464141D01*
X715212Y464175D01*
X715179Y464215D01*
X715119Y464254D01*
X715065Y464301D01*
X715016Y464320D01*
X714973Y464348D01*
X714903Y464366D01*
X714837Y464393D01*
X714765Y464401D01*
X714734Y464409D01*
X714711Y464407D01*
X714670Y464411D01*
X682317Y464411D01*
X682297Y464408D01*
X682278Y464410D01*
X682176Y464388D01*
X682074Y464372D01*
X682057Y464362D01*
X682037Y464358D01*
X681948Y464305D01*
X681857Y464256D01*
X681843Y464242D01*
X681826Y464232D01*
X681759Y464153D01*
X681687Y464078D01*
X681679Y464060D01*
X681666Y464045D01*
X681627Y463949D01*
X681584Y463855D01*
X681582Y463835D01*
X681574Y463817D01*
X681556Y463650D01*
X681556Y457303D01*
X670762Y457303D01*
X670742Y457300D01*
X670723Y457302D01*
X670621Y457280D01*
X670519Y457263D01*
X670502Y457254D01*
X670482Y457250D01*
X670393Y457197D01*
X670302Y457148D01*
X670288Y457134D01*
X670271Y457124D01*
X670204Y457045D01*
X670133Y456970D01*
X670124Y456952D01*
X670111Y456937D01*
X670072Y456841D01*
X670029Y456747D01*
X670027Y456727D01*
X670019Y456709D01*
X670001Y456542D01*
X670001Y455779D01*
X669999Y455779D01*
X669999Y456542D01*
X669996Y456562D01*
X669998Y456581D01*
X669976Y456683D01*
X669959Y456785D01*
X669950Y456802D01*
X669946Y456822D01*
X669893Y456911D01*
X669844Y457002D01*
X669830Y457016D01*
X669820Y457033D01*
X669741Y457100D01*
X669666Y457171D01*
X669648Y457180D01*
X669633Y457193D01*
X669537Y457232D01*
X669443Y457275D01*
X669423Y457277D01*
X669405Y457285D01*
X669238Y457303D01*
X658444Y457303D01*
X658444Y463650D01*
X658441Y463670D01*
X658443Y463689D01*
X658421Y463791D01*
X658405Y463893D01*
X658395Y463910D01*
X658391Y463930D01*
X658338Y464019D01*
X658289Y464110D01*
X658275Y464124D01*
X658265Y464141D01*
X658186Y464208D01*
X658111Y464280D01*
X658093Y464288D01*
X658078Y464301D01*
X657982Y464340D01*
X657888Y464383D01*
X657868Y464385D01*
X657850Y464393D01*
X657683Y464411D01*
X605330Y464411D01*
X605259Y464400D01*
X605188Y464398D01*
X605139Y464380D01*
X605087Y464372D01*
X605024Y464338D01*
X604957Y464313D01*
X604916Y464281D01*
X604870Y464256D01*
X604821Y464204D01*
X604765Y464160D01*
X604737Y464116D01*
X604701Y464078D01*
X604671Y464013D01*
X604632Y463953D01*
X604619Y463902D01*
X604597Y463855D01*
X604589Y463784D01*
X604572Y463714D01*
X604576Y463662D01*
X604570Y463611D01*
X604585Y463540D01*
X604591Y463469D01*
X604611Y463421D01*
X604622Y463370D01*
X604659Y463309D01*
X604687Y463243D01*
X604732Y463187D01*
X604748Y463159D01*
X604766Y463144D01*
X604792Y463112D01*
X652092Y415812D01*
X652166Y415759D01*
X652235Y415699D01*
X652266Y415687D01*
X652292Y415668D01*
X652379Y415641D01*
X652464Y415607D01*
X652504Y415603D01*
X652527Y415596D01*
X652559Y415597D01*
X652630Y415589D01*
X658699Y415589D01*
X658719Y415592D01*
X658738Y415590D01*
X658840Y415612D01*
X658942Y415628D01*
X658959Y415638D01*
X658979Y415642D01*
X659068Y415695D01*
X659159Y415744D01*
X659173Y415758D01*
X659190Y415768D01*
X659257Y415847D01*
X659329Y415922D01*
X659337Y415940D01*
X659350Y415955D01*
X659389Y416051D01*
X659432Y416145D01*
X659434Y416165D01*
X659442Y416183D01*
X659460Y416350D01*
X659460Y432852D01*
X660353Y433745D01*
X679647Y433745D01*
X680540Y432852D01*
X680540Y430570D01*
X680543Y430550D01*
X680541Y430531D01*
X680563Y430429D01*
X680579Y430327D01*
X680589Y430310D01*
X680593Y430290D01*
X680646Y430201D01*
X680695Y430110D01*
X680709Y430096D01*
X680719Y430079D01*
X680798Y430012D01*
X680873Y429940D01*
X680891Y429932D01*
X680906Y429919D01*
X681002Y429880D01*
X681096Y429837D01*
X681116Y429835D01*
X681134Y429827D01*
X681301Y429809D01*
X690214Y429809D01*
X690234Y429812D01*
X690253Y429810D01*
X690355Y429832D01*
X690457Y429848D01*
X690474Y429858D01*
X690494Y429862D01*
X690583Y429915D01*
X690674Y429964D01*
X690688Y429978D01*
X690705Y429988D01*
X690772Y430067D01*
X690844Y430142D01*
X690852Y430160D01*
X690865Y430175D01*
X690904Y430271D01*
X690947Y430365D01*
X690949Y430385D01*
X690957Y430403D01*
X690975Y430570D01*
X690975Y435632D01*
X691868Y436525D01*
X708132Y436525D01*
X709025Y435632D01*
X709025Y419368D01*
X708132Y418475D01*
X691845Y418475D01*
X691792Y418521D01*
X691762Y418533D01*
X691736Y418552D01*
X691649Y418579D01*
X691564Y418613D01*
X691523Y418617D01*
X691501Y418624D01*
X691468Y418623D01*
X691397Y418631D01*
X681301Y418631D01*
X681281Y418628D01*
X681262Y418630D01*
X681160Y418608D01*
X681058Y418592D01*
X681041Y418582D01*
X681021Y418578D01*
X680932Y418525D01*
X680841Y418476D01*
X680827Y418462D01*
X680810Y418452D01*
X680743Y418373D01*
X680671Y418298D01*
X680663Y418280D01*
X680650Y418265D01*
X680611Y418169D01*
X680568Y418075D01*
X680566Y418055D01*
X680558Y418037D01*
X680540Y417870D01*
X680540Y416350D01*
X680543Y416330D01*
X680541Y416311D01*
X680563Y416209D01*
X680579Y416107D01*
X680589Y416090D01*
X680593Y416070D01*
X680646Y415981D01*
X680695Y415890D01*
X680709Y415876D01*
X680719Y415859D01*
X680798Y415792D01*
X680873Y415720D01*
X680891Y415712D01*
X680906Y415699D01*
X681002Y415660D01*
X681096Y415617D01*
X681116Y415615D01*
X681134Y415607D01*
X681301Y415589D01*
X683612Y415589D01*
X685666Y414738D01*
X698656Y401748D01*
X698730Y401695D01*
X698799Y401635D01*
X698830Y401623D01*
X698856Y401604D01*
X698943Y401577D01*
X699028Y401543D01*
X699068Y401539D01*
X699091Y401532D01*
X699123Y401533D01*
X699194Y401525D01*
X708132Y401525D01*
X709025Y400632D01*
X709025Y384368D01*
X708132Y383475D01*
X691868Y383475D01*
X690975Y384368D01*
X690975Y393306D01*
X690961Y393396D01*
X690953Y393487D01*
X690941Y393517D01*
X690936Y393548D01*
X690893Y393629D01*
X690857Y393713D01*
X690831Y393745D01*
X690820Y393766D01*
X690797Y393788D01*
X690752Y393844D01*
X682855Y401741D01*
X682797Y401783D01*
X682745Y401832D01*
X682698Y401854D01*
X682656Y401885D01*
X682587Y401906D01*
X682522Y401936D01*
X682470Y401942D01*
X682420Y401957D01*
X682349Y401955D01*
X682278Y401963D01*
X682227Y401952D01*
X682175Y401951D01*
X682107Y401926D01*
X682037Y401911D01*
X681992Y401884D01*
X681944Y401866D01*
X681888Y401821D01*
X681826Y401785D01*
X681792Y401745D01*
X681752Y401712D01*
X681713Y401652D01*
X681666Y401598D01*
X681647Y401549D01*
X681619Y401506D01*
X681601Y401436D01*
X681574Y401370D01*
X681566Y401298D01*
X681558Y401267D01*
X681560Y401244D01*
X681556Y401203D01*
X681556Y397303D01*
X670762Y397303D01*
X670742Y397300D01*
X670723Y397302D01*
X670621Y397280D01*
X670519Y397263D01*
X670502Y397254D01*
X670482Y397250D01*
X670393Y397197D01*
X670302Y397148D01*
X670288Y397134D01*
X670271Y397124D01*
X670204Y397045D01*
X670133Y396970D01*
X670124Y396952D01*
X670111Y396937D01*
X670072Y396841D01*
X670029Y396747D01*
X670027Y396727D01*
X670019Y396709D01*
X670001Y396542D01*
X670001Y395779D01*
X669999Y395779D01*
X669999Y396542D01*
X669996Y396562D01*
X669998Y396581D01*
X669976Y396683D01*
X669959Y396785D01*
X669950Y396802D01*
X669946Y396822D01*
X669893Y396911D01*
X669844Y397002D01*
X669830Y397016D01*
X669820Y397033D01*
X669741Y397100D01*
X669666Y397171D01*
X669648Y397180D01*
X669633Y397193D01*
X669537Y397232D01*
X669443Y397275D01*
X669423Y397277D01*
X669405Y397285D01*
X669238Y397303D01*
X658444Y397303D01*
X658444Y403650D01*
X658441Y403670D01*
X658443Y403689D01*
X658421Y403791D01*
X658405Y403893D01*
X658395Y403910D01*
X658391Y403930D01*
X658338Y404019D01*
X658289Y404110D01*
X658275Y404124D01*
X658265Y404141D01*
X658186Y404208D01*
X658111Y404280D01*
X658093Y404288D01*
X658078Y404301D01*
X657982Y404340D01*
X657888Y404383D01*
X657868Y404385D01*
X657850Y404393D01*
X657683Y404411D01*
X648888Y404411D01*
X646834Y405262D01*
X597908Y454188D01*
X597834Y454241D01*
X597765Y454301D01*
X597734Y454313D01*
X597708Y454332D01*
X597621Y454359D01*
X597536Y454393D01*
X597496Y454397D01*
X597473Y454404D01*
X597441Y454403D01*
X597370Y454411D01*
X388888Y454411D01*
X388347Y454635D01*
X388284Y454650D01*
X388223Y454675D01*
X388140Y454684D01*
X388108Y454691D01*
X388089Y454690D01*
X388056Y454693D01*
X387802Y454693D01*
X387622Y454873D01*
X387569Y454911D01*
X387522Y454957D01*
X387449Y454997D01*
X387422Y455017D01*
X387404Y455022D01*
X387375Y455038D01*
X386834Y455262D01*
X385262Y456834D01*
X385038Y457375D01*
X385003Y457431D01*
X384978Y457491D01*
X384926Y457556D01*
X384908Y457584D01*
X384893Y457597D01*
X384873Y457622D01*
X384693Y457802D01*
X384693Y458056D01*
X384683Y458121D01*
X384682Y458186D01*
X384659Y458266D01*
X384654Y458299D01*
X384644Y458316D01*
X384635Y458347D01*
X384411Y458888D01*
X384411Y461112D01*
X384635Y461653D01*
X384650Y461716D01*
X384675Y461777D01*
X384684Y461860D01*
X384691Y461892D01*
X384690Y461911D01*
X384693Y461944D01*
X384693Y462198D01*
X384873Y462378D01*
X384911Y462431D01*
X384957Y462478D01*
X384997Y462551D01*
X385017Y462578D01*
X385022Y462596D01*
X385038Y462625D01*
X385262Y463166D01*
X386834Y464738D01*
X387375Y464962D01*
X387431Y464997D01*
X387491Y465022D01*
X387556Y465074D01*
X387584Y465092D01*
X387597Y465107D01*
X387622Y465127D01*
X387802Y465307D01*
X388056Y465307D01*
X388121Y465317D01*
X388186Y465318D01*
X388266Y465341D01*
X388299Y465346D01*
X388316Y465356D01*
X388347Y465365D01*
X388888Y465589D01*
X514670Y465589D01*
X514741Y465600D01*
X514812Y465602D01*
X514861Y465620D01*
X514913Y465628D01*
X514976Y465662D01*
X515043Y465687D01*
X515084Y465719D01*
X515130Y465744D01*
X515179Y465796D01*
X515235Y465840D01*
X515264Y465884D01*
X515299Y465922D01*
X515330Y465987D01*
X515368Y466047D01*
X515381Y466098D01*
X515403Y466145D01*
X515411Y466216D01*
X515428Y466286D01*
X515424Y466338D01*
X515430Y466389D01*
X515415Y466460D01*
X515409Y466531D01*
X515389Y466579D01*
X515378Y466630D01*
X515341Y466691D01*
X515313Y466757D01*
X515274Y466806D01*
X515038Y467375D01*
X515003Y467431D01*
X514978Y467491D01*
X514926Y467556D01*
X514908Y467584D01*
X514893Y467597D01*
X514873Y467622D01*
X514693Y467802D01*
X514693Y468056D01*
X514683Y468121D01*
X514682Y468186D01*
X514659Y468266D01*
X514654Y468299D01*
X514644Y468316D01*
X514635Y468347D01*
X514411Y468888D01*
X514411Y471112D01*
X514635Y471653D01*
X514650Y471716D01*
X514675Y471777D01*
X514684Y471860D01*
X514691Y471892D01*
X514690Y471911D01*
X514693Y471944D01*
X514693Y472198D01*
X514873Y472378D01*
X514911Y472431D01*
X514957Y472478D01*
X514997Y472551D01*
X515017Y472578D01*
X515022Y472596D01*
X515038Y472625D01*
X515262Y473166D01*
X516834Y474738D01*
X517375Y474962D01*
X517431Y474997D01*
X517491Y475022D01*
X517556Y475074D01*
X517584Y475092D01*
X517597Y475107D01*
X517622Y475127D01*
X517802Y475307D01*
X518056Y475307D01*
X518121Y475317D01*
X518186Y475318D01*
X518266Y475341D01*
X518299Y475346D01*
X518316Y475356D01*
X518347Y475365D01*
X518888Y475589D01*
X658699Y475589D01*
X658719Y475592D01*
X658738Y475590D01*
X658840Y475612D01*
X658942Y475628D01*
X658959Y475638D01*
X658979Y475642D01*
X659068Y475695D01*
X659159Y475744D01*
X659173Y475758D01*
X659190Y475768D01*
X659257Y475847D01*
X659329Y475922D01*
X659337Y475940D01*
X659350Y475955D01*
X659389Y476051D01*
X659432Y476145D01*
X659434Y476165D01*
X659442Y476183D01*
X659460Y476350D01*
X659460Y492852D01*
X659720Y493112D01*
X659762Y493170D01*
X659812Y493222D01*
X659834Y493269D01*
X659864Y493311D01*
X659885Y493380D01*
X659915Y493445D01*
X659921Y493497D01*
X659936Y493547D01*
X659934Y493618D01*
X659942Y493689D01*
X659931Y493740D01*
X659930Y493792D01*
X659905Y493860D01*
X659890Y493930D01*
X659863Y493975D01*
X659846Y494023D01*
X659801Y494079D01*
X659764Y494141D01*
X659724Y494175D01*
X659692Y494215D01*
X659632Y494254D01*
X659577Y494301D01*
X659529Y494320D01*
X659485Y494348D01*
X659416Y494366D01*
X659349Y494393D01*
X659278Y494401D01*
X659246Y494409D01*
X659223Y494407D01*
X659182Y494411D01*
X628888Y494411D01*
X626834Y495262D01*
X456941Y665155D01*
X456888Y665208D01*
X456830Y665250D01*
X456778Y665299D01*
X456731Y665321D01*
X456689Y665352D01*
X456620Y665373D01*
X456555Y665403D01*
X456503Y665409D01*
X456454Y665424D01*
X456382Y665422D01*
X456311Y665430D01*
X456260Y665419D01*
X456208Y665418D01*
X456140Y665393D01*
X456070Y665378D01*
X456026Y665351D01*
X455977Y665333D01*
X455921Y665288D01*
X455859Y665252D01*
X455825Y665212D01*
X455785Y665180D01*
X455746Y665119D01*
X455699Y665065D01*
X455680Y665016D01*
X455652Y664973D01*
X455634Y664903D01*
X455607Y664837D01*
X455599Y664765D01*
X455591Y664734D01*
X455593Y664711D01*
X455589Y664670D01*
X455589Y568888D01*
X454738Y566834D01*
X353166Y465262D01*
X351112Y464411D01*
X342317Y464411D01*
X342297Y464408D01*
X342278Y464410D01*
X342176Y464388D01*
X342074Y464372D01*
X342057Y464362D01*
X342037Y464358D01*
X341948Y464305D01*
X341857Y464256D01*
X341843Y464242D01*
X341826Y464232D01*
X341759Y464153D01*
X341687Y464078D01*
X341679Y464060D01*
X341666Y464045D01*
X341627Y463949D01*
X341584Y463855D01*
X341582Y463835D01*
X341574Y463817D01*
X341556Y463650D01*
X341556Y457303D01*
X330762Y457303D01*
X330742Y457300D01*
X330723Y457302D01*
X330621Y457280D01*
X330519Y457263D01*
X330502Y457254D01*
X330482Y457250D01*
X330393Y457197D01*
X330302Y457148D01*
X330288Y457134D01*
X330271Y457124D01*
X330204Y457045D01*
X330133Y456970D01*
X330124Y456952D01*
X330111Y456937D01*
X330072Y456841D01*
X330029Y456747D01*
X330027Y456727D01*
X330019Y456709D01*
X330001Y456542D01*
X330001Y455018D01*
X330004Y454998D01*
X330002Y454979D01*
X330024Y454877D01*
X330041Y454775D01*
X330050Y454758D01*
X330054Y454738D01*
X330107Y454649D01*
X330156Y454558D01*
X330170Y454544D01*
X330180Y454527D01*
X330259Y454460D01*
X330334Y454389D01*
X330352Y454380D01*
X330367Y454367D01*
X330463Y454328D01*
X330557Y454285D01*
X330577Y454283D01*
X330595Y454275D01*
X330762Y454257D01*
X341556Y454257D01*
X341556Y447446D01*
X341383Y446799D01*
X341343Y446731D01*
X341309Y446641D01*
X341269Y446555D01*
X341266Y446527D01*
X341256Y446501D01*
X341252Y446405D01*
X341242Y446311D01*
X341248Y446283D01*
X341247Y446255D01*
X341274Y446163D01*
X341294Y446070D01*
X341309Y446046D01*
X341317Y446019D01*
X341372Y445941D01*
X341420Y445859D01*
X341442Y445841D01*
X341458Y445818D01*
X341535Y445761D01*
X341607Y445699D01*
X341634Y445689D01*
X341656Y445672D01*
X341747Y445643D01*
X341835Y445607D01*
X341871Y445603D01*
X341891Y445597D01*
X341923Y445597D01*
X342002Y445589D01*
X601112Y445589D01*
X601653Y445365D01*
X601716Y445350D01*
X601777Y445325D01*
X601860Y445316D01*
X601892Y445309D01*
X601911Y445310D01*
X601944Y445307D01*
X602198Y445307D01*
X602378Y445127D01*
X602431Y445089D01*
X602478Y445043D01*
X602551Y445003D01*
X602578Y444983D01*
X602596Y444978D01*
X602625Y444962D01*
X603166Y444738D01*
X604738Y443166D01*
X604962Y442625D01*
X604997Y442569D01*
X605022Y442509D01*
X605074Y442444D01*
X605092Y442416D01*
X605107Y442403D01*
X605127Y442378D01*
X605307Y442198D01*
X605307Y441944D01*
X605317Y441879D01*
X605318Y441814D01*
X605341Y441734D01*
X605346Y441701D01*
X605356Y441684D01*
X605365Y441653D01*
X605589Y441112D01*
X605589Y438888D01*
X605365Y438347D01*
X605350Y438284D01*
X605325Y438223D01*
X605316Y438140D01*
X605309Y438108D01*
X605310Y438089D01*
X605307Y438056D01*
X605307Y437802D01*
X605127Y437622D01*
X605089Y437569D01*
X605043Y437522D01*
X605003Y437449D01*
X604983Y437422D01*
X604978Y437404D01*
X604962Y437375D01*
X604738Y436834D01*
X603166Y435262D01*
X602625Y435038D01*
X602569Y435003D01*
X602509Y434978D01*
X602444Y434926D01*
X602416Y434908D01*
X602403Y434893D01*
X602378Y434873D01*
X602198Y434693D01*
X601944Y434693D01*
X601879Y434683D01*
X601814Y434682D01*
X601734Y434659D01*
X601701Y434654D01*
X601684Y434644D01*
X601653Y434635D01*
X601112Y434411D01*
X545330Y434411D01*
X545259Y434400D01*
X545188Y434398D01*
X545139Y434380D01*
X545087Y434372D01*
X545024Y434338D01*
X544957Y434313D01*
X544916Y434281D01*
X544870Y434256D01*
X544821Y434205D01*
X544765Y434160D01*
X544737Y434116D01*
X544701Y434078D01*
X544671Y434013D01*
X544632Y433953D01*
X544619Y433902D01*
X544597Y433855D01*
X544589Y433784D01*
X544572Y433714D01*
X544576Y433662D01*
X544570Y433611D01*
X544585Y433540D01*
X544591Y433469D01*
X544611Y433421D01*
X544622Y433370D01*
X544659Y433309D01*
X544687Y433243D01*
X544732Y433187D01*
X544748Y433159D01*
X544766Y433144D01*
X544792Y433112D01*
X763716Y214188D01*
X765395Y212509D01*
X766246Y210455D01*
X766246Y108140D01*
X765395Y106086D01*
X763716Y104407D01*
X760068Y100759D01*
X760042Y100723D01*
X760010Y100694D01*
X759971Y100624D01*
X759924Y100559D01*
X759912Y100517D01*
X759890Y100479D01*
X759876Y100400D01*
X759852Y100324D01*
X759853Y100280D01*
X759845Y100237D01*
X759856Y100158D01*
X759858Y100078D01*
X759874Y100037D01*
X759880Y99994D01*
X759938Y99860D01*
X759943Y99847D01*
X759945Y99844D01*
X759947Y99840D01*
X762037Y96220D01*
X761710Y95000D01*
X747626Y86869D01*
X746406Y87196D01*
G37*
%LPD*%
%LPC*%
G36*
X107638Y229256D02*
X107638Y229256D01*
X105584Y230107D01*
X103905Y231786D01*
X100759Y234932D01*
X100723Y234958D01*
X100694Y234990D01*
X100624Y235029D01*
X100559Y235076D01*
X100517Y235088D01*
X100479Y235110D01*
X100400Y235124D01*
X100324Y235148D01*
X100280Y235147D01*
X100237Y235155D01*
X100158Y235144D01*
X100078Y235142D01*
X100037Y235126D01*
X99994Y235120D01*
X99860Y235062D01*
X99847Y235057D01*
X99844Y235055D01*
X99840Y235053D01*
X96220Y232963D01*
X95000Y233290D01*
X86869Y247374D01*
X87196Y248594D01*
X101280Y256726D01*
X102500Y256399D01*
X110631Y242315D01*
X110439Y241597D01*
X110432Y241530D01*
X110416Y241464D01*
X110420Y241408D01*
X110415Y241353D01*
X110430Y241287D01*
X110435Y241219D01*
X110457Y241168D01*
X110470Y241113D01*
X110505Y241055D01*
X110531Y240993D01*
X110581Y240931D01*
X110598Y240903D01*
X110614Y240890D01*
X110636Y240862D01*
X110842Y240656D01*
X110916Y240603D01*
X110985Y240544D01*
X111016Y240532D01*
X111042Y240513D01*
X111129Y240486D01*
X111214Y240452D01*
X111255Y240447D01*
X111277Y240440D01*
X111309Y240441D01*
X111380Y240433D01*
X146120Y240433D01*
X146210Y240448D01*
X146301Y240455D01*
X146331Y240468D01*
X146362Y240473D01*
X146443Y240516D01*
X146527Y240551D01*
X146559Y240577D01*
X146580Y240588D01*
X146602Y240611D01*
X146658Y240656D01*
X244188Y338187D01*
X244241Y338260D01*
X244301Y338330D01*
X244313Y338360D01*
X244332Y338386D01*
X244359Y338473D01*
X244393Y338558D01*
X244397Y338599D01*
X244404Y338621D01*
X244403Y338654D01*
X244411Y338725D01*
X244411Y731112D01*
X245262Y733166D01*
X256834Y744738D01*
X257375Y744962D01*
X257431Y744997D01*
X257491Y745022D01*
X257556Y745074D01*
X257584Y745092D01*
X257597Y745107D01*
X257622Y745127D01*
X257802Y745307D01*
X258056Y745307D01*
X258121Y745317D01*
X258186Y745318D01*
X258266Y745341D01*
X258299Y745346D01*
X258316Y745356D01*
X258347Y745365D01*
X258888Y745589D01*
X261112Y745589D01*
X261653Y745365D01*
X261716Y745350D01*
X261777Y745325D01*
X261860Y745316D01*
X261892Y745309D01*
X261911Y745310D01*
X261944Y745307D01*
X262198Y745307D01*
X262378Y745127D01*
X262431Y745089D01*
X262478Y745043D01*
X262551Y745003D01*
X262578Y744983D01*
X262596Y744978D01*
X262625Y744962D01*
X263166Y744738D01*
X264738Y743166D01*
X264962Y742625D01*
X264997Y742569D01*
X265022Y742509D01*
X265074Y742444D01*
X265092Y742416D01*
X265107Y742403D01*
X265127Y742378D01*
X265307Y742198D01*
X265307Y741944D01*
X265317Y741879D01*
X265318Y741814D01*
X265341Y741734D01*
X265346Y741701D01*
X265356Y741684D01*
X265365Y741653D01*
X265589Y741112D01*
X265589Y738888D01*
X265365Y738347D01*
X265350Y738284D01*
X265325Y738223D01*
X265316Y738140D01*
X265309Y738108D01*
X265310Y738089D01*
X265307Y738056D01*
X265307Y737802D01*
X265127Y737622D01*
X265089Y737569D01*
X265043Y737522D01*
X265003Y737449D01*
X264983Y737422D01*
X264978Y737404D01*
X264962Y737375D01*
X264738Y736834D01*
X255812Y727908D01*
X255759Y727834D01*
X255699Y727765D01*
X255687Y727734D01*
X255668Y727708D01*
X255641Y727621D01*
X255607Y727536D01*
X255603Y727496D01*
X255596Y727473D01*
X255597Y727441D01*
X255589Y727370D01*
X255589Y334983D01*
X254738Y332929D01*
X253059Y331250D01*
X153595Y231786D01*
X151916Y230107D01*
X149862Y229256D01*
X107638Y229256D01*
G37*
%LPD*%
%LPC*%
G36*
X291868Y563475D02*
X291868Y563475D01*
X290975Y564368D01*
X290975Y573306D01*
X290961Y573396D01*
X290953Y573487D01*
X290941Y573517D01*
X290936Y573548D01*
X290893Y573629D01*
X290857Y573713D01*
X290831Y573745D01*
X290820Y573766D01*
X290797Y573788D01*
X290752Y573844D01*
X275262Y589334D01*
X274411Y591388D01*
X274411Y781112D01*
X275262Y783166D01*
X295208Y803112D01*
X295250Y803170D01*
X295299Y803222D01*
X295321Y803269D01*
X295352Y803311D01*
X295373Y803380D01*
X295403Y803445D01*
X295409Y803497D01*
X295424Y803547D01*
X295422Y803618D01*
X295430Y803689D01*
X295419Y803740D01*
X295418Y803792D01*
X295393Y803860D01*
X295378Y803930D01*
X295351Y803975D01*
X295333Y804023D01*
X295288Y804079D01*
X295252Y804141D01*
X295212Y804175D01*
X295179Y804215D01*
X295119Y804254D01*
X295065Y804301D01*
X295016Y804320D01*
X294973Y804348D01*
X294903Y804366D01*
X294837Y804393D01*
X294765Y804401D01*
X294734Y804409D01*
X294711Y804407D01*
X294670Y804411D01*
X282630Y804411D01*
X282540Y804397D01*
X282449Y804389D01*
X282419Y804377D01*
X282388Y804372D01*
X282307Y804329D01*
X282223Y804293D01*
X282191Y804267D01*
X282170Y804256D01*
X282148Y804233D01*
X282092Y804188D01*
X239223Y761319D01*
X237169Y760468D01*
X112282Y760468D01*
X112192Y760453D01*
X112101Y760446D01*
X112071Y760434D01*
X112039Y760428D01*
X111959Y760386D01*
X111874Y760350D01*
X111842Y760324D01*
X111822Y760313D01*
X111800Y760290D01*
X111743Y760245D01*
X110636Y759138D01*
X110597Y759083D01*
X110550Y759035D01*
X110525Y758984D01*
X110493Y758938D01*
X110473Y758874D01*
X110444Y758813D01*
X110437Y758757D01*
X110420Y758703D01*
X110422Y758636D01*
X110414Y758568D01*
X110426Y758490D01*
X110427Y758457D01*
X110434Y758438D01*
X110439Y758403D01*
X110631Y757685D01*
X102500Y743601D01*
X101280Y743274D01*
X87196Y751406D01*
X86869Y752626D01*
X95000Y766710D01*
X96220Y767037D01*
X99840Y764947D01*
X99881Y764932D01*
X99918Y764908D01*
X99995Y764888D01*
X100070Y764860D01*
X100114Y764858D01*
X100156Y764848D01*
X100236Y764854D01*
X100316Y764851D01*
X100358Y764863D01*
X100402Y764867D01*
X100475Y764898D01*
X100552Y764921D01*
X100588Y764946D01*
X100628Y764963D01*
X100742Y765054D01*
X100753Y765062D01*
X100755Y765065D01*
X100759Y765068D01*
X106486Y770795D01*
X108540Y771646D01*
X233427Y771646D01*
X233517Y771660D01*
X233608Y771668D01*
X233637Y771680D01*
X233669Y771685D01*
X233750Y771728D01*
X233834Y771764D01*
X233866Y771790D01*
X233887Y771800D01*
X233909Y771824D01*
X233965Y771869D01*
X276834Y814738D01*
X278888Y815589D01*
X381112Y815589D01*
X381653Y815365D01*
X381716Y815350D01*
X381777Y815325D01*
X381860Y815316D01*
X381892Y815309D01*
X381911Y815310D01*
X381944Y815307D01*
X382198Y815307D01*
X382378Y815127D01*
X382431Y815089D01*
X382478Y815043D01*
X382551Y815003D01*
X382578Y814983D01*
X382596Y814978D01*
X382625Y814962D01*
X383166Y814738D01*
X384738Y813166D01*
X384962Y812625D01*
X384997Y812569D01*
X385022Y812509D01*
X385074Y812444D01*
X385092Y812416D01*
X385107Y812403D01*
X385127Y812378D01*
X385307Y812198D01*
X385307Y811944D01*
X385317Y811879D01*
X385318Y811814D01*
X385341Y811734D01*
X385346Y811701D01*
X385356Y811684D01*
X385365Y811653D01*
X385589Y811112D01*
X385589Y808888D01*
X385365Y808347D01*
X385350Y808284D01*
X385325Y808223D01*
X385316Y808140D01*
X385309Y808108D01*
X385310Y808089D01*
X385307Y808056D01*
X385307Y807802D01*
X385127Y807622D01*
X385089Y807569D01*
X385043Y807522D01*
X385003Y807449D01*
X384983Y807422D01*
X384978Y807404D01*
X384962Y807375D01*
X384738Y806834D01*
X383166Y805262D01*
X382625Y805038D01*
X382569Y805003D01*
X382509Y804978D01*
X382444Y804926D01*
X382416Y804908D01*
X382403Y804893D01*
X382378Y804873D01*
X382198Y804693D01*
X381944Y804693D01*
X381879Y804683D01*
X381814Y804682D01*
X381734Y804659D01*
X381701Y804654D01*
X381684Y804644D01*
X381653Y804635D01*
X381112Y804411D01*
X314330Y804411D01*
X314259Y804400D01*
X314188Y804398D01*
X314139Y804380D01*
X314087Y804372D01*
X314024Y804338D01*
X313957Y804313D01*
X313916Y804281D01*
X313870Y804256D01*
X313821Y804204D01*
X313765Y804160D01*
X313736Y804116D01*
X313701Y804078D01*
X313670Y804013D01*
X313632Y803953D01*
X313619Y803902D01*
X313597Y803855D01*
X313589Y803784D01*
X313572Y803714D01*
X313576Y803662D01*
X313570Y803611D01*
X313585Y803540D01*
X313591Y803469D01*
X313611Y803421D01*
X313622Y803370D01*
X313659Y803309D01*
X313687Y803243D01*
X313726Y803194D01*
X313962Y802625D01*
X313997Y802569D01*
X314022Y802509D01*
X314074Y802444D01*
X314092Y802416D01*
X314107Y802403D01*
X314127Y802378D01*
X314307Y802198D01*
X314307Y801944D01*
X314317Y801879D01*
X314318Y801814D01*
X314341Y801734D01*
X314346Y801701D01*
X314356Y801684D01*
X314365Y801653D01*
X314589Y801112D01*
X314589Y798888D01*
X314365Y798347D01*
X314354Y798301D01*
X314335Y798260D01*
X314333Y798242D01*
X314325Y798223D01*
X314316Y798140D01*
X314309Y798108D01*
X314310Y798089D01*
X314307Y798056D01*
X314307Y797802D01*
X314127Y797622D01*
X314089Y797569D01*
X314043Y797522D01*
X314003Y797449D01*
X313983Y797422D01*
X313978Y797404D01*
X313962Y797375D01*
X313738Y796834D01*
X312166Y795262D01*
X311625Y795038D01*
X311569Y795003D01*
X311509Y794978D01*
X311444Y794926D01*
X311416Y794908D01*
X311403Y794893D01*
X311378Y794873D01*
X311198Y794693D01*
X310944Y794693D01*
X310879Y794683D01*
X310814Y794682D01*
X310734Y794659D01*
X310701Y794654D01*
X310684Y794644D01*
X310653Y794635D01*
X310112Y794411D01*
X302630Y794411D01*
X302540Y794397D01*
X302449Y794389D01*
X302419Y794377D01*
X302388Y794372D01*
X302307Y794329D01*
X302223Y794293D01*
X302191Y794267D01*
X302170Y794256D01*
X302148Y794233D01*
X302092Y794188D01*
X285812Y777908D01*
X285759Y777834D01*
X285699Y777765D01*
X285687Y777734D01*
X285668Y777708D01*
X285641Y777621D01*
X285607Y777536D01*
X285603Y777496D01*
X285596Y777473D01*
X285597Y777441D01*
X285589Y777370D01*
X285589Y595130D01*
X285603Y595040D01*
X285611Y594949D01*
X285623Y594919D01*
X285628Y594888D01*
X285671Y594807D01*
X285707Y594723D01*
X285733Y594691D01*
X285744Y594670D01*
X285767Y594648D01*
X285812Y594592D01*
X298656Y581748D01*
X298730Y581695D01*
X298799Y581635D01*
X298830Y581623D01*
X298856Y581604D01*
X298943Y581577D01*
X299028Y581543D01*
X299068Y581539D01*
X299091Y581532D01*
X299123Y581533D01*
X299194Y581525D01*
X308132Y581525D01*
X309025Y580632D01*
X309025Y564368D01*
X308132Y563475D01*
X291868Y563475D01*
G37*
%LPD*%
%LPC*%
G36*
X268601Y77500D02*
X268601Y77500D01*
X268274Y78720D01*
X276406Y92804D01*
X277626Y93131D01*
X288348Y86941D01*
X288455Y86900D01*
X288562Y86857D01*
X288572Y86856D01*
X288578Y86854D01*
X288601Y86853D01*
X288729Y86839D01*
X304211Y86839D01*
X304301Y86853D01*
X304392Y86861D01*
X304422Y86873D01*
X304454Y86878D01*
X304535Y86921D01*
X304618Y86957D01*
X304651Y86983D01*
X304671Y86994D01*
X304693Y87017D01*
X304749Y87062D01*
X484188Y266501D01*
X484241Y266574D01*
X484301Y266644D01*
X484313Y266674D01*
X484332Y266700D01*
X484359Y266787D01*
X484393Y266872D01*
X484397Y266913D01*
X484404Y266935D01*
X484403Y266968D01*
X484411Y267039D01*
X484411Y421112D01*
X484635Y421653D01*
X484650Y421716D01*
X484675Y421777D01*
X484684Y421860D01*
X484691Y421892D01*
X484690Y421911D01*
X484693Y421944D01*
X484693Y422198D01*
X484873Y422378D01*
X484911Y422431D01*
X484957Y422478D01*
X484997Y422551D01*
X485017Y422578D01*
X485022Y422596D01*
X485038Y422625D01*
X485262Y423166D01*
X486834Y424738D01*
X487375Y424962D01*
X487431Y424996D01*
X487491Y425022D01*
X487556Y425074D01*
X487584Y425092D01*
X487597Y425107D01*
X487622Y425127D01*
X487802Y425307D01*
X488056Y425307D01*
X488121Y425317D01*
X488186Y425318D01*
X488266Y425341D01*
X488299Y425346D01*
X488316Y425356D01*
X488347Y425365D01*
X488888Y425589D01*
X491112Y425589D01*
X491653Y425365D01*
X491716Y425350D01*
X491777Y425325D01*
X491860Y425316D01*
X491892Y425309D01*
X491911Y425310D01*
X491944Y425307D01*
X492198Y425307D01*
X492378Y425127D01*
X492431Y425089D01*
X492478Y425043D01*
X492551Y425003D01*
X492578Y424983D01*
X492596Y424978D01*
X492625Y424962D01*
X493166Y424738D01*
X494738Y423166D01*
X494962Y422625D01*
X494996Y422569D01*
X495022Y422509D01*
X495074Y422444D01*
X495092Y422416D01*
X495107Y422403D01*
X495127Y422378D01*
X495307Y422198D01*
X495307Y421944D01*
X495317Y421879D01*
X495318Y421814D01*
X495341Y421734D01*
X495346Y421701D01*
X495356Y421684D01*
X495365Y421653D01*
X495589Y421112D01*
X495589Y263297D01*
X494738Y261243D01*
X310007Y76512D01*
X307953Y75661D01*
X287789Y75661D01*
X287722Y75650D01*
X287655Y75649D01*
X287602Y75631D01*
X287546Y75622D01*
X287487Y75590D01*
X287423Y75567D01*
X287379Y75533D01*
X287329Y75506D01*
X287283Y75458D01*
X287229Y75416D01*
X287182Y75352D01*
X287160Y75328D01*
X287151Y75309D01*
X287141Y75296D01*
X287130Y75281D01*
X283905Y69696D01*
X282685Y69369D01*
X268601Y77500D01*
G37*
%LPD*%
%LPC*%
G36*
X509368Y15975D02*
X509368Y15975D01*
X508475Y16868D01*
X508475Y33132D01*
X509368Y34025D01*
X525632Y34025D01*
X526588Y33068D01*
X526604Y33057D01*
X526617Y33041D01*
X526704Y32985D01*
X526788Y32925D01*
X526807Y32919D01*
X526824Y32908D01*
X526924Y32883D01*
X527023Y32852D01*
X527043Y32853D01*
X527062Y32848D01*
X527165Y32856D01*
X527269Y32859D01*
X527288Y32866D01*
X527307Y32867D01*
X527402Y32907D01*
X527500Y32943D01*
X527515Y32956D01*
X527534Y32963D01*
X527665Y33068D01*
X534188Y39592D01*
X534241Y39666D01*
X534301Y39735D01*
X534313Y39766D01*
X534332Y39792D01*
X534359Y39879D01*
X534393Y39964D01*
X534397Y40004D01*
X534404Y40027D01*
X534403Y40059D01*
X534411Y40130D01*
X534411Y411112D01*
X534635Y411653D01*
X534650Y411716D01*
X534675Y411777D01*
X534684Y411860D01*
X534691Y411892D01*
X534690Y411911D01*
X534693Y411944D01*
X534693Y412198D01*
X534873Y412378D01*
X534911Y412431D01*
X534957Y412478D01*
X534997Y412551D01*
X535017Y412578D01*
X535022Y412596D01*
X535038Y412625D01*
X535262Y413166D01*
X536834Y414738D01*
X537375Y414962D01*
X537431Y414997D01*
X537491Y415022D01*
X537556Y415074D01*
X537584Y415092D01*
X537597Y415107D01*
X537622Y415127D01*
X537802Y415307D01*
X538056Y415307D01*
X538121Y415317D01*
X538186Y415318D01*
X538266Y415341D01*
X538299Y415346D01*
X538316Y415356D01*
X538347Y415365D01*
X538888Y415589D01*
X541112Y415589D01*
X541653Y415365D01*
X541716Y415350D01*
X541777Y415325D01*
X541860Y415316D01*
X541892Y415309D01*
X541911Y415310D01*
X541944Y415307D01*
X542198Y415307D01*
X542378Y415127D01*
X542431Y415089D01*
X542478Y415043D01*
X542551Y415003D01*
X542578Y414983D01*
X542596Y414978D01*
X542625Y414962D01*
X543166Y414738D01*
X544738Y413166D01*
X544962Y412625D01*
X544997Y412569D01*
X545022Y412509D01*
X545074Y412444D01*
X545092Y412416D01*
X545107Y412403D01*
X545127Y412378D01*
X545307Y412198D01*
X545307Y411944D01*
X545317Y411879D01*
X545318Y411814D01*
X545341Y411734D01*
X545346Y411701D01*
X545356Y411684D01*
X545365Y411653D01*
X545589Y411112D01*
X545589Y36388D01*
X544738Y34334D01*
X530666Y20262D01*
X528612Y19411D01*
X527286Y19411D01*
X527266Y19408D01*
X527247Y19410D01*
X527145Y19388D01*
X527043Y19372D01*
X527026Y19362D01*
X527006Y19358D01*
X526917Y19305D01*
X526826Y19256D01*
X526812Y19242D01*
X526795Y19232D01*
X526728Y19153D01*
X526656Y19078D01*
X526648Y19060D01*
X526635Y19045D01*
X526596Y18949D01*
X526553Y18855D01*
X526551Y18835D01*
X526543Y18817D01*
X526525Y18650D01*
X526525Y16868D01*
X525632Y15975D01*
X509368Y15975D01*
G37*
%LPD*%
%LPC*%
G36*
X408888Y664411D02*
X408888Y664411D01*
X408347Y664635D01*
X408284Y664650D01*
X408223Y664675D01*
X408140Y664684D01*
X408108Y664691D01*
X408089Y664690D01*
X408056Y664693D01*
X407802Y664693D01*
X407622Y664873D01*
X407569Y664911D01*
X407522Y664957D01*
X407449Y664997D01*
X407422Y665017D01*
X407404Y665022D01*
X407375Y665038D01*
X406834Y665262D01*
X405262Y666834D01*
X405038Y667375D01*
X405003Y667431D01*
X404978Y667491D01*
X404926Y667556D01*
X404908Y667584D01*
X404893Y667597D01*
X404873Y667622D01*
X404693Y667802D01*
X404693Y668056D01*
X404683Y668121D01*
X404682Y668186D01*
X404659Y668266D01*
X404654Y668299D01*
X404644Y668316D01*
X404635Y668347D01*
X404411Y668888D01*
X404411Y817370D01*
X404397Y817460D01*
X404389Y817551D01*
X404377Y817581D01*
X404372Y817612D01*
X404329Y817693D01*
X404293Y817777D01*
X404267Y817809D01*
X404256Y817830D01*
X404233Y817852D01*
X404188Y817908D01*
X309158Y912938D01*
X309084Y912991D01*
X309015Y913051D01*
X308984Y913063D01*
X308958Y913082D01*
X308871Y913109D01*
X308786Y913143D01*
X308746Y913147D01*
X308723Y913154D01*
X308691Y913153D01*
X308620Y913161D01*
X288729Y913161D01*
X288616Y913143D01*
X288502Y913127D01*
X288493Y913123D01*
X288486Y913122D01*
X288467Y913111D01*
X288348Y913059D01*
X277626Y906869D01*
X276406Y907196D01*
X268274Y921280D01*
X268601Y922500D01*
X282685Y930631D01*
X283905Y930304D01*
X287130Y924719D01*
X287173Y924667D01*
X287207Y924609D01*
X287250Y924572D01*
X287286Y924529D01*
X287343Y924493D01*
X287394Y924449D01*
X287446Y924428D01*
X287494Y924398D01*
X287560Y924382D01*
X287622Y924357D01*
X287701Y924348D01*
X287733Y924341D01*
X287754Y924343D01*
X287789Y924339D01*
X312362Y924339D01*
X314416Y923488D01*
X414738Y823166D01*
X415589Y821112D01*
X415589Y668888D01*
X415365Y668347D01*
X415350Y668284D01*
X415325Y668223D01*
X415316Y668140D01*
X415309Y668108D01*
X415310Y668089D01*
X415307Y668056D01*
X415307Y667802D01*
X415127Y667622D01*
X415089Y667569D01*
X415043Y667522D01*
X415003Y667449D01*
X414983Y667422D01*
X414978Y667404D01*
X414962Y667375D01*
X414738Y666834D01*
X413166Y665262D01*
X412625Y665038D01*
X412569Y665003D01*
X412509Y664978D01*
X412444Y664926D01*
X412416Y664908D01*
X412403Y664893D01*
X412378Y664873D01*
X412198Y664693D01*
X411944Y664693D01*
X411879Y664683D01*
X411814Y664682D01*
X411734Y664659D01*
X411701Y664654D01*
X411684Y664644D01*
X411653Y664635D01*
X411112Y664411D01*
X408888Y664411D01*
G37*
%LPD*%
%LPC*%
G36*
X662888Y631411D02*
X662888Y631411D01*
X662347Y631635D01*
X662284Y631650D01*
X662223Y631675D01*
X662140Y631684D01*
X662108Y631691D01*
X662089Y631690D01*
X662056Y631693D01*
X661802Y631693D01*
X661622Y631873D01*
X661569Y631911D01*
X661522Y631957D01*
X661470Y631986D01*
X661462Y631992D01*
X661448Y631998D01*
X661422Y632017D01*
X661404Y632022D01*
X661375Y632038D01*
X660834Y632262D01*
X659262Y633834D01*
X659038Y634375D01*
X659003Y634431D01*
X658978Y634491D01*
X658926Y634556D01*
X658908Y634584D01*
X658893Y634597D01*
X658873Y634622D01*
X658693Y634802D01*
X658693Y635056D01*
X658683Y635121D01*
X658682Y635186D01*
X658659Y635266D01*
X658654Y635299D01*
X658644Y635316D01*
X658635Y635347D01*
X658411Y635888D01*
X658411Y638112D01*
X658635Y638653D01*
X658650Y638716D01*
X658652Y638721D01*
X658665Y638749D01*
X658666Y638755D01*
X658675Y638777D01*
X658684Y638860D01*
X658691Y638892D01*
X658690Y638911D01*
X658693Y638944D01*
X658693Y639198D01*
X658873Y639378D01*
X658911Y639431D01*
X658957Y639478D01*
X658997Y639551D01*
X659017Y639578D01*
X659022Y639596D01*
X659038Y639625D01*
X659262Y640166D01*
X754344Y735247D01*
X754397Y735321D01*
X754456Y735391D01*
X754468Y735421D01*
X754487Y735447D01*
X754514Y735534D01*
X754548Y735619D01*
X754553Y735660D01*
X754560Y735682D01*
X754559Y735714D01*
X754567Y735786D01*
X754567Y888620D01*
X754552Y888710D01*
X754545Y888801D01*
X754532Y888831D01*
X754527Y888862D01*
X754484Y888943D01*
X754449Y889027D01*
X754423Y889059D01*
X754412Y889080D01*
X754389Y889102D01*
X754365Y889131D01*
X754363Y889135D01*
X754361Y889137D01*
X754344Y889158D01*
X754138Y889364D01*
X754083Y889403D01*
X754035Y889450D01*
X753984Y889475D01*
X753938Y889507D01*
X753874Y889527D01*
X753813Y889556D01*
X753757Y889563D01*
X753703Y889580D01*
X753636Y889578D01*
X753568Y889586D01*
X753490Y889574D01*
X753457Y889573D01*
X753438Y889566D01*
X753403Y889561D01*
X752685Y889369D01*
X738601Y897500D01*
X738274Y898720D01*
X746406Y912804D01*
X747626Y913131D01*
X761710Y905000D01*
X762037Y903780D01*
X759947Y900160D01*
X759932Y900119D01*
X759908Y900082D01*
X759888Y900005D01*
X759860Y899930D01*
X759858Y899886D01*
X759848Y899844D01*
X759854Y899764D01*
X759851Y899684D01*
X759863Y899642D01*
X759867Y899598D01*
X759898Y899525D01*
X759921Y899448D01*
X759946Y899412D01*
X759963Y899372D01*
X760054Y899258D01*
X760062Y899247D01*
X760065Y899245D01*
X760068Y899241D01*
X763214Y896095D01*
X764893Y894416D01*
X765744Y892362D01*
X765744Y732044D01*
X764893Y729990D01*
X667166Y632262D01*
X666625Y632038D01*
X666569Y632003D01*
X666509Y631978D01*
X666444Y631926D01*
X666416Y631908D01*
X666403Y631893D01*
X666378Y631873D01*
X666198Y631693D01*
X665944Y631693D01*
X665879Y631683D01*
X665814Y631682D01*
X665734Y631659D01*
X665701Y631654D01*
X665684Y631644D01*
X665653Y631635D01*
X665112Y631411D01*
X662888Y631411D01*
G37*
%LPD*%
%LPC*%
G36*
X688888Y634411D02*
X688888Y634411D01*
X688347Y634635D01*
X688284Y634650D01*
X688223Y634675D01*
X688140Y634684D01*
X688108Y634691D01*
X688089Y634690D01*
X688056Y634693D01*
X687802Y634693D01*
X687622Y634873D01*
X687569Y634911D01*
X687522Y634957D01*
X687449Y634997D01*
X687422Y635017D01*
X687404Y635022D01*
X687375Y635038D01*
X686834Y635262D01*
X685262Y636834D01*
X685038Y637375D01*
X685003Y637431D01*
X684978Y637491D01*
X684926Y637556D01*
X684908Y637584D01*
X684893Y637597D01*
X684873Y637622D01*
X684693Y637802D01*
X684693Y638056D01*
X684683Y638121D01*
X684682Y638186D01*
X684659Y638266D01*
X684654Y638299D01*
X684644Y638316D01*
X684635Y638347D01*
X684411Y638888D01*
X684411Y641112D01*
X684635Y641653D01*
X684650Y641716D01*
X684675Y641777D01*
X684684Y641860D01*
X684691Y641892D01*
X684690Y641911D01*
X684693Y641944D01*
X684693Y642198D01*
X684873Y642378D01*
X684911Y642431D01*
X684957Y642478D01*
X684997Y642551D01*
X685017Y642578D01*
X685022Y642596D01*
X685038Y642625D01*
X685262Y643166D01*
X686834Y644738D01*
X687375Y644962D01*
X687431Y644997D01*
X687491Y645022D01*
X687556Y645074D01*
X687584Y645092D01*
X687597Y645107D01*
X687622Y645127D01*
X687802Y645307D01*
X688056Y645307D01*
X688121Y645317D01*
X688186Y645318D01*
X688266Y645341D01*
X688299Y645346D01*
X688316Y645356D01*
X688347Y645365D01*
X688888Y645589D01*
X857961Y645589D01*
X858051Y645603D01*
X858142Y645611D01*
X858172Y645623D01*
X858204Y645628D01*
X858285Y645671D01*
X858369Y645707D01*
X858401Y645733D01*
X858421Y645744D01*
X858444Y645767D01*
X858499Y645812D01*
X921281Y708594D01*
X921334Y708667D01*
X921394Y708737D01*
X921406Y708767D01*
X921425Y708793D01*
X921452Y708880D01*
X921486Y708965D01*
X921490Y709006D01*
X921497Y709028D01*
X921496Y709061D01*
X921504Y709132D01*
X921504Y713871D01*
X921490Y713961D01*
X921482Y714052D01*
X921470Y714082D01*
X921465Y714114D01*
X921422Y714194D01*
X921386Y714279D01*
X921360Y714311D01*
X921349Y714331D01*
X921326Y714353D01*
X921281Y714410D01*
X920759Y714932D01*
X920723Y714958D01*
X920694Y714990D01*
X920624Y715029D01*
X920559Y715076D01*
X920517Y715088D01*
X920479Y715110D01*
X920401Y715124D01*
X920324Y715148D01*
X920280Y715147D01*
X920237Y715155D01*
X920158Y715144D01*
X920078Y715142D01*
X920037Y715126D01*
X919994Y715120D01*
X919860Y715062D01*
X919847Y715057D01*
X919845Y715055D01*
X919840Y715053D01*
X916220Y712963D01*
X915000Y713290D01*
X906869Y727374D01*
X907196Y728594D01*
X921280Y736726D01*
X922500Y736399D01*
X930631Y722315D01*
X930439Y721597D01*
X930432Y721530D01*
X930416Y721464D01*
X930420Y721408D01*
X930415Y721353D01*
X930430Y721287D01*
X930435Y721219D01*
X930457Y721168D01*
X930470Y721113D01*
X930505Y721055D01*
X930531Y720993D01*
X930581Y720931D01*
X930598Y720903D01*
X930614Y720890D01*
X930636Y720862D01*
X931831Y719667D01*
X932682Y717613D01*
X932682Y705390D01*
X931831Y703336D01*
X863757Y635262D01*
X861703Y634411D01*
X688888Y634411D01*
G37*
%LPD*%
%LPC*%
G36*
X660353Y534695D02*
X660353Y534695D01*
X659460Y535588D01*
X659460Y552852D01*
X659720Y553112D01*
X659762Y553170D01*
X659812Y553222D01*
X659834Y553269D01*
X659864Y553311D01*
X659885Y553380D01*
X659915Y553445D01*
X659921Y553497D01*
X659936Y553547D01*
X659934Y553618D01*
X659942Y553689D01*
X659931Y553740D01*
X659930Y553792D01*
X659905Y553860D01*
X659890Y553930D01*
X659863Y553975D01*
X659846Y554023D01*
X659801Y554079D01*
X659764Y554141D01*
X659724Y554175D01*
X659692Y554215D01*
X659632Y554254D01*
X659577Y554301D01*
X659529Y554320D01*
X659485Y554348D01*
X659416Y554366D01*
X659349Y554393D01*
X659278Y554401D01*
X659246Y554409D01*
X659223Y554407D01*
X659182Y554411D01*
X628888Y554411D01*
X626834Y555262D01*
X608862Y573234D01*
X608011Y575288D01*
X608011Y581112D01*
X608235Y581653D01*
X608250Y581716D01*
X608275Y581777D01*
X608284Y581860D01*
X608291Y581892D01*
X608290Y581911D01*
X608293Y581944D01*
X608293Y582198D01*
X608473Y582378D01*
X608511Y582431D01*
X608557Y582478D01*
X608597Y582551D01*
X608617Y582578D01*
X608622Y582596D01*
X608638Y582625D01*
X608862Y583166D01*
X610434Y584738D01*
X610975Y584962D01*
X611031Y584997D01*
X611091Y585022D01*
X611125Y585050D01*
X611145Y585060D01*
X611162Y585078D01*
X611184Y585092D01*
X611197Y585107D01*
X611222Y585127D01*
X611402Y585307D01*
X611656Y585307D01*
X611721Y585317D01*
X611786Y585318D01*
X611866Y585341D01*
X611899Y585346D01*
X611916Y585356D01*
X611947Y585365D01*
X612488Y585589D01*
X614712Y585589D01*
X615253Y585365D01*
X615316Y585350D01*
X615377Y585325D01*
X615460Y585316D01*
X615492Y585309D01*
X615511Y585310D01*
X615544Y585307D01*
X615798Y585307D01*
X615978Y585127D01*
X616031Y585089D01*
X616078Y585043D01*
X616107Y585027D01*
X616120Y585016D01*
X616147Y585005D01*
X616151Y585003D01*
X616178Y584983D01*
X616196Y584978D01*
X616225Y584962D01*
X616766Y584738D01*
X618338Y583166D01*
X618562Y582625D01*
X618597Y582569D01*
X618622Y582509D01*
X618674Y582444D01*
X618692Y582416D01*
X618707Y582403D01*
X618727Y582378D01*
X618907Y582198D01*
X618907Y581944D01*
X618917Y581879D01*
X618918Y581814D01*
X618941Y581734D01*
X618946Y581701D01*
X618956Y581684D01*
X618965Y581653D01*
X619189Y581112D01*
X619189Y579030D01*
X619203Y578940D01*
X619211Y578849D01*
X619223Y578819D01*
X619228Y578788D01*
X619271Y578707D01*
X619307Y578623D01*
X619333Y578591D01*
X619344Y578570D01*
X619367Y578548D01*
X619412Y578492D01*
X632092Y565812D01*
X632166Y565759D01*
X632235Y565699D01*
X632266Y565687D01*
X632292Y565668D01*
X632379Y565641D01*
X632464Y565607D01*
X632504Y565603D01*
X632527Y565596D01*
X632559Y565597D01*
X632630Y565589D01*
X657998Y565589D01*
X658092Y565604D01*
X658187Y565613D01*
X658213Y565624D01*
X658241Y565628D01*
X658325Y565673D01*
X658412Y565711D01*
X658433Y565730D01*
X658458Y565744D01*
X658524Y565813D01*
X658594Y565877D01*
X658608Y565901D01*
X658627Y565922D01*
X658667Y566008D01*
X658714Y566092D01*
X658719Y566119D01*
X658731Y566145D01*
X658741Y566240D01*
X658759Y566334D01*
X658755Y566361D01*
X658758Y566389D01*
X658738Y566483D01*
X658724Y566577D01*
X658710Y566610D01*
X658706Y566630D01*
X658689Y566658D01*
X658657Y566731D01*
X658617Y566799D01*
X658444Y567446D01*
X658444Y574257D01*
X669238Y574257D01*
X669258Y574260D01*
X669277Y574258D01*
X669379Y574280D01*
X669481Y574297D01*
X669498Y574306D01*
X669518Y574310D01*
X669607Y574363D01*
X669698Y574412D01*
X669712Y574426D01*
X669729Y574436D01*
X669796Y574515D01*
X669867Y574590D01*
X669876Y574608D01*
X669889Y574623D01*
X669928Y574719D01*
X669971Y574813D01*
X669973Y574833D01*
X669981Y574851D01*
X669999Y575018D01*
X669999Y575781D01*
X670001Y575781D01*
X670001Y575018D01*
X670004Y574998D01*
X670002Y574979D01*
X670024Y574877D01*
X670041Y574775D01*
X670050Y574758D01*
X670054Y574738D01*
X670107Y574649D01*
X670156Y574558D01*
X670170Y574544D01*
X670180Y574527D01*
X670259Y574460D01*
X670334Y574389D01*
X670352Y574380D01*
X670367Y574367D01*
X670463Y574328D01*
X670557Y574285D01*
X670577Y574283D01*
X670595Y574275D01*
X670762Y574257D01*
X681556Y574257D01*
X681556Y567446D01*
X681383Y566799D01*
X681343Y566731D01*
X681309Y566642D01*
X681269Y566555D01*
X681266Y566527D01*
X681256Y566501D01*
X681252Y566405D01*
X681242Y566311D01*
X681248Y566283D01*
X681247Y566255D01*
X681274Y566163D01*
X681294Y566070D01*
X681309Y566046D01*
X681317Y566019D01*
X681371Y565941D01*
X681420Y565859D01*
X681442Y565841D01*
X681458Y565818D01*
X681535Y565761D01*
X681607Y565699D01*
X681633Y565689D01*
X681656Y565672D01*
X681747Y565643D01*
X681835Y565607D01*
X681871Y565603D01*
X681890Y565597D01*
X681923Y565597D01*
X682002Y565589D01*
X684870Y565589D01*
X684960Y565603D01*
X685051Y565611D01*
X685081Y565623D01*
X685112Y565628D01*
X685193Y565671D01*
X685277Y565707D01*
X685309Y565733D01*
X685330Y565744D01*
X685352Y565767D01*
X685408Y565812D01*
X690752Y571156D01*
X690805Y571230D01*
X690865Y571299D01*
X690877Y571329D01*
X690896Y571356D01*
X690923Y571443D01*
X690957Y571528D01*
X690961Y571568D01*
X690968Y571591D01*
X690967Y571623D01*
X690975Y571694D01*
X690975Y580632D01*
X691868Y581525D01*
X708132Y581525D01*
X709025Y580632D01*
X709025Y564368D01*
X708132Y563475D01*
X699194Y563475D01*
X699104Y563461D01*
X699013Y563453D01*
X698983Y563441D01*
X698951Y563436D01*
X698871Y563393D01*
X698787Y563357D01*
X698755Y563331D01*
X698734Y563320D01*
X698712Y563297D01*
X698656Y563252D01*
X693228Y557824D01*
X693186Y557766D01*
X693137Y557714D01*
X693115Y557667D01*
X693084Y557625D01*
X693063Y557556D01*
X693033Y557491D01*
X693027Y557439D01*
X693012Y557389D01*
X693014Y557318D01*
X693006Y557247D01*
X693017Y557196D01*
X693018Y557144D01*
X693043Y557076D01*
X693058Y557006D01*
X693085Y556962D01*
X693103Y556913D01*
X693148Y556857D01*
X693184Y556795D01*
X693224Y556761D01*
X693257Y556721D01*
X693317Y556682D01*
X693371Y556635D01*
X693420Y556616D01*
X693463Y556588D01*
X693533Y556570D01*
X693599Y556543D01*
X693671Y556535D01*
X693702Y556527D01*
X693725Y556529D01*
X693766Y556525D01*
X708132Y556525D01*
X709025Y555632D01*
X709025Y539368D01*
X708132Y538475D01*
X691845Y538475D01*
X691792Y538521D01*
X691762Y538533D01*
X691736Y538552D01*
X691649Y538579D01*
X691564Y538613D01*
X691523Y538617D01*
X691501Y538624D01*
X691468Y538623D01*
X691397Y538631D01*
X681301Y538631D01*
X681281Y538628D01*
X681262Y538630D01*
X681160Y538608D01*
X681058Y538592D01*
X681041Y538582D01*
X681021Y538578D01*
X680932Y538525D01*
X680841Y538476D01*
X680827Y538462D01*
X680810Y538452D01*
X680743Y538373D01*
X680671Y538298D01*
X680663Y538280D01*
X680650Y538265D01*
X680611Y538169D01*
X680568Y538075D01*
X680566Y538055D01*
X680558Y538037D01*
X680540Y537870D01*
X680540Y535588D01*
X679647Y534695D01*
X660353Y534695D01*
G37*
%LPD*%
%LPC*%
G36*
X876216Y370975D02*
X876216Y370975D01*
X869223Y373872D01*
X863872Y379223D01*
X860975Y386216D01*
X860975Y393784D01*
X863872Y400777D01*
X869223Y406128D01*
X876216Y409025D01*
X883784Y409025D01*
X890777Y406128D01*
X896128Y400777D01*
X899025Y393784D01*
X899025Y386216D01*
X896128Y379223D01*
X890777Y373872D01*
X883784Y370975D01*
X876216Y370975D01*
G37*
%LPD*%
%LPC*%
G36*
X660353Y594695D02*
X660353Y594695D01*
X659460Y595588D01*
X659460Y612852D01*
X660353Y613745D01*
X679647Y613745D01*
X680540Y612852D01*
X680540Y610570D01*
X680543Y610550D01*
X680541Y610531D01*
X680563Y610429D01*
X680579Y610327D01*
X680589Y610310D01*
X680593Y610290D01*
X680646Y610201D01*
X680695Y610110D01*
X680709Y610096D01*
X680719Y610079D01*
X680798Y610012D01*
X680873Y609940D01*
X680891Y609932D01*
X680906Y609919D01*
X681002Y609880D01*
X681096Y609837D01*
X681116Y609835D01*
X681134Y609827D01*
X681301Y609809D01*
X690214Y609809D01*
X690234Y609812D01*
X690253Y609810D01*
X690355Y609832D01*
X690457Y609848D01*
X690474Y609858D01*
X690494Y609862D01*
X690583Y609915D01*
X690674Y609964D01*
X690688Y609978D01*
X690705Y609988D01*
X690772Y610067D01*
X690844Y610142D01*
X690852Y610160D01*
X690865Y610175D01*
X690904Y610271D01*
X690947Y610365D01*
X690949Y610385D01*
X690957Y610403D01*
X690975Y610570D01*
X690975Y615632D01*
X691868Y616525D01*
X708132Y616525D01*
X709025Y615632D01*
X709025Y599368D01*
X708132Y598475D01*
X691845Y598475D01*
X691792Y598521D01*
X691762Y598533D01*
X691736Y598552D01*
X691649Y598579D01*
X691564Y598613D01*
X691523Y598617D01*
X691501Y598624D01*
X691468Y598623D01*
X691397Y598631D01*
X681301Y598631D01*
X681281Y598628D01*
X681262Y598630D01*
X681160Y598608D01*
X681058Y598592D01*
X681041Y598582D01*
X681021Y598578D01*
X680932Y598525D01*
X680841Y598476D01*
X680827Y598462D01*
X680810Y598452D01*
X680743Y598373D01*
X680671Y598298D01*
X680663Y598280D01*
X680650Y598265D01*
X680611Y598169D01*
X680568Y598075D01*
X680566Y598055D01*
X680558Y598037D01*
X680540Y597870D01*
X680540Y595588D01*
X679647Y594695D01*
X660353Y594695D01*
G37*
%LPD*%
%LPC*%
G36*
X320353Y534695D02*
X320353Y534695D01*
X319460Y535588D01*
X319460Y541150D01*
X319457Y541170D01*
X319459Y541189D01*
X319437Y541291D01*
X319421Y541393D01*
X319411Y541410D01*
X319407Y541430D01*
X319354Y541519D01*
X319305Y541610D01*
X319291Y541624D01*
X319281Y541641D01*
X319202Y541708D01*
X319127Y541780D01*
X319109Y541788D01*
X319094Y541801D01*
X318998Y541840D01*
X318904Y541883D01*
X318884Y541885D01*
X318866Y541893D01*
X318699Y541911D01*
X309786Y541911D01*
X309766Y541908D01*
X309747Y541910D01*
X309645Y541888D01*
X309543Y541872D01*
X309526Y541862D01*
X309506Y541858D01*
X309417Y541805D01*
X309326Y541756D01*
X309312Y541742D01*
X309295Y541732D01*
X309228Y541653D01*
X309156Y541578D01*
X309148Y541560D01*
X309135Y541545D01*
X309096Y541449D01*
X309053Y541355D01*
X309051Y541335D01*
X309043Y541317D01*
X309025Y541150D01*
X309025Y539368D01*
X308132Y538475D01*
X291868Y538475D01*
X290975Y539368D01*
X290975Y555632D01*
X291868Y556525D01*
X308132Y556525D01*
X309025Y555632D01*
X309025Y553850D01*
X309028Y553830D01*
X309026Y553811D01*
X309048Y553709D01*
X309064Y553607D01*
X309074Y553590D01*
X309078Y553570D01*
X309131Y553481D01*
X309180Y553390D01*
X309194Y553376D01*
X309204Y553359D01*
X309283Y553292D01*
X309358Y553220D01*
X309376Y553212D01*
X309391Y553199D01*
X309487Y553160D01*
X309581Y553117D01*
X309601Y553115D01*
X309619Y553107D01*
X309786Y553089D01*
X319382Y553089D01*
X319472Y553103D01*
X319563Y553111D01*
X319593Y553123D01*
X319625Y553128D01*
X319706Y553171D01*
X319789Y553207D01*
X319822Y553233D01*
X319842Y553244D01*
X319864Y553267D01*
X319920Y553312D01*
X320353Y553745D01*
X339647Y553745D01*
X340540Y552852D01*
X340540Y535588D01*
X339647Y534695D01*
X320353Y534695D01*
G37*
%LPD*%
%LPC*%
G36*
X320353Y594695D02*
X320353Y594695D01*
X319460Y595588D01*
X319460Y601150D01*
X319457Y601170D01*
X319459Y601189D01*
X319437Y601291D01*
X319421Y601393D01*
X319411Y601410D01*
X319407Y601430D01*
X319354Y601519D01*
X319305Y601610D01*
X319291Y601624D01*
X319281Y601641D01*
X319202Y601708D01*
X319127Y601780D01*
X319109Y601788D01*
X319094Y601801D01*
X318998Y601840D01*
X318904Y601883D01*
X318884Y601885D01*
X318866Y601893D01*
X318699Y601911D01*
X309786Y601911D01*
X309766Y601908D01*
X309747Y601910D01*
X309645Y601888D01*
X309543Y601872D01*
X309526Y601862D01*
X309506Y601858D01*
X309417Y601805D01*
X309326Y601756D01*
X309312Y601742D01*
X309295Y601732D01*
X309228Y601653D01*
X309156Y601578D01*
X309148Y601560D01*
X309135Y601545D01*
X309096Y601449D01*
X309053Y601355D01*
X309051Y601335D01*
X309043Y601317D01*
X309025Y601150D01*
X309025Y599368D01*
X308132Y598475D01*
X291868Y598475D01*
X290975Y599368D01*
X290975Y615632D01*
X291868Y616525D01*
X308132Y616525D01*
X309025Y615632D01*
X309025Y613850D01*
X309028Y613830D01*
X309026Y613811D01*
X309048Y613709D01*
X309064Y613607D01*
X309074Y613590D01*
X309078Y613570D01*
X309131Y613481D01*
X309180Y613390D01*
X309194Y613376D01*
X309204Y613359D01*
X309283Y613292D01*
X309358Y613220D01*
X309376Y613212D01*
X309391Y613199D01*
X309487Y613160D01*
X309581Y613117D01*
X309601Y613115D01*
X309619Y613107D01*
X309786Y613089D01*
X319382Y613089D01*
X319472Y613103D01*
X319563Y613111D01*
X319593Y613123D01*
X319625Y613128D01*
X319705Y613171D01*
X319789Y613207D01*
X319822Y613233D01*
X319842Y613244D01*
X319864Y613267D01*
X319920Y613312D01*
X320353Y613745D01*
X339647Y613745D01*
X340540Y612852D01*
X340540Y595588D01*
X339647Y594695D01*
X320353Y594695D01*
G37*
%LPD*%
%LPC*%
G36*
X474368Y15975D02*
X474368Y15975D01*
X473475Y16868D01*
X473475Y33132D01*
X474368Y34025D01*
X477334Y34025D01*
X477428Y34040D01*
X477523Y34049D01*
X477549Y34060D01*
X477577Y34064D01*
X477661Y34109D01*
X477749Y34147D01*
X477769Y34166D01*
X477794Y34180D01*
X477860Y34249D01*
X477931Y34313D01*
X477944Y34337D01*
X477964Y34358D01*
X478004Y34444D01*
X478050Y34528D01*
X478059Y34562D01*
X478067Y34581D01*
X478071Y34614D01*
X478089Y34691D01*
X478709Y39604D01*
X478707Y39671D01*
X478714Y39738D01*
X478702Y39793D01*
X478700Y39850D01*
X478676Y39913D01*
X478662Y39979D01*
X478633Y40027D01*
X478613Y40080D01*
X478570Y40132D01*
X478536Y40190D01*
X478493Y40226D01*
X478458Y40270D01*
X478400Y40306D01*
X478349Y40350D01*
X478297Y40371D01*
X478249Y40401D01*
X478184Y40416D01*
X478121Y40442D01*
X478042Y40451D01*
X478010Y40458D01*
X477989Y40456D01*
X477954Y40460D01*
X477148Y40460D01*
X476255Y41353D01*
X476255Y60647D01*
X477148Y61540D01*
X494412Y61540D01*
X495305Y60647D01*
X495305Y41353D01*
X494412Y40460D01*
X490755Y40460D01*
X490661Y40445D01*
X490566Y40436D01*
X490540Y40425D01*
X490512Y40421D01*
X490428Y40376D01*
X490340Y40338D01*
X490319Y40319D01*
X490295Y40305D01*
X490229Y40236D01*
X490158Y40172D01*
X490145Y40148D01*
X490125Y40127D01*
X490085Y40041D01*
X490039Y39957D01*
X490030Y39923D01*
X490022Y39904D01*
X490018Y39871D01*
X489999Y39794D01*
X489380Y34881D01*
X489382Y34814D01*
X489375Y34747D01*
X489387Y34692D01*
X489389Y34635D01*
X489412Y34572D01*
X489427Y34506D01*
X489456Y34458D01*
X489476Y34405D01*
X489518Y34353D01*
X489553Y34295D01*
X489596Y34259D01*
X489631Y34215D01*
X489689Y34179D01*
X489740Y34135D01*
X489792Y34114D01*
X489840Y34084D01*
X489905Y34069D01*
X489968Y34043D01*
X490047Y34034D01*
X490079Y34027D01*
X490100Y34029D01*
X490135Y34025D01*
X490632Y34025D01*
X491525Y33132D01*
X491525Y16868D01*
X490632Y15975D01*
X474368Y15975D01*
G37*
%LPD*%
%LPC*%
G36*
X262260Y867373D02*
X262260Y867373D01*
X252613Y884082D01*
X252940Y885302D01*
X253609Y885688D01*
X253662Y885732D01*
X253721Y885767D01*
X253757Y885809D01*
X253799Y885844D01*
X253836Y885902D01*
X253880Y885954D01*
X253901Y886005D01*
X253930Y886052D01*
X253946Y886119D01*
X253972Y886183D01*
X253975Y886238D01*
X253988Y886291D01*
X253981Y886360D01*
X253985Y886428D01*
X253971Y886481D01*
X253966Y886536D01*
X253938Y886599D01*
X253920Y886665D01*
X253880Y886731D01*
X253867Y886762D01*
X253852Y886778D01*
X253834Y886809D01*
X250890Y890666D01*
X250822Y890731D01*
X250758Y890801D01*
X250733Y890815D01*
X250712Y890835D01*
X250626Y890875D01*
X250544Y890921D01*
X250515Y890926D01*
X250488Y890938D01*
X250394Y890948D01*
X250302Y890966D01*
X250273Y890961D01*
X250244Y890965D01*
X250152Y890944D01*
X250058Y890931D01*
X250024Y890916D01*
X250003Y890912D01*
X249975Y890895D01*
X249905Y890864D01*
X247315Y889369D01*
X246095Y889696D01*
X237963Y903780D01*
X238290Y905000D01*
X252374Y913131D01*
X253594Y912804D01*
X261726Y898720D01*
X261399Y897500D01*
X260994Y897266D01*
X260941Y897223D01*
X260882Y897187D01*
X260846Y897146D01*
X260804Y897111D01*
X260767Y897052D01*
X260723Y897000D01*
X260702Y896949D01*
X260673Y896902D01*
X260657Y896835D01*
X260631Y896772D01*
X260628Y896717D01*
X260615Y896663D01*
X260622Y896595D01*
X260618Y896526D01*
X260632Y896473D01*
X260637Y896418D01*
X260665Y896355D01*
X260683Y896289D01*
X260723Y896223D01*
X260736Y896193D01*
X260751Y896177D01*
X260769Y896145D01*
X263713Y892288D01*
X263781Y892223D01*
X263845Y892154D01*
X263870Y892139D01*
X263891Y892119D01*
X263977Y892080D01*
X264059Y892034D01*
X264088Y892028D01*
X264115Y892016D01*
X264209Y892006D01*
X264301Y891989D01*
X264330Y891993D01*
X264359Y891990D01*
X264451Y892010D01*
X264545Y892023D01*
X264579Y892038D01*
X264600Y892043D01*
X264628Y892060D01*
X264698Y892091D01*
X267890Y893933D01*
X269110Y893607D01*
X278757Y876898D01*
X278430Y875678D01*
X263480Y867047D01*
X262260Y867373D01*
G37*
%LPD*%
%LPC*%
G36*
X77500Y263601D02*
X77500Y263601D01*
X69369Y277685D01*
X69696Y278905D01*
X83780Y287037D01*
X85000Y286710D01*
X86578Y283976D01*
X86634Y283908D01*
X86683Y283836D01*
X86711Y283813D01*
X86734Y283785D01*
X86808Y283739D01*
X86878Y283686D01*
X86912Y283674D01*
X86943Y283655D01*
X87028Y283634D01*
X87110Y283606D01*
X87147Y283606D01*
X87182Y283597D01*
X87269Y283605D01*
X87356Y283604D01*
X87401Y283617D01*
X87427Y283619D01*
X87455Y283631D01*
X87518Y283649D01*
X91840Y285360D01*
X91905Y285399D01*
X91974Y285429D01*
X92010Y285462D01*
X92051Y285486D01*
X92100Y285544D01*
X92156Y285595D01*
X92179Y285637D01*
X92211Y285673D01*
X92239Y285743D01*
X92276Y285809D01*
X92284Y285857D01*
X92302Y285902D01*
X92307Y285977D01*
X92321Y286051D01*
X92314Y286099D01*
X92317Y286147D01*
X92297Y286220D01*
X92286Y286295D01*
X92260Y286354D01*
X92252Y286384D01*
X92238Y286406D01*
X92219Y286448D01*
X91947Y286920D01*
X92273Y288140D01*
X108982Y297787D01*
X110202Y297460D01*
X118833Y282510D01*
X118507Y281289D01*
X101798Y271643D01*
X100578Y271970D01*
X98638Y275331D01*
X98582Y275398D01*
X98534Y275471D01*
X98505Y275493D01*
X98482Y275521D01*
X98408Y275568D01*
X98339Y275621D01*
X98304Y275633D01*
X98274Y275652D01*
X98189Y275672D01*
X98106Y275701D01*
X98070Y275701D01*
X98034Y275709D01*
X97947Y275702D01*
X97860Y275702D01*
X97815Y275690D01*
X97789Y275688D01*
X97761Y275675D01*
X97698Y275658D01*
X93376Y273946D01*
X93311Y273908D01*
X93242Y273877D01*
X93207Y273845D01*
X93165Y273820D01*
X93116Y273763D01*
X93060Y273712D01*
X93037Y273670D01*
X93005Y273633D01*
X92977Y273563D01*
X92940Y273497D01*
X92932Y273450D01*
X92914Y273405D01*
X92909Y273329D01*
X92895Y273255D01*
X92902Y273207D01*
X92899Y273159D01*
X92919Y273086D01*
X92930Y273012D01*
X92956Y272952D01*
X92964Y272922D01*
X92979Y272901D01*
X92997Y272858D01*
X93131Y272626D01*
X92804Y271406D01*
X78720Y263274D01*
X77500Y263601D01*
G37*
%LPD*%
%LPC*%
G36*
X91773Y711660D02*
X91773Y711660D01*
X91447Y712880D01*
X91809Y713507D01*
X91834Y713573D01*
X91867Y713634D01*
X91877Y713687D01*
X91896Y713737D01*
X91898Y713807D01*
X91911Y713876D01*
X91903Y713929D01*
X91905Y713983D01*
X91885Y714050D01*
X91875Y714120D01*
X91850Y714167D01*
X91835Y714219D01*
X91795Y714276D01*
X91763Y714339D01*
X91725Y714376D01*
X91694Y714420D01*
X91637Y714462D01*
X91587Y714511D01*
X91522Y714547D01*
X91495Y714566D01*
X91474Y714573D01*
X91440Y714592D01*
X87463Y716234D01*
X87372Y716255D01*
X87284Y716283D01*
X87253Y716282D01*
X87223Y716289D01*
X87131Y716281D01*
X87038Y716279D01*
X87009Y716269D01*
X86978Y716266D01*
X86893Y716228D01*
X86806Y716197D01*
X86782Y716178D01*
X86754Y716166D01*
X86685Y716103D01*
X86612Y716046D01*
X86589Y716014D01*
X86573Y715999D01*
X86557Y715971D01*
X86513Y715911D01*
X85000Y713290D01*
X83780Y712963D01*
X69696Y721095D01*
X69369Y722315D01*
X77500Y736399D01*
X78720Y736726D01*
X92804Y728594D01*
X93131Y727374D01*
X92919Y727006D01*
X92894Y726940D01*
X92860Y726879D01*
X92851Y726826D01*
X92832Y726776D01*
X92829Y726705D01*
X92817Y726637D01*
X92825Y726584D01*
X92823Y726530D01*
X92842Y726462D01*
X92853Y726393D01*
X92877Y726345D01*
X92892Y726294D01*
X92933Y726237D01*
X92964Y726174D01*
X93003Y726137D01*
X93034Y726093D01*
X93090Y726051D01*
X93140Y726002D01*
X93206Y725966D01*
X93232Y725947D01*
X93253Y725940D01*
X93287Y725921D01*
X97265Y724279D01*
X97355Y724258D01*
X97444Y724230D01*
X97474Y724230D01*
X97504Y724223D01*
X97597Y724232D01*
X97690Y724234D01*
X97719Y724244D01*
X97749Y724247D01*
X97834Y724285D01*
X97921Y724316D01*
X97946Y724334D01*
X97974Y724347D01*
X98042Y724410D01*
X98115Y724467D01*
X98138Y724499D01*
X98155Y724514D01*
X98170Y724542D01*
X98215Y724602D01*
X100078Y727830D01*
X101298Y728157D01*
X118007Y718510D01*
X118333Y717290D01*
X109702Y702340D01*
X108482Y702013D01*
X91773Y711660D01*
G37*
%LPD*%
%LPC*%
G36*
X238290Y95000D02*
X238290Y95000D01*
X237963Y96220D01*
X246095Y110304D01*
X247315Y110631D01*
X249730Y109237D01*
X249826Y109201D01*
X249920Y109159D01*
X249941Y109157D01*
X249961Y109150D01*
X250063Y109146D01*
X250165Y109137D01*
X250185Y109141D01*
X250206Y109141D01*
X250305Y109170D01*
X250404Y109194D01*
X250422Y109205D01*
X250442Y109211D01*
X250526Y109269D01*
X250613Y109324D01*
X250631Y109343D01*
X250643Y109352D01*
X250663Y109378D01*
X250726Y109448D01*
X253075Y112670D01*
X253103Y112724D01*
X253138Y112773D01*
X253158Y112833D01*
X253186Y112890D01*
X253195Y112950D01*
X253213Y113007D01*
X253212Y113071D01*
X253221Y113133D01*
X253210Y113193D01*
X253210Y113253D01*
X253188Y113313D01*
X253177Y113375D01*
X253148Y113428D01*
X253128Y113485D01*
X253088Y113535D01*
X253058Y113590D01*
X253013Y113631D01*
X252976Y113679D01*
X252900Y113735D01*
X252876Y113756D01*
X252862Y113763D01*
X252841Y113778D01*
X251940Y114298D01*
X251613Y115518D01*
X261260Y132227D01*
X262480Y132553D01*
X277430Y123922D01*
X277757Y122702D01*
X268110Y105993D01*
X266890Y105667D01*
X263902Y107392D01*
X263806Y107428D01*
X263712Y107470D01*
X263691Y107472D01*
X263672Y107479D01*
X263569Y107483D01*
X263467Y107492D01*
X263447Y107487D01*
X263426Y107488D01*
X263328Y107459D01*
X263228Y107435D01*
X263210Y107424D01*
X263190Y107418D01*
X263106Y107359D01*
X263019Y107305D01*
X263002Y107286D01*
X262989Y107277D01*
X262969Y107251D01*
X262906Y107181D01*
X260557Y103958D01*
X260530Y103905D01*
X260494Y103856D01*
X260474Y103795D01*
X260446Y103739D01*
X260437Y103679D01*
X260419Y103622D01*
X260420Y103558D01*
X260411Y103495D01*
X260422Y103436D01*
X260423Y103376D01*
X260444Y103316D01*
X260455Y103253D01*
X260484Y103201D01*
X260505Y103144D01*
X260544Y103094D01*
X260574Y103038D01*
X260619Y102998D01*
X260656Y102950D01*
X260732Y102894D01*
X260756Y102872D01*
X260771Y102866D01*
X260791Y102851D01*
X261399Y102500D01*
X261726Y101280D01*
X253594Y87196D01*
X252374Y86869D01*
X238290Y95000D01*
G37*
%LPD*%
%LPC*%
G36*
X889696Y241095D02*
X889696Y241095D01*
X889369Y242315D01*
X890763Y244730D01*
X890799Y244826D01*
X890841Y244920D01*
X890843Y244941D01*
X890850Y244961D01*
X890854Y245063D01*
X890863Y245165D01*
X890859Y245185D01*
X890859Y245206D01*
X890830Y245305D01*
X890806Y245404D01*
X890795Y245422D01*
X890789Y245442D01*
X890731Y245526D01*
X890676Y245613D01*
X890657Y245631D01*
X890648Y245643D01*
X890622Y245663D01*
X890552Y245726D01*
X887330Y248075D01*
X887276Y248103D01*
X887227Y248138D01*
X887167Y248158D01*
X887110Y248186D01*
X887050Y248195D01*
X886993Y248213D01*
X886929Y248212D01*
X886867Y248221D01*
X886807Y248210D01*
X886747Y248210D01*
X886687Y248188D01*
X886625Y248177D01*
X886572Y248148D01*
X886515Y248128D01*
X886465Y248088D01*
X886410Y248058D01*
X886369Y248013D01*
X886321Y247976D01*
X886265Y247900D01*
X886244Y247876D01*
X886237Y247862D01*
X886222Y247841D01*
X885702Y246940D01*
X884482Y246613D01*
X867773Y256260D01*
X867447Y257480D01*
X876078Y272430D01*
X877298Y272757D01*
X894007Y263110D01*
X894333Y261890D01*
X892608Y258902D01*
X892572Y258806D01*
X892530Y258712D01*
X892528Y258691D01*
X892521Y258672D01*
X892517Y258569D01*
X892508Y258467D01*
X892513Y258447D01*
X892512Y258426D01*
X892541Y258328D01*
X892565Y258228D01*
X892576Y258210D01*
X892582Y258190D01*
X892641Y258106D01*
X892695Y258019D01*
X892714Y258002D01*
X892723Y257989D01*
X892749Y257969D01*
X892819Y257906D01*
X896042Y255557D01*
X896095Y255530D01*
X896144Y255494D01*
X896205Y255474D01*
X896261Y255446D01*
X896321Y255437D01*
X896378Y255419D01*
X896442Y255420D01*
X896505Y255411D01*
X896564Y255422D01*
X896624Y255423D01*
X896684Y255444D01*
X896747Y255455D01*
X896799Y255484D01*
X896856Y255505D01*
X896906Y255544D01*
X896962Y255574D01*
X897002Y255619D01*
X897050Y255656D01*
X897106Y255732D01*
X897128Y255756D01*
X897134Y255771D01*
X897149Y255791D01*
X897500Y256399D01*
X898720Y256726D01*
X912804Y248594D01*
X913131Y247374D01*
X905000Y233290D01*
X903780Y232963D01*
X889696Y241095D01*
G37*
%LPD*%
%LPC*%
G36*
X876078Y727570D02*
X876078Y727570D01*
X867447Y742520D01*
X867773Y743740D01*
X884482Y753387D01*
X885702Y753060D01*
X886222Y752159D01*
X886260Y752112D01*
X886290Y752060D01*
X886337Y752018D01*
X886378Y751969D01*
X886429Y751937D01*
X886474Y751897D01*
X886532Y751872D01*
X886586Y751838D01*
X886645Y751824D01*
X886700Y751800D01*
X886764Y751795D01*
X886825Y751781D01*
X886885Y751786D01*
X886945Y751781D01*
X887007Y751797D01*
X887070Y751802D01*
X887126Y751827D01*
X887184Y751841D01*
X887266Y751888D01*
X887295Y751901D01*
X887307Y751912D01*
X887330Y751925D01*
X890552Y754274D01*
X890625Y754347D01*
X890700Y754416D01*
X890710Y754434D01*
X890725Y754449D01*
X890770Y754541D01*
X890820Y754631D01*
X890824Y754651D01*
X890833Y754670D01*
X890846Y754772D01*
X890865Y754872D01*
X890862Y754893D01*
X890865Y754914D01*
X890845Y755014D01*
X890831Y755116D01*
X890820Y755140D01*
X890817Y755155D01*
X890801Y755183D01*
X890763Y755270D01*
X889369Y757685D01*
X889696Y758905D01*
X903780Y767037D01*
X905000Y766710D01*
X913131Y752626D01*
X912804Y751406D01*
X898720Y743274D01*
X897500Y743601D01*
X897149Y744209D01*
X897111Y744255D01*
X897081Y744308D01*
X897034Y744350D01*
X896994Y744399D01*
X896942Y744431D01*
X896897Y744471D01*
X896839Y744496D01*
X896785Y744530D01*
X896726Y744544D01*
X896671Y744567D01*
X896608Y744572D01*
X896546Y744587D01*
X896486Y744582D01*
X896426Y744587D01*
X896364Y744571D01*
X896301Y744565D01*
X896246Y744541D01*
X896187Y744526D01*
X896105Y744480D01*
X896076Y744467D01*
X896064Y744456D01*
X896042Y744443D01*
X892819Y742094D01*
X892746Y742021D01*
X892671Y741952D01*
X892661Y741934D01*
X892646Y741919D01*
X892601Y741827D01*
X892551Y741737D01*
X892547Y741717D01*
X892538Y741698D01*
X892525Y741596D01*
X892506Y741495D01*
X892509Y741475D01*
X892506Y741454D01*
X892526Y741354D01*
X892541Y741252D01*
X892551Y741228D01*
X892554Y741213D01*
X892570Y741185D01*
X892608Y741098D01*
X894333Y738110D01*
X894007Y736889D01*
X877298Y727243D01*
X876078Y727570D01*
G37*
%LPD*%
%LPC*%
G36*
X940353Y504895D02*
X940353Y504895D01*
X939460Y505788D01*
X939460Y523052D01*
X940353Y523945D01*
X959647Y523945D01*
X960540Y523052D01*
X960540Y522210D01*
X960550Y522145D01*
X960551Y522078D01*
X960570Y522024D01*
X960579Y521968D01*
X960611Y521909D01*
X960633Y521846D01*
X960668Y521801D01*
X960695Y521750D01*
X960743Y521704D01*
X960784Y521652D01*
X960831Y521620D01*
X960873Y521581D01*
X960933Y521553D01*
X960989Y521516D01*
X961044Y521501D01*
X961096Y521477D01*
X961162Y521470D01*
X961226Y521453D01*
X961308Y521454D01*
X961340Y521450D01*
X961360Y521454D01*
X961394Y521455D01*
X965307Y521937D01*
X965399Y521964D01*
X965494Y521984D01*
X965517Y521998D01*
X965543Y522006D01*
X965622Y522061D01*
X965705Y522111D01*
X965723Y522131D01*
X965745Y522147D01*
X965802Y522224D01*
X965865Y522297D01*
X965875Y522323D01*
X965891Y522344D01*
X965921Y522436D01*
X965957Y522526D01*
X965961Y522559D01*
X965967Y522579D01*
X965966Y522611D01*
X965975Y522692D01*
X965975Y525632D01*
X966868Y526525D01*
X983132Y526525D01*
X984025Y525632D01*
X984025Y509368D01*
X983132Y508475D01*
X966868Y508475D01*
X965975Y509368D01*
X965975Y509896D01*
X965965Y509962D01*
X965964Y510029D01*
X965945Y510083D01*
X965936Y510139D01*
X965904Y510198D01*
X965882Y510261D01*
X965847Y510306D01*
X965820Y510357D01*
X965772Y510402D01*
X965731Y510455D01*
X965684Y510486D01*
X965642Y510526D01*
X965582Y510554D01*
X965526Y510591D01*
X965471Y510605D01*
X965419Y510630D01*
X965353Y510637D01*
X965289Y510654D01*
X965207Y510653D01*
X965175Y510657D01*
X965155Y510652D01*
X965121Y510652D01*
X961208Y510170D01*
X961116Y510143D01*
X961021Y510122D01*
X960998Y510108D01*
X960972Y510101D01*
X960893Y510046D01*
X960810Y509996D01*
X960792Y509975D01*
X960770Y509960D01*
X960713Y509883D01*
X960650Y509809D01*
X960640Y509784D01*
X960624Y509762D01*
X960594Y509671D01*
X960558Y509581D01*
X960554Y509547D01*
X960548Y509528D01*
X960549Y509495D01*
X960540Y509414D01*
X960540Y505788D01*
X959647Y504895D01*
X940353Y504895D01*
G37*
%LPD*%
%LPC*%
G36*
X16868Y473475D02*
X16868Y473475D01*
X15975Y474368D01*
X15975Y490632D01*
X16868Y491525D01*
X33132Y491525D01*
X34025Y490632D01*
X34025Y490391D01*
X34037Y490316D01*
X34040Y490239D01*
X34057Y490195D01*
X34064Y490148D01*
X34100Y490081D01*
X34127Y490009D01*
X34157Y489973D01*
X34180Y489931D01*
X34235Y489878D01*
X34284Y489819D01*
X34324Y489794D01*
X34358Y489762D01*
X34427Y489729D01*
X34492Y489689D01*
X34538Y489678D01*
X34581Y489658D01*
X34657Y489650D01*
X34731Y489632D01*
X34795Y489634D01*
X34825Y489631D01*
X34851Y489636D01*
X34899Y489638D01*
X38312Y490151D01*
X38394Y490177D01*
X38479Y490196D01*
X38511Y490215D01*
X38546Y490226D01*
X38616Y490278D01*
X38690Y490322D01*
X38714Y490350D01*
X38744Y490372D01*
X38794Y490443D01*
X38850Y490509D01*
X38864Y490543D01*
X38885Y490574D01*
X38909Y490657D01*
X38942Y490737D01*
X38947Y490785D01*
X38954Y490810D01*
X38953Y490841D01*
X38960Y490904D01*
X38960Y494812D01*
X39853Y495705D01*
X59147Y495705D01*
X60040Y494812D01*
X60040Y477548D01*
X59147Y476655D01*
X39853Y476655D01*
X38960Y477548D01*
X38960Y478061D01*
X38948Y478137D01*
X38945Y478213D01*
X38928Y478257D01*
X38921Y478304D01*
X38885Y478372D01*
X38858Y478443D01*
X38828Y478480D01*
X38805Y478521D01*
X38750Y478574D01*
X38701Y478633D01*
X38661Y478658D01*
X38627Y478691D01*
X38558Y478723D01*
X38493Y478764D01*
X38447Y478775D01*
X38404Y478794D01*
X38328Y478803D01*
X38254Y478821D01*
X38190Y478818D01*
X38160Y478822D01*
X38134Y478816D01*
X38086Y478814D01*
X34673Y478301D01*
X34591Y478275D01*
X34506Y478257D01*
X34474Y478237D01*
X34439Y478226D01*
X34369Y478175D01*
X34295Y478130D01*
X34271Y478102D01*
X34241Y478080D01*
X34191Y478009D01*
X34135Y477944D01*
X34121Y477909D01*
X34100Y477878D01*
X34076Y477796D01*
X34043Y477715D01*
X34038Y477668D01*
X34031Y477643D01*
X34032Y477612D01*
X34025Y477549D01*
X34025Y474368D01*
X33132Y473475D01*
X16868Y473475D01*
G37*
%LPD*%
%LPC*%
G36*
X697940Y891298D02*
X697940Y891298D01*
X697613Y892518D01*
X707260Y909227D01*
X708480Y909553D01*
X709031Y909235D01*
X709099Y909209D01*
X709163Y909175D01*
X709214Y909166D01*
X709261Y909148D01*
X709334Y909145D01*
X709406Y909133D01*
X709456Y909141D01*
X709507Y909139D01*
X709577Y909160D01*
X709649Y909171D01*
X709694Y909194D01*
X709743Y909209D01*
X709803Y909251D01*
X709867Y909284D01*
X709902Y909321D01*
X709944Y909350D01*
X709987Y909409D01*
X710038Y909461D01*
X710071Y909523D01*
X710090Y909548D01*
X710097Y909571D01*
X710118Y909609D01*
X711291Y912510D01*
X711311Y912598D01*
X711339Y912684D01*
X711338Y912718D01*
X711346Y912750D01*
X711336Y912840D01*
X711335Y912930D01*
X711324Y912962D01*
X711320Y912995D01*
X711283Y913077D01*
X711253Y913162D01*
X711232Y913188D01*
X711219Y913219D01*
X711157Y913285D01*
X711101Y913356D01*
X711067Y913381D01*
X711051Y913398D01*
X711023Y913414D01*
X710966Y913455D01*
X708290Y915000D01*
X707963Y916220D01*
X716095Y930304D01*
X717315Y930631D01*
X731399Y922500D01*
X731726Y921280D01*
X723594Y907196D01*
X722374Y906869D01*
X722072Y907043D01*
X722004Y907069D01*
X721940Y907103D01*
X721890Y907112D01*
X721842Y907130D01*
X721769Y907133D01*
X721698Y907145D01*
X721647Y907137D01*
X721596Y907139D01*
X721526Y907118D01*
X721455Y907107D01*
X721409Y907084D01*
X721360Y907069D01*
X721301Y907027D01*
X721236Y906994D01*
X721201Y906957D01*
X721159Y906928D01*
X721116Y906869D01*
X721065Y906817D01*
X721032Y906755D01*
X721013Y906730D01*
X721006Y906707D01*
X720986Y906669D01*
X719812Y903768D01*
X719792Y903680D01*
X719765Y903594D01*
X719765Y903561D01*
X719758Y903528D01*
X719767Y903438D01*
X719768Y903348D01*
X719780Y903317D01*
X719783Y903283D01*
X719820Y903201D01*
X719850Y903116D01*
X719871Y903090D01*
X719885Y903059D01*
X719946Y902994D01*
X720002Y902922D01*
X720036Y902897D01*
X720053Y902880D01*
X720081Y902865D01*
X720137Y902823D01*
X723430Y900922D01*
X723757Y899702D01*
X714110Y882993D01*
X712890Y882667D01*
X697940Y891298D01*
G37*
%LPD*%
%LPC*%
G36*
X716095Y69696D02*
X716095Y69696D01*
X707963Y83780D01*
X708290Y85000D01*
X710532Y86294D01*
X710618Y86365D01*
X710706Y86432D01*
X710713Y86442D01*
X710723Y86450D01*
X710782Y86544D01*
X710843Y86636D01*
X710847Y86648D01*
X710854Y86659D01*
X710879Y86767D01*
X710909Y86873D01*
X710908Y86885D01*
X710911Y86898D01*
X710901Y87008D01*
X710895Y87119D01*
X710890Y87133D01*
X710889Y87143D01*
X710878Y87168D01*
X710841Y87277D01*
X709675Y89761D01*
X709646Y89804D01*
X709625Y89851D01*
X709576Y89904D01*
X709536Y89963D01*
X709494Y89995D01*
X709459Y90033D01*
X709397Y90068D01*
X709339Y90111D01*
X709290Y90128D01*
X709244Y90153D01*
X709174Y90166D01*
X709106Y90189D01*
X709054Y90189D01*
X709002Y90198D01*
X708932Y90188D01*
X708860Y90188D01*
X708811Y90171D01*
X708759Y90164D01*
X708653Y90117D01*
X708627Y90108D01*
X708619Y90102D01*
X708605Y90096D01*
X707480Y89447D01*
X706260Y89773D01*
X696613Y106482D01*
X696940Y107702D01*
X711890Y116333D01*
X713110Y116007D01*
X722757Y99298D01*
X722430Y98078D01*
X719643Y96469D01*
X719558Y96399D01*
X719470Y96332D01*
X719463Y96321D01*
X719453Y96313D01*
X719394Y96220D01*
X719332Y96128D01*
X719329Y96116D01*
X719322Y96105D01*
X719296Y95997D01*
X719267Y95891D01*
X719268Y95878D01*
X719265Y95866D01*
X719275Y95756D01*
X719281Y95645D01*
X719286Y95631D01*
X719287Y95621D01*
X719298Y95596D01*
X719335Y95486D01*
X720501Y93003D01*
X720530Y92960D01*
X720551Y92912D01*
X720599Y92859D01*
X720640Y92800D01*
X720682Y92769D01*
X720717Y92730D01*
X720779Y92695D01*
X720836Y92652D01*
X720886Y92636D01*
X720931Y92611D01*
X721002Y92597D01*
X721070Y92575D01*
X721122Y92575D01*
X721173Y92566D01*
X721244Y92576D01*
X721316Y92576D01*
X721365Y92593D01*
X721417Y92600D01*
X721522Y92646D01*
X721549Y92655D01*
X721556Y92661D01*
X721570Y92667D01*
X722374Y93131D01*
X723594Y92804D01*
X731726Y78720D01*
X731399Y77500D01*
X717315Y69369D01*
X716095Y69696D01*
G37*
%LPD*%
%LPC*%
G36*
X968888Y434411D02*
X968888Y434411D01*
X968347Y434635D01*
X968284Y434650D01*
X968223Y434675D01*
X968140Y434684D01*
X968108Y434691D01*
X968089Y434690D01*
X968056Y434693D01*
X967802Y434693D01*
X967622Y434873D01*
X967569Y434911D01*
X967522Y434957D01*
X967449Y434997D01*
X967422Y435017D01*
X967404Y435022D01*
X967375Y435038D01*
X966834Y435262D01*
X965262Y436834D01*
X965038Y437375D01*
X965003Y437431D01*
X964978Y437491D01*
X964926Y437556D01*
X964908Y437584D01*
X964893Y437597D01*
X964873Y437622D01*
X964693Y437802D01*
X964693Y438056D01*
X964683Y438121D01*
X964682Y438186D01*
X964659Y438266D01*
X964654Y438299D01*
X964644Y438316D01*
X964635Y438347D01*
X964411Y438888D01*
X964411Y478612D01*
X965262Y480666D01*
X965752Y481156D01*
X965805Y481230D01*
X965865Y481299D01*
X965877Y481330D01*
X965896Y481356D01*
X965923Y481443D01*
X965957Y481528D01*
X965961Y481568D01*
X965968Y481591D01*
X965967Y481623D01*
X965975Y481694D01*
X965975Y490632D01*
X966868Y491525D01*
X983132Y491525D01*
X984025Y490632D01*
X984025Y474368D01*
X983132Y473475D01*
X976350Y473475D01*
X976330Y473472D01*
X976311Y473474D01*
X976209Y473452D01*
X976107Y473436D01*
X976090Y473426D01*
X976070Y473422D01*
X975981Y473369D01*
X975890Y473320D01*
X975876Y473306D01*
X975859Y473296D01*
X975792Y473217D01*
X975720Y473142D01*
X975712Y473124D01*
X975699Y473109D01*
X975660Y473013D01*
X975617Y472919D01*
X975615Y472899D01*
X975607Y472881D01*
X975589Y472714D01*
X975589Y438888D01*
X975365Y438347D01*
X975350Y438284D01*
X975325Y438223D01*
X975316Y438140D01*
X975309Y438108D01*
X975310Y438089D01*
X975307Y438056D01*
X975307Y437802D01*
X975127Y437622D01*
X975089Y437569D01*
X975043Y437522D01*
X975003Y437449D01*
X974983Y437422D01*
X974978Y437404D01*
X974962Y437375D01*
X974738Y436834D01*
X973166Y435262D01*
X972625Y435038D01*
X972569Y435003D01*
X972509Y434978D01*
X972444Y434926D01*
X972416Y434908D01*
X972403Y434893D01*
X972378Y434873D01*
X972198Y434693D01*
X971944Y434693D01*
X971879Y434683D01*
X971814Y434682D01*
X971734Y434659D01*
X971701Y434654D01*
X971684Y434644D01*
X971653Y434635D01*
X971112Y434411D01*
X968888Y434411D01*
G37*
%LPD*%
%LPC*%
G36*
X16868Y508475D02*
X16868Y508475D01*
X15975Y509368D01*
X15975Y525632D01*
X16868Y526525D01*
X18650Y526525D01*
X18670Y526528D01*
X18689Y526526D01*
X18791Y526548D01*
X18893Y526564D01*
X18910Y526574D01*
X18930Y526578D01*
X19019Y526631D01*
X19110Y526680D01*
X19124Y526694D01*
X19141Y526704D01*
X19208Y526783D01*
X19280Y526858D01*
X19288Y526876D01*
X19301Y526891D01*
X19340Y526987D01*
X19383Y527081D01*
X19385Y527101D01*
X19393Y527119D01*
X19411Y527286D01*
X19411Y546112D01*
X20262Y548166D01*
X26834Y554738D01*
X27375Y554962D01*
X27431Y554997D01*
X27491Y555022D01*
X27556Y555074D01*
X27584Y555092D01*
X27597Y555107D01*
X27622Y555127D01*
X27802Y555307D01*
X28056Y555307D01*
X28121Y555317D01*
X28186Y555318D01*
X28266Y555341D01*
X28299Y555346D01*
X28316Y555356D01*
X28347Y555365D01*
X28888Y555589D01*
X31112Y555589D01*
X31653Y555365D01*
X31716Y555350D01*
X31777Y555325D01*
X31860Y555316D01*
X31892Y555309D01*
X31911Y555310D01*
X31944Y555307D01*
X32198Y555307D01*
X32378Y555127D01*
X32431Y555089D01*
X32478Y555043D01*
X32551Y555003D01*
X32578Y554983D01*
X32596Y554978D01*
X32625Y554962D01*
X33166Y554738D01*
X34738Y553166D01*
X34962Y552625D01*
X34997Y552569D01*
X35022Y552509D01*
X35074Y552444D01*
X35092Y552416D01*
X35107Y552403D01*
X35127Y552378D01*
X35307Y552198D01*
X35307Y551944D01*
X35317Y551879D01*
X35318Y551814D01*
X35341Y551734D01*
X35346Y551701D01*
X35356Y551684D01*
X35365Y551653D01*
X35589Y551112D01*
X35589Y548888D01*
X35365Y548347D01*
X35350Y548284D01*
X35325Y548223D01*
X35316Y548140D01*
X35309Y548108D01*
X35310Y548089D01*
X35307Y548056D01*
X35307Y547802D01*
X35127Y547622D01*
X35089Y547569D01*
X35043Y547522D01*
X35003Y547449D01*
X34983Y547422D01*
X34978Y547404D01*
X34962Y547375D01*
X34738Y546834D01*
X30812Y542908D01*
X30759Y542834D01*
X30699Y542765D01*
X30687Y542734D01*
X30668Y542708D01*
X30641Y542621D01*
X30607Y542536D01*
X30603Y542496D01*
X30596Y542473D01*
X30597Y542441D01*
X30589Y542370D01*
X30589Y527286D01*
X30592Y527266D01*
X30590Y527247D01*
X30612Y527145D01*
X30628Y527043D01*
X30638Y527026D01*
X30642Y527006D01*
X30695Y526917D01*
X30744Y526826D01*
X30758Y526812D01*
X30768Y526795D01*
X30847Y526728D01*
X30922Y526656D01*
X30940Y526648D01*
X30955Y526635D01*
X31051Y526596D01*
X31145Y526553D01*
X31165Y526551D01*
X31183Y526543D01*
X31350Y526525D01*
X33132Y526525D01*
X34025Y525632D01*
X34025Y509368D01*
X33132Y508475D01*
X16868Y508475D01*
G37*
%LPD*%
%LPC*%
G36*
X121523Y391523D02*
X121523Y391523D01*
X121523Y410013D01*
X123918Y409698D01*
X126456Y409018D01*
X128883Y408013D01*
X131158Y406699D01*
X133242Y405100D01*
X135100Y403242D01*
X136699Y401158D01*
X138013Y398883D01*
X139018Y396456D01*
X139698Y393918D01*
X140013Y391523D01*
X121523Y391523D01*
G37*
%LPD*%
%LPC*%
G36*
X121523Y388477D02*
X121523Y388477D01*
X140013Y388477D01*
X139698Y386082D01*
X139018Y383544D01*
X138013Y381117D01*
X136699Y378842D01*
X135100Y376758D01*
X133242Y374900D01*
X131158Y373301D01*
X128883Y371987D01*
X126456Y370982D01*
X123918Y370302D01*
X121523Y369987D01*
X121523Y388477D01*
G37*
%LPD*%
%LPC*%
G36*
X99987Y391523D02*
X99987Y391523D01*
X100302Y393918D01*
X100982Y396456D01*
X101987Y398883D01*
X103301Y401158D01*
X104900Y403242D01*
X106758Y405100D01*
X108842Y406699D01*
X111117Y408013D01*
X113544Y409018D01*
X116082Y409698D01*
X118477Y410013D01*
X118477Y391523D01*
X99987Y391523D01*
G37*
%LPD*%
%LPC*%
G36*
X116082Y370302D02*
X116082Y370302D01*
X113544Y370982D01*
X111117Y371987D01*
X108842Y373301D01*
X106758Y374900D01*
X104900Y376758D01*
X103301Y378842D01*
X101987Y381117D01*
X100982Y383544D01*
X100302Y386082D01*
X99987Y388477D01*
X118477Y388477D01*
X118477Y369987D01*
X116082Y370302D01*
G37*
%LPD*%
G36*
X318092Y445604D02*
X318092Y445604D01*
X318187Y445613D01*
X318213Y445624D01*
X318241Y445628D01*
X318325Y445673D01*
X318412Y445711D01*
X318433Y445730D01*
X318458Y445744D01*
X318524Y445813D01*
X318594Y445877D01*
X318608Y445901D01*
X318627Y445922D01*
X318668Y446008D01*
X318714Y446092D01*
X318719Y446119D01*
X318731Y446145D01*
X318741Y446240D01*
X318759Y446333D01*
X318755Y446361D01*
X318758Y446389D01*
X318738Y446483D01*
X318724Y446577D01*
X318710Y446609D01*
X318706Y446630D01*
X318701Y446637D01*
X318701Y446638D01*
X318689Y446659D01*
X318657Y446731D01*
X318617Y446799D01*
X318444Y447446D01*
X318444Y454257D01*
X329238Y454257D01*
X329258Y454260D01*
X329277Y454258D01*
X329379Y454280D01*
X329481Y454297D01*
X329498Y454306D01*
X329518Y454310D01*
X329607Y454363D01*
X329698Y454412D01*
X329712Y454426D01*
X329729Y454436D01*
X329796Y454515D01*
X329867Y454590D01*
X329876Y454608D01*
X329889Y454623D01*
X329928Y454719D01*
X329971Y454813D01*
X329973Y454833D01*
X329981Y454851D01*
X329999Y455018D01*
X329999Y456542D01*
X329996Y456562D01*
X329998Y456581D01*
X329976Y456683D01*
X329959Y456785D01*
X329950Y456802D01*
X329946Y456822D01*
X329893Y456911D01*
X329844Y457002D01*
X329830Y457016D01*
X329820Y457033D01*
X329741Y457100D01*
X329666Y457171D01*
X329648Y457180D01*
X329633Y457193D01*
X329537Y457232D01*
X329443Y457275D01*
X329423Y457277D01*
X329405Y457285D01*
X329238Y457303D01*
X318444Y457303D01*
X318444Y463650D01*
X318441Y463670D01*
X318443Y463689D01*
X318421Y463791D01*
X318405Y463893D01*
X318395Y463910D01*
X318391Y463930D01*
X318338Y464019D01*
X318289Y464110D01*
X318275Y464124D01*
X318265Y464141D01*
X318186Y464208D01*
X318111Y464280D01*
X318093Y464288D01*
X318078Y464301D01*
X317982Y464340D01*
X317888Y464383D01*
X317868Y464385D01*
X317850Y464393D01*
X317683Y464411D01*
X298664Y464411D01*
X298574Y464397D01*
X298483Y464389D01*
X298454Y464377D01*
X298422Y464372D01*
X298341Y464329D01*
X298257Y464293D01*
X298225Y464267D01*
X298204Y464256D01*
X298182Y464233D01*
X298126Y464188D01*
X296762Y462824D01*
X296720Y462766D01*
X296671Y462714D01*
X296649Y462667D01*
X296619Y462625D01*
X296597Y462556D01*
X296567Y462491D01*
X296562Y462439D01*
X296546Y462389D01*
X296548Y462318D01*
X296540Y462247D01*
X296551Y462196D01*
X296553Y462144D01*
X296577Y462076D01*
X296592Y462006D01*
X296619Y461961D01*
X296637Y461913D01*
X296682Y461857D01*
X296719Y461795D01*
X296758Y461761D01*
X296791Y461721D01*
X296851Y461682D01*
X296906Y461635D01*
X296954Y461616D01*
X296998Y461588D01*
X297067Y461570D01*
X297134Y461543D01*
X297205Y461535D01*
X297236Y461527D01*
X297259Y461529D01*
X297300Y461525D01*
X308132Y461525D01*
X309025Y460632D01*
X309025Y451694D01*
X309039Y451604D01*
X309047Y451513D01*
X309059Y451483D01*
X309064Y451452D01*
X309084Y451414D01*
X309086Y451407D01*
X309107Y451371D01*
X309143Y451287D01*
X309169Y451255D01*
X309180Y451234D01*
X309201Y451214D01*
X309212Y451196D01*
X309225Y451185D01*
X309248Y451156D01*
X314592Y445812D01*
X314666Y445759D01*
X314735Y445699D01*
X314766Y445687D01*
X314792Y445668D01*
X314879Y445641D01*
X314964Y445607D01*
X315004Y445603D01*
X315027Y445596D01*
X315059Y445597D01*
X315130Y445589D01*
X317998Y445589D01*
X318092Y445604D01*
G37*
%LPC*%
G36*
X115659Y269975D02*
X115659Y269975D01*
X122436Y273888D01*
X123083Y274062D01*
X123752Y274062D01*
X124398Y273888D01*
X124977Y273554D01*
X125450Y273081D01*
X128856Y267182D01*
X120168Y262166D01*
X115659Y269975D01*
G37*
%LPD*%
%LPC*%
G36*
X291396Y105448D02*
X291396Y105448D01*
X296412Y114136D01*
X302311Y110730D01*
X302784Y110257D01*
X303118Y109678D01*
X303291Y109032D01*
X303291Y108363D01*
X303118Y107716D01*
X299205Y100939D01*
X291396Y105448D01*
G37*
%LPD*%
%LPC*%
G36*
X737396Y882448D02*
X737396Y882448D01*
X742412Y891136D01*
X748311Y887730D01*
X748784Y887257D01*
X749118Y886678D01*
X749291Y886032D01*
X749291Y885363D01*
X749118Y884716D01*
X745205Y877939D01*
X737396Y882448D01*
G37*
%LPD*%
%LPC*%
G36*
X891159Y725575D02*
X891159Y725575D01*
X897936Y729488D01*
X898583Y729662D01*
X899252Y729662D01*
X899898Y729488D01*
X900477Y729154D01*
X900950Y728681D01*
X904356Y722782D01*
X895668Y717766D01*
X891159Y725575D01*
G37*
%LPD*%
%LPC*%
G36*
X885864Y291412D02*
X885864Y291412D01*
X889270Y297311D01*
X889743Y297784D01*
X890322Y298118D01*
X890968Y298291D01*
X891637Y298291D01*
X892284Y298118D01*
X899061Y294205D01*
X894552Y286396D01*
X885864Y291412D01*
G37*
%LPD*%
%LPC*%
G36*
X736396Y116552D02*
X736396Y116552D01*
X744205Y121061D01*
X748118Y114284D01*
X748291Y113637D01*
X748291Y112968D01*
X748118Y112322D01*
X747784Y111743D01*
X747311Y111270D01*
X741412Y107864D01*
X736396Y116552D01*
G37*
%LPD*%
%LPC*%
G36*
X285856Y905479D02*
X285856Y905479D01*
X291755Y908885D01*
X292401Y909058D01*
X293070Y909058D01*
X293716Y908885D01*
X294296Y908550D01*
X294769Y908077D01*
X298682Y901299D01*
X290872Y896791D01*
X285856Y905479D01*
G37*
%LPD*%
%LPC*%
G36*
X121191Y740272D02*
X121191Y740272D01*
X125699Y748082D01*
X132477Y744169D01*
X132950Y743696D01*
X133285Y743116D01*
X133458Y742470D01*
X133458Y741801D01*
X133285Y741155D01*
X129879Y735256D01*
X121191Y740272D01*
G37*
%LPD*%
%LPC*%
G36*
X897191Y284872D02*
X897191Y284872D01*
X901699Y292682D01*
X908477Y288769D01*
X908950Y288296D01*
X909285Y287716D01*
X909458Y287070D01*
X909458Y286401D01*
X909285Y285755D01*
X905879Y279856D01*
X897191Y284872D01*
G37*
%LPD*%
%LPC*%
G36*
X729856Y127879D02*
X729856Y127879D01*
X735755Y131285D01*
X736401Y131458D01*
X737070Y131458D01*
X737716Y131285D01*
X738296Y130950D01*
X738769Y130477D01*
X742682Y123699D01*
X734872Y119191D01*
X729856Y127879D01*
G37*
%LPD*%
%LPC*%
G36*
X726948Y888479D02*
X726948Y888479D01*
X730861Y895257D01*
X731334Y895730D01*
X731913Y896065D01*
X732560Y896238D01*
X733229Y896238D01*
X733875Y896065D01*
X739774Y892659D01*
X734757Y883971D01*
X726948Y888479D01*
G37*
%LPD*%
%LPC*%
G36*
X121691Y259528D02*
X121691Y259528D01*
X130379Y264544D01*
X133785Y258645D01*
X133958Y257999D01*
X133958Y257330D01*
X133785Y256684D01*
X133450Y256104D01*
X132977Y255631D01*
X126199Y251718D01*
X121691Y259528D01*
G37*
%LPD*%
%LPC*%
G36*
X280948Y111479D02*
X280948Y111479D01*
X284861Y118257D01*
X285334Y118730D01*
X285913Y119065D01*
X286560Y119238D01*
X287229Y119238D01*
X287875Y119065D01*
X293774Y115659D01*
X288757Y106971D01*
X280948Y111479D01*
G37*
%LPD*%
%LPC*%
G36*
X331523Y397303D02*
X331523Y397303D01*
X331523Y406321D01*
X339349Y406321D01*
X339996Y406148D01*
X340575Y405813D01*
X341048Y405340D01*
X341383Y404761D01*
X341556Y404114D01*
X341556Y397303D01*
X331523Y397303D01*
G37*
%LPD*%
%LPC*%
G36*
X331523Y517303D02*
X331523Y517303D01*
X331523Y526321D01*
X339349Y526321D01*
X339996Y526148D01*
X340575Y525813D01*
X341048Y525340D01*
X341383Y524761D01*
X341556Y524114D01*
X341556Y517303D01*
X331523Y517303D01*
G37*
%LPD*%
%LPC*%
G36*
X671523Y577303D02*
X671523Y577303D01*
X671523Y586321D01*
X679349Y586321D01*
X679996Y586148D01*
X680575Y585813D01*
X681048Y585340D01*
X681383Y584761D01*
X681556Y584114D01*
X681556Y577303D01*
X671523Y577303D01*
G37*
%LPD*%
%LPC*%
G36*
X331523Y577303D02*
X331523Y577303D01*
X331523Y586321D01*
X339349Y586321D01*
X339996Y586148D01*
X340575Y585813D01*
X341048Y585340D01*
X341383Y584761D01*
X341556Y584114D01*
X341556Y577303D01*
X331523Y577303D01*
G37*
%LPD*%
%LPC*%
G36*
X51023Y516143D02*
X51023Y516143D01*
X51023Y525161D01*
X58849Y525161D01*
X59496Y524988D01*
X60075Y524653D01*
X60548Y524180D01*
X60883Y523601D01*
X61056Y522954D01*
X61056Y516143D01*
X51023Y516143D01*
G37*
%LPD*%
%LPC*%
G36*
X671523Y517303D02*
X671523Y517303D01*
X671523Y526321D01*
X679349Y526321D01*
X679996Y526148D01*
X680575Y525813D01*
X681048Y525340D01*
X681383Y524761D01*
X681556Y524114D01*
X681556Y517303D01*
X671523Y517303D01*
G37*
%LPD*%
%LPC*%
G36*
X951523Y487503D02*
X951523Y487503D01*
X951523Y496521D01*
X959349Y496521D01*
X959996Y496348D01*
X960575Y496013D01*
X961048Y495540D01*
X961383Y494961D01*
X961556Y494314D01*
X961556Y487503D01*
X951523Y487503D01*
G37*
%LPD*%
%LPC*%
G36*
X515743Y52523D02*
X515743Y52523D01*
X515743Y62556D01*
X522554Y62556D01*
X523201Y62383D01*
X523780Y62048D01*
X524253Y61575D01*
X524588Y60996D01*
X524761Y60349D01*
X524761Y52523D01*
X515743Y52523D01*
G37*
%LPD*%
%LPC*%
G36*
X737401Y867542D02*
X737401Y867542D01*
X736755Y867715D01*
X730856Y871121D01*
X735872Y879809D01*
X743682Y875301D01*
X739769Y868523D01*
X739296Y868050D01*
X738716Y867715D01*
X738070Y867542D01*
X737401Y867542D01*
G37*
%LPD*%
%LPC*%
G36*
X105435Y261525D02*
X105435Y261525D01*
X105262Y262171D01*
X105262Y262840D01*
X105435Y263487D01*
X105770Y264066D01*
X106243Y264539D01*
X113021Y268452D01*
X117529Y260643D01*
X108841Y255626D01*
X105435Y261525D01*
G37*
%LPD*%
%LPC*%
G36*
X880935Y717125D02*
X880935Y717125D01*
X880762Y717771D01*
X880762Y718440D01*
X880935Y719087D01*
X881270Y719666D01*
X881743Y720139D01*
X888521Y724052D01*
X893029Y716243D01*
X884341Y711226D01*
X880935Y717125D01*
G37*
%LPD*%
%LPC*%
G36*
X291401Y90542D02*
X291401Y90542D01*
X290755Y90715D01*
X284856Y94121D01*
X289872Y102809D01*
X297682Y98301D01*
X293769Y91523D01*
X293296Y91050D01*
X292716Y90715D01*
X292070Y90542D01*
X291401Y90542D01*
G37*
%LPD*%
%LPC*%
G36*
X276512Y897536D02*
X276512Y897536D01*
X276338Y898183D01*
X276338Y898852D01*
X276512Y899498D01*
X276846Y900077D01*
X277319Y900550D01*
X283218Y903956D01*
X288234Y895267D01*
X280425Y890759D01*
X276512Y897536D01*
G37*
%LPD*%
%LPC*%
G36*
X122583Y725738D02*
X122583Y725738D01*
X121936Y725912D01*
X115159Y729825D01*
X119667Y737634D01*
X128356Y732618D01*
X124950Y726719D01*
X124477Y726246D01*
X123898Y725912D01*
X123252Y725738D01*
X122583Y725738D01*
G37*
%LPD*%
%LPC*%
G36*
X898583Y270338D02*
X898583Y270338D01*
X897936Y270512D01*
X891159Y274425D01*
X895667Y282234D01*
X904356Y277218D01*
X900950Y271319D01*
X900477Y270846D01*
X899898Y270512D01*
X899252Y270338D01*
X898583Y270338D01*
G37*
%LPD*%
%LPC*%
G36*
X720512Y119936D02*
X720512Y119936D01*
X720338Y120583D01*
X720338Y121252D01*
X720512Y121898D01*
X720846Y122477D01*
X721319Y122950D01*
X727218Y126356D01*
X732234Y117667D01*
X724425Y113159D01*
X720512Y119936D01*
G37*
%LPD*%
%LPC*%
G36*
X292396Y894152D02*
X292396Y894152D01*
X300205Y898661D01*
X304118Y891884D01*
X304291Y891237D01*
X304291Y890568D01*
X304118Y889922D01*
X303784Y889343D01*
X303311Y888870D01*
X297412Y885464D01*
X292396Y894152D01*
G37*
%LPD*%
%LPC*%
G36*
X109864Y746812D02*
X109864Y746812D01*
X113270Y752711D01*
X113743Y753184D01*
X114322Y753518D01*
X114968Y753691D01*
X115637Y753691D01*
X116284Y753518D01*
X123061Y749605D01*
X118552Y741796D01*
X109864Y746812D01*
G37*
%LPD*%
%LPC*%
G36*
X897191Y715128D02*
X897191Y715128D01*
X905879Y720144D01*
X909285Y714245D01*
X909458Y713599D01*
X909458Y712930D01*
X909285Y712284D01*
X908950Y711704D01*
X908477Y711231D01*
X901699Y707318D01*
X897191Y715128D01*
G37*
%LPD*%
%LPC*%
G36*
X722319Y876050D02*
X722319Y876050D01*
X721846Y876523D01*
X721512Y877102D01*
X721338Y877748D01*
X721338Y878417D01*
X721512Y879064D01*
X725425Y885841D01*
X733234Y881332D01*
X728218Y872644D01*
X722319Y876050D01*
G37*
%LPD*%
%LPC*%
G36*
X890968Y701709D02*
X890968Y701709D01*
X890322Y701882D01*
X889743Y702216D01*
X889270Y702689D01*
X885864Y708588D01*
X894552Y713604D01*
X899061Y705795D01*
X892284Y701882D01*
X891637Y701709D01*
X890968Y701709D01*
G37*
%LPD*%
%LPC*%
G36*
X115468Y246109D02*
X115468Y246109D01*
X114822Y246282D01*
X114243Y246616D01*
X113770Y247089D01*
X110364Y252988D01*
X119052Y258004D01*
X123561Y250195D01*
X116784Y246282D01*
X116137Y246109D01*
X115468Y246109D01*
G37*
%LPD*%
%LPC*%
G36*
X276319Y99050D02*
X276319Y99050D01*
X275846Y99523D01*
X275512Y100102D01*
X275338Y100748D01*
X275338Y101417D01*
X275512Y102064D01*
X279425Y108841D01*
X287234Y104332D01*
X282218Y95644D01*
X276319Y99050D01*
G37*
%LPD*%
%LPC*%
G36*
X731560Y102762D02*
X731560Y102762D01*
X730913Y102935D01*
X730334Y103270D01*
X729861Y103743D01*
X725948Y110521D01*
X733757Y115029D01*
X738774Y106341D01*
X732875Y102935D01*
X732229Y102762D01*
X731560Y102762D01*
G37*
%LPD*%
%LPC*%
G36*
X105743Y735261D02*
X105743Y735261D01*
X105270Y735734D01*
X104935Y736313D01*
X104762Y736960D01*
X104762Y737629D01*
X104935Y738275D01*
X108341Y744174D01*
X117029Y739157D01*
X112521Y731348D01*
X105743Y735261D01*
G37*
%LPD*%
%LPC*%
G36*
X287560Y880362D02*
X287560Y880362D01*
X286913Y880535D01*
X286334Y880870D01*
X285861Y881343D01*
X281948Y888121D01*
X289757Y892629D01*
X294774Y883941D01*
X288875Y880535D01*
X288229Y880362D01*
X287560Y880362D01*
G37*
%LPD*%
%LPC*%
G36*
X881743Y279861D02*
X881743Y279861D01*
X881270Y280334D01*
X880935Y280913D01*
X880762Y281560D01*
X880762Y282229D01*
X880935Y282875D01*
X884341Y288774D01*
X893029Y283757D01*
X888521Y275948D01*
X881743Y279861D01*
G37*
%LPD*%
%LPC*%
G36*
X318444Y517303D02*
X318444Y517303D01*
X318444Y524114D01*
X318617Y524761D01*
X318952Y525340D01*
X319425Y525813D01*
X320004Y526148D01*
X320651Y526321D01*
X328477Y526321D01*
X328477Y517303D01*
X318444Y517303D01*
G37*
%LPD*%
%LPC*%
G36*
X938444Y487503D02*
X938444Y487503D01*
X938444Y494314D01*
X938617Y494961D01*
X938952Y495540D01*
X939425Y496013D01*
X940004Y496348D01*
X940651Y496521D01*
X948477Y496521D01*
X948477Y487503D01*
X938444Y487503D01*
G37*
%LPD*%
%LPC*%
G36*
X318444Y397303D02*
X318444Y397303D01*
X318444Y404114D01*
X318617Y404761D01*
X318952Y405340D01*
X319425Y405813D01*
X320004Y406148D01*
X320651Y406321D01*
X328477Y406321D01*
X328477Y397303D01*
X318444Y397303D01*
G37*
%LPD*%
%LPC*%
G36*
X658444Y517303D02*
X658444Y517303D01*
X658444Y524114D01*
X658617Y524761D01*
X658952Y525340D01*
X659425Y525813D01*
X660004Y526148D01*
X660651Y526321D01*
X668477Y526321D01*
X668477Y517303D01*
X658444Y517303D01*
G37*
%LPD*%
%LPC*%
G36*
X658444Y577303D02*
X658444Y577303D01*
X658444Y584114D01*
X658617Y584761D01*
X658952Y585340D01*
X659425Y585813D01*
X660004Y586148D01*
X660651Y586321D01*
X668477Y586321D01*
X668477Y577303D01*
X658444Y577303D01*
G37*
%LPD*%
%LPC*%
G36*
X37944Y516143D02*
X37944Y516143D01*
X37944Y522954D01*
X38117Y523601D01*
X38452Y524180D01*
X38925Y524653D01*
X39504Y524988D01*
X40151Y525161D01*
X47977Y525161D01*
X47977Y516143D01*
X37944Y516143D01*
G37*
%LPD*%
%LPC*%
G36*
X318444Y577303D02*
X318444Y577303D01*
X318444Y584114D01*
X318617Y584761D01*
X318952Y585340D01*
X319425Y585813D01*
X320004Y586148D01*
X320651Y586321D01*
X328477Y586321D01*
X328477Y577303D01*
X318444Y577303D01*
G37*
%LPD*%
%LPC*%
G36*
X515743Y39444D02*
X515743Y39444D01*
X515743Y49477D01*
X524761Y49477D01*
X524761Y41651D01*
X524588Y41004D01*
X524253Y40425D01*
X523780Y39952D01*
X523201Y39617D01*
X522554Y39444D01*
X515743Y39444D01*
G37*
%LPD*%
%LPC*%
G36*
X331523Y565239D02*
X331523Y565239D01*
X331523Y574257D01*
X341556Y574257D01*
X341556Y567446D01*
X341383Y566799D01*
X341048Y566220D01*
X340575Y565747D01*
X339996Y565412D01*
X339349Y565239D01*
X331523Y565239D01*
G37*
%LPD*%
%LPC*%
G36*
X951523Y475439D02*
X951523Y475439D01*
X951523Y484457D01*
X961556Y484457D01*
X961556Y477646D01*
X961383Y476999D01*
X961048Y476420D01*
X960575Y475947D01*
X959996Y475612D01*
X959349Y475439D01*
X951523Y475439D01*
G37*
%LPD*%
%LPC*%
G36*
X671523Y445239D02*
X671523Y445239D01*
X671523Y454257D01*
X681556Y454257D01*
X681556Y447446D01*
X681383Y446799D01*
X681048Y446220D01*
X680575Y445747D01*
X679996Y445412D01*
X679349Y445239D01*
X671523Y445239D01*
G37*
%LPD*%
%LPC*%
G36*
X671523Y385239D02*
X671523Y385239D01*
X671523Y394257D01*
X681556Y394257D01*
X681556Y387446D01*
X681383Y386799D01*
X681048Y386220D01*
X680575Y385747D01*
X679996Y385412D01*
X679349Y385239D01*
X671523Y385239D01*
G37*
%LPD*%
%LPC*%
G36*
X503679Y52523D02*
X503679Y52523D01*
X503679Y60349D01*
X503852Y60996D01*
X504187Y61575D01*
X504660Y62048D01*
X505239Y62383D01*
X505886Y62556D01*
X512697Y62556D01*
X512697Y52523D01*
X503679Y52523D01*
G37*
%LPD*%
%LPC*%
G36*
X51023Y504079D02*
X51023Y504079D01*
X51023Y513097D01*
X61056Y513097D01*
X61056Y506286D01*
X60883Y505639D01*
X60548Y505060D01*
X60075Y504587D01*
X59496Y504252D01*
X58849Y504079D01*
X51023Y504079D01*
G37*
%LPD*%
%LPC*%
G36*
X331523Y385239D02*
X331523Y385239D01*
X331523Y394257D01*
X341556Y394257D01*
X341556Y387446D01*
X341383Y386799D01*
X341048Y386220D01*
X340575Y385747D01*
X339996Y385412D01*
X339349Y385239D01*
X331523Y385239D01*
G37*
%LPD*%
%LPC*%
G36*
X320651Y565239D02*
X320651Y565239D01*
X320004Y565412D01*
X319425Y565747D01*
X318952Y566220D01*
X318617Y566799D01*
X318444Y567446D01*
X318444Y574257D01*
X328477Y574257D01*
X328477Y565239D01*
X320651Y565239D01*
G37*
%LPD*%
%LPC*%
G36*
X660651Y445239D02*
X660651Y445239D01*
X660004Y445412D01*
X659425Y445747D01*
X658952Y446220D01*
X658617Y446799D01*
X658444Y447446D01*
X658444Y454257D01*
X668477Y454257D01*
X668477Y445239D01*
X660651Y445239D01*
G37*
%LPD*%
%LPC*%
G36*
X40151Y504079D02*
X40151Y504079D01*
X39504Y504252D01*
X38925Y504587D01*
X38452Y505060D01*
X38117Y505639D01*
X37944Y506286D01*
X37944Y513097D01*
X47977Y513097D01*
X47977Y504079D01*
X40151Y504079D01*
G37*
%LPD*%
%LPC*%
G36*
X940651Y475439D02*
X940651Y475439D01*
X940004Y475612D01*
X939425Y475947D01*
X938952Y476420D01*
X938617Y476999D01*
X938444Y477646D01*
X938444Y484457D01*
X948477Y484457D01*
X948477Y475439D01*
X940651Y475439D01*
G37*
%LPD*%
%LPC*%
G36*
X660651Y385239D02*
X660651Y385239D01*
X660004Y385412D01*
X659425Y385747D01*
X658952Y386220D01*
X658617Y386799D01*
X658444Y387446D01*
X658444Y394257D01*
X668477Y394257D01*
X668477Y385239D01*
X660651Y385239D01*
G37*
%LPD*%
%LPC*%
G36*
X320651Y385239D02*
X320651Y385239D01*
X320004Y385412D01*
X319425Y385747D01*
X318952Y386220D01*
X318617Y386799D01*
X318444Y387446D01*
X318444Y394257D01*
X328477Y394257D01*
X328477Y385239D01*
X320651Y385239D01*
G37*
%LPD*%
%LPC*%
G36*
X505886Y39444D02*
X505886Y39444D01*
X505239Y39617D01*
X504660Y39952D01*
X504187Y40425D01*
X503852Y41004D01*
X503679Y41651D01*
X503679Y49477D01*
X512697Y49477D01*
X512697Y39444D01*
X505886Y39444D01*
G37*
%LPD*%
%LPC*%
G36*
X119999Y389999D02*
X119999Y389999D01*
X119999Y390001D01*
X120001Y390001D01*
X120001Y389999D01*
X119999Y389999D01*
G37*
%LPD*%
%LPC*%
G36*
X329999Y395779D02*
X329999Y395779D01*
X329999Y395781D01*
X330001Y395781D01*
X330001Y395779D01*
X329999Y395779D01*
G37*
%LPD*%
%LPC*%
G36*
X329999Y575779D02*
X329999Y575779D01*
X329999Y575781D01*
X330001Y575781D01*
X330001Y575779D01*
X329999Y575779D01*
G37*
%LPD*%
%LPC*%
G36*
X949999Y485979D02*
X949999Y485979D01*
X949999Y485981D01*
X950001Y485981D01*
X950001Y485979D01*
X949999Y485979D01*
G37*
%LPD*%
%LPC*%
G36*
X49499Y514619D02*
X49499Y514619D01*
X49499Y514621D01*
X49501Y514621D01*
X49501Y514619D01*
X49499Y514619D01*
G37*
%LPD*%
%LPC*%
G36*
X514219Y50999D02*
X514219Y50999D01*
X514219Y51001D01*
X514221Y51001D01*
X514221Y50999D01*
X514219Y50999D01*
G37*
%LPD*%
%LPC*%
G36*
X289314Y104890D02*
X289314Y104890D01*
X289315Y104891D01*
X289316Y104890D01*
X289315Y104889D01*
X289314Y104890D01*
G37*
%LPD*%
%LPC*%
G36*
X895109Y284315D02*
X895109Y284315D01*
X895110Y284316D01*
X895111Y284315D01*
X895110Y284314D01*
X895109Y284315D01*
G37*
%LPD*%
%LPC*%
G36*
X735314Y881890D02*
X735314Y881890D01*
X735315Y881891D01*
X735316Y881890D01*
X735315Y881889D01*
X735314Y881890D01*
G37*
%LPD*%
%LPC*%
G36*
X290314Y894710D02*
X290314Y894710D01*
X290315Y894711D01*
X290316Y894710D01*
X290315Y894709D01*
X290314Y894710D01*
G37*
%LPD*%
%LPC*%
G36*
X895109Y715685D02*
X895109Y715685D01*
X895110Y715686D01*
X895111Y715685D01*
X895110Y715684D01*
X895109Y715685D01*
G37*
%LPD*%
%LPC*%
G36*
X119109Y739715D02*
X119109Y739715D01*
X119110Y739716D01*
X119111Y739715D01*
X119110Y739714D01*
X119109Y739715D01*
G37*
%LPD*%
%LPC*%
G36*
X119609Y260085D02*
X119609Y260085D01*
X119610Y260086D01*
X119611Y260085D01*
X119610Y260084D01*
X119609Y260085D01*
G37*
%LPD*%
%LPC*%
G36*
X734314Y117110D02*
X734314Y117110D01*
X734315Y117111D01*
X734316Y117110D01*
X734315Y117109D01*
X734314Y117110D01*
G37*
%LPD*%
D10*
X300000Y607500D03*
X300000Y572500D03*
D11*
G36*
X730090Y921495D02*
X722590Y908505D01*
X709600Y916005D01*
X717100Y928995D01*
X730090Y921495D01*
G37*
G36*
X760400Y903995D02*
X752900Y891005D01*
X739910Y898505D01*
X747410Y911495D01*
X760400Y903995D01*
G37*
G36*
X911495Y752410D02*
X898505Y744910D01*
X891005Y757900D01*
X903995Y765400D01*
X911495Y752410D01*
G37*
G36*
X928995Y722100D02*
X916005Y714600D01*
X908505Y727590D01*
X921495Y735090D01*
X928995Y722100D01*
G37*
D10*
X975000Y517500D03*
X975000Y482500D03*
D11*
G36*
X898505Y255090D02*
X911495Y247590D01*
X903995Y234600D01*
X891005Y242100D01*
X898505Y255090D01*
G37*
G36*
X916005Y285400D02*
X928995Y277900D01*
X921495Y264910D01*
X908505Y272410D01*
X916005Y285400D01*
G37*
G36*
X722590Y91495D02*
X730090Y78505D01*
X717100Y71005D01*
X709600Y83995D01*
X722590Y91495D01*
G37*
G36*
X752900Y108995D02*
X760400Y96005D01*
X747410Y88505D01*
X739910Y101495D01*
X752900Y108995D01*
G37*
D10*
X482500Y25000D03*
X517500Y25000D03*
D11*
G36*
X260090Y101495D02*
X252590Y88505D01*
X239600Y96005D01*
X247100Y108995D01*
X260090Y101495D01*
G37*
G36*
X290400Y83995D02*
X282900Y71005D01*
X269910Y78505D01*
X277410Y91495D01*
X290400Y83995D01*
G37*
G36*
X91495Y272410D02*
X78505Y264910D01*
X71005Y277900D01*
X83995Y285400D01*
X91495Y272410D01*
G37*
G36*
X108995Y242100D02*
X96005Y234600D01*
X88505Y247590D01*
X101495Y255090D01*
X108995Y242100D01*
G37*
D10*
X25000Y482500D03*
X25000Y517500D03*
X300000Y547500D03*
X300000Y512500D03*
D11*
G36*
X78505Y735090D02*
X91495Y727590D01*
X83995Y714600D01*
X71005Y722100D01*
X78505Y735090D01*
G37*
G36*
X96005Y765400D02*
X108995Y757900D01*
X101495Y744910D01*
X88505Y752410D01*
X96005Y765400D01*
G37*
G36*
X252590Y911495D02*
X260090Y898505D01*
X247100Y891005D01*
X239600Y903995D01*
X252590Y911495D01*
G37*
G36*
X282900Y928995D02*
X290400Y916005D01*
X277410Y908505D01*
X269910Y921495D01*
X282900Y928995D01*
G37*
D10*
X300000Y487500D03*
X300000Y452500D03*
X300000Y427500D03*
X300000Y392500D03*
X700000Y607500D03*
X700000Y572500D03*
X700000Y547500D03*
X700000Y512500D03*
X700000Y487500D03*
X700000Y452500D03*
X700000Y427500D03*
X700000Y392500D03*
D12*
X330000Y604220D03*
X330000Y575780D03*
D13*
G36*
X301750Y890903D02*
X287895Y882903D01*
X278880Y898517D01*
X292735Y906517D01*
X301750Y890903D01*
G37*
G36*
X277120Y876683D02*
X263265Y868683D01*
X254250Y884297D01*
X268105Y892297D01*
X277120Y876683D01*
G37*
D12*
X950000Y485980D03*
X950000Y514420D03*
D13*
G36*
X291735Y93083D02*
X277880Y101083D01*
X286895Y116697D01*
X300750Y108697D01*
X291735Y93083D01*
G37*
G36*
X267105Y107303D02*
X253250Y115303D01*
X262265Y130917D01*
X276120Y122917D01*
X267105Y107303D01*
G37*
G36*
X906917Y286735D02*
X898917Y272880D01*
X883303Y281895D01*
X891303Y295750D01*
X906917Y286735D01*
G37*
G36*
X892697Y262105D02*
X884697Y248250D01*
X869083Y257265D01*
X877083Y271120D01*
X892697Y262105D01*
G37*
G36*
X745750Y113303D02*
X731895Y105303D01*
X722880Y120917D01*
X736735Y128917D01*
X745750Y113303D01*
G37*
G36*
X721120Y99083D02*
X707265Y91083D01*
X698250Y106697D01*
X712105Y114697D01*
X721120Y99083D01*
G37*
X514220Y51000D03*
X485780Y51000D03*
D12*
X670000Y455780D03*
X670000Y484220D03*
X670000Y575780D03*
X670000Y604220D03*
X330000Y455780D03*
X330000Y484220D03*
D13*
G36*
X737735Y870083D02*
X723880Y878083D01*
X732895Y893697D01*
X746750Y885697D01*
X737735Y870083D01*
G37*
G36*
X713105Y884303D02*
X699250Y892303D01*
X708265Y907917D01*
X722120Y899917D01*
X713105Y884303D01*
G37*
G36*
X109197Y296150D02*
X117197Y282295D01*
X101583Y273280D01*
X93583Y287135D01*
X109197Y296150D01*
G37*
G36*
X123417Y271520D02*
X131417Y257665D01*
X115803Y248650D01*
X107803Y262505D01*
X123417Y271520D01*
G37*
G36*
X891303Y704250D02*
X883303Y718105D01*
X898917Y727120D01*
X906917Y713265D01*
X891303Y704250D01*
G37*
G36*
X877083Y728880D02*
X869083Y742735D01*
X884697Y751750D01*
X892697Y737895D01*
X877083Y728880D01*
G37*
D12*
X49500Y486180D03*
X49500Y514620D03*
D13*
G36*
X93083Y712665D02*
X101083Y726520D01*
X116697Y717505D01*
X108697Y703650D01*
X93083Y712665D01*
G37*
G36*
X107303Y737295D02*
X115303Y751150D01*
X130917Y742135D01*
X122917Y728280D01*
X107303Y737295D01*
G37*
D12*
X670000Y544220D03*
X670000Y515780D03*
X330000Y424220D03*
X330000Y395780D03*
X330000Y544220D03*
X330000Y515780D03*
X670000Y395780D03*
X670000Y424220D03*
D14*
X120000Y390000D03*
X880000Y390000D03*
D15*
X652000Y576000D03*
X652000Y516000D03*
X652000Y456000D03*
X652000Y396000D03*
X348000Y397000D03*
X347000Y456000D03*
X348000Y516000D03*
X347000Y576000D03*
D16*
X250000Y336095D02*
X148750Y234845D01*
X108750Y234845D02*
X98750Y244845D01*
X108750Y234845D02*
X148750Y234845D01*
X250000Y730000D02*
X260000Y740000D01*
D15*
X260000Y740000D03*
D16*
X250000Y730000D02*
X250000Y336095D01*
X682500Y410000D02*
X700000Y392500D01*
X682500Y410000D02*
X650000Y410000D01*
X600000Y460000D02*
X390000Y460000D01*
D15*
X390000Y460000D03*
D16*
X600000Y460000D02*
X650000Y410000D01*
X311250Y918750D02*
X280155Y918750D01*
X311250Y918750D02*
X410000Y820000D01*
X410000Y670000D01*
D15*
X410000Y670000D03*
X970000Y440000D03*
D16*
X970000Y477500D01*
X975000Y482500D01*
D15*
X490000Y420000D03*
D16*
X306841Y81250D02*
X280155Y81250D01*
X306841Y81250D02*
X490000Y264409D01*
X490000Y420000D01*
D15*
X520000Y470000D03*
D16*
X918750Y301841D02*
X918750Y275155D01*
X918750Y301841D02*
X750591Y470000D01*
X520000Y470000D01*
X540000Y430000D02*
X760657Y209343D01*
D15*
X540000Y430000D03*
D16*
X760657Y109252D02*
X750155Y98750D01*
X760657Y109252D02*
X760657Y209343D01*
X540000Y37500D02*
X527500Y25000D01*
X517500Y25000D01*
X540000Y37500D02*
X540000Y410000D01*
D15*
X540000Y410000D03*
D16*
X700000Y452500D02*
X712500Y452500D01*
X720000Y460000D01*
D15*
X720000Y460000D03*
D16*
X687500Y560000D02*
X700000Y572500D01*
X687500Y560000D02*
X630000Y560000D01*
X613600Y576400D01*
X613600Y580000D01*
D15*
X613600Y580000D03*
D16*
X312500Y440000D02*
X300000Y452500D01*
X312500Y440000D02*
X600000Y440000D01*
D15*
X600000Y440000D03*
X664000Y637000D03*
D16*
X760155Y891250D02*
X750155Y901250D01*
X760155Y891250D02*
X760155Y733155D01*
X664000Y637000D01*
D15*
X690000Y640000D03*
D16*
X918750Y724845D02*
X927093Y716502D01*
X927093Y706502D01*
X860591Y640000D01*
X690000Y640000D01*
X300000Y572500D02*
X280000Y592500D01*
X280000Y780000D01*
X300000Y800000D01*
X309000Y800000D01*
D15*
X309000Y800000D03*
X30000Y550000D03*
D16*
X25000Y545000D01*
X25000Y517500D01*
X109652Y766057D02*
X236057Y766057D01*
X109652Y766057D02*
X98750Y755155D01*
X236057Y766057D02*
X280000Y810000D01*
X380000Y810000D01*
D15*
X380000Y810000D03*
X460000Y680000D03*
D16*
X687500Y500000D02*
X700000Y512500D01*
X687500Y500000D02*
X630000Y500000D01*
X460000Y670000D01*
X460000Y680000D01*
X280000Y412500D02*
X300000Y392500D01*
X280000Y453966D02*
X296034Y470000D01*
X350000Y470000D01*
X450000Y570000D01*
X450000Y690000D01*
X486000Y726000D02*
X486000Y734000D01*
D15*
X486000Y734000D03*
D16*
X280000Y453966D02*
X280000Y412500D01*
X450000Y690000D02*
X486000Y726000D01*
X300000Y512500D02*
X312500Y500000D01*
X440000Y580000D02*
X440000Y720000D01*
X470000Y750000D01*
X500000Y750000D01*
X512000Y762000D01*
X512000Y765000D01*
D15*
X512000Y765000D03*
D16*
X360000Y500000D02*
X312500Y500000D01*
X360000Y500000D02*
X440000Y580000D01*
X330000Y607500D02*
X300000Y607500D01*
X330000Y607500D02*
X330000Y604220D01*
X105390Y284715D02*
X81250Y275155D01*
X49500Y486180D02*
X25000Y482500D01*
X104890Y715085D02*
X81250Y724845D01*
X300000Y427500D02*
X330000Y427500D01*
X330000Y424220D01*
X330000Y547500D02*
X300000Y547500D01*
X330000Y547500D02*
X330000Y544220D01*
X700000Y544220D02*
X700000Y547500D01*
X700000Y544220D02*
X670000Y544220D01*
X670000Y424220D02*
X700000Y424220D01*
X700000Y427500D01*
X265685Y880490D02*
X249845Y901250D01*
X950000Y514420D02*
X975000Y517500D01*
X264685Y119110D02*
X249845Y98750D01*
X880890Y259685D02*
X901250Y244845D01*
X709685Y102890D02*
X719845Y81250D01*
X485780Y51000D02*
X482500Y25000D01*
X700000Y604220D02*
X700000Y607500D01*
X700000Y604220D02*
X670000Y604220D01*
X700000Y487500D02*
X700000Y484220D01*
X670000Y484220D01*
X330000Y487500D02*
X300000Y487500D01*
X330000Y487500D02*
X330000Y484220D01*
X710685Y896110D02*
X719845Y918750D01*
X880890Y740315D02*
X901250Y755155D01*
M02*
