G04 EAGLE Gerber RS-274X export*
G75*
%MOMM*%
%FSLAX34Y34*%
%LPD*%
%INSoldermask Bottom*%
%IPPOS*%
%AMOC8*
5,1,8,0,0,1.08239X$1,22.5*%
G01*
%ADD10C,3.503200*%
%ADD11C,3.703200*%
%ADD12R,5.283200X2.743200*%
%ADD13C,0.403653*%


D10*
X200000Y140000D03*
X800000Y140000D03*
D11*
X120000Y390000D03*
X880000Y390000D03*
D12*
X880000Y660000D03*
X880000Y610000D03*
D13*
X279302Y822502D02*
X279302Y841498D01*
X287498Y841498D01*
X287498Y822502D01*
X279302Y822502D01*
X279302Y826337D02*
X287498Y826337D01*
X287498Y830172D02*
X279302Y830172D01*
X279302Y834007D02*
X287498Y834007D01*
X287498Y837842D02*
X279302Y837842D01*
X304702Y841498D02*
X304702Y822502D01*
X304702Y841498D02*
X312898Y841498D01*
X312898Y822502D01*
X304702Y822502D01*
X304702Y826337D02*
X312898Y826337D01*
X312898Y830172D02*
X304702Y830172D01*
X304702Y834007D02*
X312898Y834007D01*
X312898Y837842D02*
X304702Y837842D01*
X330102Y841498D02*
X330102Y822502D01*
X330102Y841498D02*
X338298Y841498D01*
X338298Y822502D01*
X330102Y822502D01*
X330102Y826337D02*
X338298Y826337D01*
X338298Y830172D02*
X330102Y830172D01*
X330102Y834007D02*
X338298Y834007D01*
X338298Y837842D02*
X330102Y837842D01*
X355502Y841498D02*
X355502Y822502D01*
X355502Y841498D02*
X363698Y841498D01*
X363698Y822502D01*
X355502Y822502D01*
X355502Y826337D02*
X363698Y826337D01*
X363698Y830172D02*
X355502Y830172D01*
X355502Y834007D02*
X363698Y834007D01*
X363698Y837842D02*
X355502Y837842D01*
X380902Y841498D02*
X380902Y822502D01*
X380902Y841498D02*
X389098Y841498D01*
X389098Y822502D01*
X380902Y822502D01*
X380902Y826337D02*
X389098Y826337D01*
X389098Y830172D02*
X380902Y830172D01*
X380902Y834007D02*
X389098Y834007D01*
X389098Y837842D02*
X380902Y837842D01*
X406302Y841498D02*
X406302Y822502D01*
X406302Y841498D02*
X414498Y841498D01*
X414498Y822502D01*
X406302Y822502D01*
X406302Y826337D02*
X414498Y826337D01*
X414498Y830172D02*
X406302Y830172D01*
X406302Y834007D02*
X414498Y834007D01*
X414498Y837842D02*
X406302Y837842D01*
X431702Y841498D02*
X431702Y822502D01*
X431702Y841498D02*
X439898Y841498D01*
X439898Y822502D01*
X431702Y822502D01*
X431702Y826337D02*
X439898Y826337D01*
X439898Y830172D02*
X431702Y830172D01*
X431702Y834007D02*
X439898Y834007D01*
X439898Y837842D02*
X431702Y837842D01*
X457102Y841498D02*
X457102Y822502D01*
X457102Y841498D02*
X465298Y841498D01*
X465298Y822502D01*
X457102Y822502D01*
X457102Y826337D02*
X465298Y826337D01*
X465298Y830172D02*
X457102Y830172D01*
X457102Y834007D02*
X465298Y834007D01*
X465298Y837842D02*
X457102Y837842D01*
X482502Y841498D02*
X482502Y822502D01*
X482502Y841498D02*
X490698Y841498D01*
X490698Y822502D01*
X482502Y822502D01*
X482502Y826337D02*
X490698Y826337D01*
X490698Y830172D02*
X482502Y830172D01*
X482502Y834007D02*
X490698Y834007D01*
X490698Y837842D02*
X482502Y837842D01*
X507902Y841498D02*
X507902Y822502D01*
X507902Y841498D02*
X516098Y841498D01*
X516098Y822502D01*
X507902Y822502D01*
X507902Y826337D02*
X516098Y826337D01*
X516098Y830172D02*
X507902Y830172D01*
X507902Y834007D02*
X516098Y834007D01*
X516098Y837842D02*
X507902Y837842D01*
X533302Y841498D02*
X533302Y822502D01*
X533302Y841498D02*
X541498Y841498D01*
X541498Y822502D01*
X533302Y822502D01*
X533302Y826337D02*
X541498Y826337D01*
X541498Y830172D02*
X533302Y830172D01*
X533302Y834007D02*
X541498Y834007D01*
X541498Y837842D02*
X533302Y837842D01*
X558702Y841498D02*
X558702Y822502D01*
X558702Y841498D02*
X566898Y841498D01*
X566898Y822502D01*
X558702Y822502D01*
X558702Y826337D02*
X566898Y826337D01*
X566898Y830172D02*
X558702Y830172D01*
X558702Y834007D02*
X566898Y834007D01*
X566898Y837842D02*
X558702Y837842D01*
X584102Y841498D02*
X584102Y822502D01*
X584102Y841498D02*
X592298Y841498D01*
X592298Y822502D01*
X584102Y822502D01*
X584102Y826337D02*
X592298Y826337D01*
X592298Y830172D02*
X584102Y830172D01*
X584102Y834007D02*
X592298Y834007D01*
X592298Y837842D02*
X584102Y837842D01*
X609502Y841498D02*
X609502Y822502D01*
X609502Y841498D02*
X617698Y841498D01*
X617698Y822502D01*
X609502Y822502D01*
X609502Y826337D02*
X617698Y826337D01*
X617698Y830172D02*
X609502Y830172D01*
X609502Y834007D02*
X617698Y834007D01*
X617698Y837842D02*
X609502Y837842D01*
X634902Y841498D02*
X634902Y822502D01*
X634902Y841498D02*
X643098Y841498D01*
X643098Y822502D01*
X634902Y822502D01*
X634902Y826337D02*
X643098Y826337D01*
X643098Y830172D02*
X634902Y830172D01*
X634902Y834007D02*
X643098Y834007D01*
X643098Y837842D02*
X634902Y837842D01*
X660302Y841498D02*
X660302Y822502D01*
X660302Y841498D02*
X668498Y841498D01*
X668498Y822502D01*
X660302Y822502D01*
X660302Y826337D02*
X668498Y826337D01*
X668498Y830172D02*
X660302Y830172D01*
X660302Y834007D02*
X668498Y834007D01*
X668498Y837842D02*
X660302Y837842D01*
X685702Y841498D02*
X685702Y822502D01*
X685702Y841498D02*
X693898Y841498D01*
X693898Y822502D01*
X685702Y822502D01*
X685702Y826337D02*
X693898Y826337D01*
X693898Y830172D02*
X685702Y830172D01*
X685702Y834007D02*
X693898Y834007D01*
X693898Y837842D02*
X685702Y837842D01*
X711102Y841498D02*
X711102Y822502D01*
X711102Y841498D02*
X719298Y841498D01*
X719298Y822502D01*
X711102Y822502D01*
X711102Y826337D02*
X719298Y826337D01*
X719298Y830172D02*
X711102Y830172D01*
X711102Y834007D02*
X719298Y834007D01*
X719298Y837842D02*
X711102Y837842D01*
X736502Y841498D02*
X736502Y822502D01*
X736502Y841498D02*
X744698Y841498D01*
X744698Y822502D01*
X736502Y822502D01*
X736502Y826337D02*
X744698Y826337D01*
X744698Y830172D02*
X736502Y830172D01*
X736502Y834007D02*
X744698Y834007D01*
X744698Y837842D02*
X736502Y837842D01*
X761902Y841498D02*
X761902Y822502D01*
X761902Y841498D02*
X770098Y841498D01*
X770098Y822502D01*
X761902Y822502D01*
X761902Y826337D02*
X770098Y826337D01*
X770098Y830172D02*
X761902Y830172D01*
X761902Y834007D02*
X770098Y834007D01*
X770098Y837842D02*
X761902Y837842D01*
X279302Y885502D02*
X279302Y904498D01*
X287498Y904498D01*
X287498Y885502D01*
X279302Y885502D01*
X279302Y889337D02*
X287498Y889337D01*
X287498Y893172D02*
X279302Y893172D01*
X279302Y897007D02*
X287498Y897007D01*
X287498Y900842D02*
X279302Y900842D01*
X304702Y904498D02*
X304702Y885502D01*
X304702Y904498D02*
X312898Y904498D01*
X312898Y885502D01*
X304702Y885502D01*
X304702Y889337D02*
X312898Y889337D01*
X312898Y893172D02*
X304702Y893172D01*
X304702Y897007D02*
X312898Y897007D01*
X312898Y900842D02*
X304702Y900842D01*
X330102Y904498D02*
X330102Y885502D01*
X330102Y904498D02*
X338298Y904498D01*
X338298Y885502D01*
X330102Y885502D01*
X330102Y889337D02*
X338298Y889337D01*
X338298Y893172D02*
X330102Y893172D01*
X330102Y897007D02*
X338298Y897007D01*
X338298Y900842D02*
X330102Y900842D01*
X355502Y904498D02*
X355502Y885502D01*
X355502Y904498D02*
X363698Y904498D01*
X363698Y885502D01*
X355502Y885502D01*
X355502Y889337D02*
X363698Y889337D01*
X363698Y893172D02*
X355502Y893172D01*
X355502Y897007D02*
X363698Y897007D01*
X363698Y900842D02*
X355502Y900842D01*
X380902Y904498D02*
X380902Y885502D01*
X380902Y904498D02*
X389098Y904498D01*
X389098Y885502D01*
X380902Y885502D01*
X380902Y889337D02*
X389098Y889337D01*
X389098Y893172D02*
X380902Y893172D01*
X380902Y897007D02*
X389098Y897007D01*
X389098Y900842D02*
X380902Y900842D01*
X406302Y904498D02*
X406302Y885502D01*
X406302Y904498D02*
X414498Y904498D01*
X414498Y885502D01*
X406302Y885502D01*
X406302Y889337D02*
X414498Y889337D01*
X414498Y893172D02*
X406302Y893172D01*
X406302Y897007D02*
X414498Y897007D01*
X414498Y900842D02*
X406302Y900842D01*
X431702Y904498D02*
X431702Y885502D01*
X431702Y904498D02*
X439898Y904498D01*
X439898Y885502D01*
X431702Y885502D01*
X431702Y889337D02*
X439898Y889337D01*
X439898Y893172D02*
X431702Y893172D01*
X431702Y897007D02*
X439898Y897007D01*
X439898Y900842D02*
X431702Y900842D01*
X457102Y904498D02*
X457102Y885502D01*
X457102Y904498D02*
X465298Y904498D01*
X465298Y885502D01*
X457102Y885502D01*
X457102Y889337D02*
X465298Y889337D01*
X465298Y893172D02*
X457102Y893172D01*
X457102Y897007D02*
X465298Y897007D01*
X465298Y900842D02*
X457102Y900842D01*
X482502Y904498D02*
X482502Y885502D01*
X482502Y904498D02*
X490698Y904498D01*
X490698Y885502D01*
X482502Y885502D01*
X482502Y889337D02*
X490698Y889337D01*
X490698Y893172D02*
X482502Y893172D01*
X482502Y897007D02*
X490698Y897007D01*
X490698Y900842D02*
X482502Y900842D01*
X507902Y904498D02*
X507902Y885502D01*
X507902Y904498D02*
X516098Y904498D01*
X516098Y885502D01*
X507902Y885502D01*
X507902Y889337D02*
X516098Y889337D01*
X516098Y893172D02*
X507902Y893172D01*
X507902Y897007D02*
X516098Y897007D01*
X516098Y900842D02*
X507902Y900842D01*
X533302Y904498D02*
X533302Y885502D01*
X533302Y904498D02*
X541498Y904498D01*
X541498Y885502D01*
X533302Y885502D01*
X533302Y889337D02*
X541498Y889337D01*
X541498Y893172D02*
X533302Y893172D01*
X533302Y897007D02*
X541498Y897007D01*
X541498Y900842D02*
X533302Y900842D01*
X558702Y904498D02*
X558702Y885502D01*
X558702Y904498D02*
X566898Y904498D01*
X566898Y885502D01*
X558702Y885502D01*
X558702Y889337D02*
X566898Y889337D01*
X566898Y893172D02*
X558702Y893172D01*
X558702Y897007D02*
X566898Y897007D01*
X566898Y900842D02*
X558702Y900842D01*
X584102Y904498D02*
X584102Y885502D01*
X584102Y904498D02*
X592298Y904498D01*
X592298Y885502D01*
X584102Y885502D01*
X584102Y889337D02*
X592298Y889337D01*
X592298Y893172D02*
X584102Y893172D01*
X584102Y897007D02*
X592298Y897007D01*
X592298Y900842D02*
X584102Y900842D01*
X609502Y904498D02*
X609502Y885502D01*
X609502Y904498D02*
X617698Y904498D01*
X617698Y885502D01*
X609502Y885502D01*
X609502Y889337D02*
X617698Y889337D01*
X617698Y893172D02*
X609502Y893172D01*
X609502Y897007D02*
X617698Y897007D01*
X617698Y900842D02*
X609502Y900842D01*
X634902Y904498D02*
X634902Y885502D01*
X634902Y904498D02*
X643098Y904498D01*
X643098Y885502D01*
X634902Y885502D01*
X634902Y889337D02*
X643098Y889337D01*
X643098Y893172D02*
X634902Y893172D01*
X634902Y897007D02*
X643098Y897007D01*
X643098Y900842D02*
X634902Y900842D01*
X660302Y904498D02*
X660302Y885502D01*
X660302Y904498D02*
X668498Y904498D01*
X668498Y885502D01*
X660302Y885502D01*
X660302Y889337D02*
X668498Y889337D01*
X668498Y893172D02*
X660302Y893172D01*
X660302Y897007D02*
X668498Y897007D01*
X668498Y900842D02*
X660302Y900842D01*
X685702Y904498D02*
X685702Y885502D01*
X685702Y904498D02*
X693898Y904498D01*
X693898Y885502D01*
X685702Y885502D01*
X685702Y889337D02*
X693898Y889337D01*
X693898Y893172D02*
X685702Y893172D01*
X685702Y897007D02*
X693898Y897007D01*
X693898Y900842D02*
X685702Y900842D01*
X711102Y904498D02*
X711102Y885502D01*
X711102Y904498D02*
X719298Y904498D01*
X719298Y885502D01*
X711102Y885502D01*
X711102Y889337D02*
X719298Y889337D01*
X719298Y893172D02*
X711102Y893172D01*
X711102Y897007D02*
X719298Y897007D01*
X719298Y900842D02*
X711102Y900842D01*
X736502Y904498D02*
X736502Y885502D01*
X736502Y904498D02*
X744698Y904498D01*
X744698Y885502D01*
X736502Y885502D01*
X736502Y889337D02*
X744698Y889337D01*
X744698Y893172D02*
X736502Y893172D01*
X736502Y897007D02*
X744698Y897007D01*
X744698Y900842D02*
X736502Y900842D01*
X761902Y904498D02*
X761902Y885502D01*
X761902Y904498D02*
X770098Y904498D01*
X770098Y885502D01*
X761902Y885502D01*
X761902Y889337D02*
X770098Y889337D01*
X770098Y893172D02*
X761902Y893172D01*
X761902Y897007D02*
X770098Y897007D01*
X770098Y900842D02*
X761902Y900842D01*
X279302Y561498D02*
X279302Y542502D01*
X279302Y561498D02*
X287498Y561498D01*
X287498Y542502D01*
X279302Y542502D01*
X279302Y546337D02*
X287498Y546337D01*
X287498Y550172D02*
X279302Y550172D01*
X279302Y554007D02*
X287498Y554007D01*
X287498Y557842D02*
X279302Y557842D01*
X304702Y561498D02*
X304702Y542502D01*
X304702Y561498D02*
X312898Y561498D01*
X312898Y542502D01*
X304702Y542502D01*
X304702Y546337D02*
X312898Y546337D01*
X312898Y550172D02*
X304702Y550172D01*
X304702Y554007D02*
X312898Y554007D01*
X312898Y557842D02*
X304702Y557842D01*
X330102Y561498D02*
X330102Y542502D01*
X330102Y561498D02*
X338298Y561498D01*
X338298Y542502D01*
X330102Y542502D01*
X330102Y546337D02*
X338298Y546337D01*
X338298Y550172D02*
X330102Y550172D01*
X330102Y554007D02*
X338298Y554007D01*
X338298Y557842D02*
X330102Y557842D01*
X355502Y561498D02*
X355502Y542502D01*
X355502Y561498D02*
X363698Y561498D01*
X363698Y542502D01*
X355502Y542502D01*
X355502Y546337D02*
X363698Y546337D01*
X363698Y550172D02*
X355502Y550172D01*
X355502Y554007D02*
X363698Y554007D01*
X363698Y557842D02*
X355502Y557842D01*
X380902Y561498D02*
X380902Y542502D01*
X380902Y561498D02*
X389098Y561498D01*
X389098Y542502D01*
X380902Y542502D01*
X380902Y546337D02*
X389098Y546337D01*
X389098Y550172D02*
X380902Y550172D01*
X380902Y554007D02*
X389098Y554007D01*
X389098Y557842D02*
X380902Y557842D01*
X406302Y561498D02*
X406302Y542502D01*
X406302Y561498D02*
X414498Y561498D01*
X414498Y542502D01*
X406302Y542502D01*
X406302Y546337D02*
X414498Y546337D01*
X414498Y550172D02*
X406302Y550172D01*
X406302Y554007D02*
X414498Y554007D01*
X414498Y557842D02*
X406302Y557842D01*
X431702Y561498D02*
X431702Y542502D01*
X431702Y561498D02*
X439898Y561498D01*
X439898Y542502D01*
X431702Y542502D01*
X431702Y546337D02*
X439898Y546337D01*
X439898Y550172D02*
X431702Y550172D01*
X431702Y554007D02*
X439898Y554007D01*
X439898Y557842D02*
X431702Y557842D01*
X457102Y561498D02*
X457102Y542502D01*
X457102Y561498D02*
X465298Y561498D01*
X465298Y542502D01*
X457102Y542502D01*
X457102Y546337D02*
X465298Y546337D01*
X465298Y550172D02*
X457102Y550172D01*
X457102Y554007D02*
X465298Y554007D01*
X465298Y557842D02*
X457102Y557842D01*
X482502Y561498D02*
X482502Y542502D01*
X482502Y561498D02*
X490698Y561498D01*
X490698Y542502D01*
X482502Y542502D01*
X482502Y546337D02*
X490698Y546337D01*
X490698Y550172D02*
X482502Y550172D01*
X482502Y554007D02*
X490698Y554007D01*
X490698Y557842D02*
X482502Y557842D01*
X507902Y561498D02*
X507902Y542502D01*
X507902Y561498D02*
X516098Y561498D01*
X516098Y542502D01*
X507902Y542502D01*
X507902Y546337D02*
X516098Y546337D01*
X516098Y550172D02*
X507902Y550172D01*
X507902Y554007D02*
X516098Y554007D01*
X516098Y557842D02*
X507902Y557842D01*
X533302Y561498D02*
X533302Y542502D01*
X533302Y561498D02*
X541498Y561498D01*
X541498Y542502D01*
X533302Y542502D01*
X533302Y546337D02*
X541498Y546337D01*
X541498Y550172D02*
X533302Y550172D01*
X533302Y554007D02*
X541498Y554007D01*
X541498Y557842D02*
X533302Y557842D01*
X558702Y561498D02*
X558702Y542502D01*
X558702Y561498D02*
X566898Y561498D01*
X566898Y542502D01*
X558702Y542502D01*
X558702Y546337D02*
X566898Y546337D01*
X566898Y550172D02*
X558702Y550172D01*
X558702Y554007D02*
X566898Y554007D01*
X566898Y557842D02*
X558702Y557842D01*
X584102Y561498D02*
X584102Y542502D01*
X584102Y561498D02*
X592298Y561498D01*
X592298Y542502D01*
X584102Y542502D01*
X584102Y546337D02*
X592298Y546337D01*
X592298Y550172D02*
X584102Y550172D01*
X584102Y554007D02*
X592298Y554007D01*
X592298Y557842D02*
X584102Y557842D01*
X609502Y561498D02*
X609502Y542502D01*
X609502Y561498D02*
X617698Y561498D01*
X617698Y542502D01*
X609502Y542502D01*
X609502Y546337D02*
X617698Y546337D01*
X617698Y550172D02*
X609502Y550172D01*
X609502Y554007D02*
X617698Y554007D01*
X617698Y557842D02*
X609502Y557842D01*
X634902Y561498D02*
X634902Y542502D01*
X634902Y561498D02*
X643098Y561498D01*
X643098Y542502D01*
X634902Y542502D01*
X634902Y546337D02*
X643098Y546337D01*
X643098Y550172D02*
X634902Y550172D01*
X634902Y554007D02*
X643098Y554007D01*
X643098Y557842D02*
X634902Y557842D01*
X660302Y561498D02*
X660302Y542502D01*
X660302Y561498D02*
X668498Y561498D01*
X668498Y542502D01*
X660302Y542502D01*
X660302Y546337D02*
X668498Y546337D01*
X668498Y550172D02*
X660302Y550172D01*
X660302Y554007D02*
X668498Y554007D01*
X668498Y557842D02*
X660302Y557842D01*
X685702Y561498D02*
X685702Y542502D01*
X685702Y561498D02*
X693898Y561498D01*
X693898Y542502D01*
X685702Y542502D01*
X685702Y546337D02*
X693898Y546337D01*
X693898Y550172D02*
X685702Y550172D01*
X685702Y554007D02*
X693898Y554007D01*
X693898Y557842D02*
X685702Y557842D01*
X711102Y561498D02*
X711102Y542502D01*
X711102Y561498D02*
X719298Y561498D01*
X719298Y542502D01*
X711102Y542502D01*
X711102Y546337D02*
X719298Y546337D01*
X719298Y550172D02*
X711102Y550172D01*
X711102Y554007D02*
X719298Y554007D01*
X719298Y557842D02*
X711102Y557842D01*
X736502Y561498D02*
X736502Y542502D01*
X736502Y561498D02*
X744698Y561498D01*
X744698Y542502D01*
X736502Y542502D01*
X736502Y546337D02*
X744698Y546337D01*
X744698Y550172D02*
X736502Y550172D01*
X736502Y554007D02*
X744698Y554007D01*
X744698Y557842D02*
X736502Y557842D01*
X761902Y561498D02*
X761902Y542502D01*
X761902Y561498D02*
X770098Y561498D01*
X770098Y542502D01*
X761902Y542502D01*
X761902Y546337D02*
X770098Y546337D01*
X770098Y550172D02*
X761902Y550172D01*
X761902Y554007D02*
X770098Y554007D01*
X770098Y557842D02*
X761902Y557842D01*
X279302Y605502D02*
X279302Y624498D01*
X287498Y624498D01*
X287498Y605502D01*
X279302Y605502D01*
X279302Y609337D02*
X287498Y609337D01*
X287498Y613172D02*
X279302Y613172D01*
X279302Y617007D02*
X287498Y617007D01*
X287498Y620842D02*
X279302Y620842D01*
X304702Y624498D02*
X304702Y605502D01*
X304702Y624498D02*
X312898Y624498D01*
X312898Y605502D01*
X304702Y605502D01*
X304702Y609337D02*
X312898Y609337D01*
X312898Y613172D02*
X304702Y613172D01*
X304702Y617007D02*
X312898Y617007D01*
X312898Y620842D02*
X304702Y620842D01*
X330102Y624498D02*
X330102Y605502D01*
X330102Y624498D02*
X338298Y624498D01*
X338298Y605502D01*
X330102Y605502D01*
X330102Y609337D02*
X338298Y609337D01*
X338298Y613172D02*
X330102Y613172D01*
X330102Y617007D02*
X338298Y617007D01*
X338298Y620842D02*
X330102Y620842D01*
X355502Y624498D02*
X355502Y605502D01*
X355502Y624498D02*
X363698Y624498D01*
X363698Y605502D01*
X355502Y605502D01*
X355502Y609337D02*
X363698Y609337D01*
X363698Y613172D02*
X355502Y613172D01*
X355502Y617007D02*
X363698Y617007D01*
X363698Y620842D02*
X355502Y620842D01*
X380902Y624498D02*
X380902Y605502D01*
X380902Y624498D02*
X389098Y624498D01*
X389098Y605502D01*
X380902Y605502D01*
X380902Y609337D02*
X389098Y609337D01*
X389098Y613172D02*
X380902Y613172D01*
X380902Y617007D02*
X389098Y617007D01*
X389098Y620842D02*
X380902Y620842D01*
X406302Y624498D02*
X406302Y605502D01*
X406302Y624498D02*
X414498Y624498D01*
X414498Y605502D01*
X406302Y605502D01*
X406302Y609337D02*
X414498Y609337D01*
X414498Y613172D02*
X406302Y613172D01*
X406302Y617007D02*
X414498Y617007D01*
X414498Y620842D02*
X406302Y620842D01*
X431702Y624498D02*
X431702Y605502D01*
X431702Y624498D02*
X439898Y624498D01*
X439898Y605502D01*
X431702Y605502D01*
X431702Y609337D02*
X439898Y609337D01*
X439898Y613172D02*
X431702Y613172D01*
X431702Y617007D02*
X439898Y617007D01*
X439898Y620842D02*
X431702Y620842D01*
X457102Y624498D02*
X457102Y605502D01*
X457102Y624498D02*
X465298Y624498D01*
X465298Y605502D01*
X457102Y605502D01*
X457102Y609337D02*
X465298Y609337D01*
X465298Y613172D02*
X457102Y613172D01*
X457102Y617007D02*
X465298Y617007D01*
X465298Y620842D02*
X457102Y620842D01*
X482502Y624498D02*
X482502Y605502D01*
X482502Y624498D02*
X490698Y624498D01*
X490698Y605502D01*
X482502Y605502D01*
X482502Y609337D02*
X490698Y609337D01*
X490698Y613172D02*
X482502Y613172D01*
X482502Y617007D02*
X490698Y617007D01*
X490698Y620842D02*
X482502Y620842D01*
X507902Y624498D02*
X507902Y605502D01*
X507902Y624498D02*
X516098Y624498D01*
X516098Y605502D01*
X507902Y605502D01*
X507902Y609337D02*
X516098Y609337D01*
X516098Y613172D02*
X507902Y613172D01*
X507902Y617007D02*
X516098Y617007D01*
X516098Y620842D02*
X507902Y620842D01*
X533302Y624498D02*
X533302Y605502D01*
X533302Y624498D02*
X541498Y624498D01*
X541498Y605502D01*
X533302Y605502D01*
X533302Y609337D02*
X541498Y609337D01*
X541498Y613172D02*
X533302Y613172D01*
X533302Y617007D02*
X541498Y617007D01*
X541498Y620842D02*
X533302Y620842D01*
X558702Y624498D02*
X558702Y605502D01*
X558702Y624498D02*
X566898Y624498D01*
X566898Y605502D01*
X558702Y605502D01*
X558702Y609337D02*
X566898Y609337D01*
X566898Y613172D02*
X558702Y613172D01*
X558702Y617007D02*
X566898Y617007D01*
X566898Y620842D02*
X558702Y620842D01*
X584102Y624498D02*
X584102Y605502D01*
X584102Y624498D02*
X592298Y624498D01*
X592298Y605502D01*
X584102Y605502D01*
X584102Y609337D02*
X592298Y609337D01*
X592298Y613172D02*
X584102Y613172D01*
X584102Y617007D02*
X592298Y617007D01*
X592298Y620842D02*
X584102Y620842D01*
X609502Y624498D02*
X609502Y605502D01*
X609502Y624498D02*
X617698Y624498D01*
X617698Y605502D01*
X609502Y605502D01*
X609502Y609337D02*
X617698Y609337D01*
X617698Y613172D02*
X609502Y613172D01*
X609502Y617007D02*
X617698Y617007D01*
X617698Y620842D02*
X609502Y620842D01*
X634902Y624498D02*
X634902Y605502D01*
X634902Y624498D02*
X643098Y624498D01*
X643098Y605502D01*
X634902Y605502D01*
X634902Y609337D02*
X643098Y609337D01*
X643098Y613172D02*
X634902Y613172D01*
X634902Y617007D02*
X643098Y617007D01*
X643098Y620842D02*
X634902Y620842D01*
X660302Y624498D02*
X660302Y605502D01*
X660302Y624498D02*
X668498Y624498D01*
X668498Y605502D01*
X660302Y605502D01*
X660302Y609337D02*
X668498Y609337D01*
X668498Y613172D02*
X660302Y613172D01*
X660302Y617007D02*
X668498Y617007D01*
X668498Y620842D02*
X660302Y620842D01*
X685702Y624498D02*
X685702Y605502D01*
X685702Y624498D02*
X693898Y624498D01*
X693898Y605502D01*
X685702Y605502D01*
X685702Y609337D02*
X693898Y609337D01*
X693898Y613172D02*
X685702Y613172D01*
X685702Y617007D02*
X693898Y617007D01*
X693898Y620842D02*
X685702Y620842D01*
X711102Y624498D02*
X711102Y605502D01*
X711102Y624498D02*
X719298Y624498D01*
X719298Y605502D01*
X711102Y605502D01*
X711102Y609337D02*
X719298Y609337D01*
X719298Y613172D02*
X711102Y613172D01*
X711102Y617007D02*
X719298Y617007D01*
X719298Y620842D02*
X711102Y620842D01*
X736502Y624498D02*
X736502Y605502D01*
X736502Y624498D02*
X744698Y624498D01*
X744698Y605502D01*
X736502Y605502D01*
X736502Y609337D02*
X744698Y609337D01*
X744698Y613172D02*
X736502Y613172D01*
X736502Y617007D02*
X744698Y617007D01*
X744698Y620842D02*
X736502Y620842D01*
X761902Y624498D02*
X761902Y605502D01*
X761902Y624498D02*
X770098Y624498D01*
X770098Y605502D01*
X761902Y605502D01*
X761902Y609337D02*
X770098Y609337D01*
X770098Y613172D02*
X761902Y613172D01*
X761902Y617007D02*
X770098Y617007D01*
X770098Y620842D02*
X761902Y620842D01*
M02*
