G04 EAGLE Gerber RS-274X export*
G75*
%MOMM*%
%FSLAX34Y34*%
%LPD*%
%INSolderpaste Bottom*%
%IPPOS*%
%AMOC8*
5,1,8,0,0,1.08239X$1,22.5*%
G01*
%ADD10R,5.080000X2.540000*%
%ADD11C,0.204000*%


D10*
X880000Y660000D03*
X880000Y610000D03*
D11*
X279320Y822520D02*
X279320Y841480D01*
X287480Y841480D01*
X287480Y822520D01*
X279320Y822520D01*
X279320Y824458D02*
X287480Y824458D01*
X287480Y826396D02*
X279320Y826396D01*
X279320Y828334D02*
X287480Y828334D01*
X287480Y830272D02*
X279320Y830272D01*
X279320Y832210D02*
X287480Y832210D01*
X287480Y834148D02*
X279320Y834148D01*
X279320Y836086D02*
X287480Y836086D01*
X287480Y838024D02*
X279320Y838024D01*
X279320Y839962D02*
X287480Y839962D01*
X304720Y841480D02*
X304720Y822520D01*
X304720Y841480D02*
X312880Y841480D01*
X312880Y822520D01*
X304720Y822520D01*
X304720Y824458D02*
X312880Y824458D01*
X312880Y826396D02*
X304720Y826396D01*
X304720Y828334D02*
X312880Y828334D01*
X312880Y830272D02*
X304720Y830272D01*
X304720Y832210D02*
X312880Y832210D01*
X312880Y834148D02*
X304720Y834148D01*
X304720Y836086D02*
X312880Y836086D01*
X312880Y838024D02*
X304720Y838024D01*
X304720Y839962D02*
X312880Y839962D01*
X330120Y841480D02*
X330120Y822520D01*
X330120Y841480D02*
X338280Y841480D01*
X338280Y822520D01*
X330120Y822520D01*
X330120Y824458D02*
X338280Y824458D01*
X338280Y826396D02*
X330120Y826396D01*
X330120Y828334D02*
X338280Y828334D01*
X338280Y830272D02*
X330120Y830272D01*
X330120Y832210D02*
X338280Y832210D01*
X338280Y834148D02*
X330120Y834148D01*
X330120Y836086D02*
X338280Y836086D01*
X338280Y838024D02*
X330120Y838024D01*
X330120Y839962D02*
X338280Y839962D01*
X355520Y841480D02*
X355520Y822520D01*
X355520Y841480D02*
X363680Y841480D01*
X363680Y822520D01*
X355520Y822520D01*
X355520Y824458D02*
X363680Y824458D01*
X363680Y826396D02*
X355520Y826396D01*
X355520Y828334D02*
X363680Y828334D01*
X363680Y830272D02*
X355520Y830272D01*
X355520Y832210D02*
X363680Y832210D01*
X363680Y834148D02*
X355520Y834148D01*
X355520Y836086D02*
X363680Y836086D01*
X363680Y838024D02*
X355520Y838024D01*
X355520Y839962D02*
X363680Y839962D01*
X380920Y841480D02*
X380920Y822520D01*
X380920Y841480D02*
X389080Y841480D01*
X389080Y822520D01*
X380920Y822520D01*
X380920Y824458D02*
X389080Y824458D01*
X389080Y826396D02*
X380920Y826396D01*
X380920Y828334D02*
X389080Y828334D01*
X389080Y830272D02*
X380920Y830272D01*
X380920Y832210D02*
X389080Y832210D01*
X389080Y834148D02*
X380920Y834148D01*
X380920Y836086D02*
X389080Y836086D01*
X389080Y838024D02*
X380920Y838024D01*
X380920Y839962D02*
X389080Y839962D01*
X406320Y841480D02*
X406320Y822520D01*
X406320Y841480D02*
X414480Y841480D01*
X414480Y822520D01*
X406320Y822520D01*
X406320Y824458D02*
X414480Y824458D01*
X414480Y826396D02*
X406320Y826396D01*
X406320Y828334D02*
X414480Y828334D01*
X414480Y830272D02*
X406320Y830272D01*
X406320Y832210D02*
X414480Y832210D01*
X414480Y834148D02*
X406320Y834148D01*
X406320Y836086D02*
X414480Y836086D01*
X414480Y838024D02*
X406320Y838024D01*
X406320Y839962D02*
X414480Y839962D01*
X431720Y841480D02*
X431720Y822520D01*
X431720Y841480D02*
X439880Y841480D01*
X439880Y822520D01*
X431720Y822520D01*
X431720Y824458D02*
X439880Y824458D01*
X439880Y826396D02*
X431720Y826396D01*
X431720Y828334D02*
X439880Y828334D01*
X439880Y830272D02*
X431720Y830272D01*
X431720Y832210D02*
X439880Y832210D01*
X439880Y834148D02*
X431720Y834148D01*
X431720Y836086D02*
X439880Y836086D01*
X439880Y838024D02*
X431720Y838024D01*
X431720Y839962D02*
X439880Y839962D01*
X457120Y841480D02*
X457120Y822520D01*
X457120Y841480D02*
X465280Y841480D01*
X465280Y822520D01*
X457120Y822520D01*
X457120Y824458D02*
X465280Y824458D01*
X465280Y826396D02*
X457120Y826396D01*
X457120Y828334D02*
X465280Y828334D01*
X465280Y830272D02*
X457120Y830272D01*
X457120Y832210D02*
X465280Y832210D01*
X465280Y834148D02*
X457120Y834148D01*
X457120Y836086D02*
X465280Y836086D01*
X465280Y838024D02*
X457120Y838024D01*
X457120Y839962D02*
X465280Y839962D01*
X482520Y841480D02*
X482520Y822520D01*
X482520Y841480D02*
X490680Y841480D01*
X490680Y822520D01*
X482520Y822520D01*
X482520Y824458D02*
X490680Y824458D01*
X490680Y826396D02*
X482520Y826396D01*
X482520Y828334D02*
X490680Y828334D01*
X490680Y830272D02*
X482520Y830272D01*
X482520Y832210D02*
X490680Y832210D01*
X490680Y834148D02*
X482520Y834148D01*
X482520Y836086D02*
X490680Y836086D01*
X490680Y838024D02*
X482520Y838024D01*
X482520Y839962D02*
X490680Y839962D01*
X507920Y841480D02*
X507920Y822520D01*
X507920Y841480D02*
X516080Y841480D01*
X516080Y822520D01*
X507920Y822520D01*
X507920Y824458D02*
X516080Y824458D01*
X516080Y826396D02*
X507920Y826396D01*
X507920Y828334D02*
X516080Y828334D01*
X516080Y830272D02*
X507920Y830272D01*
X507920Y832210D02*
X516080Y832210D01*
X516080Y834148D02*
X507920Y834148D01*
X507920Y836086D02*
X516080Y836086D01*
X516080Y838024D02*
X507920Y838024D01*
X507920Y839962D02*
X516080Y839962D01*
X533320Y841480D02*
X533320Y822520D01*
X533320Y841480D02*
X541480Y841480D01*
X541480Y822520D01*
X533320Y822520D01*
X533320Y824458D02*
X541480Y824458D01*
X541480Y826396D02*
X533320Y826396D01*
X533320Y828334D02*
X541480Y828334D01*
X541480Y830272D02*
X533320Y830272D01*
X533320Y832210D02*
X541480Y832210D01*
X541480Y834148D02*
X533320Y834148D01*
X533320Y836086D02*
X541480Y836086D01*
X541480Y838024D02*
X533320Y838024D01*
X533320Y839962D02*
X541480Y839962D01*
X558720Y841480D02*
X558720Y822520D01*
X558720Y841480D02*
X566880Y841480D01*
X566880Y822520D01*
X558720Y822520D01*
X558720Y824458D02*
X566880Y824458D01*
X566880Y826396D02*
X558720Y826396D01*
X558720Y828334D02*
X566880Y828334D01*
X566880Y830272D02*
X558720Y830272D01*
X558720Y832210D02*
X566880Y832210D01*
X566880Y834148D02*
X558720Y834148D01*
X558720Y836086D02*
X566880Y836086D01*
X566880Y838024D02*
X558720Y838024D01*
X558720Y839962D02*
X566880Y839962D01*
X584120Y841480D02*
X584120Y822520D01*
X584120Y841480D02*
X592280Y841480D01*
X592280Y822520D01*
X584120Y822520D01*
X584120Y824458D02*
X592280Y824458D01*
X592280Y826396D02*
X584120Y826396D01*
X584120Y828334D02*
X592280Y828334D01*
X592280Y830272D02*
X584120Y830272D01*
X584120Y832210D02*
X592280Y832210D01*
X592280Y834148D02*
X584120Y834148D01*
X584120Y836086D02*
X592280Y836086D01*
X592280Y838024D02*
X584120Y838024D01*
X584120Y839962D02*
X592280Y839962D01*
X609520Y841480D02*
X609520Y822520D01*
X609520Y841480D02*
X617680Y841480D01*
X617680Y822520D01*
X609520Y822520D01*
X609520Y824458D02*
X617680Y824458D01*
X617680Y826396D02*
X609520Y826396D01*
X609520Y828334D02*
X617680Y828334D01*
X617680Y830272D02*
X609520Y830272D01*
X609520Y832210D02*
X617680Y832210D01*
X617680Y834148D02*
X609520Y834148D01*
X609520Y836086D02*
X617680Y836086D01*
X617680Y838024D02*
X609520Y838024D01*
X609520Y839962D02*
X617680Y839962D01*
X634920Y841480D02*
X634920Y822520D01*
X634920Y841480D02*
X643080Y841480D01*
X643080Y822520D01*
X634920Y822520D01*
X634920Y824458D02*
X643080Y824458D01*
X643080Y826396D02*
X634920Y826396D01*
X634920Y828334D02*
X643080Y828334D01*
X643080Y830272D02*
X634920Y830272D01*
X634920Y832210D02*
X643080Y832210D01*
X643080Y834148D02*
X634920Y834148D01*
X634920Y836086D02*
X643080Y836086D01*
X643080Y838024D02*
X634920Y838024D01*
X634920Y839962D02*
X643080Y839962D01*
X660320Y841480D02*
X660320Y822520D01*
X660320Y841480D02*
X668480Y841480D01*
X668480Y822520D01*
X660320Y822520D01*
X660320Y824458D02*
X668480Y824458D01*
X668480Y826396D02*
X660320Y826396D01*
X660320Y828334D02*
X668480Y828334D01*
X668480Y830272D02*
X660320Y830272D01*
X660320Y832210D02*
X668480Y832210D01*
X668480Y834148D02*
X660320Y834148D01*
X660320Y836086D02*
X668480Y836086D01*
X668480Y838024D02*
X660320Y838024D01*
X660320Y839962D02*
X668480Y839962D01*
X685720Y841480D02*
X685720Y822520D01*
X685720Y841480D02*
X693880Y841480D01*
X693880Y822520D01*
X685720Y822520D01*
X685720Y824458D02*
X693880Y824458D01*
X693880Y826396D02*
X685720Y826396D01*
X685720Y828334D02*
X693880Y828334D01*
X693880Y830272D02*
X685720Y830272D01*
X685720Y832210D02*
X693880Y832210D01*
X693880Y834148D02*
X685720Y834148D01*
X685720Y836086D02*
X693880Y836086D01*
X693880Y838024D02*
X685720Y838024D01*
X685720Y839962D02*
X693880Y839962D01*
X711120Y841480D02*
X711120Y822520D01*
X711120Y841480D02*
X719280Y841480D01*
X719280Y822520D01*
X711120Y822520D01*
X711120Y824458D02*
X719280Y824458D01*
X719280Y826396D02*
X711120Y826396D01*
X711120Y828334D02*
X719280Y828334D01*
X719280Y830272D02*
X711120Y830272D01*
X711120Y832210D02*
X719280Y832210D01*
X719280Y834148D02*
X711120Y834148D01*
X711120Y836086D02*
X719280Y836086D01*
X719280Y838024D02*
X711120Y838024D01*
X711120Y839962D02*
X719280Y839962D01*
X736520Y841480D02*
X736520Y822520D01*
X736520Y841480D02*
X744680Y841480D01*
X744680Y822520D01*
X736520Y822520D01*
X736520Y824458D02*
X744680Y824458D01*
X744680Y826396D02*
X736520Y826396D01*
X736520Y828334D02*
X744680Y828334D01*
X744680Y830272D02*
X736520Y830272D01*
X736520Y832210D02*
X744680Y832210D01*
X744680Y834148D02*
X736520Y834148D01*
X736520Y836086D02*
X744680Y836086D01*
X744680Y838024D02*
X736520Y838024D01*
X736520Y839962D02*
X744680Y839962D01*
X761920Y841480D02*
X761920Y822520D01*
X761920Y841480D02*
X770080Y841480D01*
X770080Y822520D01*
X761920Y822520D01*
X761920Y824458D02*
X770080Y824458D01*
X770080Y826396D02*
X761920Y826396D01*
X761920Y828334D02*
X770080Y828334D01*
X770080Y830272D02*
X761920Y830272D01*
X761920Y832210D02*
X770080Y832210D01*
X770080Y834148D02*
X761920Y834148D01*
X761920Y836086D02*
X770080Y836086D01*
X770080Y838024D02*
X761920Y838024D01*
X761920Y839962D02*
X770080Y839962D01*
X279320Y885520D02*
X279320Y904480D01*
X287480Y904480D01*
X287480Y885520D01*
X279320Y885520D01*
X279320Y887458D02*
X287480Y887458D01*
X287480Y889396D02*
X279320Y889396D01*
X279320Y891334D02*
X287480Y891334D01*
X287480Y893272D02*
X279320Y893272D01*
X279320Y895210D02*
X287480Y895210D01*
X287480Y897148D02*
X279320Y897148D01*
X279320Y899086D02*
X287480Y899086D01*
X287480Y901024D02*
X279320Y901024D01*
X279320Y902962D02*
X287480Y902962D01*
X304720Y904480D02*
X304720Y885520D01*
X304720Y904480D02*
X312880Y904480D01*
X312880Y885520D01*
X304720Y885520D01*
X304720Y887458D02*
X312880Y887458D01*
X312880Y889396D02*
X304720Y889396D01*
X304720Y891334D02*
X312880Y891334D01*
X312880Y893272D02*
X304720Y893272D01*
X304720Y895210D02*
X312880Y895210D01*
X312880Y897148D02*
X304720Y897148D01*
X304720Y899086D02*
X312880Y899086D01*
X312880Y901024D02*
X304720Y901024D01*
X304720Y902962D02*
X312880Y902962D01*
X330120Y904480D02*
X330120Y885520D01*
X330120Y904480D02*
X338280Y904480D01*
X338280Y885520D01*
X330120Y885520D01*
X330120Y887458D02*
X338280Y887458D01*
X338280Y889396D02*
X330120Y889396D01*
X330120Y891334D02*
X338280Y891334D01*
X338280Y893272D02*
X330120Y893272D01*
X330120Y895210D02*
X338280Y895210D01*
X338280Y897148D02*
X330120Y897148D01*
X330120Y899086D02*
X338280Y899086D01*
X338280Y901024D02*
X330120Y901024D01*
X330120Y902962D02*
X338280Y902962D01*
X355520Y904480D02*
X355520Y885520D01*
X355520Y904480D02*
X363680Y904480D01*
X363680Y885520D01*
X355520Y885520D01*
X355520Y887458D02*
X363680Y887458D01*
X363680Y889396D02*
X355520Y889396D01*
X355520Y891334D02*
X363680Y891334D01*
X363680Y893272D02*
X355520Y893272D01*
X355520Y895210D02*
X363680Y895210D01*
X363680Y897148D02*
X355520Y897148D01*
X355520Y899086D02*
X363680Y899086D01*
X363680Y901024D02*
X355520Y901024D01*
X355520Y902962D02*
X363680Y902962D01*
X380920Y904480D02*
X380920Y885520D01*
X380920Y904480D02*
X389080Y904480D01*
X389080Y885520D01*
X380920Y885520D01*
X380920Y887458D02*
X389080Y887458D01*
X389080Y889396D02*
X380920Y889396D01*
X380920Y891334D02*
X389080Y891334D01*
X389080Y893272D02*
X380920Y893272D01*
X380920Y895210D02*
X389080Y895210D01*
X389080Y897148D02*
X380920Y897148D01*
X380920Y899086D02*
X389080Y899086D01*
X389080Y901024D02*
X380920Y901024D01*
X380920Y902962D02*
X389080Y902962D01*
X406320Y904480D02*
X406320Y885520D01*
X406320Y904480D02*
X414480Y904480D01*
X414480Y885520D01*
X406320Y885520D01*
X406320Y887458D02*
X414480Y887458D01*
X414480Y889396D02*
X406320Y889396D01*
X406320Y891334D02*
X414480Y891334D01*
X414480Y893272D02*
X406320Y893272D01*
X406320Y895210D02*
X414480Y895210D01*
X414480Y897148D02*
X406320Y897148D01*
X406320Y899086D02*
X414480Y899086D01*
X414480Y901024D02*
X406320Y901024D01*
X406320Y902962D02*
X414480Y902962D01*
X431720Y904480D02*
X431720Y885520D01*
X431720Y904480D02*
X439880Y904480D01*
X439880Y885520D01*
X431720Y885520D01*
X431720Y887458D02*
X439880Y887458D01*
X439880Y889396D02*
X431720Y889396D01*
X431720Y891334D02*
X439880Y891334D01*
X439880Y893272D02*
X431720Y893272D01*
X431720Y895210D02*
X439880Y895210D01*
X439880Y897148D02*
X431720Y897148D01*
X431720Y899086D02*
X439880Y899086D01*
X439880Y901024D02*
X431720Y901024D01*
X431720Y902962D02*
X439880Y902962D01*
X457120Y904480D02*
X457120Y885520D01*
X457120Y904480D02*
X465280Y904480D01*
X465280Y885520D01*
X457120Y885520D01*
X457120Y887458D02*
X465280Y887458D01*
X465280Y889396D02*
X457120Y889396D01*
X457120Y891334D02*
X465280Y891334D01*
X465280Y893272D02*
X457120Y893272D01*
X457120Y895210D02*
X465280Y895210D01*
X465280Y897148D02*
X457120Y897148D01*
X457120Y899086D02*
X465280Y899086D01*
X465280Y901024D02*
X457120Y901024D01*
X457120Y902962D02*
X465280Y902962D01*
X482520Y904480D02*
X482520Y885520D01*
X482520Y904480D02*
X490680Y904480D01*
X490680Y885520D01*
X482520Y885520D01*
X482520Y887458D02*
X490680Y887458D01*
X490680Y889396D02*
X482520Y889396D01*
X482520Y891334D02*
X490680Y891334D01*
X490680Y893272D02*
X482520Y893272D01*
X482520Y895210D02*
X490680Y895210D01*
X490680Y897148D02*
X482520Y897148D01*
X482520Y899086D02*
X490680Y899086D01*
X490680Y901024D02*
X482520Y901024D01*
X482520Y902962D02*
X490680Y902962D01*
X507920Y904480D02*
X507920Y885520D01*
X507920Y904480D02*
X516080Y904480D01*
X516080Y885520D01*
X507920Y885520D01*
X507920Y887458D02*
X516080Y887458D01*
X516080Y889396D02*
X507920Y889396D01*
X507920Y891334D02*
X516080Y891334D01*
X516080Y893272D02*
X507920Y893272D01*
X507920Y895210D02*
X516080Y895210D01*
X516080Y897148D02*
X507920Y897148D01*
X507920Y899086D02*
X516080Y899086D01*
X516080Y901024D02*
X507920Y901024D01*
X507920Y902962D02*
X516080Y902962D01*
X533320Y904480D02*
X533320Y885520D01*
X533320Y904480D02*
X541480Y904480D01*
X541480Y885520D01*
X533320Y885520D01*
X533320Y887458D02*
X541480Y887458D01*
X541480Y889396D02*
X533320Y889396D01*
X533320Y891334D02*
X541480Y891334D01*
X541480Y893272D02*
X533320Y893272D01*
X533320Y895210D02*
X541480Y895210D01*
X541480Y897148D02*
X533320Y897148D01*
X533320Y899086D02*
X541480Y899086D01*
X541480Y901024D02*
X533320Y901024D01*
X533320Y902962D02*
X541480Y902962D01*
X558720Y904480D02*
X558720Y885520D01*
X558720Y904480D02*
X566880Y904480D01*
X566880Y885520D01*
X558720Y885520D01*
X558720Y887458D02*
X566880Y887458D01*
X566880Y889396D02*
X558720Y889396D01*
X558720Y891334D02*
X566880Y891334D01*
X566880Y893272D02*
X558720Y893272D01*
X558720Y895210D02*
X566880Y895210D01*
X566880Y897148D02*
X558720Y897148D01*
X558720Y899086D02*
X566880Y899086D01*
X566880Y901024D02*
X558720Y901024D01*
X558720Y902962D02*
X566880Y902962D01*
X584120Y904480D02*
X584120Y885520D01*
X584120Y904480D02*
X592280Y904480D01*
X592280Y885520D01*
X584120Y885520D01*
X584120Y887458D02*
X592280Y887458D01*
X592280Y889396D02*
X584120Y889396D01*
X584120Y891334D02*
X592280Y891334D01*
X592280Y893272D02*
X584120Y893272D01*
X584120Y895210D02*
X592280Y895210D01*
X592280Y897148D02*
X584120Y897148D01*
X584120Y899086D02*
X592280Y899086D01*
X592280Y901024D02*
X584120Y901024D01*
X584120Y902962D02*
X592280Y902962D01*
X609520Y904480D02*
X609520Y885520D01*
X609520Y904480D02*
X617680Y904480D01*
X617680Y885520D01*
X609520Y885520D01*
X609520Y887458D02*
X617680Y887458D01*
X617680Y889396D02*
X609520Y889396D01*
X609520Y891334D02*
X617680Y891334D01*
X617680Y893272D02*
X609520Y893272D01*
X609520Y895210D02*
X617680Y895210D01*
X617680Y897148D02*
X609520Y897148D01*
X609520Y899086D02*
X617680Y899086D01*
X617680Y901024D02*
X609520Y901024D01*
X609520Y902962D02*
X617680Y902962D01*
X634920Y904480D02*
X634920Y885520D01*
X634920Y904480D02*
X643080Y904480D01*
X643080Y885520D01*
X634920Y885520D01*
X634920Y887458D02*
X643080Y887458D01*
X643080Y889396D02*
X634920Y889396D01*
X634920Y891334D02*
X643080Y891334D01*
X643080Y893272D02*
X634920Y893272D01*
X634920Y895210D02*
X643080Y895210D01*
X643080Y897148D02*
X634920Y897148D01*
X634920Y899086D02*
X643080Y899086D01*
X643080Y901024D02*
X634920Y901024D01*
X634920Y902962D02*
X643080Y902962D01*
X660320Y904480D02*
X660320Y885520D01*
X660320Y904480D02*
X668480Y904480D01*
X668480Y885520D01*
X660320Y885520D01*
X660320Y887458D02*
X668480Y887458D01*
X668480Y889396D02*
X660320Y889396D01*
X660320Y891334D02*
X668480Y891334D01*
X668480Y893272D02*
X660320Y893272D01*
X660320Y895210D02*
X668480Y895210D01*
X668480Y897148D02*
X660320Y897148D01*
X660320Y899086D02*
X668480Y899086D01*
X668480Y901024D02*
X660320Y901024D01*
X660320Y902962D02*
X668480Y902962D01*
X685720Y904480D02*
X685720Y885520D01*
X685720Y904480D02*
X693880Y904480D01*
X693880Y885520D01*
X685720Y885520D01*
X685720Y887458D02*
X693880Y887458D01*
X693880Y889396D02*
X685720Y889396D01*
X685720Y891334D02*
X693880Y891334D01*
X693880Y893272D02*
X685720Y893272D01*
X685720Y895210D02*
X693880Y895210D01*
X693880Y897148D02*
X685720Y897148D01*
X685720Y899086D02*
X693880Y899086D01*
X693880Y901024D02*
X685720Y901024D01*
X685720Y902962D02*
X693880Y902962D01*
X711120Y904480D02*
X711120Y885520D01*
X711120Y904480D02*
X719280Y904480D01*
X719280Y885520D01*
X711120Y885520D01*
X711120Y887458D02*
X719280Y887458D01*
X719280Y889396D02*
X711120Y889396D01*
X711120Y891334D02*
X719280Y891334D01*
X719280Y893272D02*
X711120Y893272D01*
X711120Y895210D02*
X719280Y895210D01*
X719280Y897148D02*
X711120Y897148D01*
X711120Y899086D02*
X719280Y899086D01*
X719280Y901024D02*
X711120Y901024D01*
X711120Y902962D02*
X719280Y902962D01*
X736520Y904480D02*
X736520Y885520D01*
X736520Y904480D02*
X744680Y904480D01*
X744680Y885520D01*
X736520Y885520D01*
X736520Y887458D02*
X744680Y887458D01*
X744680Y889396D02*
X736520Y889396D01*
X736520Y891334D02*
X744680Y891334D01*
X744680Y893272D02*
X736520Y893272D01*
X736520Y895210D02*
X744680Y895210D01*
X744680Y897148D02*
X736520Y897148D01*
X736520Y899086D02*
X744680Y899086D01*
X744680Y901024D02*
X736520Y901024D01*
X736520Y902962D02*
X744680Y902962D01*
X761920Y904480D02*
X761920Y885520D01*
X761920Y904480D02*
X770080Y904480D01*
X770080Y885520D01*
X761920Y885520D01*
X761920Y887458D02*
X770080Y887458D01*
X770080Y889396D02*
X761920Y889396D01*
X761920Y891334D02*
X770080Y891334D01*
X770080Y893272D02*
X761920Y893272D01*
X761920Y895210D02*
X770080Y895210D01*
X770080Y897148D02*
X761920Y897148D01*
X761920Y899086D02*
X770080Y899086D01*
X770080Y901024D02*
X761920Y901024D01*
X761920Y902962D02*
X770080Y902962D01*
X279320Y561480D02*
X279320Y542520D01*
X279320Y561480D02*
X287480Y561480D01*
X287480Y542520D01*
X279320Y542520D01*
X279320Y544458D02*
X287480Y544458D01*
X287480Y546396D02*
X279320Y546396D01*
X279320Y548334D02*
X287480Y548334D01*
X287480Y550272D02*
X279320Y550272D01*
X279320Y552210D02*
X287480Y552210D01*
X287480Y554148D02*
X279320Y554148D01*
X279320Y556086D02*
X287480Y556086D01*
X287480Y558024D02*
X279320Y558024D01*
X279320Y559962D02*
X287480Y559962D01*
X304720Y561480D02*
X304720Y542520D01*
X304720Y561480D02*
X312880Y561480D01*
X312880Y542520D01*
X304720Y542520D01*
X304720Y544458D02*
X312880Y544458D01*
X312880Y546396D02*
X304720Y546396D01*
X304720Y548334D02*
X312880Y548334D01*
X312880Y550272D02*
X304720Y550272D01*
X304720Y552210D02*
X312880Y552210D01*
X312880Y554148D02*
X304720Y554148D01*
X304720Y556086D02*
X312880Y556086D01*
X312880Y558024D02*
X304720Y558024D01*
X304720Y559962D02*
X312880Y559962D01*
X330120Y561480D02*
X330120Y542520D01*
X330120Y561480D02*
X338280Y561480D01*
X338280Y542520D01*
X330120Y542520D01*
X330120Y544458D02*
X338280Y544458D01*
X338280Y546396D02*
X330120Y546396D01*
X330120Y548334D02*
X338280Y548334D01*
X338280Y550272D02*
X330120Y550272D01*
X330120Y552210D02*
X338280Y552210D01*
X338280Y554148D02*
X330120Y554148D01*
X330120Y556086D02*
X338280Y556086D01*
X338280Y558024D02*
X330120Y558024D01*
X330120Y559962D02*
X338280Y559962D01*
X355520Y561480D02*
X355520Y542520D01*
X355520Y561480D02*
X363680Y561480D01*
X363680Y542520D01*
X355520Y542520D01*
X355520Y544458D02*
X363680Y544458D01*
X363680Y546396D02*
X355520Y546396D01*
X355520Y548334D02*
X363680Y548334D01*
X363680Y550272D02*
X355520Y550272D01*
X355520Y552210D02*
X363680Y552210D01*
X363680Y554148D02*
X355520Y554148D01*
X355520Y556086D02*
X363680Y556086D01*
X363680Y558024D02*
X355520Y558024D01*
X355520Y559962D02*
X363680Y559962D01*
X380920Y561480D02*
X380920Y542520D01*
X380920Y561480D02*
X389080Y561480D01*
X389080Y542520D01*
X380920Y542520D01*
X380920Y544458D02*
X389080Y544458D01*
X389080Y546396D02*
X380920Y546396D01*
X380920Y548334D02*
X389080Y548334D01*
X389080Y550272D02*
X380920Y550272D01*
X380920Y552210D02*
X389080Y552210D01*
X389080Y554148D02*
X380920Y554148D01*
X380920Y556086D02*
X389080Y556086D01*
X389080Y558024D02*
X380920Y558024D01*
X380920Y559962D02*
X389080Y559962D01*
X406320Y561480D02*
X406320Y542520D01*
X406320Y561480D02*
X414480Y561480D01*
X414480Y542520D01*
X406320Y542520D01*
X406320Y544458D02*
X414480Y544458D01*
X414480Y546396D02*
X406320Y546396D01*
X406320Y548334D02*
X414480Y548334D01*
X414480Y550272D02*
X406320Y550272D01*
X406320Y552210D02*
X414480Y552210D01*
X414480Y554148D02*
X406320Y554148D01*
X406320Y556086D02*
X414480Y556086D01*
X414480Y558024D02*
X406320Y558024D01*
X406320Y559962D02*
X414480Y559962D01*
X431720Y561480D02*
X431720Y542520D01*
X431720Y561480D02*
X439880Y561480D01*
X439880Y542520D01*
X431720Y542520D01*
X431720Y544458D02*
X439880Y544458D01*
X439880Y546396D02*
X431720Y546396D01*
X431720Y548334D02*
X439880Y548334D01*
X439880Y550272D02*
X431720Y550272D01*
X431720Y552210D02*
X439880Y552210D01*
X439880Y554148D02*
X431720Y554148D01*
X431720Y556086D02*
X439880Y556086D01*
X439880Y558024D02*
X431720Y558024D01*
X431720Y559962D02*
X439880Y559962D01*
X457120Y561480D02*
X457120Y542520D01*
X457120Y561480D02*
X465280Y561480D01*
X465280Y542520D01*
X457120Y542520D01*
X457120Y544458D02*
X465280Y544458D01*
X465280Y546396D02*
X457120Y546396D01*
X457120Y548334D02*
X465280Y548334D01*
X465280Y550272D02*
X457120Y550272D01*
X457120Y552210D02*
X465280Y552210D01*
X465280Y554148D02*
X457120Y554148D01*
X457120Y556086D02*
X465280Y556086D01*
X465280Y558024D02*
X457120Y558024D01*
X457120Y559962D02*
X465280Y559962D01*
X482520Y561480D02*
X482520Y542520D01*
X482520Y561480D02*
X490680Y561480D01*
X490680Y542520D01*
X482520Y542520D01*
X482520Y544458D02*
X490680Y544458D01*
X490680Y546396D02*
X482520Y546396D01*
X482520Y548334D02*
X490680Y548334D01*
X490680Y550272D02*
X482520Y550272D01*
X482520Y552210D02*
X490680Y552210D01*
X490680Y554148D02*
X482520Y554148D01*
X482520Y556086D02*
X490680Y556086D01*
X490680Y558024D02*
X482520Y558024D01*
X482520Y559962D02*
X490680Y559962D01*
X507920Y561480D02*
X507920Y542520D01*
X507920Y561480D02*
X516080Y561480D01*
X516080Y542520D01*
X507920Y542520D01*
X507920Y544458D02*
X516080Y544458D01*
X516080Y546396D02*
X507920Y546396D01*
X507920Y548334D02*
X516080Y548334D01*
X516080Y550272D02*
X507920Y550272D01*
X507920Y552210D02*
X516080Y552210D01*
X516080Y554148D02*
X507920Y554148D01*
X507920Y556086D02*
X516080Y556086D01*
X516080Y558024D02*
X507920Y558024D01*
X507920Y559962D02*
X516080Y559962D01*
X533320Y561480D02*
X533320Y542520D01*
X533320Y561480D02*
X541480Y561480D01*
X541480Y542520D01*
X533320Y542520D01*
X533320Y544458D02*
X541480Y544458D01*
X541480Y546396D02*
X533320Y546396D01*
X533320Y548334D02*
X541480Y548334D01*
X541480Y550272D02*
X533320Y550272D01*
X533320Y552210D02*
X541480Y552210D01*
X541480Y554148D02*
X533320Y554148D01*
X533320Y556086D02*
X541480Y556086D01*
X541480Y558024D02*
X533320Y558024D01*
X533320Y559962D02*
X541480Y559962D01*
X558720Y561480D02*
X558720Y542520D01*
X558720Y561480D02*
X566880Y561480D01*
X566880Y542520D01*
X558720Y542520D01*
X558720Y544458D02*
X566880Y544458D01*
X566880Y546396D02*
X558720Y546396D01*
X558720Y548334D02*
X566880Y548334D01*
X566880Y550272D02*
X558720Y550272D01*
X558720Y552210D02*
X566880Y552210D01*
X566880Y554148D02*
X558720Y554148D01*
X558720Y556086D02*
X566880Y556086D01*
X566880Y558024D02*
X558720Y558024D01*
X558720Y559962D02*
X566880Y559962D01*
X584120Y561480D02*
X584120Y542520D01*
X584120Y561480D02*
X592280Y561480D01*
X592280Y542520D01*
X584120Y542520D01*
X584120Y544458D02*
X592280Y544458D01*
X592280Y546396D02*
X584120Y546396D01*
X584120Y548334D02*
X592280Y548334D01*
X592280Y550272D02*
X584120Y550272D01*
X584120Y552210D02*
X592280Y552210D01*
X592280Y554148D02*
X584120Y554148D01*
X584120Y556086D02*
X592280Y556086D01*
X592280Y558024D02*
X584120Y558024D01*
X584120Y559962D02*
X592280Y559962D01*
X609520Y561480D02*
X609520Y542520D01*
X609520Y561480D02*
X617680Y561480D01*
X617680Y542520D01*
X609520Y542520D01*
X609520Y544458D02*
X617680Y544458D01*
X617680Y546396D02*
X609520Y546396D01*
X609520Y548334D02*
X617680Y548334D01*
X617680Y550272D02*
X609520Y550272D01*
X609520Y552210D02*
X617680Y552210D01*
X617680Y554148D02*
X609520Y554148D01*
X609520Y556086D02*
X617680Y556086D01*
X617680Y558024D02*
X609520Y558024D01*
X609520Y559962D02*
X617680Y559962D01*
X634920Y561480D02*
X634920Y542520D01*
X634920Y561480D02*
X643080Y561480D01*
X643080Y542520D01*
X634920Y542520D01*
X634920Y544458D02*
X643080Y544458D01*
X643080Y546396D02*
X634920Y546396D01*
X634920Y548334D02*
X643080Y548334D01*
X643080Y550272D02*
X634920Y550272D01*
X634920Y552210D02*
X643080Y552210D01*
X643080Y554148D02*
X634920Y554148D01*
X634920Y556086D02*
X643080Y556086D01*
X643080Y558024D02*
X634920Y558024D01*
X634920Y559962D02*
X643080Y559962D01*
X660320Y561480D02*
X660320Y542520D01*
X660320Y561480D02*
X668480Y561480D01*
X668480Y542520D01*
X660320Y542520D01*
X660320Y544458D02*
X668480Y544458D01*
X668480Y546396D02*
X660320Y546396D01*
X660320Y548334D02*
X668480Y548334D01*
X668480Y550272D02*
X660320Y550272D01*
X660320Y552210D02*
X668480Y552210D01*
X668480Y554148D02*
X660320Y554148D01*
X660320Y556086D02*
X668480Y556086D01*
X668480Y558024D02*
X660320Y558024D01*
X660320Y559962D02*
X668480Y559962D01*
X685720Y561480D02*
X685720Y542520D01*
X685720Y561480D02*
X693880Y561480D01*
X693880Y542520D01*
X685720Y542520D01*
X685720Y544458D02*
X693880Y544458D01*
X693880Y546396D02*
X685720Y546396D01*
X685720Y548334D02*
X693880Y548334D01*
X693880Y550272D02*
X685720Y550272D01*
X685720Y552210D02*
X693880Y552210D01*
X693880Y554148D02*
X685720Y554148D01*
X685720Y556086D02*
X693880Y556086D01*
X693880Y558024D02*
X685720Y558024D01*
X685720Y559962D02*
X693880Y559962D01*
X711120Y561480D02*
X711120Y542520D01*
X711120Y561480D02*
X719280Y561480D01*
X719280Y542520D01*
X711120Y542520D01*
X711120Y544458D02*
X719280Y544458D01*
X719280Y546396D02*
X711120Y546396D01*
X711120Y548334D02*
X719280Y548334D01*
X719280Y550272D02*
X711120Y550272D01*
X711120Y552210D02*
X719280Y552210D01*
X719280Y554148D02*
X711120Y554148D01*
X711120Y556086D02*
X719280Y556086D01*
X719280Y558024D02*
X711120Y558024D01*
X711120Y559962D02*
X719280Y559962D01*
X736520Y561480D02*
X736520Y542520D01*
X736520Y561480D02*
X744680Y561480D01*
X744680Y542520D01*
X736520Y542520D01*
X736520Y544458D02*
X744680Y544458D01*
X744680Y546396D02*
X736520Y546396D01*
X736520Y548334D02*
X744680Y548334D01*
X744680Y550272D02*
X736520Y550272D01*
X736520Y552210D02*
X744680Y552210D01*
X744680Y554148D02*
X736520Y554148D01*
X736520Y556086D02*
X744680Y556086D01*
X744680Y558024D02*
X736520Y558024D01*
X736520Y559962D02*
X744680Y559962D01*
X761920Y561480D02*
X761920Y542520D01*
X761920Y561480D02*
X770080Y561480D01*
X770080Y542520D01*
X761920Y542520D01*
X761920Y544458D02*
X770080Y544458D01*
X770080Y546396D02*
X761920Y546396D01*
X761920Y548334D02*
X770080Y548334D01*
X770080Y550272D02*
X761920Y550272D01*
X761920Y552210D02*
X770080Y552210D01*
X770080Y554148D02*
X761920Y554148D01*
X761920Y556086D02*
X770080Y556086D01*
X770080Y558024D02*
X761920Y558024D01*
X761920Y559962D02*
X770080Y559962D01*
X279320Y605520D02*
X279320Y624480D01*
X287480Y624480D01*
X287480Y605520D01*
X279320Y605520D01*
X279320Y607458D02*
X287480Y607458D01*
X287480Y609396D02*
X279320Y609396D01*
X279320Y611334D02*
X287480Y611334D01*
X287480Y613272D02*
X279320Y613272D01*
X279320Y615210D02*
X287480Y615210D01*
X287480Y617148D02*
X279320Y617148D01*
X279320Y619086D02*
X287480Y619086D01*
X287480Y621024D02*
X279320Y621024D01*
X279320Y622962D02*
X287480Y622962D01*
X304720Y624480D02*
X304720Y605520D01*
X304720Y624480D02*
X312880Y624480D01*
X312880Y605520D01*
X304720Y605520D01*
X304720Y607458D02*
X312880Y607458D01*
X312880Y609396D02*
X304720Y609396D01*
X304720Y611334D02*
X312880Y611334D01*
X312880Y613272D02*
X304720Y613272D01*
X304720Y615210D02*
X312880Y615210D01*
X312880Y617148D02*
X304720Y617148D01*
X304720Y619086D02*
X312880Y619086D01*
X312880Y621024D02*
X304720Y621024D01*
X304720Y622962D02*
X312880Y622962D01*
X330120Y624480D02*
X330120Y605520D01*
X330120Y624480D02*
X338280Y624480D01*
X338280Y605520D01*
X330120Y605520D01*
X330120Y607458D02*
X338280Y607458D01*
X338280Y609396D02*
X330120Y609396D01*
X330120Y611334D02*
X338280Y611334D01*
X338280Y613272D02*
X330120Y613272D01*
X330120Y615210D02*
X338280Y615210D01*
X338280Y617148D02*
X330120Y617148D01*
X330120Y619086D02*
X338280Y619086D01*
X338280Y621024D02*
X330120Y621024D01*
X330120Y622962D02*
X338280Y622962D01*
X355520Y624480D02*
X355520Y605520D01*
X355520Y624480D02*
X363680Y624480D01*
X363680Y605520D01*
X355520Y605520D01*
X355520Y607458D02*
X363680Y607458D01*
X363680Y609396D02*
X355520Y609396D01*
X355520Y611334D02*
X363680Y611334D01*
X363680Y613272D02*
X355520Y613272D01*
X355520Y615210D02*
X363680Y615210D01*
X363680Y617148D02*
X355520Y617148D01*
X355520Y619086D02*
X363680Y619086D01*
X363680Y621024D02*
X355520Y621024D01*
X355520Y622962D02*
X363680Y622962D01*
X380920Y624480D02*
X380920Y605520D01*
X380920Y624480D02*
X389080Y624480D01*
X389080Y605520D01*
X380920Y605520D01*
X380920Y607458D02*
X389080Y607458D01*
X389080Y609396D02*
X380920Y609396D01*
X380920Y611334D02*
X389080Y611334D01*
X389080Y613272D02*
X380920Y613272D01*
X380920Y615210D02*
X389080Y615210D01*
X389080Y617148D02*
X380920Y617148D01*
X380920Y619086D02*
X389080Y619086D01*
X389080Y621024D02*
X380920Y621024D01*
X380920Y622962D02*
X389080Y622962D01*
X406320Y624480D02*
X406320Y605520D01*
X406320Y624480D02*
X414480Y624480D01*
X414480Y605520D01*
X406320Y605520D01*
X406320Y607458D02*
X414480Y607458D01*
X414480Y609396D02*
X406320Y609396D01*
X406320Y611334D02*
X414480Y611334D01*
X414480Y613272D02*
X406320Y613272D01*
X406320Y615210D02*
X414480Y615210D01*
X414480Y617148D02*
X406320Y617148D01*
X406320Y619086D02*
X414480Y619086D01*
X414480Y621024D02*
X406320Y621024D01*
X406320Y622962D02*
X414480Y622962D01*
X431720Y624480D02*
X431720Y605520D01*
X431720Y624480D02*
X439880Y624480D01*
X439880Y605520D01*
X431720Y605520D01*
X431720Y607458D02*
X439880Y607458D01*
X439880Y609396D02*
X431720Y609396D01*
X431720Y611334D02*
X439880Y611334D01*
X439880Y613272D02*
X431720Y613272D01*
X431720Y615210D02*
X439880Y615210D01*
X439880Y617148D02*
X431720Y617148D01*
X431720Y619086D02*
X439880Y619086D01*
X439880Y621024D02*
X431720Y621024D01*
X431720Y622962D02*
X439880Y622962D01*
X457120Y624480D02*
X457120Y605520D01*
X457120Y624480D02*
X465280Y624480D01*
X465280Y605520D01*
X457120Y605520D01*
X457120Y607458D02*
X465280Y607458D01*
X465280Y609396D02*
X457120Y609396D01*
X457120Y611334D02*
X465280Y611334D01*
X465280Y613272D02*
X457120Y613272D01*
X457120Y615210D02*
X465280Y615210D01*
X465280Y617148D02*
X457120Y617148D01*
X457120Y619086D02*
X465280Y619086D01*
X465280Y621024D02*
X457120Y621024D01*
X457120Y622962D02*
X465280Y622962D01*
X482520Y624480D02*
X482520Y605520D01*
X482520Y624480D02*
X490680Y624480D01*
X490680Y605520D01*
X482520Y605520D01*
X482520Y607458D02*
X490680Y607458D01*
X490680Y609396D02*
X482520Y609396D01*
X482520Y611334D02*
X490680Y611334D01*
X490680Y613272D02*
X482520Y613272D01*
X482520Y615210D02*
X490680Y615210D01*
X490680Y617148D02*
X482520Y617148D01*
X482520Y619086D02*
X490680Y619086D01*
X490680Y621024D02*
X482520Y621024D01*
X482520Y622962D02*
X490680Y622962D01*
X507920Y624480D02*
X507920Y605520D01*
X507920Y624480D02*
X516080Y624480D01*
X516080Y605520D01*
X507920Y605520D01*
X507920Y607458D02*
X516080Y607458D01*
X516080Y609396D02*
X507920Y609396D01*
X507920Y611334D02*
X516080Y611334D01*
X516080Y613272D02*
X507920Y613272D01*
X507920Y615210D02*
X516080Y615210D01*
X516080Y617148D02*
X507920Y617148D01*
X507920Y619086D02*
X516080Y619086D01*
X516080Y621024D02*
X507920Y621024D01*
X507920Y622962D02*
X516080Y622962D01*
X533320Y624480D02*
X533320Y605520D01*
X533320Y624480D02*
X541480Y624480D01*
X541480Y605520D01*
X533320Y605520D01*
X533320Y607458D02*
X541480Y607458D01*
X541480Y609396D02*
X533320Y609396D01*
X533320Y611334D02*
X541480Y611334D01*
X541480Y613272D02*
X533320Y613272D01*
X533320Y615210D02*
X541480Y615210D01*
X541480Y617148D02*
X533320Y617148D01*
X533320Y619086D02*
X541480Y619086D01*
X541480Y621024D02*
X533320Y621024D01*
X533320Y622962D02*
X541480Y622962D01*
X558720Y624480D02*
X558720Y605520D01*
X558720Y624480D02*
X566880Y624480D01*
X566880Y605520D01*
X558720Y605520D01*
X558720Y607458D02*
X566880Y607458D01*
X566880Y609396D02*
X558720Y609396D01*
X558720Y611334D02*
X566880Y611334D01*
X566880Y613272D02*
X558720Y613272D01*
X558720Y615210D02*
X566880Y615210D01*
X566880Y617148D02*
X558720Y617148D01*
X558720Y619086D02*
X566880Y619086D01*
X566880Y621024D02*
X558720Y621024D01*
X558720Y622962D02*
X566880Y622962D01*
X584120Y624480D02*
X584120Y605520D01*
X584120Y624480D02*
X592280Y624480D01*
X592280Y605520D01*
X584120Y605520D01*
X584120Y607458D02*
X592280Y607458D01*
X592280Y609396D02*
X584120Y609396D01*
X584120Y611334D02*
X592280Y611334D01*
X592280Y613272D02*
X584120Y613272D01*
X584120Y615210D02*
X592280Y615210D01*
X592280Y617148D02*
X584120Y617148D01*
X584120Y619086D02*
X592280Y619086D01*
X592280Y621024D02*
X584120Y621024D01*
X584120Y622962D02*
X592280Y622962D01*
X609520Y624480D02*
X609520Y605520D01*
X609520Y624480D02*
X617680Y624480D01*
X617680Y605520D01*
X609520Y605520D01*
X609520Y607458D02*
X617680Y607458D01*
X617680Y609396D02*
X609520Y609396D01*
X609520Y611334D02*
X617680Y611334D01*
X617680Y613272D02*
X609520Y613272D01*
X609520Y615210D02*
X617680Y615210D01*
X617680Y617148D02*
X609520Y617148D01*
X609520Y619086D02*
X617680Y619086D01*
X617680Y621024D02*
X609520Y621024D01*
X609520Y622962D02*
X617680Y622962D01*
X634920Y624480D02*
X634920Y605520D01*
X634920Y624480D02*
X643080Y624480D01*
X643080Y605520D01*
X634920Y605520D01*
X634920Y607458D02*
X643080Y607458D01*
X643080Y609396D02*
X634920Y609396D01*
X634920Y611334D02*
X643080Y611334D01*
X643080Y613272D02*
X634920Y613272D01*
X634920Y615210D02*
X643080Y615210D01*
X643080Y617148D02*
X634920Y617148D01*
X634920Y619086D02*
X643080Y619086D01*
X643080Y621024D02*
X634920Y621024D01*
X634920Y622962D02*
X643080Y622962D01*
X660320Y624480D02*
X660320Y605520D01*
X660320Y624480D02*
X668480Y624480D01*
X668480Y605520D01*
X660320Y605520D01*
X660320Y607458D02*
X668480Y607458D01*
X668480Y609396D02*
X660320Y609396D01*
X660320Y611334D02*
X668480Y611334D01*
X668480Y613272D02*
X660320Y613272D01*
X660320Y615210D02*
X668480Y615210D01*
X668480Y617148D02*
X660320Y617148D01*
X660320Y619086D02*
X668480Y619086D01*
X668480Y621024D02*
X660320Y621024D01*
X660320Y622962D02*
X668480Y622962D01*
X685720Y624480D02*
X685720Y605520D01*
X685720Y624480D02*
X693880Y624480D01*
X693880Y605520D01*
X685720Y605520D01*
X685720Y607458D02*
X693880Y607458D01*
X693880Y609396D02*
X685720Y609396D01*
X685720Y611334D02*
X693880Y611334D01*
X693880Y613272D02*
X685720Y613272D01*
X685720Y615210D02*
X693880Y615210D01*
X693880Y617148D02*
X685720Y617148D01*
X685720Y619086D02*
X693880Y619086D01*
X693880Y621024D02*
X685720Y621024D01*
X685720Y622962D02*
X693880Y622962D01*
X711120Y624480D02*
X711120Y605520D01*
X711120Y624480D02*
X719280Y624480D01*
X719280Y605520D01*
X711120Y605520D01*
X711120Y607458D02*
X719280Y607458D01*
X719280Y609396D02*
X711120Y609396D01*
X711120Y611334D02*
X719280Y611334D01*
X719280Y613272D02*
X711120Y613272D01*
X711120Y615210D02*
X719280Y615210D01*
X719280Y617148D02*
X711120Y617148D01*
X711120Y619086D02*
X719280Y619086D01*
X719280Y621024D02*
X711120Y621024D01*
X711120Y622962D02*
X719280Y622962D01*
X736520Y624480D02*
X736520Y605520D01*
X736520Y624480D02*
X744680Y624480D01*
X744680Y605520D01*
X736520Y605520D01*
X736520Y607458D02*
X744680Y607458D01*
X744680Y609396D02*
X736520Y609396D01*
X736520Y611334D02*
X744680Y611334D01*
X744680Y613272D02*
X736520Y613272D01*
X736520Y615210D02*
X744680Y615210D01*
X744680Y617148D02*
X736520Y617148D01*
X736520Y619086D02*
X744680Y619086D01*
X744680Y621024D02*
X736520Y621024D01*
X736520Y622962D02*
X744680Y622962D01*
X761920Y624480D02*
X761920Y605520D01*
X761920Y624480D02*
X770080Y624480D01*
X770080Y605520D01*
X761920Y605520D01*
X761920Y607458D02*
X770080Y607458D01*
X770080Y609396D02*
X761920Y609396D01*
X761920Y611334D02*
X770080Y611334D01*
X770080Y613272D02*
X761920Y613272D01*
X761920Y615210D02*
X770080Y615210D01*
X770080Y617148D02*
X761920Y617148D01*
X761920Y619086D02*
X770080Y619086D01*
X770080Y621024D02*
X761920Y621024D01*
X761920Y622962D02*
X770080Y622962D01*
M02*
