G04 EAGLE Gerber RS-274X export*
G75*
%MOMM*%
%FSLAX34Y34*%
%LPD*%
%INBoard Outline*%
%IPPOS*%
%AMOC8*
5,1,8,0,0,1.08239X$1,22.5*%
G01*
%ADD10C,0.152400*%
%ADD11C,0.000000*%
%ADD12C,0.254000*%


D10*
X0Y500000D02*
X151Y512271D01*
X602Y524534D01*
X1355Y536782D01*
X2408Y549009D01*
X3760Y561205D01*
X5412Y573365D01*
X7361Y585481D01*
X9607Y597545D01*
X12149Y609551D01*
X14984Y621490D01*
X18112Y633356D01*
X21530Y645142D01*
X25236Y656841D01*
X29228Y668445D01*
X33504Y679948D01*
X38060Y691342D01*
X42895Y702621D01*
X48005Y713778D01*
X53388Y724806D01*
X59039Y735698D01*
X64957Y746449D01*
X71136Y757051D01*
X77573Y767499D01*
X84265Y777785D01*
X91208Y787904D01*
X98396Y797850D01*
X105827Y807616D01*
X113495Y817197D01*
X121396Y826586D01*
X129524Y835779D01*
X137876Y844770D01*
X146447Y853553D01*
X155230Y862124D01*
X164221Y870476D01*
X173414Y878604D01*
X182803Y886505D01*
X192384Y894173D01*
X202150Y901604D01*
X212096Y908792D01*
X222215Y915735D01*
X232501Y922427D01*
X242949Y928864D01*
X253551Y935043D01*
X264302Y940961D01*
X275194Y946612D01*
X286222Y951995D01*
X297379Y957105D01*
X308658Y961940D01*
X320052Y966496D01*
X331555Y970772D01*
X343159Y974764D01*
X354858Y978470D01*
X366644Y981888D01*
X378510Y985016D01*
X390449Y987851D01*
X402455Y990393D01*
X414519Y992639D01*
X426635Y994588D01*
X438795Y996240D01*
X450991Y997592D01*
X463218Y998645D01*
X475466Y999398D01*
X487729Y999849D01*
X500000Y1000000D01*
X512271Y999849D01*
X524534Y999398D01*
X536782Y998645D01*
X549009Y997592D01*
X561205Y996240D01*
X573365Y994588D01*
X585481Y992639D01*
X597545Y990393D01*
X609551Y987851D01*
X621490Y985016D01*
X633356Y981888D01*
X645142Y978470D01*
X656841Y974764D01*
X668445Y970772D01*
X679948Y966496D01*
X691342Y961940D01*
X702621Y957105D01*
X713778Y951995D01*
X724806Y946612D01*
X735698Y940961D01*
X746449Y935043D01*
X757051Y928864D01*
X767499Y922427D01*
X777785Y915735D01*
X787904Y908792D01*
X797850Y901604D01*
X807616Y894173D01*
X817197Y886505D01*
X826586Y878604D01*
X835779Y870476D01*
X844770Y862124D01*
X853553Y853553D01*
X862124Y844770D01*
X870476Y835779D01*
X878604Y826586D01*
X886505Y817197D01*
X894173Y807616D01*
X901604Y797850D01*
X908792Y787904D01*
X915735Y777785D01*
X922427Y767499D01*
X928864Y757051D01*
X935043Y746449D01*
X940961Y735698D01*
X946612Y724806D01*
X951995Y713778D01*
X957105Y702621D01*
X961940Y691342D01*
X966496Y679948D01*
X970772Y668445D01*
X974764Y656841D01*
X978470Y645142D01*
X981888Y633356D01*
X985016Y621490D01*
X987851Y609551D01*
X990393Y597545D01*
X992639Y585481D01*
X994588Y573365D01*
X996240Y561205D01*
X997592Y549009D01*
X998645Y536782D01*
X999398Y524534D01*
X999849Y512271D01*
X1000000Y500000D01*
X999849Y487729D01*
X999398Y475466D01*
X998645Y463218D01*
X997592Y450991D01*
X996240Y438795D01*
X994588Y426635D01*
X992639Y414519D01*
X990393Y402455D01*
X987851Y390449D01*
X985016Y378510D01*
X981888Y366644D01*
X978470Y354858D01*
X974764Y343159D01*
X970772Y331555D01*
X966496Y320052D01*
X961940Y308658D01*
X957105Y297379D01*
X951995Y286222D01*
X946612Y275194D01*
X940961Y264302D01*
X935043Y253551D01*
X928864Y242949D01*
X922427Y232501D01*
X915735Y222215D01*
X908792Y212096D01*
X901604Y202150D01*
X894173Y192384D01*
X886505Y182803D01*
X878604Y173414D01*
X870476Y164221D01*
X862124Y155230D01*
X853553Y146447D01*
X844770Y137876D01*
X835779Y129524D01*
X826586Y121396D01*
X817197Y113495D01*
X807616Y105827D01*
X797850Y98396D01*
X787904Y91208D01*
X777785Y84265D01*
X767499Y77573D01*
X757051Y71136D01*
X746449Y64957D01*
X735698Y59039D01*
X724806Y53388D01*
X713778Y48005D01*
X702621Y42895D01*
X691342Y38060D01*
X679948Y33504D01*
X668445Y29228D01*
X656841Y25236D01*
X645142Y21530D01*
X633356Y18112D01*
X621490Y14984D01*
X609551Y12149D01*
X597545Y9607D01*
X585481Y7361D01*
X573365Y5412D01*
X561205Y3760D01*
X549009Y2408D01*
X536782Y1355D01*
X524534Y602D01*
X512271Y151D01*
X500000Y0D01*
X487729Y151D01*
X475466Y602D01*
X463218Y1355D01*
X450991Y2408D01*
X438795Y3760D01*
X426635Y5412D01*
X414519Y7361D01*
X402455Y9607D01*
X390449Y12149D01*
X378510Y14984D01*
X366644Y18112D01*
X354858Y21530D01*
X343159Y25236D01*
X331555Y29228D01*
X320052Y33504D01*
X308658Y38060D01*
X297379Y42895D01*
X286222Y48005D01*
X275194Y53388D01*
X264302Y59039D01*
X253551Y64957D01*
X242949Y71136D01*
X232501Y77573D01*
X222215Y84265D01*
X212096Y91208D01*
X202150Y98396D01*
X192384Y105827D01*
X182803Y113495D01*
X173414Y121396D01*
X164221Y129524D01*
X155230Y137876D01*
X146447Y146447D01*
X137876Y155230D01*
X129524Y164221D01*
X121396Y173414D01*
X113495Y182803D01*
X105827Y192384D01*
X98396Y202150D01*
X91208Y212096D01*
X84265Y222215D01*
X77573Y232501D01*
X71136Y242949D01*
X64957Y253551D01*
X59039Y264302D01*
X53388Y275194D01*
X48005Y286222D01*
X42895Y297379D01*
X38060Y308658D01*
X33504Y320052D01*
X29228Y331555D01*
X25236Y343159D01*
X21530Y354858D01*
X18112Y366644D01*
X14984Y378510D01*
X12149Y390449D01*
X9607Y402455D01*
X7361Y414519D01*
X5412Y426635D01*
X3760Y438795D01*
X2408Y450991D01*
X1355Y463218D01*
X602Y475466D01*
X151Y487729D01*
X0Y500000D01*
D11*
X183500Y140000D02*
X183505Y140405D01*
X183520Y140810D01*
X183545Y141214D01*
X183579Y141617D01*
X183624Y142020D01*
X183679Y142421D01*
X183743Y142821D01*
X183817Y143219D01*
X183901Y143615D01*
X183994Y144009D01*
X184098Y144401D01*
X184210Y144790D01*
X184333Y145176D01*
X184465Y145559D01*
X184606Y145938D01*
X184756Y146314D01*
X184916Y146686D01*
X185084Y147055D01*
X185262Y147419D01*
X185448Y147778D01*
X185644Y148133D01*
X185847Y148483D01*
X186060Y148827D01*
X186281Y149167D01*
X186510Y149501D01*
X186747Y149829D01*
X186992Y150151D01*
X187245Y150467D01*
X187506Y150777D01*
X187774Y151081D01*
X188050Y151377D01*
X188333Y151667D01*
X188623Y151950D01*
X188919Y152226D01*
X189223Y152494D01*
X189533Y152755D01*
X189849Y153008D01*
X190171Y153253D01*
X190499Y153490D01*
X190833Y153719D01*
X191173Y153940D01*
X191517Y154153D01*
X191867Y154356D01*
X192222Y154552D01*
X192581Y154738D01*
X192945Y154916D01*
X193314Y155084D01*
X193686Y155244D01*
X194062Y155394D01*
X194441Y155535D01*
X194824Y155667D01*
X195210Y155790D01*
X195599Y155902D01*
X195991Y156006D01*
X196385Y156099D01*
X196781Y156183D01*
X197179Y156257D01*
X197579Y156321D01*
X197980Y156376D01*
X198383Y156421D01*
X198786Y156455D01*
X199190Y156480D01*
X199595Y156495D01*
X200000Y156500D01*
X200405Y156495D01*
X200810Y156480D01*
X201214Y156455D01*
X201617Y156421D01*
X202020Y156376D01*
X202421Y156321D01*
X202821Y156257D01*
X203219Y156183D01*
X203615Y156099D01*
X204009Y156006D01*
X204401Y155902D01*
X204790Y155790D01*
X205176Y155667D01*
X205559Y155535D01*
X205938Y155394D01*
X206314Y155244D01*
X206686Y155084D01*
X207055Y154916D01*
X207419Y154738D01*
X207778Y154552D01*
X208133Y154356D01*
X208483Y154153D01*
X208827Y153940D01*
X209167Y153719D01*
X209501Y153490D01*
X209829Y153253D01*
X210151Y153008D01*
X210467Y152755D01*
X210777Y152494D01*
X211081Y152226D01*
X211377Y151950D01*
X211667Y151667D01*
X211950Y151377D01*
X212226Y151081D01*
X212494Y150777D01*
X212755Y150467D01*
X213008Y150151D01*
X213253Y149829D01*
X213490Y149501D01*
X213719Y149167D01*
X213940Y148827D01*
X214153Y148483D01*
X214356Y148133D01*
X214552Y147778D01*
X214738Y147419D01*
X214916Y147055D01*
X215084Y146686D01*
X215244Y146314D01*
X215394Y145938D01*
X215535Y145559D01*
X215667Y145176D01*
X215790Y144790D01*
X215902Y144401D01*
X216006Y144009D01*
X216099Y143615D01*
X216183Y143219D01*
X216257Y142821D01*
X216321Y142421D01*
X216376Y142020D01*
X216421Y141617D01*
X216455Y141214D01*
X216480Y140810D01*
X216495Y140405D01*
X216500Y140000D01*
X216495Y139595D01*
X216480Y139190D01*
X216455Y138786D01*
X216421Y138383D01*
X216376Y137980D01*
X216321Y137579D01*
X216257Y137179D01*
X216183Y136781D01*
X216099Y136385D01*
X216006Y135991D01*
X215902Y135599D01*
X215790Y135210D01*
X215667Y134824D01*
X215535Y134441D01*
X215394Y134062D01*
X215244Y133686D01*
X215084Y133314D01*
X214916Y132945D01*
X214738Y132581D01*
X214552Y132222D01*
X214356Y131867D01*
X214153Y131517D01*
X213940Y131173D01*
X213719Y130833D01*
X213490Y130499D01*
X213253Y130171D01*
X213008Y129849D01*
X212755Y129533D01*
X212494Y129223D01*
X212226Y128919D01*
X211950Y128623D01*
X211667Y128333D01*
X211377Y128050D01*
X211081Y127774D01*
X210777Y127506D01*
X210467Y127245D01*
X210151Y126992D01*
X209829Y126747D01*
X209501Y126510D01*
X209167Y126281D01*
X208827Y126060D01*
X208483Y125847D01*
X208133Y125644D01*
X207778Y125448D01*
X207419Y125262D01*
X207055Y125084D01*
X206686Y124916D01*
X206314Y124756D01*
X205938Y124606D01*
X205559Y124465D01*
X205176Y124333D01*
X204790Y124210D01*
X204401Y124098D01*
X204009Y123994D01*
X203615Y123901D01*
X203219Y123817D01*
X202821Y123743D01*
X202421Y123679D01*
X202020Y123624D01*
X201617Y123579D01*
X201214Y123545D01*
X200810Y123520D01*
X200405Y123505D01*
X200000Y123500D01*
X199595Y123505D01*
X199190Y123520D01*
X198786Y123545D01*
X198383Y123579D01*
X197980Y123624D01*
X197579Y123679D01*
X197179Y123743D01*
X196781Y123817D01*
X196385Y123901D01*
X195991Y123994D01*
X195599Y124098D01*
X195210Y124210D01*
X194824Y124333D01*
X194441Y124465D01*
X194062Y124606D01*
X193686Y124756D01*
X193314Y124916D01*
X192945Y125084D01*
X192581Y125262D01*
X192222Y125448D01*
X191867Y125644D01*
X191517Y125847D01*
X191173Y126060D01*
X190833Y126281D01*
X190499Y126510D01*
X190171Y126747D01*
X189849Y126992D01*
X189533Y127245D01*
X189223Y127506D01*
X188919Y127774D01*
X188623Y128050D01*
X188333Y128333D01*
X188050Y128623D01*
X187774Y128919D01*
X187506Y129223D01*
X187245Y129533D01*
X186992Y129849D01*
X186747Y130171D01*
X186510Y130499D01*
X186281Y130833D01*
X186060Y131173D01*
X185847Y131517D01*
X185644Y131867D01*
X185448Y132222D01*
X185262Y132581D01*
X185084Y132945D01*
X184916Y133314D01*
X184756Y133686D01*
X184606Y134062D01*
X184465Y134441D01*
X184333Y134824D01*
X184210Y135210D01*
X184098Y135599D01*
X183994Y135991D01*
X183901Y136385D01*
X183817Y136781D01*
X183743Y137179D01*
X183679Y137579D01*
X183624Y137980D01*
X183579Y138383D01*
X183545Y138786D01*
X183520Y139190D01*
X183505Y139595D01*
X183500Y140000D01*
X783500Y140000D02*
X783505Y140405D01*
X783520Y140810D01*
X783545Y141214D01*
X783579Y141617D01*
X783624Y142020D01*
X783679Y142421D01*
X783743Y142821D01*
X783817Y143219D01*
X783901Y143615D01*
X783994Y144009D01*
X784098Y144401D01*
X784210Y144790D01*
X784333Y145176D01*
X784465Y145559D01*
X784606Y145938D01*
X784756Y146314D01*
X784916Y146686D01*
X785084Y147055D01*
X785262Y147419D01*
X785448Y147778D01*
X785644Y148133D01*
X785847Y148483D01*
X786060Y148827D01*
X786281Y149167D01*
X786510Y149501D01*
X786747Y149829D01*
X786992Y150151D01*
X787245Y150467D01*
X787506Y150777D01*
X787774Y151081D01*
X788050Y151377D01*
X788333Y151667D01*
X788623Y151950D01*
X788919Y152226D01*
X789223Y152494D01*
X789533Y152755D01*
X789849Y153008D01*
X790171Y153253D01*
X790499Y153490D01*
X790833Y153719D01*
X791173Y153940D01*
X791517Y154153D01*
X791867Y154356D01*
X792222Y154552D01*
X792581Y154738D01*
X792945Y154916D01*
X793314Y155084D01*
X793686Y155244D01*
X794062Y155394D01*
X794441Y155535D01*
X794824Y155667D01*
X795210Y155790D01*
X795599Y155902D01*
X795991Y156006D01*
X796385Y156099D01*
X796781Y156183D01*
X797179Y156257D01*
X797579Y156321D01*
X797980Y156376D01*
X798383Y156421D01*
X798786Y156455D01*
X799190Y156480D01*
X799595Y156495D01*
X800000Y156500D01*
X800405Y156495D01*
X800810Y156480D01*
X801214Y156455D01*
X801617Y156421D01*
X802020Y156376D01*
X802421Y156321D01*
X802821Y156257D01*
X803219Y156183D01*
X803615Y156099D01*
X804009Y156006D01*
X804401Y155902D01*
X804790Y155790D01*
X805176Y155667D01*
X805559Y155535D01*
X805938Y155394D01*
X806314Y155244D01*
X806686Y155084D01*
X807055Y154916D01*
X807419Y154738D01*
X807778Y154552D01*
X808133Y154356D01*
X808483Y154153D01*
X808827Y153940D01*
X809167Y153719D01*
X809501Y153490D01*
X809829Y153253D01*
X810151Y153008D01*
X810467Y152755D01*
X810777Y152494D01*
X811081Y152226D01*
X811377Y151950D01*
X811667Y151667D01*
X811950Y151377D01*
X812226Y151081D01*
X812494Y150777D01*
X812755Y150467D01*
X813008Y150151D01*
X813253Y149829D01*
X813490Y149501D01*
X813719Y149167D01*
X813940Y148827D01*
X814153Y148483D01*
X814356Y148133D01*
X814552Y147778D01*
X814738Y147419D01*
X814916Y147055D01*
X815084Y146686D01*
X815244Y146314D01*
X815394Y145938D01*
X815535Y145559D01*
X815667Y145176D01*
X815790Y144790D01*
X815902Y144401D01*
X816006Y144009D01*
X816099Y143615D01*
X816183Y143219D01*
X816257Y142821D01*
X816321Y142421D01*
X816376Y142020D01*
X816421Y141617D01*
X816455Y141214D01*
X816480Y140810D01*
X816495Y140405D01*
X816500Y140000D01*
X816495Y139595D01*
X816480Y139190D01*
X816455Y138786D01*
X816421Y138383D01*
X816376Y137980D01*
X816321Y137579D01*
X816257Y137179D01*
X816183Y136781D01*
X816099Y136385D01*
X816006Y135991D01*
X815902Y135599D01*
X815790Y135210D01*
X815667Y134824D01*
X815535Y134441D01*
X815394Y134062D01*
X815244Y133686D01*
X815084Y133314D01*
X814916Y132945D01*
X814738Y132581D01*
X814552Y132222D01*
X814356Y131867D01*
X814153Y131517D01*
X813940Y131173D01*
X813719Y130833D01*
X813490Y130499D01*
X813253Y130171D01*
X813008Y129849D01*
X812755Y129533D01*
X812494Y129223D01*
X812226Y128919D01*
X811950Y128623D01*
X811667Y128333D01*
X811377Y128050D01*
X811081Y127774D01*
X810777Y127506D01*
X810467Y127245D01*
X810151Y126992D01*
X809829Y126747D01*
X809501Y126510D01*
X809167Y126281D01*
X808827Y126060D01*
X808483Y125847D01*
X808133Y125644D01*
X807778Y125448D01*
X807419Y125262D01*
X807055Y125084D01*
X806686Y124916D01*
X806314Y124756D01*
X805938Y124606D01*
X805559Y124465D01*
X805176Y124333D01*
X804790Y124210D01*
X804401Y124098D01*
X804009Y123994D01*
X803615Y123901D01*
X803219Y123817D01*
X802821Y123743D01*
X802421Y123679D01*
X802020Y123624D01*
X801617Y123579D01*
X801214Y123545D01*
X800810Y123520D01*
X800405Y123505D01*
X800000Y123500D01*
X799595Y123505D01*
X799190Y123520D01*
X798786Y123545D01*
X798383Y123579D01*
X797980Y123624D01*
X797579Y123679D01*
X797179Y123743D01*
X796781Y123817D01*
X796385Y123901D01*
X795991Y123994D01*
X795599Y124098D01*
X795210Y124210D01*
X794824Y124333D01*
X794441Y124465D01*
X794062Y124606D01*
X793686Y124756D01*
X793314Y124916D01*
X792945Y125084D01*
X792581Y125262D01*
X792222Y125448D01*
X791867Y125644D01*
X791517Y125847D01*
X791173Y126060D01*
X790833Y126281D01*
X790499Y126510D01*
X790171Y126747D01*
X789849Y126992D01*
X789533Y127245D01*
X789223Y127506D01*
X788919Y127774D01*
X788623Y128050D01*
X788333Y128333D01*
X788050Y128623D01*
X787774Y128919D01*
X787506Y129223D01*
X787245Y129533D01*
X786992Y129849D01*
X786747Y130171D01*
X786510Y130499D01*
X786281Y130833D01*
X786060Y131173D01*
X785847Y131517D01*
X785644Y131867D01*
X785448Y132222D01*
X785262Y132581D01*
X785084Y132945D01*
X784916Y133314D01*
X784756Y133686D01*
X784606Y134062D01*
X784465Y134441D01*
X784333Y134824D01*
X784210Y135210D01*
X784098Y135599D01*
X783994Y135991D01*
X783901Y136385D01*
X783817Y136781D01*
X783743Y137179D01*
X783679Y137579D01*
X783624Y137980D01*
X783579Y138383D01*
X783545Y138786D01*
X783520Y139190D01*
X783505Y139595D01*
X783500Y140000D01*
D12*
X1000000Y493864D02*
X1000000Y506136D01*
X999699Y518405D01*
X999097Y530663D01*
X998194Y542902D01*
X996991Y555115D01*
X995489Y567295D01*
X993688Y579435D01*
X991590Y591527D01*
X989196Y603564D01*
X986507Y615538D01*
X983525Y627442D01*
X980251Y639270D01*
X976689Y651014D01*
X972839Y662667D01*
X968705Y674222D01*
X964288Y685673D01*
X959592Y697011D01*
X954618Y708230D01*
X949371Y719325D01*
X943853Y730287D01*
X938068Y741110D01*
X932019Y751788D01*
X925710Y762315D01*
X919144Y772683D01*
X912326Y782887D01*
X905259Y792921D01*
X897948Y802778D01*
X890398Y812453D01*
X882612Y821940D01*
X874596Y831233D01*
X866355Y840326D01*
X857892Y849214D01*
X849214Y857892D01*
X840326Y866355D01*
X831233Y874596D01*
X821940Y882612D01*
X812453Y890398D01*
X802778Y897948D01*
X792921Y905259D01*
X782887Y912326D01*
X772683Y919144D01*
X762315Y925710D01*
X751788Y932019D01*
X741110Y938068D01*
X730287Y943853D01*
X719325Y949371D01*
X708230Y954618D01*
X697011Y959592D01*
X685673Y964288D01*
X674222Y968705D01*
X662667Y972839D01*
X651014Y976689D01*
X639270Y980251D01*
X627442Y983525D01*
X615538Y986507D01*
X603564Y989196D01*
X591527Y991590D01*
X579435Y993688D01*
X567295Y995489D01*
X555115Y996991D01*
X542902Y998194D01*
X530663Y999097D01*
X518405Y999699D01*
X506136Y1000000D01*
X493864Y1000000D01*
X481595Y999699D01*
X469337Y999097D01*
X457098Y998194D01*
X444885Y996991D01*
X432705Y995489D01*
X420565Y993688D01*
X408473Y991590D01*
X396437Y989196D01*
X384462Y986507D01*
X372558Y983525D01*
X360730Y980251D01*
X348986Y976689D01*
X337333Y972839D01*
X325778Y968705D01*
X314327Y964288D01*
X302989Y959592D01*
X291770Y954618D01*
X280675Y949371D01*
X269713Y943853D01*
X258890Y938068D01*
X248212Y932019D01*
X237685Y925710D01*
X227317Y919144D01*
X217113Y912326D01*
X207079Y905259D01*
X197222Y897948D01*
X187547Y890398D01*
X178060Y882612D01*
X168767Y874596D01*
X159674Y866355D01*
X150786Y857892D01*
X142108Y849214D01*
X133645Y840326D01*
X125404Y831233D01*
X117388Y821940D01*
X109602Y812453D01*
X102052Y802778D01*
X94741Y792921D01*
X87674Y782887D01*
X80856Y772683D01*
X74290Y762315D01*
X67981Y751788D01*
X61932Y741110D01*
X56147Y730287D01*
X50629Y719325D01*
X45382Y708230D01*
X40408Y697011D01*
X35712Y685673D01*
X31295Y674222D01*
X27161Y662667D01*
X23311Y651014D01*
X19749Y639270D01*
X16475Y627442D01*
X13493Y615538D01*
X10804Y603564D01*
X8410Y591527D01*
X6312Y579435D01*
X4511Y567295D01*
X3009Y555115D01*
X1806Y542902D01*
X903Y530663D01*
X301Y518405D01*
X0Y506136D01*
X0Y493864D01*
X301Y481595D01*
X903Y469337D01*
X1806Y457098D01*
X3009Y444885D01*
X4511Y432705D01*
X6312Y420565D01*
X8410Y408473D01*
X10804Y396437D01*
X13493Y384462D01*
X16475Y372558D01*
X19749Y360730D01*
X23311Y348986D01*
X27161Y337333D01*
X31295Y325778D01*
X35712Y314327D01*
X40408Y302989D01*
X45382Y291770D01*
X50629Y280675D01*
X56147Y269713D01*
X61932Y258890D01*
X67981Y248212D01*
X74290Y237685D01*
X80856Y227317D01*
X87674Y217113D01*
X94741Y207079D01*
X102052Y197222D01*
X109602Y187547D01*
X117388Y178060D01*
X125404Y168767D01*
X133645Y159674D01*
X142108Y150786D01*
X150786Y142108D01*
X159674Y133645D01*
X168767Y125404D01*
X178060Y117388D01*
X187547Y109602D01*
X197222Y102052D01*
X207079Y94741D01*
X217113Y87674D01*
X227317Y80856D01*
X237685Y74290D01*
X248212Y67981D01*
X258890Y61932D01*
X269713Y56147D01*
X280675Y50629D01*
X291770Y45382D01*
X302989Y40408D01*
X314327Y35712D01*
X325778Y31295D01*
X337333Y27161D01*
X348986Y23311D01*
X360730Y19749D01*
X372558Y16475D01*
X384462Y13493D01*
X396437Y10804D01*
X408473Y8410D01*
X420565Y6312D01*
X432705Y4511D01*
X444885Y3009D01*
X457098Y1806D01*
X469337Y903D01*
X481595Y301D01*
X493864Y0D01*
X506136Y0D01*
X518405Y301D01*
X530663Y903D01*
X542902Y1806D01*
X555115Y3009D01*
X567295Y4511D01*
X579435Y6312D01*
X591527Y8410D01*
X603564Y10804D01*
X615538Y13493D01*
X627442Y16475D01*
X639270Y19749D01*
X651014Y23311D01*
X662667Y27161D01*
X674222Y31295D01*
X685673Y35712D01*
X697011Y40408D01*
X708230Y45382D01*
X719325Y50629D01*
X730287Y56147D01*
X741110Y61932D01*
X751788Y67981D01*
X762315Y74290D01*
X772683Y80856D01*
X782887Y87674D01*
X792921Y94741D01*
X802778Y102052D01*
X812453Y109602D01*
X821940Y117388D01*
X831233Y125404D01*
X840326Y133645D01*
X849214Y142108D01*
X857892Y150786D01*
X866355Y159674D01*
X874596Y168767D01*
X882612Y178060D01*
X890398Y187547D01*
X897948Y197222D01*
X905259Y207079D01*
X912326Y217113D01*
X919144Y227317D01*
X925710Y237685D01*
X932019Y248212D01*
X938068Y258890D01*
X943853Y269713D01*
X949371Y280675D01*
X954618Y291770D01*
X959592Y302989D01*
X964288Y314327D01*
X968705Y325778D01*
X972839Y337333D01*
X976689Y348986D01*
X980251Y360730D01*
X983525Y372558D01*
X986507Y384462D01*
X989196Y396437D01*
X991590Y408473D01*
X993688Y420565D01*
X995489Y432705D01*
X996991Y444885D01*
X998194Y457098D01*
X999097Y469337D01*
X999699Y481595D01*
X1000000Y493864D01*
X216500Y139460D02*
X216429Y138382D01*
X216288Y137311D01*
X216078Y136251D01*
X215798Y135208D01*
X215451Y134185D01*
X215037Y133187D01*
X214560Y132218D01*
X214019Y131282D01*
X213419Y130384D01*
X212762Y129527D01*
X212049Y128715D01*
X211285Y127951D01*
X210473Y127239D01*
X209616Y126581D01*
X208718Y125981D01*
X207782Y125441D01*
X206813Y124963D01*
X205815Y124549D01*
X204792Y124202D01*
X203749Y123922D01*
X202689Y123712D01*
X201618Y123571D01*
X200540Y123500D01*
X199460Y123500D01*
X198382Y123571D01*
X197311Y123712D01*
X196251Y123922D01*
X195208Y124202D01*
X194185Y124549D01*
X193187Y124963D01*
X192218Y125441D01*
X191282Y125981D01*
X190384Y126581D01*
X189527Y127239D01*
X188715Y127951D01*
X187951Y128715D01*
X187239Y129527D01*
X186581Y130384D01*
X185981Y131282D01*
X185441Y132218D01*
X184963Y133187D01*
X184549Y134185D01*
X184202Y135208D01*
X183922Y136251D01*
X183712Y137311D01*
X183571Y138382D01*
X183500Y139460D01*
X183500Y140540D01*
X183571Y141618D01*
X183712Y142689D01*
X183922Y143749D01*
X184202Y144792D01*
X184549Y145815D01*
X184963Y146813D01*
X185441Y147782D01*
X185981Y148718D01*
X186581Y149616D01*
X187239Y150473D01*
X187951Y151285D01*
X188715Y152049D01*
X189527Y152762D01*
X190384Y153419D01*
X191282Y154019D01*
X192218Y154560D01*
X193187Y155037D01*
X194185Y155451D01*
X195208Y155798D01*
X196251Y156078D01*
X197311Y156288D01*
X198382Y156429D01*
X199460Y156500D01*
X200540Y156500D01*
X201618Y156429D01*
X202689Y156288D01*
X203749Y156078D01*
X204792Y155798D01*
X205815Y155451D01*
X206813Y155037D01*
X207782Y154560D01*
X208718Y154019D01*
X209616Y153419D01*
X210473Y152762D01*
X211285Y152049D01*
X212049Y151285D01*
X212762Y150473D01*
X213419Y149616D01*
X214019Y148718D01*
X214560Y147782D01*
X215037Y146813D01*
X215451Y145815D01*
X215798Y144792D01*
X216078Y143749D01*
X216288Y142689D01*
X216429Y141618D01*
X216500Y140540D01*
X216500Y139460D01*
X816500Y139460D02*
X816429Y138382D01*
X816288Y137311D01*
X816078Y136251D01*
X815798Y135208D01*
X815451Y134185D01*
X815037Y133187D01*
X814560Y132218D01*
X814019Y131282D01*
X813419Y130384D01*
X812762Y129527D01*
X812049Y128715D01*
X811285Y127951D01*
X810473Y127239D01*
X809616Y126581D01*
X808718Y125981D01*
X807782Y125441D01*
X806813Y124963D01*
X805815Y124549D01*
X804792Y124202D01*
X803749Y123922D01*
X802689Y123712D01*
X801618Y123571D01*
X800540Y123500D01*
X799460Y123500D01*
X798382Y123571D01*
X797311Y123712D01*
X796251Y123922D01*
X795208Y124202D01*
X794185Y124549D01*
X793187Y124963D01*
X792218Y125441D01*
X791282Y125981D01*
X790384Y126581D01*
X789527Y127239D01*
X788715Y127951D01*
X787951Y128715D01*
X787239Y129527D01*
X786581Y130384D01*
X785981Y131282D01*
X785441Y132218D01*
X784963Y133187D01*
X784549Y134185D01*
X784202Y135208D01*
X783922Y136251D01*
X783712Y137311D01*
X783571Y138382D01*
X783500Y139460D01*
X783500Y140540D01*
X783571Y141618D01*
X783712Y142689D01*
X783922Y143749D01*
X784202Y144792D01*
X784549Y145815D01*
X784963Y146813D01*
X785441Y147782D01*
X785981Y148718D01*
X786581Y149616D01*
X787239Y150473D01*
X787951Y151285D01*
X788715Y152049D01*
X789527Y152762D01*
X790384Y153419D01*
X791282Y154019D01*
X792218Y154560D01*
X793187Y155037D01*
X794185Y155451D01*
X795208Y155798D01*
X796251Y156078D01*
X797311Y156288D01*
X798382Y156429D01*
X799460Y156500D01*
X800540Y156500D01*
X801618Y156429D01*
X802689Y156288D01*
X803749Y156078D01*
X804792Y155798D01*
X805815Y155451D01*
X806813Y155037D01*
X807782Y154560D01*
X808718Y154019D01*
X809616Y153419D01*
X810473Y152762D01*
X811285Y152049D01*
X812049Y151285D01*
X812762Y150473D01*
X813419Y149616D01*
X814019Y148718D01*
X814560Y147782D01*
X815037Y146813D01*
X815451Y145815D01*
X815798Y144792D01*
X816078Y143749D01*
X816288Y142689D01*
X816429Y141618D01*
X816500Y140540D01*
X816500Y139460D01*
M02*
