M48
;GenerationSoftware,Autodesk,EAGLE,9.6.2*%
;CreationDate,2022-10-12T17:15:46Z*%
FMAT,2
ICI,OFF
METRIC,TZ,000.000
T3C0.350
T2C1.600
T1C3.300
%
G90
M71
T1
X20000Y14000
X80000Y14000
T2
X12000Y39000
X88000Y39000
T3
X65200Y57600
X65200Y51600
X65200Y45600
X65200Y39600
X34800Y39700
X34700Y45600
X34800Y51600
X34700Y57600
X26000Y74000
X39000Y46000
X41000Y67000
X97000Y44000
X49000Y42000
X52000Y47000
X54000Y43000
X54000Y41000
X72000Y46000
X61360Y58000
X60000Y44000
X66400Y63700
X69000Y64000
X30900Y80000
X3000Y55000
X38000Y81000
X46000Y68000
X48600Y73400
X51200Y76500
M30